<svg id="Layer_1" data-name="Layer 1" xmlns="http://www.w3.org/2000/svg" viewBox="0 0 275.64 227.77"><title>adultClasses</title><path d="M696.1,361.89H710a24.62,24.62,0,0,0,.74,6.92l-.74,4.32-7.09,2.67-6.83-2.67c0-1.49-.5-2.84-.5-4.33A53.58,53.58,0,0,0,696.1,361.89Z" transform="translate(-666.36 -332.71)" fill="#f0c17d" fill-rule="evenodd"/><path d="M687.55,544.77l-3.9,4.75-5.84,5.32c-.6.44-.76,3.28.3,3.12l6,.47a11.3,11.3,0,0,0,5.71-1.48c1.26-.65,2.49-1.73,4.07-2.74l.68,1.3,5.68-2,.14-4c.71-4.27-.94-5-1.51-7.93l-9.92.22Z" transform="translate(-666.36 -332.71)" fill="#643112" fill-rule="evenodd"/><path d="M718.88,544.84l3.9,4.76,5.84,5.31c.6.44.77,3.28-.3,3.12l-6,.47a11.2,11.2,0,0,1-5.71-1.48c-1.26-.64-2.49-1.73-4.07-2.74l-.68,1.3-5.68-2-.14-4c-.71-4.27.93-5,1.51-7.93l9.92.21Z" transform="translate(-666.36 -332.71)" fill="#3d1d0a" fill-rule="evenodd"/><path d="M694.06,545.89l-.28.05-6.72-1.6-4.57-82.93a71.65,71.65,0,0,1,.47-15l1.87-15.11c23.22-3.09,13.72-3.09,36.91,0l1.66,13.38a84.24,84.24,0,0,1,.61,17.74l-4.54,80.51-6.69,2h0l-.09,0-.66-.09-6.78-.64-.72-85-1.14-.37h0l-1.33.38-1.22,85.41L694.06,546Z" transform="translate(-666.36 -332.71)" fill="#ffa000" fill-rule="evenodd"/><path d="M713.84,430.2c2.13.3,4.7.67,7.9,1.1l1.66,13.38a84.24,84.24,0,0,1,.61,17.74l-4.54,80.51-6.34,1.93q1.39-36.87,3.17-73.68a147.62,147.62,0,0,0-1.07-23.69c-.59-5.69-1-11.08-1.35-16.52Z" transform="translate(-666.36 -332.71)" fill="#f98204" fill-rule="evenodd"/><path d="M729.42,387.74c-2.55,10.37-5.94,17.63-6.85,28.31-.56,6.49-.11,16.55.33,23.57l-25.08-5.19-14,5.19c.38-7,.75-17.08.15-23.57-1-10.68-4.45-17.94-7.07-28.31-1.8-7.11-1-12.4,6.73-14.6,5.8-1.66,7.27-.67,10.07-2.68a9.1,9.1,0,0,0,1.9-2.82c3.08,5.32,11,5.18,15,0a9,9,0,0,0,1.92,2.82c2.81,2,4.28,1,10.09,2.68C730.27,375.34,731.16,380.63,729.42,387.74Z" transform="translate(-666.36 -332.71)" fill="#0f4283" fill-rule="evenodd"/><path d="M722.57,416h0c-.56,6.49-.11,16.55.33,23.57H683.79c.38-7,.75-17.08.15-23.57,0-.33-.07-.67-.1-1,2.79-10.26,3.71-22.13.35-42.08,3.72-1,5.56-.88,7.25-1.38,3,10,3,18.39,4.51,28.89,4.68.22,8.72.15,13.41,0a175.48,175.48,0,0,1,4.21-29.35c2.13,1.08,3.86.61,8.47,1.86C720,388.8,717.72,403.77,722.57,416Z" transform="translate(-666.36 -332.71)" fill="#ffa000" fill-rule="evenodd"/><path d="M729.42,387.74c-2.55,10.37-5.94,17.63-6.85,28.31-.56,6.49-.11,16.55.33,23.57h-8.41c-.24-2.9-.44-5.77-.61-8.65-1.16-20.88,1.78-38.25,4.72-58.73a36.05,36.05,0,0,1,4,.9C730.27,375.34,731.16,380.63,729.42,387.74Z" transform="translate(-666.36 -332.71)" fill="#072c5e" fill-rule="evenodd"/><path d="M722.57,416h0c-.56,6.49-.11,16.55.33,23.57h-8.41c-.24-2.9-.44-5.77-.61-8.65-1.16-20.88,1.78-38.25,4.72-58.73.95.16,2.07.38,3.44.75C720,388.8,717.72,403.77,722.57,416Z" transform="translate(-666.36 -332.71)" fill="#f98204" fill-rule="evenodd"/><path d="M728,376.86c1.44.13,2.11,3.66,2.82,8.13.89,5.62,2.44,17.88,3.48,26,.79,6.11-2.07,10.18-3.86,10.48s-6.61-1.69-7.51-5.38c-1.09-4.49-1.65-9.78-2.71-15C720.6,394.08,724.18,378.91,728,376.86Z" transform="translate(-666.36 -332.71)" fill="#072c5e" fill-rule="evenodd"/><path d="M678.16,376.86c-1.44.13-2.12,3.66-2.82,8.13-.89,5.62-2.44,17.88-3.48,26-.78,6.11,2.08,10.18,3.87,10.48s6.61-1.69,7.5-5.38c1.09-4.49,1.65-9.78,2.71-15C685.53,394.08,681.94,378.91,678.16,376.86Z" transform="translate(-666.36 -332.71)" fill="#0f4283" fill-rule="evenodd"/><path d="M703.27,342c11.82,0,21.5,4.81,21.4,10.73-.09,4.84-10.7,9.13-21.33,9.15s-21.54-4.26-21.46-9.15C682,346.77,691.46,342,703.27,342Z" transform="translate(-666.36 -332.71)" fill="#ffa000" fill-rule="evenodd"/><path d="M703.45,367.4h-.12a6.86,6.86,0,0,1-2.84-.34c-.73-.31-1.09-1-2.1-2-.85-.82-2.39-1.67-2.77-2.57a15.52,15.52,0,0,1-.54-3.87c-.79.43-1.65-1.84-1.82-2.59-.24-1.1-1-3-1.28-4.23-.15-.72-.06-1.29.18-1.47.52-.39,1.05-.18,1.82.87,0-.89.1-1.8.07-2.78a24.72,24.72,0,0,1,.12-4.6,5.44,5.44,0,0,1,1.78-3.3h0a9.36,9.36,0,0,1,2-1.32h0l.14-.07.08,0,.11,0,.11-.05.12-.05.11-.05.15-.06.08,0,.22-.08h0a12.71,12.71,0,0,1,6.13-.59,10.44,10.44,0,0,1,5.41,2.38,5.38,5.38,0,0,1,1.77,3.29,23.66,23.66,0,0,1,.13,4.59c0,1,0,1.89.08,2.79.76-1,1.29-1.22,1.8-.84.24.18.33.75.18,1.47-.24,1.26-1,3.13-1.29,4.23-.16.74-1,3-1.79,2.6a14.24,14.24,0,0,1-.52,3.78c-.37.9-1.9,1.76-2.75,2.59-1,1-1.36,1.7-2.08,2A6.38,6.38,0,0,1,703.45,367.4Z" transform="translate(-666.36 -332.71)" fill="#ffdba7" fill-rule="evenodd"/><path d="M696.69,342.45c-.67.78-2.37,6.14-2.14,11.26-2.26-8-3.47-13.71,1.43-17.31,6.44-4.73,14.22-1.69,14.85.12,5.15,1.77,3.08,9.73,1.66,16.07a21.34,21.34,0,0,0-2.36-9.9c-.39-.37-2.06,1.75-2.45,1.72C703.87,344.17,702.54,343.36,696.69,342.45Z" transform="translate(-666.36 -332.71)" fill="#632404" fill-rule="evenodd"/><path d="M697.8,332.71h10.91c2.83,0,4.56,2.5,5.14,5.41L715,344c-6.83-2.58-18.7-1.42-23.53-.19l1.15-5.67C693.25,335.21,695,332.71,697.8,332.71Z" transform="translate(-666.36 -332.71)" fill="#ffa000" fill-rule="evenodd"/><path d="M703.27,342c11.82,0,21.4,4.8,21.4,10.73a5.7,5.7,0,0,1-.34,1.91c2.47-15.2-44.07-14.94-42.11,0a5.7,5.7,0,0,1-.34-1.91C681.88,346.76,691.46,342,703.27,342Z" transform="translate(-666.36 -332.71)" fill="#f98204" fill-rule="evenodd"/><path d="M717.56,381.54a3.64,3.64,0,0,0-2.36,3c-.24,3,1.31,4.33,1.39,6.87s-.77,4.75.14,7.11a8.17,8.17,0,0,0,3.81,4.41,6.08,6.08,0,0,0,4.46,0,19.31,19.31,0,0,0,3.08-2c1.33-.63,2.73-.93,3.79-1.85a5.9,5.9,0,0,0,2-3.36,8.18,8.18,0,0,0-1.6-5.61c-1.48-2.05-3.8-2.56-5.87-4s-2.37-3.5-5-4.93A3.72,3.72,0,0,0,717.56,381.54Z" transform="translate(-666.36 -332.71)" fill="#fbab18" fill-rule="evenodd"/><path d="M717.56,381.54a3.64,3.64,0,0,0-2.36,3c-.24,3,1.31,4.33,1.39,6.87s-.77,4.75.14,7.11a8.17,8.17,0,0,0,3.81,4.41,6.08,6.08,0,0,0,4.46,0,19.31,19.31,0,0,0,3.08-2l-10.5-19.43Z" transform="translate(-666.36 -332.71)" fill="#ffca08" fill-rule="evenodd"/><path d="M717.58,382.06c-1.23-3.74,1.79-3.5,2.62-5.52a2,2,0,0,1,.48,1.1c-1.16,1.2-3.52,1.33-2.58,4.26C718.12,382.07,717.65,382.2,717.58,382.06Z" transform="translate(-666.36 -332.71)" fill="#803f24" fill-rule="evenodd"/><path d="M717.53,381.83a4.51,4.51,0,0,0-2-1.38c-1.52-.66-2.27.09-4.72,1.63.83-3.21,3.7-5.27,5.73-2.49A8,8,0,0,1,717.53,381.83Z" transform="translate(-666.36 -332.71)" fill="#889c29" fill-rule="evenodd"/><path d="M718.07,381.93a2.77,2.77,0,0,1,.62-1.35c.6-.83,1.24-.66,3-.61-1.45-1.45-3.63-1.65-3.84.46A4.52,4.52,0,0,0,718.07,381.93Z" transform="translate(-666.36 -332.71)" fill="#889c29" fill-rule="evenodd"/><path d="M717.53,381.83c-2.37-4.25-4.93-2.67-6.68.25.83-3.21,3.7-5.26,5.73-2.5A8.19,8.19,0,0,1,717.53,381.83Z" transform="translate(-666.36 -332.71)" fill="#778820" fill-rule="evenodd"/><path d="M718.07,381.93c.22-3.1,1.41-3.14,3.65-2-1.45-1.45-3.63-1.65-3.84.46A4.52,4.52,0,0,0,718.07,381.93Z" transform="translate(-666.36 -332.71)" fill="#778820" fill-rule="evenodd"/><path d="M681.58,387.92c1.62-1,3.4-.69,5.09.55a9.33,9.33,0,0,1,3.4,5.61,8.42,8.42,0,0,1-4.54,9.16c-1.12.6-3.32.79-4,.19-.69.6-2.94.34-3.91-.17a8.44,8.44,0,0,1-4.57-9.18,9.34,9.34,0,0,1,3.41-5.61C678.19,387.23,680,387,681.58,387.92Z" transform="translate(-666.36 -332.71)" fill="#fbab18" fill-rule="evenodd"/><path d="M681.58,403.44h0c-.69.6-2.94.34-3.91-.17a8.44,8.44,0,0,1-4.57-9.18,9.34,9.34,0,0,1,3.41-5.61c1.69-1.24,3.46-1.52,5.08-.55Z" transform="translate(-666.36 -332.71)" fill="#ffca08" fill-rule="evenodd"/><path d="M678.72,384.84c1.74,1.36,2.8,2.16,2.73,4.61a.39.39,0,0,1-.59,0c.06-2.15-.83-2.46-2.35-3.65A2.42,2.42,0,0,1,678.72,384.84Z" transform="translate(-666.36 -332.71)" fill="#803f24" fill-rule="evenodd"/><path d="M686.41,380.15c-.26,2.5.05,3.74-2.62,4.63-2.3.76-3.68-.16-3.64,1.53-1.22-1.93.09-3.95,2-4.94C682.89,381,685.57,380.93,686.41,380.15Z" transform="translate(-666.36 -332.71)" fill="#889c29" fill-rule="evenodd"/><path d="M686.41,380.15c-.93,3.38-7.08,2.64-6.26,6.16-1.22-1.93.09-3.95,2-4.94C682.89,381,685.57,380.93,686.41,380.15Z" transform="translate(-666.36 -332.71)" fill="#778820" fill-rule="evenodd"/><path d="M700.87,383.49a3.63,3.63,0,0,0-3.51,1.53c-1.62,2.5-.9,4.44-2,6.71s-2.94,3.82-3.26,6.32a8.2,8.2,0,0,0,1.25,5.69,6.08,6.08,0,0,0,3.93,2.11,18.34,18.34,0,0,0,3.66-.28c1.46.08,2.84.49,4.21.17a5.91,5.91,0,0,0,3.37-2,8.14,8.14,0,0,0,1.25-5.69c-.32-2.5-2.12-4.05-3.26-6.32s-.41-4.21-2-6.71A3.74,3.74,0,0,0,700.87,383.49Z" transform="translate(-666.36 -332.71)" fill="#fbab18" fill-rule="evenodd"/><path d="M700.87,383.49a3.63,3.63,0,0,0-3.51,1.53c-1.62,2.5-.9,4.44-2,6.71s-2.94,3.82-3.26,6.32a8.2,8.2,0,0,0,1.25,5.69,6.08,6.08,0,0,0,3.93,2.11,18.34,18.34,0,0,0,3.66-.28V383.49Z" transform="translate(-666.36 -332.71)" fill="#ffca08" fill-rule="evenodd"/><path d="M700.64,384c.7-3.87,3.25-2.23,4.93-3.6a2.05,2.05,0,0,1-.1,1.19c-1.6.5-3.73-.5-4.29,2.52C701.11,384.22,700.64,384.11,700.64,384Z" transform="translate(-666.36 -332.71)" fill="#803f24" fill-rule="evenodd"/><path d="M700.71,383.72a4.57,4.57,0,0,0-1.07-2.14c-1-1.3-2-1-4.93-.81,2.25-2.43,5.75-2.87,6.22.53A7.65,7.65,0,0,1,700.71,383.72Z" transform="translate(-666.36 -332.71)" fill="#889c29" fill-rule="evenodd"/><path d="M701.13,384.07a2.84,2.84,0,0,1,1.19-.89c.92-.45,1.4,0,2.95.9-.58-2-2.4-3.17-3.6-1.42A5.22,5.22,0,0,0,701.13,384.07Z" transform="translate(-666.36 -332.71)" fill="#889c29" fill-rule="evenodd"/><path d="M700.71,383.72c-.06-4.86-3.08-4.69-6-3,2.25-2.43,5.75-2.87,6.22.53A7.65,7.65,0,0,1,700.71,383.72Z" transform="translate(-666.36 -332.71)" fill="#778820" fill-rule="evenodd"/><path d="M701.13,384.07c1.67-2.62,2.73-2.09,4.14,0-.58-2-2.4-3.17-3.6-1.42A5.22,5.22,0,0,0,701.13,384.07Z" transform="translate(-666.36 -332.71)" fill="#778820" fill-rule="evenodd"/><path d="M690.48,391.42a3.25,3.25,0,0,1,3.59-1.17,6.85,6.85,0,0,1,4,2.74,6.21,6.21,0,0,1-.27,7.53c-.58.74-2,1.54-2.61,1.33-.28.61-1.88,1.12-2.68,1.07a6.21,6.21,0,0,1-5.85-4.78,6.92,6.92,0,0,1,.58-4.81A3.24,3.24,0,0,1,690.48,391.42Z" transform="translate(-666.36 -332.71)" fill="#48172d" fill-rule="evenodd"/><path d="M695.19,401.85h0c-.28.61-1.88,1.12-2.68,1.07a6.21,6.21,0,0,1-5.85-4.78,6.92,6.92,0,0,1,.58-4.81,3.24,3.24,0,0,1,3.25-1.91Z" transform="translate(-666.36 -332.71)" fill="#693752" fill-rule="evenodd"/><path d="M687.62,390.22c1.59.39,2.54.6,3.24,2.27a.3.3,0,0,1-.4.17c-.62-1.47-1.31-1.41-2.69-1.74A1.8,1.8,0,0,1,687.62,390.22Z" transform="translate(-666.36 -332.71)" fill="#803f24" fill-rule="evenodd"/><path d="M691.37,384.73c.58,1.77,1.17,2.5-.36,3.91-1.31,1.21-2.52,1-2,2.13-1.41-.92-1.15-2.68-.19-3.91C689.25,386.34,691,385.51,691.37,384.73Z" transform="translate(-666.36 -332.71)" fill="#889c29" fill-rule="evenodd"/><path d="M691.37,384.73c.4,2.56-4,3.92-2.33,6-1.41-.92-1.15-2.68-.19-3.91C689.25,386.34,691,385.51,691.37,384.73Z" transform="translate(-666.36 -332.71)" fill="#778820" fill-rule="evenodd"/><path d="M709.09,386.66a3.23,3.23,0,0,1,3.58-1.17,6.9,6.9,0,0,1,4,2.74,6.21,6.21,0,0,1-.27,7.53c-.58.75-2,1.54-2.61,1.33-.28.61-1.87,1.12-2.68,1.07a6.22,6.22,0,0,1-5.85-4.78,6.88,6.88,0,0,1,.58-4.8A3.24,3.24,0,0,1,709.09,386.66Z" transform="translate(-666.36 -332.71)" fill="#48172d" fill-rule="evenodd"/><path d="M713.79,397.09h0c-.28.61-1.87,1.12-2.68,1.07a6.22,6.22,0,0,1-5.85-4.78,6.88,6.88,0,0,1,.58-4.8,3.24,3.24,0,0,1,3.26-1.92Z" transform="translate(-666.36 -332.71)" fill="#693752" fill-rule="evenodd"/><path d="M706.23,385.46c1.58.39,2.54.6,3.23,2.27a.3.3,0,0,1-.4.17c-.61-1.47-1.3-1.4-2.69-1.74A1.77,1.77,0,0,1,706.23,385.46Z" transform="translate(-666.36 -332.71)" fill="#803f24" fill-rule="evenodd"/><path d="M710,380c.59,1.77,1.17,2.51-.35,3.91-1.31,1.22-2.53,1-2,2.13-1.41-.92-1.15-2.68-.19-3.91C707.85,381.59,709.65,380.75,710,380Z" transform="translate(-666.36 -332.71)" fill="#889c29" fill-rule="evenodd"/><path d="M710,380c.4,2.56-4,3.93-2.33,6-1.41-.92-1.15-2.68-.19-3.91C707.85,381.59,709.65,380.75,710,380Z" transform="translate(-666.36 -332.71)" fill="#778820" fill-rule="evenodd"/><path d="M712.58,410.59a13,13,0,0,1-5-9.3c-.19-3.11,1-6.06,4.4-7.49a21.87,21.87,0,0,1,8.73,0c3.41,1.43,4.6,4.38,4.41,7.49a13,13,0,0,1-5.05,9.3c-1.26.94-2.24.47-3.7.46S713.86,411.55,712.58,410.59Z" transform="translate(-666.36 -332.71)" fill="#8d9932" fill-rule="evenodd"/><path d="M712.58,410.59a13,13,0,0,1-5-9.3c-.19-3.11,1-6.06,4.4-7.49a8.25,8.25,0,0,1,4.34-.44v17.69C714.84,411,713.85,411.54,712.58,410.59Z" transform="translate(-666.36 -332.71)" fill="#9fad3a" fill-rule="evenodd"/><path d="M716.14,393.6a3.64,3.64,0,0,0-.88-1.75c-.82-1.07-1.66-.82-4-.66,1.84-2,4.7-2.35,5.09.43A6.69,6.69,0,0,1,716.14,393.6Z" transform="translate(-666.36 -332.71)" fill="#9fad3a" fill-rule="evenodd"/><path d="M716.14,393.6c0-4-2.51-3.83-4.9-2.41,1.84-2,4.7-2.35,5.09.43A6.69,6.69,0,0,1,716.14,393.6Z" transform="translate(-666.36 -332.71)" fill="#8d9932" fill-rule="evenodd"/><path d="M716.37,393.85a2.25,2.25,0,0,1,.71-1c.62-.57,1.11-.33,2.53,0-.92-1.4-2.62-1.92-3.15-.27A4.28,4.28,0,0,0,716.37,393.85Z" transform="translate(-666.36 -332.71)" fill="#9fad3a" fill-rule="evenodd"/><path d="M716.37,393.85c.69-2.44,1.65-2.29,3.24-1-.92-1.4-2.62-1.92-3.15-.27A4.28,4.28,0,0,0,716.37,393.85Z" transform="translate(-666.36 -332.71)" fill="#8d9932" fill-rule="evenodd"/><path d="M716.12,394c-.06-2.47.09-3.65.11-4.87a1.23,1.23,0,0,1,.7.91c-.53,1.3-.38,2.28-.49,4C716.39,394.21,716.12,394.14,716.12,394Z" transform="translate(-666.36 -332.71)" fill="#803f24" fill-rule="evenodd"/><path d="M728.58,412.94a13,13,0,0,1-5-9.29c-.19-3.11,1-6.06,4.4-7.49a21.92,21.92,0,0,1,8.74,0c3.4,1.43,4.59,4.38,4.4,7.49a13,13,0,0,1-5,9.29c-1.26.95-2.25.48-3.71.47S729.86,413.91,728.58,412.94Z" transform="translate(-666.36 -332.71)" fill="#df624c" fill-rule="evenodd"/><path d="M728.58,412.94a13,13,0,0,1-5-9.29c-.19-3.11,1-6.06,4.4-7.49a8.25,8.25,0,0,1,4.34-.44v17.69C730.84,413.4,729.85,413.9,728.58,412.94Z" transform="translate(-666.36 -332.71)" fill="#f4715a" fill-rule="evenodd"/><path d="M732.14,396a3.62,3.62,0,0,0-.87-1.75c-.83-1.07-1.67-.82-4-.67,1.83-2,4.7-2.34,5.08.44A6.38,6.38,0,0,1,732.14,396Z" transform="translate(-666.36 -332.71)" fill="#9fad3a" fill-rule="evenodd"/><path d="M732.14,396c0-4-2.51-3.83-4.89-2.42,1.83-2,4.69-2.34,5.08.44A6.38,6.38,0,0,1,732.14,396Z" transform="translate(-666.36 -332.71)" fill="#8d9932" fill-rule="evenodd"/><path d="M732.37,396.2a2.28,2.28,0,0,1,.71-1c.62-.57,1.11-.33,2.53,0-.91-1.4-2.62-1.92-3.15-.26A4.11,4.11,0,0,0,732.37,396.2Z" transform="translate(-666.36 -332.71)" fill="#9fad3a" fill-rule="evenodd"/><path d="M732.37,396.2c.69-2.44,1.65-2.27,3.24-1-.91-1.4-2.62-1.92-3.15-.26A4.11,4.11,0,0,0,732.37,396.2Z" transform="translate(-666.36 -332.71)" fill="#8d9932" fill-rule="evenodd"/><path d="M732.12,396.39c-.06-2.47.09-3.65.11-4.87a1.23,1.23,0,0,1,.7.91c-.52,1.3-.38,2.28-.48,4C732.39,396.57,732.12,396.5,732.12,396.39Z" transform="translate(-666.36 -332.71)" fill="#803f24" fill-rule="evenodd"/><path d="M673.07,415.63a12.89,12.89,0,0,1-5-9.3,7.11,7.11,0,0,1,4.4-7.49,22.37,22.37,0,0,1,8.73,0,7.1,7.1,0,0,1,4.4,7.49,12.89,12.89,0,0,1-5,9.3c-1.26.95-2.25.48-3.7.46S674.35,416.6,673.07,415.63Z" transform="translate(-666.36 -332.71)" fill="#8d9932" fill-rule="evenodd"/><path d="M673.07,415.63a12.89,12.89,0,0,1-5-9.3,7.11,7.11,0,0,1,4.4-7.49,8.11,8.11,0,0,1,4.33-.43v17.68C675.33,416.09,674.33,416.58,673.07,415.63Z" transform="translate(-666.36 -332.71)" fill="#9fad3a" fill-rule="evenodd"/><path d="M676.63,398.65a3.64,3.64,0,0,0-.88-1.75c-.83-1.07-1.66-.82-4-.67,1.84-2,4.7-2.34,5.08.43A6.4,6.4,0,0,1,676.63,398.65Z" transform="translate(-666.36 -332.71)" fill="#9fad3a" fill-rule="evenodd"/><path d="M676.63,398.65c0-4-2.51-3.84-4.9-2.42,1.84-2,4.7-2.34,5.08.43A6.4,6.4,0,0,1,676.63,398.65Z" transform="translate(-666.36 -332.71)" fill="#8d9932" fill-rule="evenodd"/><path d="M676.85,398.89a2.4,2.4,0,0,1,.72-1c.62-.57,1.1-.33,2.53,0-.92-1.4-2.63-1.92-3.15-.27A3.89,3.89,0,0,0,676.85,398.89Z" transform="translate(-666.36 -332.71)" fill="#9fad3a" fill-rule="evenodd"/><path d="M676.85,398.89c.7-2.44,1.65-2.28,3.25-1-.92-1.4-2.63-1.92-3.15-.27A3.89,3.89,0,0,0,676.85,398.89Z" transform="translate(-666.36 -332.71)" fill="#8d9932" fill-rule="evenodd"/><path d="M676.61,399.08c-.06-2.47.09-3.65.11-4.87a1.2,1.2,0,0,1,.69.91c-.52,1.3-.37,2.27-.48,4C676.88,399.26,676.61,399.19,676.61,399.08Z" transform="translate(-666.36 -332.71)" fill="#803f24" fill-rule="evenodd"/><path d="M689.41,415.88a12.91,12.91,0,0,1-5-9.3c-.19-3.1,1-6.05,4.4-7.49a21.87,21.87,0,0,1,8.73,0,7.1,7.1,0,0,1,4.4,7.49,12.91,12.91,0,0,1-5,9.3c-1.26.95-2.25.47-3.7.46S690.69,416.84,689.41,415.88Z" transform="translate(-666.36 -332.71)" fill="#df624c" fill-rule="evenodd"/><path d="M689.41,415.88a12.91,12.91,0,0,1-5-9.3c-.19-3.1,1-6.05,4.4-7.49a8.22,8.22,0,0,1,4.33-.44v17.69C691.67,416.34,690.68,416.83,689.41,415.88Z" transform="translate(-666.36 -332.71)" fill="#f4715a" fill-rule="evenodd"/><path d="M693,398.89a3.64,3.64,0,0,0-.88-1.75c-.82-1.06-1.66-.81-4-.66,1.84-2,4.7-2.35,5.09.43A6.69,6.69,0,0,1,693,398.89Z" transform="translate(-666.36 -332.71)" fill="#9fad3a" fill-rule="evenodd"/><path d="M693,398.89c-.05-4-2.51-3.83-4.9-2.41,1.84-2,4.7-2.35,5.09.43A6.69,6.69,0,0,1,693,398.89Z" transform="translate(-666.36 -332.71)" fill="#8d9932" fill-rule="evenodd"/><path d="M693.19,399.14a2.36,2.36,0,0,1,.72-1c.62-.56,1.1-.32,2.53,0-.92-1.41-2.63-1.93-3.15-.27A3.87,3.87,0,0,0,693.19,399.14Z" transform="translate(-666.36 -332.71)" fill="#9fad3a" fill-rule="evenodd"/><path d="M693.19,399.14c.7-2.44,1.65-2.28,3.25-1-.92-1.41-2.63-1.93-3.15-.27A3.87,3.87,0,0,0,693.19,399.14Z" transform="translate(-666.36 -332.71)" fill="#8d9932" fill-rule="evenodd"/><path d="M693,399.32c-.06-2.46.09-3.64.11-4.87a1.2,1.2,0,0,1,.69.91c-.52,1.31-.37,2.28-.48,4C693.22,399.5,693,399.43,693,399.32Z" transform="translate(-666.36 -332.71)" fill="#803f24" fill-rule="evenodd"/><path d="M702.89,402.09a3.23,3.23,0,0,1,3.58-1.17,6.85,6.85,0,0,1,4,2.74,6.21,6.21,0,0,1-.27,7.53c-.58.74-2,1.54-2.61,1.33-.28.61-1.88,1.12-2.68,1.07a6.21,6.21,0,0,1-5.85-4.78,6.88,6.88,0,0,1,.58-4.8A3.24,3.24,0,0,1,702.89,402.09Z" transform="translate(-666.36 -332.71)" fill="#48172d" fill-rule="evenodd"/><path d="M707.59,412.52h0c-.28.61-1.88,1.12-2.68,1.07a6.21,6.21,0,0,1-5.85-4.78,6.88,6.88,0,0,1,.58-4.8,3.24,3.24,0,0,1,3.26-1.92Z" transform="translate(-666.36 -332.71)" fill="#693752" fill-rule="evenodd"/><path d="M700,400.89c1.59.39,2.55.6,3.24,2.27a.3.3,0,0,1-.4.17c-.61-1.47-1.31-1.4-2.69-1.74A1.8,1.8,0,0,1,700,400.89Z" transform="translate(-666.36 -332.71)" fill="#803f24" fill-rule="evenodd"/><path d="M703.77,395.41c.58,1.76,1.17,2.5-.35,3.9-1.32,1.21-2.53,1-2,2.14-1.41-.93-1.15-2.69-.19-3.92C701.65,397,703.45,396.18,703.77,395.41Z" transform="translate(-666.36 -332.71)" fill="#889c29" fill-rule="evenodd"/><path d="M703.77,395.41c.4,2.55-4,3.92-2.33,6-1.41-.93-1.15-2.69-.19-3.92C701.65,397,703.45,396.18,703.77,395.41Z" transform="translate(-666.36 -332.71)" fill="#778820" fill-rule="evenodd"/><path d="M728.13,400.39a3.89,3.89,0,0,1,4.51.49,8.28,8.28,0,0,1,3,5,7.47,7.47,0,0,1-4,8.12c-1,.53-2.94.71-3.51.17-.61.53-2.61.3-3.46-.15a7.5,7.5,0,0,1-4.06-8.14,8.32,8.32,0,0,1,3-5A3.89,3.89,0,0,1,728.13,400.39Z" transform="translate(-666.36 -332.71)" fill="#fbab18" fill-rule="evenodd"/><path d="M728.13,414.15h0c-.61.53-2.61.3-3.46-.15a7.5,7.5,0,0,1-4.06-8.14,8.32,8.32,0,0,1,3-5,3.89,3.89,0,0,1,4.51-.49Z" transform="translate(-666.36 -332.71)" fill="#ffca08" fill-rule="evenodd"/><path d="M725.59,397.66c1.55,1.21,2.49,1.92,2.43,4.09a.36.36,0,0,1-.53,0c0-1.91-.74-2.18-2.08-3.24A2,2,0,0,1,725.59,397.66Z" transform="translate(-666.36 -332.71)" fill="#803f24" fill-rule="evenodd"/><path d="M732.41,393.5c-.23,2.22,0,3.31-2.32,4.1-2,.68-3.27-.14-3.23,1.36-1.08-1.71.08-3.51,1.74-4.38C729.29,394.21,731.67,394.19,732.41,393.5Z" transform="translate(-666.36 -332.71)" fill="#889c29" fill-rule="evenodd"/><path d="M732.41,393.5c-.82,3-6.28,2.34-5.55,5.46-1.08-1.71.08-3.51,1.74-4.38C729.29,394.21,731.67,394.19,732.41,393.5Z" transform="translate(-666.36 -332.71)" fill="#778820" fill-rule="evenodd"/><path d="M715,405.27a3.22,3.22,0,0,1,3.58-1.18,6.87,6.87,0,0,1,4,2.74,6.21,6.21,0,0,1-.27,7.53c-.57.75-2,1.55-2.6,1.33-.29.62-1.88,1.12-2.68,1.07a6.22,6.22,0,0,1-5.86-4.78,6.83,6.83,0,0,1,.59-4.8A3.22,3.22,0,0,1,715,405.27Z" transform="translate(-666.36 -332.71)" fill="#48172d" fill-rule="evenodd"/><path d="M719.71,415.69h0c-.29.62-1.88,1.12-2.68,1.07a6.22,6.22,0,0,1-5.86-4.78,6.83,6.83,0,0,1,.59-4.8,3.24,3.24,0,0,1,3.25-1.92Z" transform="translate(-666.36 -332.71)" fill="#693752" fill-rule="evenodd"/><path d="M712.14,404.06c1.58.39,2.54.61,3.24,2.27a.3.3,0,0,1-.41.17c-.61-1.47-1.3-1.4-2.69-1.74A2,2,0,0,1,712.14,404.06Z" transform="translate(-666.36 -332.71)" fill="#803f24" fill-rule="evenodd"/><path d="M715.88,398.58c.59,1.76,1.17,2.5-.35,3.9-1.31,1.22-2.53,1-2,2.14-1.41-.93-1.15-2.69-.19-3.92C713.76,400.19,715.56,399.35,715.88,398.58Z" transform="translate(-666.36 -332.71)" fill="#889c29" fill-rule="evenodd"/><path d="M715.88,398.58c.4,2.55-4,3.92-2.33,6-1.41-.93-1.15-2.69-.19-3.92C713.76,400.19,715.56,399.35,715.88,398.58Z" transform="translate(-666.36 -332.71)" fill="#778820" fill-rule="evenodd"/><rect y="77.66" width="73.54" height="19.18" fill="#c9ad86"/><path d="M678.38,428.86l-.09-3a1.68,1.68,0,0,0-1.75-1.36h0c-.78.06-.39,2.21-.38,3l0,1.55C676.23,430.56,678.44,430.93,678.38,428.86Z" transform="translate(-666.36 -332.71)" fill="#ffdba7" fill-rule="evenodd"/><path d="M680.65,429l-.09-3.21a1.74,1.74,0,0,0-1.81-1.46h0c-.82.06-.42,2.38-.4,3.2l0,1.67C678.43,430.83,680.72,431.23,680.65,429Z" transform="translate(-666.36 -332.71)" fill="#ffdba7" fill-rule="evenodd"/><path d="M682.92,429l-.1-2.93c0-.74-1-1.27-1.8-1.1h0c-.8.16-.41,2.23-.39,3l0,1.53C680.7,430.93,683,431,682.92,429Z" transform="translate(-666.36 -332.71)" fill="#ffdba7" fill-rule="evenodd"/><path d="M685.05,429.12l0-2.44c0-.62-.87-1.08-1.62-1h0c-.75.12-.46,1.85-.47,2.47l0,1.28C682.94,430.71,685,430.82,685.05,429.12Z" transform="translate(-666.36 -332.71)" fill="#ffdba7" fill-rule="evenodd"/><path d="M727.88,428.86l.09-3a1.67,1.67,0,0,1,1.75-1.36h0c.78.06.39,2.21.38,3l0,1.55C730,430.56,727.82,430.93,727.88,428.86Z" transform="translate(-666.36 -332.71)" fill="#ffdba7" fill-rule="evenodd"/><path d="M725.61,429l.09-3.21a1.74,1.74,0,0,1,1.81-1.46h0c.82.06.42,2.38.4,3.2l0,1.67C727.83,430.83,725.54,431.23,725.61,429Z" transform="translate(-666.36 -332.71)" fill="#ffdba7" fill-rule="evenodd"/><path d="M723.35,429l.09-2.93c0-.74,1-1.27,1.8-1.1h0c.81.16.41,2.23.39,3l0,1.53C725.56,430.93,723.28,431,723.35,429Z" transform="translate(-666.36 -332.71)" fill="#ffdba7" fill-rule="evenodd"/><path d="M721.21,429.12l0-2.44c0-.62.87-1.08,1.62-1h0c.75.12.46,1.85.47,2.47l0,1.28C723.32,430.71,721.22,430.82,721.21,429.12Z" transform="translate(-666.36 -332.71)" fill="#ffdba7" fill-rule="evenodd"/><path d="M789,527.52c-5.86,5.37-6.78,7.91-1.9,16.18,1.86,3.18,3.56,6.23,2.58,8.16l3.34.21a14.19,14.19,0,0,0-3.91-10c-5.25-6.08-3-10,1.32-14.4Z" transform="translate(-666.36 -332.71)" fill="#608913" fill-rule="evenodd"/><path d="M809.22,529.84c-2.67-.3-6.06,2.57-10.09,2.44-4.31-.14-6.26-3.91-10.09-3.67C796.22,519,802.73,521.49,809.22,529.84Z" transform="translate(-666.36 -332.71)" fill="#608913" fill-rule="evenodd"/><path d="M809.22,529.84A17.13,17.13,0,0,0,789,528.61C796.22,519,802.73,521.49,809.22,529.84Z" transform="translate(-666.36 -332.71)" fill="#7da427" fill-rule="evenodd"/><path d="M773.83,520.77c5,1.17,3.89,4,7.07,5.38,4.3,1.92,7.18-.75,7.94,2.8C791.12,518.84,782.46,516.09,773.83,520.77Z" transform="translate(-666.36 -332.71)" fill="#7da427" fill-rule="evenodd"/><path d="M773.83,520.77c7-1.78,15.16,2.8,15,8.18C791.12,518.84,782.46,516.09,773.83,520.77Z" transform="translate(-666.36 -332.71)" fill="#608913" fill-rule="evenodd"/><path d="M761.94,557.34c10.58,3.33,41.68,5.42,57.3-1.2-14.51-6.23-19-12.59-30.93-12.4C777.55,543.91,765.27,554.14,761.94,557.34Z" transform="translate(-666.36 -332.71)" fill="#3d1d0a" fill-rule="evenodd"/><path d="M869.71,483.64c-13.29,3.54-22,2.69-36,4.54-.69-4.36-.76-2.85-1.77-4.88,0,0,22.36-8.35,33.46-12.19,2-.69,8.47-10.28,9.68-10.21,5.53.32,11.22,6.37,7.66,12.7C881.67,475.58,870.25,483.45,869.71,483.64Z" transform="translate(-666.36 -332.71)" fill="#f0c17d" fill-rule="evenodd"/><path d="M818.53,485.81l4.46-3.28c.43-.31,6.56,3.89,4.29,4.53l-3.34,1L820.68,492c-.36.45-3.89,1.14-4.41.91h0a1.05,1.05,0,0,1-.54-1.38C816.21,490.41,817.62,486.48,818.53,485.81Z" transform="translate(-666.36 -332.71)" fill="#f98204" fill-rule="evenodd"/><path d="M814,491.83l2.52-5.68.09-.16a1.92,1.92,0,0,1,.62-.71l4.67-3.43,2-.66c.63-.21-.25.3,0,.92.41,1.12,2.42,1.82-.34,3l-4.89,2.13-2.45,5.55A1.21,1.21,0,0,1,814,491.83Z" transform="translate(-666.36 -332.71)" fill="#f98204" fill-rule="evenodd"/><path d="M825.17,492.19l-.57-2.42c-.09-.38,3-3.74-1.69-4.21-.81-.08-1.65-3.47-.88-3.75a18.35,18.35,0,0,1,4.62-1.24c1.84-.11,3.71.77,5.38,1.44l.1,0,9.18-3.19,5.22,9-11,1.47c-.56.68-1.15,1.92-2.11,2.15l-5.76,1.42C826.9,493,825.36,493,825.17,492.19Z" transform="translate(-666.36 -332.71)" fill="#f98204" fill-rule="evenodd"/><path d="M856.19,542.63c-6.31,9.14-8.61,10.34-17.8,11.57-2.86.39-3.79,1-3.71,4,8.81.67,16.33.61,25.16.51,1.3-2.1,1.78-3.42,4.1-3.66l.22,3.59H872l.39-7.39-1.85-7.9Z" transform="translate(-666.36 -332.71)" fill="#3d1d0a" fill-rule="evenodd"/><path d="M838.4,505.92l14.38,42.65,18-4.34-7.25-27.6-10.86-20.32C840.67,494.17,836.82,499.66,838.4,505.92Z" transform="translate(-666.36 -332.71)" fill="#072c5e" fill-rule="evenodd"/><path d="M869.8,522.32c7.79,3.45,27.47,8.07,35.42,5.63L904,502.42l-20.35-5.06-8.29,1-28.71-3.59c-9.12-.81-8.94,5.83-8.24,11.16l2.7,7.06C852.87,516,860.57,518.23,869.8,522.32Z" transform="translate(-666.36 -332.71)" fill="#072c5e" fill-rule="evenodd"/><path d="M941.49,530.61,942,534c.12,1-.33,1.73-.27,2.63.16,2.17.18,4.06.2,6.1.06,5.35-.55,8.77-1.81,10.42-1.12,1.46-2.71,2-6.63,3l-9.13-.35c-.49-2-.27-2.89.56-3.66,5.12-4.77,5-7.74,4.35-14.74-.41-4.46-.16-7,2-8.13,2.58-1.41,4.88-1.78,6.83-1C938.85,528.67,941.15,530,941.49,530.61Z" transform="translate(-666.36 -332.71)" fill="#643112" fill-rule="evenodd"/><path d="M871.41,435.43l-8.6,11.47-1.16-.36c-2.91-8.31-2.8-9.56-4.34-18.42l12.11-6.52c.29,3.2,1.07,4.64,1.5,8.11A56.81,56.81,0,0,1,871.41,435.43Z" transform="translate(-666.36 -332.71)" fill="#f0c17d" fill-rule="evenodd"/><path d="M848.17,431.14a1.39,1.39,0,0,1-.23,1.73,1.15,1.15,0,0,0,1,1.05c2.18-.69,1.69.94,1.52,1-1.57.55-1.23,1.09-.83,1.54.48,0,.72.14.82.35.31.67-.65,2.36.63,3.35,1.54,1.19,7.45-3.41,10.2-5.54,2.27-1.76,1.08-3.33.24-6,1.48-.11,2.51-.77,2.11-3,1.34-3,1.53-5.33,2.11-8.59,0,0-7.19-11-7.5-11.05s-9.41,3.13-9.41,3.13c-.76,2-2.25,4.07-3,6.42a19.42,19.42,0,0,0-.81,6.48,3,3,0,0,0,.59,2.3,2.78,2.78,0,0,1,.51.83c.49,2.29-1.33,4.76-1.08,5.37S846.55,431.66,848.17,431.14Z" transform="translate(-666.36 -332.71)" fill="#ffdba7" fill-rule="evenodd"/><path d="M856,422.36a22.91,22.91,0,0,0,1,2.54c.23.73.36,1.14.71,1.32a9.26,9.26,0,0,0,1.54-3.21c.92-1.61,2.27-3.43,3.68-3.29s1.56,2.87,1,4.94a3.24,3.24,0,0,0,.32,2.7c.92,1.3,2.08.27,3.81,1.31,1.4.85,2.48,2.52,3.21,3.17,0-3.86-.06-5.2.75-7.8,1.11-3.56.36-10.06-2.44-13.08l.28.16c-2.23-2.3-2.87-3.23-6-4.07-2.44-2.47-6-3-9.38-2.17a10.14,10.14,0,0,1,3.35.34c-11.89.32-12.68,9.64-16.11,9.49,3.33,3.71,6.31,2.69,10.14,1a8.92,8.92,0,0,1,3.6,7.45l.58-1Z" transform="translate(-666.36 -332.71)" fill="#632404" fill-rule="evenodd"/><path d="M915.91,506.22c-1.75-7.22-4.44-11.56-8.12-17.84l-27.6,7.19,3,19.76.86,6-8.65,26.52c-.9,2.78-1.64,3.81-.87,6.82,1.58,6.16,7.62,5.9,17.54,4.43,5.81-8.17,12.9-18.48,17.07-26C914.33,523.59,918.48,516.85,915.91,506.22Z" transform="translate(-666.36 -332.71)" fill="#0f4283" fill-rule="evenodd"/><path d="M873.41,432.46c10.93,4,15.3,5.43,19.37,10.84,8.14,10.82,8.84,21.18,12.19,32s1.56,9.87,5.64,17.69c-9.84,6.65-18.13,10-28.43,11.59-7.72-7.39-10.46-11.34-12.25-20.42-10.59-13.93-7.66-20.78-8.37-37.66Z" transform="translate(-666.36 -332.71)" fill="#ffa000" fill-rule="evenodd"/><path d="M879.06,434.54c7,2.61,10.44,4.4,13.72,8.76,8.14,10.82,8.84,21.18,12.19,32s1.56,9.87,5.64,17.69c-1.78,10.83-11.89,15.1-18.35,17-2.93.88-5.62,7.17-10.08-5.46-7.72-7.39-10.46-11.34-12.25-20.42-.89-1.16-1.67-2.27-2.37-3.34,2.42-1.81,1.92-4.54-.06-12.63-2.18-9-.55-20.73,4.25-28.13a12.5,12.5,0,0,1,7.31-5.5ZM900.53,469l-6.48-19.63c-13.68-21.95-26.09-4.85-21,11.15l7.32,15.39c3.6,7.44,9.62,22.19,19.55,17.2C908.88,488.55,903.14,476.85,900.53,469Z" transform="translate(-666.36 -332.71)" fill="#0f4283" fill-rule="evenodd"/><path d="M870.66,429.91c-2,7.31-5.5,11.69-9.73,16.1l4.34,6.49a30.74,30.74,0,0,0,8.8-20.15Z" transform="translate(-666.36 -332.71)" fill="#ffa000" fill-rule="evenodd"/><path d="M893.82,558.65l39.33-13.45L933,529.33l-16.87.7-38,14-4,8.39C871.8,562.19,885.08,561.45,893.82,558.65Z" transform="translate(-666.36 -332.71)" fill="#0f4283" fill-rule="evenodd"/><path d="M888.32,471.56c-1.47,8.32-6.94,24.4-11.59,26-5.14,1.43-9.77-5.75-8.55-10.93,3.19-13.62,1.57-19.07,3-33.63,1-9.62,3.91-14.35,10.7-13.54C894,440.89,889.52,464.76,888.32,471.56Z" transform="translate(-666.36 -332.71)" fill="#ffdba7" fill-rule="evenodd"/><path d="M888.32,471.56l-17.92-3.23c.12-4.34.16-9,.78-15.34,1-9.62,3.91-14.35,10.7-13.54C894,440.89,889.52,464.76,888.32,471.56Z" transform="translate(-666.36 -332.71)" fill="#ffa000" fill-rule="evenodd"/><path d="M825.72,489.45a7.77,7.77,0,0,0-2.19-4.63c-2.83-3.33-1.94-6.16-.14-9.35,2.06-3.65,5-6.13,5.78-10.23.23,3.73-1.28,6.2-2.76,8.63-2.17,3.58-3.74,6.33-.79,9.81a8.92,8.92,0,0,1,2.6,5.54Z" transform="translate(-666.36 -332.71)" fill="#608913" fill-rule="evenodd"/><path d="M827.37,469.74c6.86,3.19,11.72-1.49,19.48-4.22C836.7,454.73,830.09,461.87,827.37,469.74Z" transform="translate(-666.36 -332.71)" fill="#608913" fill-rule="evenodd"/><path d="M823.09,474.22c-5.44-1.62-5.84-6.67-8.83-12.07C825.34,461.15,825.49,468.45,823.09,474.22Z" transform="translate(-666.36 -332.71)" fill="#7da427" fill-rule="evenodd"/><path d="M823.13,473.85c.36,2.14-1.38,3.81-1.11,5.71l-.26,1.37c-1-3.38,1.66-5.3,1.12-7.09Z" transform="translate(-666.36 -332.71)" fill="#608913" fill-rule="evenodd"/><path d="M827.37,469.74c7.64-7.82,12.08-6.45,19.48-4.22C836.7,454.73,830.09,461.87,827.37,469.74Z" transform="translate(-666.36 -332.71)" fill="#7da427" fill-rule="evenodd"/><path d="M823.09,474.22c-.5-5.45-2.12-9.55-8.83-12.07C825.34,461.15,825.49,468.45,823.09,474.22Z" transform="translate(-666.36 -332.71)" fill="#608913" fill-rule="evenodd"/><path d="M875.18,498c-12.75,1.57-25.6-2.29-38.73-2.37-.08-4.11.52-4.92-.15-6.93,0,0,25.64-3.32,36.39-5.44C880.61,481.64,883.83,496.72,875.18,498Z" transform="translate(-666.36 -332.71)" fill="#ffdba7" fill-rule="evenodd"/><path d="M836.76,488.38c-1.8-.18-7.45-2.72-10-3.09a5.56,5.56,0,0,0-3.5.39c-1.31.4-3.28.76-3.49.83a34.61,34.61,0,0,0-2.73,2.31c-.93,2.18-1.75,3.13-.74,3.76.61.38,1.41-.43,2.9-2.26l1-.69a5.1,5.1,0,0,0-1.63,2.46,1.84,1.84,0,0,0,1.61,2.42c.4.07.39-.28.55-.69l.44-1.07c1.27-.36,2.39-.73,3.63-1.16a9.63,9.63,0,0,0-3.13,1.74c-.67.74-.12,1.43.44,2.1.77.94,1.94-.63,4.55-1.33a6.07,6.07,0,0,0-2.69,1.62c-.52.78.49,1.26,1.23,1.33a47.19,47.19,0,0,0,9.92-.27c1.32-.21,2.23-1.19,3.11-1.12l4.66.52-.23-8.56Z" transform="translate(-666.36 -332.71)" fill="#ffa000" fill-rule="evenodd"/><path d="M843.75,416.17l1.38-7.7c1-4.34,2.73-5.54,4.44-5.9,2.11-.44,4.12.65,7,.38s4.4-1.74,7.54-1.68c2.78.05,3.13,1.49,4.45,5.1l3.07,8L847,417.23Z" transform="translate(-666.36 -332.71)" fill="#ffa000" fill-rule="evenodd"/><path d="M868.29,411.07c2.74.12,10.35-.46,10.48,3.42.07,1.95-2.1,4-8.91,4.52l-19.78,1.43c-2,.05-15,2-14.52-3.34.15-1.81,2.63-3.47,9.07-4Z" transform="translate(-666.36 -332.71)" fill="#ffa000" fill-rule="evenodd"/><path d="M844.14,414l.22-1.18c7.15,1.28,15.18.23,21.9-1.92-1.63-5.52-1.72-7.85-5-9.22a9.46,9.46,0,0,1,2.85-.38c2.78.05,3.13,1.49,4.45,5.1l2,5.25C867.72,414.75,846.68,417,844.14,414Z" transform="translate(-666.36 -332.71)" fill="#f98204" fill-rule="evenodd"/></svg>