<svg id="Layer_1" data-name="Layer 1" xmlns="http://www.w3.org/2000/svg" viewBox="0 0 241.73 209.23"><title>calendar</title><rect y="16.53" width="241.73" height="179.48" fill="#ff916e"/><rect x="8.83" y="26.21" width="222.79" height="163.53" fill="#f77b55"/><rect x="6.03" y="19.18" width="104.84" height="165.62" fill="#f2f2f2"/><rect x="130.62" y="19.18" width="104.84" height="165.62" fill="#f2f2f2"/><path d="M764.51,384.8,774.77,388V223.93l-9.5-4.75S764.51,386.13,764.51,384.8Z" transform="translate(-654.4 -200)" fill="#cdccca"/><path d="M785,384.8,774.77,388V223.93L785,219.18Z" transform="translate(-654.4 -200)" fill="#f2f2f2"/><rect x="21.18" y="66.13" width="50.22" height="3.59" fill="#cdccca"/><rect x="82.16" y="60.39" width="15.07" height="15.07" fill="#fff"/><rect x="21.18" y="88.72" width="50.22" height="3.59" fill="#cdccca"/><rect x="82.16" y="82.98" width="15.07" height="15.07" fill="#fff"/><rect x="21.18" y="108.27" width="50.22" height="3.59" fill="#cdccca"/><rect x="21.18" y="114.37" width="50.22" height="3.59" fill="#cdccca"/><rect x="82.16" y="105.59" width="15.07" height="15.07" fill="#fff"/><rect x="21.18" y="153.56" width="50.22" height="3.59" fill="#cdccca"/><rect x="21.18" y="159.66" width="50.22" height="3.59" fill="#cdccca"/><rect x="82.16" y="150.87" width="15.07" height="15.07" fill="#fff"/><rect x="21.18" y="133.93" width="50.22" height="3.58" fill="#cdccca"/><rect x="82.16" y="128.18" width="15.07" height="15.07" fill="#fff"/><rect x="789.83" y="269.63" width="143.7" height="4.44" transform="translate(-64.58 933.53) rotate(-90)" fill="#77d0de"/><rect x="798.71" y="269.63" width="143.7" height="4.44" transform="translate(-55.7 942.41) rotate(-90)" fill="#77d0de"/><rect x="209.49" width="4.44" height="143.7" fill="#92e0ea"/><polygon points="218.38 143.7 205.05 143.7 211.96 175.22 218.38 143.7" fill="#ffdb7a"/><polygon points="211.96 175.22 209.16 162.64 214.67 162.64 211.96 175.22" fill="#353f49"/><polygon points="88.89 73.17 83.26 67.85 84.66 66.37 88.71 70.2 94.3 63.41 95.86 64.71 88.89 73.17" fill="#333d47"/><polygon points="89.03 95.4 83.4 90.07 84.79 88.6 88.84 92.42 94.43 85.64 96 86.94 89.03 95.4" fill="#333d47"/><rect x="20.66" y="38.75" width="77.49" height="12.54" fill="#cdccca"/><polygon points="137.53 16.53 132.76 21.84 140.5 21.84 145.01 16.53 137.53 16.53" fill="#ffdb7a"/><polygon points="132.78 21.75 140.57 21.75 140.57 209.23 136.68 206.55 132.78 209.23 132.78 21.75" fill="#feca5c"/></svg>