<svg id="Layer_1" data-name="Layer 1" xmlns="http://www.w3.org/2000/svg" viewBox="0 0 296.67 288.75"><title>classes</title><path d="M626.43,354.48s17.78.8,30.31-6.43c8.32.15,10.17-2.67,8.8-2.67,2.19-.67,2.21-2.74-.16-1.62,2.69-1.21,1.92-3.23-.51-2.21,1.34-.89,1.32-3-2.14-1.46-2.13.94-4.05,1.67-4.05,1.67s1.68-3.27.1-3.41-3.37,4-3.93,5.27c-4,1.66-16.58,6.22-28.82,4.45C625.4,350.6,626.43,354.48,626.43,354.48Z" transform="translate(-550.33 -200.67)" fill="#fbc6a4"/><path d="M660.81,343.06a.17.17,0,0,0-.06.19.18.18,0,0,0,.22.11,32.25,32.25,0,0,0,4.42-1.9.18.18,0,0,0,.06-.24.18.18,0,0,0-.23-.07,30.85,30.85,0,0,1-4.36,1.88S660.83,343.05,660.81,343.06Z" transform="translate(-550.33 -200.67)" fill="#ce7754"/><path d="M661.2,345a.18.18,0,0,0-.06.19.17.17,0,0,0,.21.12,29.13,29.13,0,0,0,4.59-1.65.18.18,0,0,0,.06-.24.17.17,0,0,0-.23-.07,27,27,0,0,1-4.5,1.62Z" transform="translate(-550.33 -200.67)" fill="#ce7754"/><path d="M661.38,346.45a.14.14,0,0,0-.06.15.17.17,0,0,0,.19.16,21.78,21.78,0,0,0,4.29-1.28.18.18,0,0,0,.1-.23.18.18,0,0,0-.24-.1,21,21,0,0,1-4.19,1.26Z" transform="translate(-550.33 -200.67)" fill="#ce7754"/><path d="M631,348.91a42.9,42.9,0,0,0-6-.2s-3.57,4.16.76,5.52c2.07,0,3.85-.45,5.76-.27C629.27,353.39,626.8,349.78,631,348.91Z" transform="translate(-550.33 -200.67)" fill="#eaad85"/><path d="M628.33,359.09c-5,1.8-14.44-2.19-13.81-7.73.72-6.32,13.4-5.43,13.4-5.43A28.38,28.38,0,0,0,628.33,359.09Z" transform="translate(-550.33 -200.67)" fill="#a14a24"/><path d="M626.31,345.89a39.57,39.57,0,0,0,.21,13.59,8,8,0,0,0,1.81-.39,28.38,28.38,0,0,1-.41-13.16S627.29,345.88,626.31,345.89Z" transform="translate(-550.33 -200.67)" fill="#fff"/><path d="M627.14,451.35l40-27.83s50.75,5.69,57.41,11.76c-7.24,5.88-31.94,26.07-31.94,26.07Z" transform="translate(-550.33 -200.67)" fill="#42bbe5"/><path d="M646.38,438a13,13,0,0,1,2.91,9.34c-2.14-2-4.7-4.29-7.19-6.36l-6.82,4.74c3.05,2.66,6.65,5.72,9.9,8.42l6.41,1c9.87-1.29,34.49-4.64,59.65-9,5.4-4.42,10.58-8.63,13.29-10.84-2.34-2.13-10.12-4.22-19.23-6-17.45,2.31-41.95,5.64-58.25,8.25Z" transform="translate(-550.33 -200.67)" fill="#237dac"/><path d="M692.59,461.35s27.24-24.5,31.94-26.07c5.49,6.47,3.14,19.6-.78,25.48s-28.41,23.32-32.33,24.49C695.73,474.67,696.71,465.46,692.59,461.35Z" transform="translate(-550.33 -200.67)" fill="#0096cd"/><path d="M695,466.44c10.7-7.46,25.07-18.09,32.45-24.49a28,28,0,0,1-.54,11.1c-6.52,6-21.63,17.23-33.08,25.25C695.08,473.73,695.53,469.65,695,466.44Z" transform="translate(-550.33 -200.67)" fill="#25a0d4"/><path d="M633.61,465.7c-4.7,2.5-10.34,8.38-5.49,9.56s63.25,9.26,63.25,9.26l3.82-6.18Z" transform="translate(-550.33 -200.67)" fill="#42a0d2"/><path d="M630.52,452.48s5.59,9.7.15,17c15.43,3.09,62.9,11.46,62.9,11.46s5.88-10.43-.73-19C682.11,459.68,630.52,452.48,630.52,452.48Z" transform="translate(-550.33 -200.67)" fill="#f9edcd"/><path d="M687.84,464.82c-8.36-1.83-41.51-6.6-55.75-8.62a21.27,21.27,0,0,0-1.57-3.72s51.59,7.2,62.32,9.55c6.61,8.53.73,19,.73,19l-3.58-.63C691.18,476.57,692.1,470.31,687.84,464.82Z" transform="translate(-550.33 -200.67)" fill="#ddcfa7"/><path d="M691.37,486.28a1.79,1.79,0,0,0,1.16-.43c4.73-4.12,5.79-11.64,5.26-16.83-.47-4.57-2-7.93-4.33-9.21a1.67,1.67,0,0,0-.5-.19c-2.84-.61-58.17-8.7-63.81-9.48a1.77,1.77,0,0,0-.48,3.5c5.31.73,58.12,8.45,63.25,9.37.93.72,2,2.92,2.36,6.37.45,4.44-.48,10.13-3.52,13.29-17.8-2.2-61.8-10.82-62.25-10.9a1.76,1.76,0,0,0-.68,3.46c.46.09,46,9,63.33,11Z" transform="translate(-550.33 -200.67)" fill="#237dac"/><path d="M687.65,467.18s-29.07-6.33-43.22-7.16C657.29,463.05,687.65,467.18,687.65,467.18Z" transform="translate(-550.33 -200.67)" fill="#bdaf84"/><path d="M678.44,469.92s-29.07-6.33-43.22-7.16C648.08,465.79,678.44,469.92,678.44,469.92Z" transform="translate(-550.33 -200.67)" fill="#bdaf84"/><path d="M683.93,476.19s-29.07-6.33-43.22-7.16C653.57,472.07,683.93,476.19,683.93,476.19Z" transform="translate(-550.33 -200.67)" fill="#bdaf84"/><path d="M720.91,455.13c2.5-2.8,2.06-5.3-1.61-3.09S706.51,462.91,703.71,465s-.88,4.56,2.21,2.64S720.91,455.13,720.91,455.13Z" transform="translate(-550.33 -200.67)" fill="#6fcff5"/><path d="M647.07,453.86c-6.85-5.64-16.41-13.86-18.39-16s-.86-4.84,4.39-4.46c4.53.32,21.34,17,21.34,17Z" transform="translate(-550.33 -200.67)" fill="#ee3b26"/><path d="M631.07,422.92c1.28,2,3.77,6.33.19,14.06,6,5.72,18.16,14.78,18.16,14.78s3.64-11.18-.82-17.64A182.85,182.85,0,0,0,631.07,422.92Z" transform="translate(-550.33 -200.67)" fill="#f9edcd"/><path d="M644.48,437.06a136.21,136.21,0,0,0-11.37-7.59,11.81,11.81,0,0,0-2-6.55,182.85,182.85,0,0,1,17.53,11.2c4.46,6.46.82,17.64.82,17.64s-1.18-.88-3-2.26C646.94,445.72,647,440.66,644.48,437.06Z" transform="translate(-550.33 -200.67)" fill="#ddcfa7"/><path d="M627.67,422.36c5.22,4.57,18.44,13.48,18.44,13.48l80.23-11.13-24-13.62s-54.66,5.49-72.86,7.5C626,419,626.93,421.72,627.67,422.36Z" transform="translate(-550.33 -200.67)" fill="#ee3b26"/><path d="M627,420.28c13.93,2.57,41.14,7.33,55.13,9.44l13.23-1.84c4.44-2.8,15.67-3.7,21.29-8.11L709,414.86l-6.4-3.64-9.58,1a19.3,19.3,0,0,1,.42,2.46,21.71,21.71,0,0,1-.87,8.59l-35.78-7.34c-1.09.12-2.38.18-3.8.23-9.44,1-18.06,1.87-23.47,2.47C627.82,418.78,627.16,419.5,627,420.28Z" transform="translate(-550.33 -200.67)" fill="#9b2120"/><path d="M726.34,424.71c2,2.76,5.58,10.88-.52,17-36.93,6.93-78.75,12.17-78.75,12.17s5.65-10.79-1-18C673.63,431.4,726.34,424.71,726.34,424.71Z" transform="translate(-550.33 -200.67)" fill="#b72b1f"/><path d="M649.14,442.3c16.82-2.25,52.47-7.19,79.67-12.09a12.44,12.44,0,0,1-.31,7.41c-26,4.82-61.33,9.78-80,12.3A18.53,18.53,0,0,0,649.14,442.3Z" transform="translate(-550.33 -200.67)" fill="#d12e21"/><path d="M712.62,435.41c6.18-1.18,5.59,1.76,0,2.94s-40.71,6.32-45,7-3.53-2,1.47-3.23S712.62,435.41,712.62,435.41Z" transform="translate(-550.33 -200.67)" fill="#f05739"/><path d="M646.82,447.2s-9.06-7.79-13.93-10.54C636.85,440.22,646.82,447.2,646.82,447.2Z" transform="translate(-550.33 -200.67)" fill="#bdaf84"/><path d="M647.33,440.26s-9.06-7.8-13.94-10.54C637.35,433.28,647.33,440.26,647.33,440.26Z" transform="translate(-550.33 -200.67)" fill="#bdaf84"/><path d="M648.36,444.89s-7.72-6.65-11.87-9C639.86,438.93,648.36,444.89,648.36,444.89Z" transform="translate(-550.33 -200.67)" fill="#bdaf84"/><path d="M732.37,388.21l-51-14.31s-48.4,11.76-56.23,14.5c13.32,2.55,60.59,13.38,60.59,13.38Z" transform="translate(-550.33 -200.67)" fill="#f9bf17"/><path d="M680.11,394.62,717,383.88l-35.55-10s-27.26,6.62-44.17,11.09C655.9,389.07,680.11,394.62,680.11,394.62Z" transform="translate(-550.33 -200.67)" fill="#d97624"/><path d="M732.37,388.21c6.08,2.74,5.88,20-1.37,24.69s-48.74,15.33-48.74,15.33A22.37,22.37,0,0,0,685,401.34C705.92,395.16,720.62,391.14,732.37,388.21Z" transform="translate(-550.33 -200.67)" fill="#f79e28"/><path d="M688.16,411c12.67-3,38.28-9.31,48.51-13.28a24,24,0,0,1-1,8.33c-7.87,3.67-34.25,10.24-48.54,13.67A20,20,0,0,0,688.16,411Z" transform="translate(-550.33 -200.67)" fill="#f9ac27"/><path d="M722.67,405.3c6.18-1.17,5.59,1.77,0,2.94s-18.07,4.71-22.34,5.44-3.52-2.06,1.47-3.23S722.67,405.3,722.67,405.3Z" transform="translate(-550.33 -200.67)" fill="#ffdb76"/><path d="M634.2,406s-5.15,2.64-7.5,3.52-6.47,3.53-2.79,4.86c4.8,1.72,58.35,12.05,58.35,12.05l4.55-4.41Z" transform="translate(-550.33 -200.67)" fill="#f79e28"/><path d="M629.79,389.28c1.62,2.94,5.29,13.38-1.18,21.61,20.58,4.85,56.15,12.49,56.15,12.49s10-9.26,1-21.6C672.7,398.84,629.79,389.28,629.79,389.28Z" transform="translate(-550.33 -200.67)" fill="#f9edcd"/><path d="M679.46,404.27c-9.54-2.14-35-7.81-48-10.72a21.12,21.12,0,0,0-1.64-4.27s42.91,9.56,56,12.5c9,12.34-1,21.6-1,21.6l-3.79-.82C683.17,418.81,685.2,412.18,679.46,404.27Z" transform="translate(-550.33 -200.67)" fill="#ddcfa7"/><path d="M682.26,428.23a1.74,1.74,0,0,0,.94-.27c7-4.48,8.49-13.27,7.58-19.44-.71-4.82-2.71-8.15-5.35-8.88-4.91-1.38-56-11.79-58.23-12.23a1.76,1.76,0,1,0-.7,3.45c.53.11,53.19,10.83,58,12.17.83.24,2.26,2.25,2.81,6,.73,4.94-.28,11.86-5.39,15.55-20.31-4.49-56.79-12.68-57.16-12.77a1.76,1.76,0,0,0-.78,3.44c.38.09,37.77,8.48,57.92,12.94A1.58,1.58,0,0,0,682.26,428.23Z" transform="translate(-550.33 -200.67)" fill="#d97624"/><path d="M679.86,405.65s-28.81-7.45-42.92-8.82C649.68,400.36,679.86,405.65,679.86,405.65Z" transform="translate(-550.33 -200.67)" fill="#bdaf84"/><path d="M686.13,414.56s-12.35-4.7-42.13-8.33C656.73,409.76,686.13,414.56,686.13,414.56Z" transform="translate(-550.33 -200.67)" fill="#bdaf84"/><path d="M675.55,417.4s-28.81-7.44-42.92-8.81C645.37,412.11,675.55,417.4,675.55,417.4Z" transform="translate(-550.33 -200.67)" fill="#bdaf84"/><path d="M659.94,425.53a8.28,8.28,0,0,0,.24,1.34A76.7,76.7,0,0,1,666,419.8s.85,5.57,1.73,9.21a3.66,3.66,0,0,0,.64,1.23c1.64-7.48,4.59-15.36,5.68-16.8a3.86,3.86,0,0,1-.2-1.45C668.88,412,659.94,425.53,659.94,425.53Z" transform="translate(-550.33 -200.67)" fill="#3a7666"/><path d="M665,410.86a38.08,38.08,0,0,0-5.09,14.67,85,85,0,0,1,6.08-7s.65,7.28,1.74,10.5c1.52-7.77,5-15.59,6.12-17A17.73,17.73,0,0,0,665,410.86Z" transform="translate(-550.33 -200.67)" fill="#539886"/><path d="M670,420.81l-7.5-4.88c-.31.75-.62,1.57-.91,2.45l2.17,2.57c.65-.72,1.39-1.52,2.26-2.44,0,0,.27,3,.74,6l1.59,1.87C668.83,424.43,669.4,422.55,670,420.81Z" transform="translate(-550.33 -200.67)" fill="#76b5a5"/><path d="M663.36,414c-.23.49-.48,1-.73,1.63l8.79,1.43c.6-1.46,1.16-2.68,1.63-3.6Z" transform="translate(-550.33 -200.67)" fill="#76b5a5"/><path d="M662.28,422.65c-.43-.35-1.08-.89-1.56-1.26-.13.51-.24,1-.35,1.56l1,.84C661.64,423.41,662,423,662.28,422.65Z" transform="translate(-550.33 -200.67)" fill="#76b5a5"/><path d="M631.52,355.33l46.37-13s44.05,10.7,51.19,13.19c-12.13,2.32-55.16,12.18-55.16,12.18Z" transform="translate(-550.33 -200.67)" fill="#7a74b5"/><path d="M638.54,353.36l44.56,12.11s23.65-8.15,38.43-12.15c-14.79-4-43.64-11-43.64-11Z" transform="translate(-550.33 -200.67)" fill="#5b589b"/><path d="M631.52,355.33c-5.53,2.5-5.36,18.2,1.24,22.48s44.37,13.95,44.37,13.95a20.35,20.35,0,0,1-2.45-24.47C655.59,361.67,642.22,358,631.52,355.33Z" transform="translate(-550.33 -200.67)" fill="#645fa9"/><path d="M671.75,376.06c-11.52-2.74-34.83-8.47-44.14-12.08a21.8,21.8,0,0,0,.94,7.57c7.16,3.34,31.17,9.33,44.18,12.45A18.35,18.35,0,0,1,671.75,376.06Z" transform="translate(-550.33 -200.67)" fill="#7a74b5"/><path d="M640.35,370.9c-5.62-1.07-5.09,1.6,0,2.67s16.45,4.28,20.33,4.95,3.21-1.87-1.34-2.94S640.35,370.9,640.35,370.9Z" transform="translate(-550.33 -200.67)" fill="#a89fcd"/><path d="M720.87,371.56s4.69,2.41,6.83,3.22,5.88,3.21,2.54,4.41c-4.37,1.57-53.11,11-53.11,11l-4.15-4Z" transform="translate(-550.33 -200.67)" fill="#7a74b5"/><path d="M724.88,356.31C723.42,359,720.07,368.49,726,376c-18.72,4.42-51.09,11.37-51.09,11.37s-9.1-8.43-.94-19.66C685.83,365,724.88,356.31,724.88,356.31Z" transform="translate(-550.33 -200.67)" fill="#f9edcd"/><path d="M679.67,370c8.69-1.95,31.85-7.11,43.72-9.76a19.51,19.51,0,0,1,1.49-3.89s-39,8.7-51,11.38c-8.16,11.23.94,19.66.94,19.66l3.44-.74C676.3,383.19,674.45,377.15,679.67,370Z" transform="translate(-550.33 -200.67)" fill="#ddcfa7"/><path d="M677.13,391.76a1.57,1.57,0,0,1-.86-.25c-6.41-4.06-7.72-12.07-6.9-17.69.65-4.39,2.47-7.41,4.88-8.08,4.46-1.25,51-10.73,53-11.13a1.61,1.61,0,1,1,.64,3.15c-.48.09-48.41,9.85-52.77,11.07-.76.22-2.06,2.05-2.56,5.46-.66,4.5.26,10.8,4.91,14.15,18.48-4.09,51.69-11.54,52-11.62a1.6,1.6,0,0,1,.71,3.13c-.34.08-34.37,7.72-52.71,11.78A2.07,2.07,0,0,1,677.13,391.76Z" transform="translate(-550.33 -200.67)" fill="#3c386b"/><path d="M679.32,371.21s26.21-6.78,39.06-8C706.78,366.39,679.32,371.21,679.32,371.21Z" transform="translate(-550.33 -200.67)" fill="#bdaf84"/><path d="M673.61,379.33S684.85,375,712,371.74C700.36,375,673.61,379.33,673.61,379.33Z" transform="translate(-550.33 -200.67)" fill="#bdaf84"/><path d="M683.24,381.91s26.22-6.78,39.06-8C710.71,377.1,683.24,381.91,683.24,381.91Z" transform="translate(-550.33 -200.67)" fill="#bdaf84"/><path d="M697.45,389.31a8.29,8.29,0,0,1-.22,1.22,71.3,71.3,0,0,0-5.33-6.44s-.77,5.08-1.57,8.38a3.45,3.45,0,0,1-.59,1.13c-1.49-6.81-4.17-14-5.17-15.29a3.57,3.57,0,0,0,.18-1.33C689.31,377,697.45,389.31,697.45,389.31Z" transform="translate(-550.33 -200.67)" fill="#d97624"/><path d="M692.81,376a34.73,34.73,0,0,1,4.64,13.35,77.46,77.46,0,0,0-5.54-6.39s-.59,6.62-1.58,9.55c-1.39-7.07-4.59-14.19-5.58-15.49A16.11,16.11,0,0,1,692.81,376Z" transform="translate(-550.33 -200.67)" fill="#f9bf17"/><path d="M688.29,385l6.83-4.45c.28.69.55,1.43.82,2.24l-2,2.34c-.59-.66-1.26-1.38-2.05-2.22,0,0-.24,2.71-.67,5.43l-1.45,1.71C689.35,388.31,688.83,386.6,688.29,385Z" transform="translate(-550.33 -200.67)" fill="#ffd660"/><path d="M694.33,378.77c.21.45.44,1,.66,1.49l-8,1.3c-.54-1.33-1-2.45-1.48-3.27Z" transform="translate(-550.33 -200.67)" fill="#ffd660"/><path d="M695.32,386.68c.39-.32,1-.8,1.42-1.14.11.46.22.93.32,1.42l-.87.76Z" transform="translate(-550.33 -200.67)" fill="#ffd660"/><path d="M705.12,367.46c7.32-5,17.55-12.39,19.71-14.38s1.29-4.74-4-4.83c-4.55-.07-22.74,15.12-22.74,15.12Z" transform="translate(-550.33 -200.67)" fill="#6cb552"/><path d="M723.74,338c-1.45,1.92-4.29,6-1.4,14C715.9,357.2,703,365.16,703,365.16s-2.66-11.45,2.35-17.5C712.32,343.18,723.74,338,723.74,338Z" transform="translate(-550.33 -200.67)" fill="#f9edcd"/><path d="M709.16,351a135.4,135.4,0,0,1,12-6.57,11.81,11.81,0,0,1,2.59-6.35s-11.42,5.15-18.43,9.63c-5,6-2.35,17.5-2.35,17.5s1.26-.77,3.18-2C706,359.36,706.37,354.32,709.16,351Z" transform="translate(-550.33 -200.67)" fill="#ddcfa7"/><path d="M727.18,337.77c-5.59,4.09-19.53,11.82-19.53,11.82s-35.42-2.09-79-18c-.26-1.32,30.47-8.76,30.47-8.76L725,334.54C729.58,335.36,728,337.19,727.18,337.77Z" transform="translate(-550.33 -200.67)" fill="#6cb552"/><path d="M628.68,331.54c-2.27,2.56-6.5,10.35-1,17,36.2,10.11,77.4,19,77.4,19s-4.69-11.24,2.53-17.87C672.72,344.66,628.68,331.54,628.68,331.54Z" transform="translate(-550.33 -200.67)" fill="#4e9944"/><path d="M704.06,355.76c-16.56-3.7-51.64-11.71-78.32-19a12.51,12.51,0,0,0-.33,7.41c25.5,7.06,60.24,15.07,78.58,19.19A18.76,18.76,0,0,1,704.06,355.76Z" transform="translate(-550.33 -200.67)" fill="#6cb552"/><path d="M641.42,343.39c-6-1.71-5.72,1.27-.26,2.93s40,9.83,44.19,10.93,3.69-1.75-1.18-3.35S641.42,343.39,641.42,343.39Z" transform="translate(-550.33 -200.67)" fill="#a2d082"/><path d="M706,360.85s9.7-7,14.8-9.29C716.49,354.76,706,360.85,706,360.85Z" transform="translate(-550.33 -200.67)" fill="#bdaf84"/><path d="M706.05,353.89s9.69-7,14.79-9.29C716.59,347.8,706.05,353.89,706.05,353.89Z" transform="translate(-550.33 -200.67)" fill="#bdaf84"/><path d="M704.61,358.41s8.27-6,12.62-7.92C713.6,353.22,704.61,358.41,704.61,358.41Z" transform="translate(-550.33 -200.67)" fill="#bdaf84"/><path d="M609.23,473.84l-.27,0a1.41,1.41,0,0,1-1.08-1.67l21.21-99.38a1.41,1.41,0,0,1,2.76.59l-21.21,99.38A1.41,1.41,0,0,1,609.23,473.84Z" transform="translate(-550.33 -200.67)" fill="#946043"/><path d="M651.49,396.22a1.54,1.54,0,0,1-.58-.14l-23.64-8.37a1.41,1.41,0,0,1,1.23-2.53l23.65,8.36a1.41,1.41,0,0,1-.66,2.68Z" transform="translate(-550.33 -200.67)" fill="#734730"/><path d="M647.69,413.35a1.47,1.47,0,0,1-.64-.18L624,403.69a1.41,1.41,0,0,1,1.36-2.48l23,9.49a1.4,1.4,0,0,1,.56,1.91A1.41,1.41,0,0,1,647.69,413.35Z" transform="translate(-550.33 -200.67)" fill="#734730"/><path d="M644.4,432.46a1.44,1.44,0,0,1-.72-.22l-23.56-11.76a1.41,1.41,0,0,1,1.51-2.38l23.56,11.76a1.4,1.4,0,0,1,.44,1.94A1.41,1.41,0,0,1,644.4,432.46Z" transform="translate(-550.33 -200.67)" fill="#734730"/><path d="M641.25,449.88a1.44,1.44,0,0,1-.71-.22l-24-11.76a1.41,1.41,0,1,1,1.49-2.39l24,11.76a1.41,1.41,0,0,1-.78,2.61Z" transform="translate(-550.33 -200.67)" fill="#734730"/><path d="M637.07,466.9a1.44,1.44,0,0,1-.71-.22l-24-11.76a1.41,1.41,0,0,1,1.49-2.39l24,11.76a1.41,1.41,0,0,1,.44,1.95A1.42,1.42,0,0,1,637.07,466.9Z" transform="translate(-550.33 -200.67)" fill="#734730"/><path d="M633.73,485.9l-.24,0a1.41,1.41,0,0,1-1.12-1.65L653,380.14a1.41,1.41,0,0,1,2.77.54L635.14,484.76A1.41,1.41,0,0,1,633.73,485.9Z" transform="translate(-550.33 -200.67)" fill="#946043"/><path d="M617.64,433.93s-1.29,3.37.06,5.09,9.77,2,12.17-.08c3.36-2.87-1.48-5.59-5.06-5C618.92,435,617.64,433.93,617.64,433.93Z" transform="translate(-550.33 -200.67)" fill="#383638"/><path d="M624.13,435.78c.21-1.16,1.28-2.31,2.31-2.27.73-.05,1.33.68,1.1.88a5.09,5.09,0,0,0-2.21,2.28C624.8,437.23,624,436.36,624.13,435.78Z" transform="translate(-550.33 -200.67)" fill="#faf8eb"/><path d="M621.38,435.45a2.73,2.73,0,0,1,2.31-2.29c.73,0,1.33.69,1.1.88a5.3,5.3,0,0,0-2.21,2.28C622.06,436.89,621.28,436,621.38,435.45Z" transform="translate(-550.33 -200.67)" fill="#faf8eb"/><path d="M584.61,403.73c-2,0-5.91,2.63-6.52,7.25s1.21,8.34,5.15,8.1,2.31-7.56,3.61-10.45S586.83,403.73,584.61,403.73Z" transform="translate(-550.33 -200.67)" fill="#383638"/><path d="M584.72,403.93s-4,1.46-5.09,4.28c3.58-2.45,6.16-1.18,6.54,2.27.2-3.92,1.14-3,.82-4.22C586.79,405.47,584.72,403.93,584.72,403.93Z" transform="translate(-550.33 -200.67)" fill="#302d2f"/><path d="M581.39,408.91c1.27-.66,3.53-.13,4.1,1.26.14.63.07,1.55-.47,1.31a6,6,0,0,0-3.83-1C580.25,410.32,580.71,409.26,581.39,408.91Z" transform="translate(-550.33 -200.67)" fill="#faf8eb"/><path d="M581,411.7c1.45-.4,3.4.08,4,1.16.5.73.05,1.73-.31,1.59a7.39,7.39,0,0,0-3.94-1.06C579.83,413.16,580.33,411.9,581,411.7Z" transform="translate(-550.33 -200.67)" fill="#faf8eb"/><path d="M599.52,383.69s-2.53,12.53-7.33,20.16a24.37,24.37,0,0,1-6.45-.09c-2.44,3.28-1.93,6.19-1,7.93,2.37,1.22,9.3,6.19,16.16,2.19s10.39-6.91,11.71-9.95c2.57,7.24,2.72,22.68,4.47,31,2.33.49,6.41-.83,6.41-.83s8.55-28.86,5.9-43.11C619.52,383.7,599.52,383.69,599.52,383.69Z" transform="translate(-550.33 -200.67)" fill="#919091"/><path d="M597.22,396.2l3-9L627.78,390a50.05,50.05,0,0,1,1,11.23C625,395,609.49,390.56,597.22,396.2Z" transform="translate(-550.33 -200.67)" fill="#727373"/><path d="M611.38,346.87c-8.24,3.5-10.94,14.13-14.28,39.36,5.86,7.93,25.53,7.6,33.65,5.08,1.62-13.65.27-35.42-8.34-44.32C617.4,342.46,611.38,346.87,611.38,346.87Z" transform="translate(-550.33 -200.67)" fill="#c96631"/><path d="M617.22,344.94c-.78-.19-2.28.41-3.19.6a45.91,45.91,0,0,1-1.7-5.56l-3.9,1.76s1.77,3.78,2.28,5.08c-.64.41-1,1-1.55,1.31C613.61,351.76,619.42,346.9,617.22,344.94Z" transform="translate(-550.33 -200.67)" fill="#fbc6a4"/><path d="M616.66,344.92a24.71,24.71,0,0,0-2.63.62c-.17-.42-.32-.85-.47-1.27-.2.05-.4.11-.57.14a39.12,39.12,0,0,1-1.33-4.13l-3.23,1.46s1.77,3.78,2.28,5.08a9.56,9.56,0,0,0-1.18,1C612.94,349.34,616.58,346.84,616.66,344.92Z" transform="translate(-550.33 -200.67)" fill="#eaad85"/><path d="M614,345.54c-.38-1-.7-2-1-2.84l-.52.14c-.34-.86-.63-1.75-.89-2.56l-3.22,1.46s1.67,3.57,2.23,5a5.88,5.88,0,0,0,4.46-1.45C614.72,345.37,614.34,345.48,614,345.54Z" transform="translate(-550.33 -200.67)" fill="#eaad85"/><path d="M597.17,384.58c0,.39-.17,1.4-.22,1.81,5.93,8.32,25.68,7.89,33.8,5.31,0-.47.1-1.36.13-1.85C622.72,392.22,603.55,392.16,597.17,384.58Z" transform="translate(-550.33 -200.67)" fill="#fff"/><path d="M602.76,361.71s-8.83,31.67,26.87,27.81c-11.77,2.44-26,.75-30.85-4.64C600.42,369.55,602.76,361.71,602.76,361.71Z" transform="translate(-550.33 -200.67)" fill="#ad5028"/><path d="M609.76,347.49c.67.69,2.42,2.79,5.19,1.5,1.44,2.48-1.92,4.43-5,3.38a4.21,4.21,0,0,1-3.08-3A6.18,6.18,0,0,1,609.76,347.49Z" transform="translate(-550.33 -200.67)" fill="#fff"/><path d="M614.85,345.27c.74.34,2.53,1.87.1,3.72,1.79,1.41,4.91,1.12,5.54-.41.77-1.85-1.08-4-3.06-4A4.49,4.49,0,0,0,614.85,345.27Z" transform="translate(-550.33 -200.67)" fill="#fff"/><path d="M616.52,363.17s16.86,5.72,30.9,2.26c8,2.47,10.52.28,9.19-.11,2.3,0,2.89-2,.31-1.59,2.91-.42,2.74-2.57.12-2.28,1.54-.48,2.1-2.49-1.66-2-2.3.31-4.34.48-4.34.48s2.52-2.67,1.05-3.25-4.35,2.89-5.25,4c-4.27.5-17.66,1.36-28.92-3.74C616.61,359.16,616.52,363.17,616.52,363.17Z" transform="translate(-550.33 -200.67)" fill="#fbc6a4"/><path d="M652.72,361.77a.2.2,0,0,0-.11.17.19.19,0,0,0,.18.18,33.41,33.41,0,0,0,4.77-.6.19.19,0,0,0,.13-.21.18.18,0,0,0-.2-.14,30.5,30.5,0,0,1-4.71.59Z" transform="translate(-550.33 -200.67)" fill="#ce7754"/><path d="M652.55,363.77a.18.18,0,0,0,.06.34,28.07,28.07,0,0,0,4.86-.31.17.17,0,0,0,.13-.21.18.18,0,0,0-.21-.13,27.08,27.08,0,0,1-4.77.3Z" transform="translate(-550.33 -200.67)" fill="#ce7754"/><path d="M652.33,365.19a.16.16,0,0,0-.11.13.17.17,0,0,0,.14.21,21.61,21.61,0,0,0,4.48,0,.18.18,0,1,0,0-.35,20.48,20.48,0,0,1-4.38,0Z" transform="translate(-550.33 -200.67)" fill="#ce7754"/><path d="M622.44,359.09a44.18,44.18,0,0,0-5.65-1.86s-4.6,3-.82,5.52c2,.56,3.83.64,5.61,1.34C619.55,362.91,618.19,358.76,622.44,359.09Z" transform="translate(-550.33 -200.67)" fill="#eaad85"/><path d="M617.07,368.12c-5.32.34-13.27-6.11-11.12-11.26,2.46-5.87,14.38-1.49,14.38-1.49A28.29,28.29,0,0,0,617.07,368.12Z" transform="translate(-550.33 -200.67)" fill="#a14a24"/><path d="M618.79,354.88A40.28,40.28,0,0,0,615.21,368a7.42,7.42,0,0,0,1.86.13,28.29,28.29,0,0,1,3.26-12.75S619.74,355.15,618.79,354.88Z" transform="translate(-550.33 -200.67)" fill="#fff"/><path d="M615.47,289.77c.77-.38,7,2.94,7.9,7.31s2.72,4.11,4.14,3.72c-1.93,1.95-3.35,2.34-5.28.42s-4.28-5.27-7.37-5.64A11.78,11.78,0,0,1,615.47,289.77Z" transform="translate(-550.33 -200.67)" fill="#ad4e23"/><path d="M619.24,296.3c6.76,6.24,18.84,29.42,1.65,45.43-18,16.76-37.41,8.62-48.58-4.16-13.48-15.41-5.76-33.9,5.57-42.4C595.57,281.91,610.31,288.05,619.24,296.3Z" transform="translate(-550.33 -200.67)" fill="#fbc6a4"/><path d="M577.88,295.17c-11.33,8.5-19,27-5.57,42.4a45.15,45.15,0,0,0,6.26,5.93,7.85,7.85,0,0,0,1.32-2.16c1.12.15-1.15-4-1.15-4a9,9,0,0,0,6.67-3.25c-4.38,1.83-8.82-.07-8.47-7.42s14.9-11.91,16.64-20.4A12.27,12.27,0,0,1,592,316.5c6.48-4,7.28-11.54,7.28-11.54s4.84,4,3,8.55c3.8-3.26,3.75-9.35.72-13.6,4.25.92,11.63.1,16-3.8C610.08,288,595.44,282,577.88,295.17Z" transform="translate(-550.33 -200.67)" fill="#eaad85"/><path d="M617.41,320.25c1.09,1.86,4.64,1.74,7.08-.55a5.84,5.84,0,0,0,1.21-7.56c-1.32-1.95-4.82-2.16-6.45,1.49C617.74,317.05,616.27,318.32,617.41,320.25Z" transform="translate(-550.33 -200.67)" fill="#f8af9a"/><path d="M623.12,313a.69.69,0,1,0,.28-.78A.6.6,0,0,0,623.12,313Z" transform="translate(-550.33 -200.67)" fill="#fbd3c4"/><path d="M606,321.28c.15.24.57.25.93,0s.54-.61.39-.85-.57-.24-.94,0S605.86,321,606,321.28Z" transform="translate(-550.33 -200.67)" fill="#fcd8c1"/><path d="M587.3,340.73c1.67,2.43,5.15,2.67,8.51.81s5-6.16,2.94-8.14-3.15,0-7.61.91C586.83,335.21,585.63,338.3,587.3,340.73Z" transform="translate(-550.33 -200.67)" fill="#f8af9a"/><path d="M588.72,338.05a.65.65,0,1,0,.25-.76A.58.58,0,0,0,588.72,338.05Z" transform="translate(-550.33 -200.67)" fill="#fbd3c4"/><path d="M609.39,300.41c-3.53.5-2.65,4.24-.57,3.33s4.46-1,4.64-1.33C613.87,301.66,611.37,300.13,609.39,300.41Z" transform="translate(-550.33 -200.67)" fill="#9b3d21"/><path d="M582.9,318.26c1.79-3.08,4.92-.87,3.29.71s-2.6,3.77-3,3.81C582.37,322.88,581.89,320,582.9,318.26Z" transform="translate(-550.33 -200.67)" fill="#9b3d21"/><path d="M571.71,337.11a18,18,0,0,1-4.09-14.19,21.75,21.75,0,0,0,4.78,11.76c10.63,12.82,31.35,20.62,47.42,4.81,11-10.89,8.67-25,4.56-34.83,4.85,9.69,8.54,22.59-4.11,36C605.39,356.42,582.35,349.93,571.71,337.11Z" transform="translate(-550.33 -200.67)" fill="#eaad85"/><path d="M615.11,323.18s7,10.79-.54,15.95-12.19-6.64-12.19-6.64S609,331,615.11,323.18Z" transform="translate(-550.33 -200.67)" fill="#4d1f1c"/><path d="M608.77,329.29c1.22,2.92,2.35,7.36,0,10.75-4.07-1.59-6.43-7.55-6.43-7.55A20.17,20.17,0,0,0,608.77,329.29Z" transform="translate(-550.33 -200.67)" fill="#321514"/><path d="M617.9,334a7.6,7.6,0,0,1-3.33,5.11c-3.72,2.55-6.74.95-8.85-1.32a2.65,2.65,0,0,1,2.64-1.88C608.67,333.05,614.56,332.29,617.9,334Z" transform="translate(-550.33 -200.67)" fill="#ec756c"/><path d="M607,336.89a2.42,2.42,0,0,1,1.78-.72,2.23,2.23,0,0,1,1.44-1.94c3-1.54,8.13-.13,5,3.17S605.16,338.92,607,336.89Z" transform="translate(-550.33 -200.67)" fill="#f48f87"/><path d="M613.33,334.2c-.93-.36-2.72,0-3,.61s1.45.88,2.41.58S613.94,334.42,613.33,334.2Z" transform="translate(-550.33 -200.67)" fill="#f7b0ad"/><path d="M613.22,325.37c.9,1.05,1.15,2.07-.15,3.48a18.11,18.11,0,0,1-4.71,3.53c-1.82.88-3.09.52-3.6-.77A27.78,27.78,0,0,0,613.22,325.37Z" transform="translate(-550.33 -200.67)" fill="#fff"/><path d="M592.68,320.39a6.05,6.05,0,1,1-7.89,3.91A6.23,6.23,0,0,1,592.68,320.39Z" transform="translate(-550.33 -200.67)" fill="#eaad85"/><path d="M590.12,331c-1.51,1.32-1.36,2.33.34,2.25a11.33,11.33,0,0,0,5.81-2.53c1.51-1.33,1.35-2.34-.34-2.26A11.27,11.27,0,0,0,590.12,331Z" transform="translate(-550.33 -200.67)" fill="#eaad85"/><path d="M592.73,320.11a5.9,5.9,0,1,1-7.68,3.81A6.08,6.08,0,0,1,592.73,320.11Z" transform="translate(-550.33 -200.67)" fill="#fff"/><path d="M585.81,326.73a5.62,5.62,0,0,0,3.61,3.3,5.38,5.38,0,0,0,6.81-3.38,4.92,4.92,0,0,0,.14-2.31,4.94,4.94,0,0,1,.14,3.31A5.37,5.37,0,0,1,589.7,331,5.54,5.54,0,0,1,585.81,326.73Z" transform="translate(-550.33 -200.67)" fill="#d9dbdc"/><path d="M596.1,324.43a3.2,3.2,0,1,1-4.58-.78A3.3,3.3,0,0,1,596.1,324.43Z" transform="translate(-550.33 -200.67)" fill="#8b6c5a"/><path d="M596.2,325.55a2,2,0,1,1-2.83-.48A2,2,0,0,1,596.2,325.55Z" transform="translate(-550.33 -200.67)" fill="#231f20"/><path d="M595.55,324.53a.81.81,0,1,1-1.29,1,.81.81,0,1,1,1.29-1Z" transform="translate(-550.33 -200.67)" fill="#fff"/><path d="M595,328.39a.52.52,0,0,1-.09.72.52.52,0,0,1-.62-.83A.52.52,0,0,1,595,328.39Z" transform="translate(-550.33 -200.67)" fill="#fff"/><path d="M607.42,311.85a5.31,5.31,0,1,0,3.67-6.8A5.47,5.47,0,0,0,607.42,311.85Z" transform="translate(-550.33 -200.67)" fill="#eaad85"/><path d="M611.94,315.25c-1.32,1.16-1.19,2,.29,2a9.89,9.89,0,0,0,5.06-2.22c1.32-1.15,1.19-2-.29-2A9.83,9.83,0,0,0,611.94,315.25Z" transform="translate(-550.33 -200.67)" fill="#eaad85"/><path d="M608,311.62a5.25,5.25,0,1,0,3.62-6.72A5.4,5.4,0,0,0,608,311.62Z" transform="translate(-550.33 -200.67)" fill="#fff"/><path d="M608.73,311.74a5.19,5.19,0,0,1-.14-1.74,5.13,5.13,0,0,0,.16.94,4.76,4.76,0,0,0,5.72,3.53,4.56,4.56,0,0,0,3-2.87,4.5,4.5,0,0,1-3.2,3.59A4.66,4.66,0,0,1,608.73,311.74Z" transform="translate(-550.33 -200.67)" fill="#d9dbdc"/><path d="M612.72,312.86a2.84,2.84,0,1,0,.46-4.11A2.93,2.93,0,0,0,612.72,312.86Z" transform="translate(-550.33 -200.67)" fill="#8b6c5a"/><path d="M614.59,312.38a1.7,1.7,0,1,0,.27-2.46A1.74,1.74,0,0,0,614.59,312.38Z" transform="translate(-550.33 -200.67)" fill="#231f20"/><path d="M615.5,310.37a.72.72,0,1,0,.11-1A.73.73,0,0,0,615.5,310.37Z" transform="translate(-550.33 -200.67)" fill="#fff"/><path d="M615.28,313.27a.44.44,0,1,0,.7-.52.46.46,0,0,0-.63-.11A.45.45,0,0,0,615.28,313.27Z" transform="translate(-550.33 -200.67)" fill="#fff"/><path d="M608.36,323.91l0,0a2.5,2.5,0,0,0,.25-3.11,2.41,2.41,0,0,0-2.55-1.06c-.53.17-1.42.76-1.38,2.81a.17.17,0,0,0,.17.16.17.17,0,0,0,.16-.17c0-1.36.38-2.24,1.14-2.48a2.06,2.06,0,0,1,2.18.94,2.13,2.13,0,0,1-.23,2.7.16.16,0,0,0,0,.23A.15.15,0,0,0,608.36,323.91Z" transform="translate(-550.33 -200.67)" fill="#ce7754"/><path d="M591.5,304.8s.42,6.56-1.88,10.66c4-3.53,6.84-11.86,6.84-11.86s4.7,4.52,2.83,9.19c2.87-1.8,4.24-11.53,3.6-14.06,8.5,1.85,29.27-3.08,15.62-24.9-.15,3.86-.94,5.2-3.41,6.21-.23-1.71-1.71-4.13-2.9-4.56.87,2.2,1.31,5.34-3.44,3.88s-9.49-9-24.1-5.73-26,11.71-24.86,21.56c-7.46,3.51-9.17,10.61-7.1,17.31s-.53,8.46-2.37,9.55a4.08,4.08,0,0,0,3.76-1.62c.15,3.17-1.6,4.83,3.1,8s14.3,12.26,9.88,16.4c2,2.68,9.49,2.61,12-3.38,1.15.15-1.19-4.14-1.19-4.14s3.59,2.55,6.33-.88c-3.5-.49-8.55-2.55-8.18-10.12S589.71,313.55,591.5,304.8Z" transform="translate(-550.33 -200.67)" fill="#95371f"/><path d="M587.76,297.78s9,3.54,1.86,17.68c11.85-8.83,7.88-19.08,3.7-22.22,4.69,1,9.59,14.33,5.76,19.93,5.46-2.11,8.1-18.7-3.71-23.52,12.45,6.3,36.8,7.86,23.14-15.82a15.35,15.35,0,0,1-6.77,10c3.06-3.28,1.65-7.95.46-8.38.87,2.2,1.31,5.34-3.44,3.88s-9.49-9-24.1-5.73-26,11.71-24.86,21.56c-7.46,3.51-9.17,10.61-7.1,17.31s-.53,8.46-2.37,9.55c1.72.08,4-3.71,5.24-5,1.1,4.2-3.08,8.23,1.62,11.42s1.58,5.25-.58,6.22c1,2,7.64,6.18,11.79-2.32-1.62,5.54,3.09,8.36-1.33,12.5,2,2.68,9.49,2.61,12-3.38,1.15.15-5.74-6.49-5.74-6.49s5.06,3.09,6.57,1.92c-2.5-1.63-6.71-3.85-6.34-11.42S596.21,306.12,587.76,297.78Z" transform="translate(-550.33 -200.67)" fill="#bc5427"/><path d="M561.21,292.29s-3.08-3.32-2.09-6.62c-2.91,1.37-2.46,5.44-.87,7.66-5-.47-6.64,4.31-6.64,4.31s5.82-3,7.78-1.17C563,295.89,561.21,292.29,561.21,292.29Z" transform="translate(-550.33 -200.67)" fill="#bc5427"/><path d="M603.35,285.59s11.95,3.88,15.85-7.75c.5,7.67-.92,14.27-9.61,14.31,4.2-1.63,6.19-3.71,7.48-7.3C613.21,287.41,607.08,287.44,603.35,285.59Z" transform="translate(-550.33 -200.67)" fill="#cd6d36"/><path d="M574.29,297.91c-.48,0,14.61-2.09,13.34,4.45s-10.78,11.93-13,16.36c0-2.45,3.08-5.78,6.45-9.74S584.81,297.76,574.29,297.91Z" transform="translate(-550.33 -200.67)" fill="#cd6d36"/><path d="M560.1,296.36s-8,2.94-6.92,13.21A19.85,19.85,0,0,1,560.1,296.36Z" transform="translate(-550.33 -200.67)" fill="#cd6d36"/><path d="M603.64,278.68s6.68,3.45,9.41.58C611.72,281.3,609.86,284.21,603.64,278.68Z" transform="translate(-550.33 -200.67)" fill="#cd6d36"/><path d="M594.18,290.5s10.43,2.5,7.88,12.63C600.75,298,601.52,295.82,594.18,290.5Z" transform="translate(-550.33 -200.67)" fill="#cd6d36"/><path d="M561.77,298.63c-2.57-.49-8.23,13.45-1.57,21.84-1.28-8,.69-11.87.69-11.87s-1.75,6.68,4.32,16.81c-1.25-13.56,2.41-19.17,2.41-19.17a153.19,153.19,0,0,1-.43,15.81c5.14-10.38,3.3-21.87.42-23.39-2.71-1-4.65,10.85-4.65,10.85S564,299.06,561.77,298.63Z" transform="translate(-550.33 -200.67)" fill="#d68956"/><path d="M561.54,292.62c2.33-7,8.37-16.19,27.48-17.5-9.27,2-14.18,6.62-14.18,6.62s19.49-7.45,30.56-.61c-8.63-3-23.88-1-33.95,7.33,8.08-.84,18.8-4.39,18.8-4.39s-14.44,9.77-22.5,8a25.76,25.76,0,0,0,14,1.65s-12.26,4.13-18.85-.33c2.24-3.76,5.66-7.23,12.64-10.26C568.24,282.84,561.54,292.62,561.54,292.62Z" transform="translate(-550.33 -200.67)" fill="#d68956"/><path d="M578.9,338.65a5.65,5.65,0,0,0-6.7.8c-3.31,3.13.48,8.45,5.24,9.14s8.48-2.8,6.92-6Z" transform="translate(-550.33 -200.67)" fill="#fbc6a4"/><path d="M572.81,339.36a5.18,5.18,0,0,1,2.41-1.33,3.7,3.7,0,0,0-1.71,1c-3,3.06.42,6.74,3.61,7.65,4.32,1.23,7.35-1.47,7.07-4.45,1.45,3-2.05,6.25-6.5,5.63S569.7,342.29,572.81,339.36Z" transform="translate(-550.33 -200.67)" fill="#eaad85"/><path d="M573.07,341.26c1.39-2.64,7.61-.68,7.52,4.36-2.26-4-4.38-3.71-4.13-.81-1.07-.89-1.29-2,0-3.27A3.76,3.76,0,0,0,573.07,341.26Z" transform="translate(-550.33 -200.67)" fill="#d5956a"/><path d="M740,238.07s12.68,20.84-1.7,41.63a45.3,45.3,0,0,0-.61-10.24s-6.3,15.81.2,20.72c-6.68-1.3-8.85-8.41-8.85-8.41s-1.31,12.11,5.18,15.85c-9.87.32-39.54-2.22-49.51-23.56S740,238.07,740,238.07Z" transform="translate(-550.33 -200.67)" fill="#323031"/><path d="M701.71,290.76c-.24-3.64-1.2-7.9-4.25-9.21-5.62-2.42-7.28-.8-3.69,3.64a42.66,42.66,0,0,1-8-12.76l53.6-19s5.17,7.55,2.78,16.39c-.64-6.91-7.41-8.56-8.8,4.86-1.65-3.24-13.38,7.31-4.09,22.88C722,297.19,711.24,295.58,701.71,290.76Z" transform="translate(-550.33 -200.67)" fill="#292627"/><path d="M707.37,272.37s.88,4.78,1.13,6.05c1.29,0,6.13.39,6.13.39l2.09,6.44-16.21,3.68.87-8.38s-.86.06,3.32-1.52c-.53-2.57-1.24-6.08-1.24-6.08Z" transform="translate(-550.33 -200.67)" fill="#fbc6a4"/><path d="M711,278.57c-.61,0-1.83-.15-2.54-.15-.25-1.27-1.13-6.05-1.13-6.05l-3.91.58s.71,3.51,1.24,6.08a14.58,14.58,0,0,1-1.82.77C703.56,280.31,706.6,282.31,711,278.57Z" transform="translate(-550.33 -200.67)" fill="#eaad85"/><path d="M684.55,327s-14.32,4.4-28.6,4.7c-1.36.88,1.06,4.49,1.06,4.49s19.39-.25,28.82-4.5C686,327.52,684.55,327,684.55,327Z" transform="translate(-550.33 -200.67)" fill="#fbc6a4"/><path d="M685.78,331.53l-2.07.68-3.72.84c1.63-.35,2.55-2.62,1.69-3.66s-2.42-.89-4.66-.47l0,0c4.55-1,7.5-1.93,7.5-1.93S685.91,327.47,685.78,331.53Z" transform="translate(-550.33 -200.67)" fill="#eaad85"/><path d="M662.33,335.91c0,.58-.51,2.2-2.07,1-1.12.11-4,.12-5.58.21-.74-1.84-.3-5.62-.3-5.62s4.56-.35,5.64-.42c0-1.12,1.15-1,1.67.28A14.25,14.25,0,0,1,662.33,335.91Z" transform="translate(-550.33 -200.67)" fill="#fff"/><path d="M656.61,337a10,10,0,0,0,.06-5.7c-.1-.66-1.29-1-2.2-.68s-2.46-1-2.58-2a4.22,4.22,0,0,0-1.33-5.34,5.32,5.32,0,0,0-4.12-.39c-1,.81-.83,6.46-.1,9.53a17.42,17.42,0,0,0,2.63,6.08,6.46,6.46,0,0,0,3.25-.38c1.64-.57,4.32.67,5.2-1.15C656.93,337,656.61,337,656.61,337Z" transform="translate(-550.33 -200.67)" fill="#f79e28"/><path d="M646.67,323a1.88,1.88,0,0,1,1.53,0,35.28,35.28,0,0,1,2.1,8.27A40.22,40.22,0,0,0,651,337c0,.14,1.12-.09,2.76-.65a2.38,2.38,0,0,1,2.25,0,1.5,1.5,0,0,0,.58.68h.4c-.24,1-3.24-.32-6.78,1-1.63.58-1.16.66-1.26.55a17.42,17.42,0,0,1-2.63-6.08C645.61,329.4,645.7,323.8,646.67,323Z" transform="translate(-550.33 -200.67)" fill="#d97624"/><path d="M647.7,322.75c1.86,3.42,2.31,10,2.86,15.89,0,.92-1.89,1.22-2.55.83.49-2.37.23-4.75-.49-8.92s-1.06-6.32-1.88-7.33A1.32,1.32,0,0,1,647.7,322.75Z" transform="translate(-550.33 -200.67)" fill="#ffdfbd"/><path d="M645.1,324.15c.12-.32.46-1.57,1.09-1s1.44,4.46,1.77,7.41,1.27,8.92,0,8.91c-1.7,0-2.7-5.91-3-8.54C644.63,327.53,644.74,325.18,645.1,324.15Z" transform="translate(-550.33 -200.67)" fill="#e2c29e"/><path d="M690.35,332.18s-13.93,5.51-28.14,6.93c-1.29,1,1.4,4.39,1.4,4.39s18.85-1.66,27.92-6.63C691.35,332.74,690.35,332.18,690.35,332.18Z" transform="translate(-550.33 -200.67)" fill="#fbc6a4"/><path d="M691.53,336.8l-1.6.69-3.65,1.12c1.6-.47,2.34-2.8,1.39-3.78s-2.47-.7-4.67-.1l0,0c4.45-1.37,7.32-2.51,7.32-2.51S691.34,332.74,691.53,336.8Z" transform="translate(-550.33 -200.67)" fill="#eaad85"/><path d="M668.9,342.85c0,.58-.33,2.22-2,1.2-1.11.21-4,.44-5.55.65-.88-1.77-.74-5.57-.74-5.57l5.6-.87c-.14-1.12,1.06-1.13,1.68.15A14,14,0,0,1,668.9,342.85Z" transform="translate(-550.33 -200.67)" fill="#fff"/><path d="M663.29,344.42a10,10,0,0,0-.39-5.69c-.15-.66-1.36-.89-2.25-.51s-2.52-.76-2.73-1.78a4.21,4.21,0,0,0-1.73-5.21,5.38,5.38,0,0,0-4.14-.07c-.92.89-.33,6.51.64,9.51a17.29,17.29,0,0,0,3.1,5.85,6.29,6.29,0,0,0,3.21-.63c1.59-.69,4.36.33,5.1-1.55C663.6,344.37,663.29,344.42,663.29,344.42Z" transform="translate(-550.33 -200.67)" fill="#f9bf17"/><path d="M652.28,331.19a1.91,1.91,0,0,1,1.52-.16,35.32,35.32,0,0,1,2.74,8.08,41,41,0,0,0,1.17,5.71c0,.15,1.11-.18,2.7-.87a2.42,2.42,0,0,1,2.25-.17,1.48,1.48,0,0,0,.63.64l.39,0c-.15,1.06-3.25-.07-6.67,1.49-1.58.71-1.11.75-1.22.64a17.29,17.29,0,0,1-3.1-5.85C651.72,337.67,651.37,332.08,652.28,331.19Z" transform="translate(-550.33 -200.67)" fill="#f79e28"/><path d="M653.28,330.87c2.13,3.27,3.09,9.79,4.11,15.62,0,.92-1.8,1.37-2.49,1,.31-2.4-.14-4.76-1.19-8.86s-1.54-6.21-2.45-7.16A1.33,1.33,0,0,1,653.28,330.87Z" transform="translate(-550.33 -200.67)" fill="#ffdfbd"/><path d="M650.74,332.92c0-1,.49-2,1.08-1.53s1.9,4.41,2.46,7.32,1.81,8.54.62,8.81-2.68-5.73-3.24-8.32A34,34,0,0,1,650.74,332.92Z" transform="translate(-550.33 -200.67)" fill="#e2c29e"/><path d="M712.42,322.08s-7.66,11.54-41.9,14a31,31,0,0,1-1.11-6.09c19.33-6.58,26.58-13.89,31.26-15.53C705.11,316.27,712.42,322.08,712.42,322.08Z" transform="translate(-550.33 -200.67)" fill="#b53224"/><path d="M720.56,328.27s4.47,12.37-45,13.81a26.7,26.7,0,0,1-1.09-5.59C693.76,329.92,701,322.6,705.69,321,710.13,322.79,720.56,328.27,720.56,328.27Z" transform="translate(-550.33 -200.67)" fill="#ee4734"/><path d="M694.77,313.86c3.35.69-3.91,11.57-5.47,17.05,20,1.83-1.39,8.56-6.32,8.29a16.73,16.73,0,0,1-7.72-2.09,17.88,17.88,0,0,0,1.13,4.19C687.72,340,713,336.41,715.46,327,711.23,317.13,696.69,314.06,694.77,313.86Z" transform="translate(-550.33 -200.67)" fill="#c8382a"/><path d="M718.84,280.5c-1.54-1.72-5.42-1.89-5.42-1.89s-3.77,8.06-9.3,7.43c-3.72-.43-2.43-5.84-2.43-5.84l-3.28,1.43c-2.27,2.07-5,8.73-6.69,19.59a102.17,102.17,0,0,0-1.47,16.6c12.69-2.65,26.4,13.57,33.19,11.59-2.26-7.77.2-21.16-2.17-37.18C719.92,283.16,718.84,280.5,718.84,280.5Z" transform="translate(-550.33 -200.67)" fill="#36b88c"/><path d="M701.62,283.63a2.8,2.8,0,0,0,2.5,2.41,6.86,6.86,0,0,0,5.28-2c2.47.2,4.07.4,4.07.4s-.76,23,.13,41.64c-6.84-4-15.3-9.95-23.35-8.27a102.17,102.17,0,0,1,1.47-16.6c1.33-8.49,3.28-14.41,5.15-17.58C698.47,283.59,700.07,283.59,701.62,283.63Z" transform="translate(-550.33 -200.67)" fill="#209e75"/><path d="M715.77,321.94a3.15,3.15,0,0,1,.78,2.53,2.63,2.63,0,0,1-.49,1.15A8.39,8.39,0,0,1,715.77,321.94Z" transform="translate(-550.33 -200.67)" fill="#177b5b"/><path d="M715.77,321.94a3.15,3.15,0,0,1,.78,2.53,2.63,2.63,0,0,1-.49,1.15A8.39,8.39,0,0,1,715.77,321.94Z" transform="translate(-550.33 -200.67)" fill="#177b5b"/><path d="M701.78,291.29c-.9-3.3-5.38-4-6.25.28s-3.09,12.82-4,20.5C698.32,305.83,704,299.55,701.78,291.29Z" transform="translate(-550.33 -200.67)" fill="#69c3a2"/><path d="M709.37,319.08c-8.35-2.75-13.29-4.82-19.2-2.66C696,316.05,708,319,718,327.84c1.67-6.3,2.06-25,1.18-34.35C719.36,300.79,717.73,321.83,709.37,319.08Z" transform="translate(-550.33 -200.67)" fill="#209e75"/><path d="M698.5,283.48c-.38-.3-1.07.27-.89,1.16s.89.84,1,.33S698.92,283.8,698.5,283.48Z" transform="translate(-550.33 -200.67)" fill="#c0e3d7"/><path d="M702.68,288.3c-.38-.29-1.07.28-.88,1.16s.88.84,1,.33S703.1,288.63,702.68,288.3Z" transform="translate(-550.33 -200.67)" fill="#c0e3d7"/><path d="M696,291.1c-.38-.29-1.07.28-.89,1.17s.89.83,1,.32S696.46,291.43,696,291.1Z" transform="translate(-550.33 -200.67)" fill="#c0e3d7"/><path d="M710.51,286c-.38-.3-1.07.27-.89,1.16s.89.84,1,.32S710.93,286.36,710.51,286Z" transform="translate(-550.33 -200.67)" fill="#c0e3d7"/><path d="M715.13,281.36c-.37-.3-1.07.28-.88,1.16s.88.84,1,.33S715.55,281.68,715.13,281.36Z" transform="translate(-550.33 -200.67)" fill="#c0e3d7"/><path d="M718.18,287.12c-.38-.3-1.07.28-.88,1.16s.88.84,1,.33S718.61,287.44,718.18,287.12Z" transform="translate(-550.33 -200.67)" fill="#c0e3d7"/><path d="M706.91,291.89c-.37-.29-1.07.28-.88,1.17s.88.83,1,.32S707.33,292.22,706.91,291.89Z" transform="translate(-550.33 -200.67)" fill="#c0e3d7"/><path d="M714.2,292c-.38-.29-1.07.28-.89,1.16s.89.84,1,.33S714.62,292.31,714.2,292Z" transform="translate(-550.33 -200.67)" fill="#c0e3d7"/><path d="M720.49,295.34c-.37-.3-1.06.27-.87,1.16s.87.84,1,.33S720.92,295.66,720.49,295.34Z" transform="translate(-550.33 -200.67)" fill="#c0e3d7"/><path d="M716.17,298.39c-.38-.3-1.07.28-.89,1.16s.89.84,1,.33S716.59,298.71,716.17,298.39Z" transform="translate(-550.33 -200.67)" fill="#c0e3d7"/><path d="M709.18,298.68c-.38-.29-1.07.28-.89,1.17s.89.84,1,.32S709.59,299,709.18,298.68Z" transform="translate(-550.33 -200.67)" fill="#c0e3d7"/><path d="M701.2,297.55c-.37-.29-1.07.28-.88,1.16s.88.84,1,.33S701.62,297.88,701.2,297.55Z" transform="translate(-550.33 -200.67)" fill="#c0e3d7"/><path d="M694.56,300.16c-.38-.3-1.07.28-.88,1.16s.88.84,1,.33S695,300.48,694.56,300.16Z" transform="translate(-550.33 -200.67)" fill="#c0e3d7"/><path d="M697.42,305.33c-.38-.3-1.08.27-.89,1.16s.89.84,1,.33S697.83,305.65,697.42,305.33Z" transform="translate(-550.33 -200.67)" fill="#c0e3d7"/><path d="M704.85,305.33c-.38-.3-1.07.27-.89,1.16s.89.84,1,.33S705.27,305.65,704.85,305.33Z" transform="translate(-550.33 -200.67)" fill="#c0e3d7"/><path d="M713.26,306.8c-.38-.29-1.07.28-.88,1.17s.88.83,1,.32S713.68,307.13,713.26,306.8Z" transform="translate(-550.33 -200.67)" fill="#c0e3d7"/><path d="M720.25,308.18c-.38-.29-1.07.28-.89,1.16s.89.84,1,.33S720.67,308.51,720.25,308.18Z" transform="translate(-550.33 -200.67)" fill="#c0e3d7"/><path d="M720.54,317.53c-.37-.29-1.07.28-.88,1.17s.88.84,1,.32S721,317.86,720.54,317.53Z" transform="translate(-550.33 -200.67)" fill="#c0e3d7"/><path d="M720.89,324.37c-.38-.29-1.07.28-.88,1.17s.88.83,1,.32S721.31,324.7,720.89,324.37Z" transform="translate(-550.33 -200.67)" fill="#c0e3d7"/><path d="M713.42,316.07c-.38-.3-1.07.27-.88,1.16s.88.84,1,.32S713.84,316.39,713.42,316.07Z" transform="translate(-550.33 -200.67)" fill="#c0e3d7"/><path d="M707,313.15c-.38-.29-1.07.28-.88,1.17s.88.83,1,.32S707.43,313.48,707,313.15Z" transform="translate(-550.33 -200.67)" fill="#c0e3d7"/><path d="M700.22,312.61c-.38-.29-1.07.28-.89,1.16s.89.84,1,.33S700.64,312.93,700.22,312.61Z" transform="translate(-550.33 -200.67)" fill="#c0e3d7"/><path d="M692.89,312c-.38-.29-1.07.28-.89,1.16s.89.84,1,.33S693.31,312.35,692.89,312Z" transform="translate(-550.33 -200.67)" fill="#c0e3d7"/><path d="M666.5,298.18a6.3,6.3,0,0,1-6.16.81c-.82-.68-2.4-2.22-3.31-1.58s.22,1.77,1,2.4c-3.17-.91-4.6.17-4.53.82.13,1.22,3.89.72,3.89.72s-4.57.5-4.08,2.09c.43,1.35,4.45-.41,4.45-.41s-3.63,1.77-2.45,2.86,3.67-1.55,3.67-1.55-1.4,2.45-.41,2.91,2.9-3,3.27-4.18c4.44,1.18,6.71.82,7-1.54Z" transform="translate(-550.33 -200.67)" fill="#fbc6a4"/><path d="M675,237.43c-2.35,8.87-1.34,35.1,23.24,39.67s36.6-13,39.21-29.92C740.61,226.72,724,215.13,709.7,214,687.41,212.31,678.16,225.55,675,237.43Z" transform="translate(-550.33 -200.67)" fill="#fbc6a4"/><path d="M675.28,246.9l1.62.13a11,11,0,0,0,.93,4.9,11.16,11.16,0,0,0,14.7,5.68l.18-.09a11.2,11.2,0,0,0,6.43-10l5,.19a11.12,11.12,0,0,0,15.61,11l.18-.08a11.11,11.11,0,0,0,6.05-7.22l7.47,2.65a.54.54,0,0,0,.45,0,.55.55,0,0,0,.31-.34.59.59,0,0,0-.36-.76l-7.62-2.71a11,11,0,0,0-.81-6.21,11.14,11.14,0,0,0-14.69-5.67l-.18.08a11.17,11.17,0,0,0-6.25,8.12l-5.2-.2a10.91,10.91,0,0,0-.89-3.39,11.16,11.16,0,0,0-14.7-5.67l-.18.08a11.16,11.16,0,0,0-6.31,8.51l-1.63-.13a.6.6,0,1,0-.1,1.2ZM711,239.47l.16-.08a9.94,9.94,0,0,1,8.22,18.11l-.16.07a9.94,9.94,0,0,1-8.22-18.1Zm-27.21-1.06.16-.08a9.94,9.94,0,0,1,8.21,18.11l-.16.07a9.93,9.93,0,0,1-13.11-5.06A10,10,0,0,1,683.83,238.41Z" transform="translate(-550.33 -200.67)" fill="#eaad85"/><path d="M675,237.43c3.14-11.88,12.39-25.12,34.68-23.4,14.28,1.1,30.91,12.69,27.77,33.15a47.74,47.74,0,0,1-1.51,6.58c-13.27-8.09-15.18-24.55-15.18-24.55-4.94,13.5-25.06,6.12-29.56,2.6-8.93-7-16.7,5.07-16.79,13.05-.08.21-.17.4-.26.6A31.66,31.66,0,0,1,675,237.43Z" transform="translate(-550.33 -200.67)" fill="#eaad85"/><path d="M689.58,256.87c.07,2.19-3,4-6.34,3.38a5.9,5.9,0,0,1-5.14-5.8c.07-2.37,2.95-4.45,6.31-2.21C687.56,254.32,689.51,254.61,689.58,256.87Z" transform="translate(-550.33 -200.67)" fill="#f8af9a"/><path d="M678.45,253.12a3.25,3.25,0,0,1,.8-1,9.89,9.89,0,0,0,5.19,4.59,9.76,9.76,0,0,0,5.12.54,2.62,2.62,0,0,1-.55,1.27A11.17,11.17,0,0,1,678.45,253.12Z" transform="translate(-550.33 -200.67)" fill="#ea9b85"/><path d="M680.78,253.81c0,.29-.3.51-.67.51s-.67-.22-.67-.51a.61.61,0,0,1,.67-.52A.61.61,0,0,1,680.78,253.81Z" transform="translate(-550.33 -200.67)" fill="#fbd3c4"/><path d="M699.87,251.57c0,.29-.36.51-.8.51s-.78-.22-.78-.51.35-.51.79-.51S699.87,251.29,699.87,251.57Z" transform="translate(-550.33 -200.67)" fill="#fcd8c1"/><path d="M725.46,256.46c-.11,3-2.94,5.08-6.82,5.3s-7.57-2.56-6.92-5.34,2.66-1.73,7-3.36S725.57,253.48,725.46,256.46Z" transform="translate(-550.33 -200.67)" fill="#f8af9a"/><path d="M711.75,257.78a9.94,9.94,0,0,0,7.51-.21l.16-.07a9.91,9.91,0,0,0,4.53-4.28,3.5,3.5,0,0,1,.88.88,11,11,0,0,1-4.91,4.48l-.18.08a11,11,0,0,1-7.19.62A3.78,3.78,0,0,1,711.75,257.78Z" transform="translate(-550.33 -200.67)" fill="#ea9b85"/><path d="M722.8,254.94a.58.58,0,0,1-.65.48c-.36,0-.63-.25-.62-.52s.3-.48.65-.47S722.81,254.68,722.8,254.94Z" transform="translate(-550.33 -200.67)" fill="#fbd3c4"/><path d="M685.65,235.6c3.28-1.49,4.57,2.17,2.3,2.52-2.44.38-4.35,1.58-4.69,1.39C682.51,239.09,683.81,236.43,685.65,235.6Z" transform="translate(-550.33 -200.67)" fill="#292627"/><path d="M718,235.88c-3.21-1.65-4.68,1.93-2.43,2.4,2.42.5,4.26,1.8,4.61,1.63C721,239.53,719.83,236.81,718,235.88Z" transform="translate(-550.33 -200.67)" fill="#292627"/><path d="M737.72,246.47a18.24,18.24,0,0,0-4.2-14.33,22.09,22.09,0,0,1,2.3,12.62c-2.12,16.71-15.57,34.62-37.86,29.84-15.33-3.29-21-16.66-22.79-27.24,1.12,10.9,5,23.9,23,28.48C719.47,281.22,735.6,263.18,737.72,246.47Z" transform="translate(-550.33 -200.67)" fill="#eaad85"/><path d="M699.34,255.07a.13.13,0,0,1-.12,0,2.54,2.54,0,0,1-1.9-2.51,2.47,2.47,0,0,1,1.6-2.3c.55-.14,1.63-.12,2.7,1.65a.17.17,0,0,1-.06.23.16.16,0,0,1-.23-.05c-.71-1.18-1.53-1.71-2.32-1.5a2.08,2.08,0,0,0-1.35,2,2.16,2.16,0,0,0,1.66,2.18.17.17,0,0,1,.11.21A.15.15,0,0,1,699.34,255.07Z" transform="translate(-550.33 -200.67)" fill="#ce7754"/><path d="M710.49,243.1a5.66,5.66,0,1,0,8.13-1.3A5.83,5.83,0,0,0,710.49,243.1Z" transform="translate(-550.33 -200.67)" fill="#eaad85"/><path d="M718.16,249.76c1.87.19,2.3,1,1,1.9a10.55,10.55,0,0,1-5.81,1.21c-1.87-.19-2.3-1-1-1.9A10.53,10.53,0,0,1,718.16,249.76Z" transform="translate(-550.33 -200.67)" fill="#eaad85"/><path d="M710.3,242.92a5.52,5.52,0,1,0,7.92-1.27A5.68,5.68,0,0,0,710.3,242.92Z" transform="translate(-550.33 -200.67)" fill="#fff"/><path d="M719.16,244.21a5.25,5.25,0,0,1-1,4.47,5,5,0,0,1-7,1.12,4.61,4.61,0,0,1-1.36-1.69,4.68,4.68,0,0,0,1.69,2.6,5,5,0,0,0,7-1.12A5.2,5.2,0,0,0,719.16,244.21Z" transform="translate(-550.33 -200.67)" fill="#d9dbdc"/><path d="M710.84,248.49a3,3,0,1,0,3.07-3.08A3.08,3.08,0,0,0,710.84,248.49Z" transform="translate(-550.33 -200.67)" fill="#b5b7b9"/><path d="M711.55,249.49a1.85,1.85,0,1,0,1.9-1.91A1.91,1.91,0,0,0,711.55,249.49Z" transform="translate(-550.33 -200.67)" fill="#231f20"/><path d="M715.48,247.66a.76.76,0,1,0,.78-.78A.78.78,0,0,0,715.48,247.66Z" transform="translate(-550.33 -200.67)" fill="#fff"/><path d="M711.54,248.51a.46.46,0,0,0,.44.49.47.47,0,0,0,.48-.47.48.48,0,0,0-.45-.5A.47.47,0,0,0,711.54,248.51Z" transform="translate(-550.33 -200.67)" fill="#fff"/><path d="M693,244.05a5.37,5.37,0,1,1-7-3.46A5.53,5.53,0,0,1,693,244.05Z" transform="translate(-550.33 -200.67)" fill="#eaad85"/><path d="M691.25,249.5c1.76.18,2.16,1,.91,1.79a10,10,0,0,1-5.48,1.14c-1.76-.18-2.16-1-.91-1.79A9.94,9.94,0,0,1,691.25,249.5Z" transform="translate(-550.33 -200.67)" fill="#eaad85"/><path d="M692.41,244.17a5.31,5.31,0,1,1-6.93-3.41A5.47,5.47,0,0,1,692.41,244.17Z" transform="translate(-550.33 -200.67)" fill="#fff"/><path d="M691.83,244.73a5.09,5.09,0,0,0-.91-1.53,5.52,5.52,0,0,1,.43.88,4.82,4.82,0,0,1-2.65,6.26,4.59,4.59,0,0,1-4.19-.57,4.55,4.55,0,0,0,4.73,1.08A4.71,4.71,0,0,0,691.83,244.73Z" transform="translate(-550.33 -200.67)" fill="#d9dbdc"/><path d="M690.51,248.44a2.88,2.88,0,1,1-2.8-3.12A3,3,0,0,1,690.51,248.44Z" transform="translate(-550.33 -200.67)" fill="#b5b7b9"/><path d="M690,249.52a1.72,1.72,0,1,1-1.66-1.87A1.76,1.76,0,0,1,690,249.52Z" transform="translate(-550.33 -200.67)" fill="#231f20"/><path d="M686.29,247.1a.74.74,0,0,1-.74.75.77.77,0,0,1,0-1.54A.74.74,0,0,1,686.29,247.1Z" transform="translate(-550.33 -200.67)" fill="#fff"/><path d="M689.75,248.15a.44.44,0,0,1-.45.45.47.47,0,1,1,.45-.45Z" transform="translate(-550.33 -200.67)" fill="#fff"/><path d="M701.19,266.19c.35,0,.69,0,1-.05,2.39-.26,4.36-1.43,4.9-2.92a.29.29,0,0,0-.17-.37.3.3,0,0,0-.37.17c-.46,1.29-2.24,2.32-4.42,2.55a7.67,7.67,0,0,1-7.51-3.46.28.28,0,0,0-.39-.08.27.27,0,0,0-.09.39A8.1,8.1,0,0,0,701.19,266.19Z" transform="translate(-550.33 -200.67)" fill="#ce7754"/><path d="M708.73,264.05a2.91,2.91,0,0,0,1.52-.41.28.28,0,0,0-.32-.47c-.08.05-1.9,1.23-3.79-1.26a.28.28,0,0,0-.4-.06.29.29,0,0,0-.06.4A3.82,3.82,0,0,0,708.73,264.05Z" transform="translate(-550.33 -200.67)" fill="#ce7754"/><path d="M693.11,262.9a2.24,2.24,0,0,0,1.58-.54,2.46,2.46,0,0,0,.68-1.82.28.28,0,0,0-.31-.26.27.27,0,0,0-.26.3h0a1.87,1.87,0,0,1-.5,1.36,2.1,2.1,0,0,1-1.83.33.3.3,0,0,0-.33.24.28.28,0,0,0,.24.32A3.83,3.83,0,0,0,693.11,262.9Z" transform="translate(-550.33 -200.67)" fill="#ce7754"/><path d="M698.8,201.24c22-3.39,31.88,9.34,31.88,9.34a17.36,17.36,0,0,1,14.22,10.71c5.84,13.83.13,25.48-5.36,34.89-18.56-5.64-17.88-29-17.88-29-5,13.79-25.58,6.25-30.18,2.66-9.12-7.13-17.05,5.18-17.14,13.32C666.33,228.54,677.76,204.5,698.8,201.24Z" transform="translate(-550.33 -200.67)" fill="#323031"/><path d="M731.31,217.22c2.11-1.59,13.47,8.54,11.16,19.11-2.41-7.85-5.91-10.46-5.91-10.46s4.56,5.28,3.57,17.18c-4.91-12.86-10.74-16.31-10.74-16.31a156.51,156.51,0,0,0,7.45,14.15c-9.29-7.13-12.75-18.38-10.81-21,2-2.16,9.05,7.77,9.05,7.77S729.49,218.6,731.31,217.22Z" transform="translate(-550.33 -200.67)" fill="#454547"/><path d="M723.54,211.85c-6.4-5.83-17.59-11.73-36.37-2.13,10-3.22,17.33-1.36,17.33-1.36s-22.82,3.55-29.14,16.87c6.3-8,21.86-14.72,36.35-11.94-8.11,3.76-20.33,6.26-20.33,6.26s19.46,1.72,26-4.67a26.74,26.74,0,0,1-12.21,9.72s14-2.81,17.54-11.13c-4.36-2.56-9.66-4.14-18.05-3.24C711.36,205.71,723.54,211.85,723.54,211.85Z" transform="translate(-550.33 -200.67)" fill="#454547"/><path d="M723.49,223.49c.12.65-1.71,24.22,17.77,32.07A23.54,23.54,0,0,0,745,238.34s-2.08,8.62-6.46,7.22C725.5,241.39,723.49,223.49,723.49,223.49Z" transform="translate(-550.33 -200.67)" fill="#292627"/><path d="M721.07,223.21c-4.87,7.71-15.66,10.26-25.22,4.83s-13.79-2.4-15.52.69c3.36-2.61,6.28-3.67,12-.29C705.29,236.08,718.87,234.79,721.07,223.21Z" transform="translate(-550.33 -200.67)" fill="#292627"/><path d="M732.9,252a5.69,5.69,0,0,1,6.14-3c4.53.87,4.18,7.47.5,10.64s-8.76,2.21-9.18-1.39Z" transform="translate(-550.33 -200.67)" fill="#fbc6a4"/><path d="M738.47,249.29a5.31,5.31,0,0,0-2.77.17,3.73,3.73,0,0,1,2-.07c4.2,1,3.3,6,1.08,8.48-3,3.4-7.07,2.74-8.46,0,.4,3.35,5.14,4.23,8.61,1.28S742.72,250.1,738.47,249.29Z" transform="translate(-550.33 -200.67)" fill="#eaad85"/><path d="M739.29,251.05c-2.63-1.5-6.86,3.55-4,7.8-.24-4.62,1.72-5.54,3.08-2.93.43-1.34,0-2.41-1.74-2.82A3.83,3.83,0,0,1,739.29,251.05Z" transform="translate(-550.33 -200.67)" fill="#d5956a"/><path d="M730,237.34c4.27-.43,8.3-5,7.87-6.17-.75-.81-6,.29-9,2.68C727.15,235.2,727,237.64,730,237.34Zm2.09-4c1.18-.54,3.51-1.22,3.62-.84.17.58-5.21,4.43-6,3C729.29,234.9,730.53,234.07,732.08,233.35Z" transform="translate(-550.33 -200.67)" fill="#36b88c"/><path d="M677.34,230.25c1.63-3.42.25-8.58-.79-8.83-.91.19-2.52,4.69-2.19,8.06C674.55,231.39,676.18,232.68,677.34,230.25Zm-1.87-3.45c.15-1.13.73-3.21,1-3.11.48.14.77,6-.6,6C675.31,229.64,675.28,228.32,675.47,226.8Z" transform="translate(-550.33 -200.67)" fill="#36b88c"/><path d="M718.36,257.25a11.14,11.14,0,0,1-9.2-20.29l.18-.08a11.14,11.14,0,0,1,9.2,20.29Zm-13.6-6.16a10,10,0,0,0,13.12,5.06l.16-.07a9.94,9.94,0,0,0-8.22-18.1l-.16.07A10,10,0,0,0,704.76,251.09Z" transform="translate(-550.33 -200.67)" fill="#ee4734"/><path d="M691.15,256.19a11.14,11.14,0,0,1-9.21-20.28l.18-.09a11.14,11.14,0,0,1,9.21,20.29ZM677.55,250a10,10,0,0,0,13.11,5.06l.16-.08a9.94,9.94,0,0,0-8.21-18.1l-.16.07A10,10,0,0,0,677.55,250Z" transform="translate(-550.33 -200.67)" fill="#ee4734"/><path d="M703.5,246.24a.6.6,0,0,0-.23-1.14l-6-.23a.6.6,0,0,0,0,1.2l6,.22A.54.54,0,0,0,703.5,246.24Z" transform="translate(-550.33 -200.67)" fill="#ee4734"/><path d="M732.51,252.58a.61.61,0,0,0,.31-.34.6.6,0,0,0-.36-.77l-7.88-2.8a.6.6,0,0,0-.4,1.13l7.88,2.8A.63.63,0,0,0,732.51,252.58Z" transform="translate(-550.33 -200.67)" fill="#ee4734"/><path d="M676.25,245.59a.62.62,0,0,0,.34-.49.6.6,0,0,0-.55-.65l-2-.16a.6.6,0,0,0-.1,1.19l2.05.16A.61.61,0,0,0,676.25,245.59Z" transform="translate(-550.33 -200.67)" fill="#ee4734"/><path d="M711.33,282.54s-13.15-1.67-17.21-2.39c-7.53-1.32-12.88-1.25-17.77,2.71.33-2.31-1.37-4.68-5-5.88a95,95,0,0,1-11.69-4c.46,1.26-4.49,4.1-4.49,4.1l19.4,13.41,32-2.26Z" transform="translate(-550.33 -200.67)" fill="#f9edcd"/><path d="M711.33,282.54s-4.82,1.28-5.49,3.32a285.12,285.12,0,0,0,.5,45.95,8.79,8.79,0,0,1,5.37-2.22A327.22,327.22,0,0,1,711.33,282.54Z" transform="translate(-550.33 -200.67)" fill="#ddcfa7"/><path d="M707.4,284.84s-20.54-3.23-30.65,1.06c-2.26,1-4.1.2-4.69-1.58a23.91,23.91,0,0,0-16.31-8.66c-.54-.13-.86.4-1.23.6-1-.4,11.92,47.88,18,51.72,2.49,3.17,24.88.13,33.79,4.56.6.2,1.65-.46,1.59-1C706.57,312.32,707.4,284.84,707.4,284.84Z" transform="translate(-550.33 -200.67)" fill="#376a80"/><path d="M706.13,285.71S684.2,283,677,287.29c-2.72,1.32-5,.53-6-2.11-3.36-3.14-8-7.27-16.48-8.92.23,5,2.26,33.93,2.49,43.43,4.52,1.13,8.64,5.37,14.75,9.22a6.31,6.31,0,0,0,8.59,1.58c3.62,0,16.51-.45,26.24,2.27C705.23,313.53,706.13,285.71,706.13,285.71Z" transform="translate(-550.33 -200.67)" fill="#5189a2"/><path d="M677.31,287.1c7.56-4,28.82-1.39,28.82-1.39s-.9,27.82.46,47.05c-9.73-2.72-22.62-2.27-26.24-2.27l-.21.13C679.06,315,677.75,294.24,677.31,287.1Z" transform="translate(-550.33 -200.67)" fill="#5895b0"/><path d="M671,285.18a.33.33,0,0,1,0,.06c.15,8.05.23,31,.38,43.44-5.92-3.78-10-7.88-14.4-9-.23-9.5-2.26-38.45-2.49-43.43C663,277.91,667.64,282,671,285.18Z" transform="translate(-550.33 -200.67)" fill="#3f768c"/><path d="M667.19,287.84c1.95.57,3.1-.34.92-2.4s-9.05-5.38-10.88-4.81-.57,1.72,2.75,3A35.52,35.52,0,0,1,667.19,287.84Z" transform="translate(-550.33 -200.67)" fill="#5895b0"/><path d="M667.54,294.37c2,.57,3.09-.34.91-2.4s-9-5.39-10.88-4.81-.57,1.71,2.75,3A35.56,35.56,0,0,1,667.54,294.37Z" transform="translate(-550.33 -200.67)" fill="#5895b0"/><path d="M668.11,301.36c1.95.57,3.09-.35.92-2.41s-9-5.38-10.88-4.81-.58,1.72,2.75,3A35.36,35.36,0,0,1,668.11,301.36Z" transform="translate(-550.33 -200.67)" fill="#5895b0"/><path d="M674.67,291.78c0-2.68-2.18-3.37-2.18-.3s.4,36.27,1.88,37.85,2.08-.09,1.89-3.37S674.67,291.78,674.67,291.78Z" transform="translate(-550.33 -200.67)" fill="#80b9d3"/><path d="M704.49,306.45s-.49,22.68-25,22.49c9.41.79,23.38,1.48,25.56,2C704.59,319.72,704.49,306.45,704.49,306.45Z" transform="translate(-550.33 -200.67)" fill="#3d738a"/><path d="M718.73,280.32c-1.32,1.42,2.18,7.88.2,15.79a18.62,18.62,0,0,1-13.43,13.11c-1.22-.68-3-1.76-4-.83s1.58,1.92,1.58,1.92-5.15,1.67-5.12,2.81c0,1.43,3.73-.1,3.73-.1s-4.3,1.53-3.19,2.41,4.38-1.12,4.38-1.12-3.6,2.08-2.54,3c1.41,1.18,3.73-1.78,3.73-1.78s-.27,1.67.56,2.17c1,.63,2.21-3,2.46-4.88,9.71-2.18,17.09-10.83,17.15-20.38C724.29,283.12,719.91,280.46,718.73,280.32Z" transform="translate(-550.33 -200.67)" fill="#fbc6a4"/><path d="M722.57,286.12c.6,3.18.08,9.8-3,15.3-2.19,3.89-10.48,9.58-13.45,10.89,6.07-1.79,10.75-4.29,14.74-10.72C725.49,294.11,722.57,286.12,722.57,286.12Z" transform="translate(-550.33 -200.67)" fill="#eaad85"/><path d="M679.75,416.52c-2.23.27-5.26.66-7.23.92s-3,1.32-2.1,3.81,25.9,57.72,27.08,60.62,2.37,3.81,6.84,2.89,40.89-9.6,40.89-9.6,3.08,2.89,8.67,1.91c6.71-1.19,7.7-5.33,7.7-5.33s46.42-7.45,48.9-7.89c3.36-.59,2.83-2.76,1.52-4.6s-5.39-3.42-5.39-3.42Z" transform="translate(-550.33 -200.67)" fill="#d1432e"/><path d="M677.91,418c-2.63.52-5.52.26-4.6,2.23s25.77,63.38,27.74,63,59.56-13.41,59.56-13.41,50.49-7.62,51-8.41-2.76-3.29-2.76-3.29Z" transform="translate(-550.33 -200.67)" fill="#af2c25"/><path d="M680.28,411.79a9.13,9.13,0,0,1-5.92,7.76c1.19,3.55,26.83,62.58,26.83,62.58s3.94-5.92,4.2-12.36C698.29,452.28,680.28,411.79,680.28,411.79Z" transform="translate(-550.33 -200.67)" fill="#bdaf84"/><path d="M752.33,461.22a42.46,42.46,0,0,1-.2,6.58c2-.26,4.93-.13,6.25.92,11.17-2.37,51.8-8.15,51.8-8.15a33.2,33.2,0,0,1-.66-7.37c-20.25-3.15-37.34-2.89-45.49.27S752.33,461.22,752.33,461.22Z" transform="translate(-550.33 -200.67)" fill="#d0c39d"/><path d="M752.46,462.41c8.28-6.58,15.17-11.25,28.4-9.73,11.44,1.31,19.59,2.76,28.66.52-7.23-12.49-9.47-15.77-9.47-15.77S754.7,450.05,752.46,462.41Z" transform="translate(-550.33 -200.67)" fill="#a5976a"/><path d="M732.34,407.71s9.74-10.12,24.19-7.88a41.47,41.47,0,0,0,25.25-4.08l29.68,51.46s-10,5.5-20.08,4c-17.39-2.54-29.91-1.06-38.92,11.18C745.23,440.32,732.34,407.71,732.34,407.71Z" transform="translate(-550.33 -200.67)" fill="#f9edcd"/><path d="M732.34,407.71s9.74-10.12,24.19-7.88a41.47,41.47,0,0,0,25.25-4.08s-43.12,21.17-35.24,36.42c7.4,14.31,63.6,13.92,63.6,13.92s-10.55,6.29-20.54,4.06-28.5-3-37.14,12.26C745.23,440.32,732.34,407.71,732.34,407.71Z" transform="translate(-550.33 -200.67)" fill="#e0d5b1"/><path d="M705.39,469.11s-2.89,10.65-4.2,13c15.25-3.81,45.09-10.13,45.09-10.13s1.18-3.67,6.84-4.2c-.13-3.55-.13-4.74-1.06-6.05C732,453.73,705.39,469.11,705.39,469.11Z" transform="translate(-550.33 -200.67)" fill="#ddcfa7"/><path d="M687.12,411.13a43.23,43.23,0,0,1-6.84.66c-1,1.84,25.11,58,25.11,58s24.72-14.46,47.07-7.36C742.2,435.59,687.12,411.13,687.12,411.13Z" transform="translate(-550.33 -200.67)" fill="#e5d7ae"/><path d="M687.12,411.13a43.23,43.23,0,0,1-6.84.66c13.54,28.92,25.11,57.32,25.11,57.32s24.72-13.8,47.07-6.7C742.2,435.59,687.12,411.13,687.12,411.13Z" transform="translate(-550.33 -200.67)" fill="#a5976a"/><path d="M732.34,407.71c-2.36-3.55-13.8-5.12-23.14-2.1s-21.82,4.21-27.21,2.63c3.81,7.36,20.18,46.83,24.65,57.61,6.05-2.5,24-15.28,45.82-3.44C741.28,429.28,732.34,407.71,732.34,407.71Z" transform="translate(-550.33 -200.67)" fill="#f9edcd"/><path d="M732.34,407.71c-2.36-3.55-13.8-5.12-23.14-2.1s-21.82,4.21-27.21,2.63c2,3.77,48.78,3.42,56.93,24.45,4.8,12.4-27.75,25.07-31.3,31.58,6-2.5,28.14-15.4,44.84-1.86C741.28,429.28,732.34,407.71,732.34,407.71Z" transform="translate(-550.33 -200.67)" fill="#eadfba"/><path d="M702,429.33a.8.8,0,0,0,.3-.06,51,51,0,0,1,29.58-2.77.7.7,0,1,0,.36-1.35A52.44,52.44,0,0,0,701.75,428a.7.7,0,0,0,.25,1.35Z" transform="translate(-550.33 -200.67)" fill="#bdaf84"/><path d="M705.35,437.41a.61.61,0,0,0,.3-.05,50.92,50.92,0,0,1,29.58-2.77.7.7,0,1,0,.36-1.36,52.41,52.41,0,0,0-30.48,2.83.7.7,0,0,0,.24,1.35Z" transform="translate(-550.33 -200.67)" fill="#bdaf84"/><path d="M708.7,445.5a.69.69,0,0,0,.31-.06,50.74,50.74,0,0,1,29.57-2.76.72.72,0,0,0,.87-.51.7.7,0,0,0-.51-.85,52.41,52.41,0,0,0-30.48,2.83.7.7,0,0,0,.24,1.35Z" transform="translate(-550.33 -200.67)" fill="#bdaf84"/><path d="M712.05,453.58a.65.65,0,0,0,.31-.05,50.83,50.83,0,0,1,29.58-2.77.7.7,0,0,0,.86-.5.72.72,0,0,0-.51-.86,52.41,52.41,0,0,0-30.48,2.83.71.71,0,0,0-.37.92A.69.69,0,0,0,712.05,453.58Z" transform="translate(-550.33 -200.67)" fill="#bdaf84"/><path d="M751.1,422a.57.57,0,0,0,.31-.06A50.87,50.87,0,0,1,781,419.21a.7.7,0,0,0,.35-1.36,52.41,52.41,0,0,0-30.48,2.83.7.7,0,0,0,.24,1.35Z" transform="translate(-550.33 -200.67)" fill="#bdaf84"/><path d="M754.46,430.12a.8.8,0,0,0,.3-.06,50.92,50.92,0,0,1,29.58-2.77.7.7,0,1,0,.36-1.35,52.32,52.32,0,0,0-30.48,2.83.7.7,0,0,0-.38.92A.74.74,0,0,0,754.46,430.12Z" transform="translate(-550.33 -200.67)" fill="#bdaf84"/><path d="M757.81,438.2a.7.7,0,0,0,.31-.05,50.79,50.79,0,0,1,29.57-2.77.7.7,0,1,0,.36-1.36,52.41,52.41,0,0,0-30.48,2.83.7.7,0,0,0,.24,1.35Z" transform="translate(-550.33 -200.67)" fill="#bdaf84"/><path d="M761.16,446.28a.7.7,0,0,0,.31,0,50.78,50.78,0,0,1,29.58-2.76.7.7,0,0,0,.85-.51.69.69,0,0,0-.5-.85,52.41,52.41,0,0,0-30.48,2.83.7.7,0,0,0-.37.92A.67.67,0,0,0,761.16,446.28Z" transform="translate(-550.33 -200.67)" fill="#bdaf84"/><path d="M680.15,418.36s12,24.46,13.41,29.46A227,227,0,0,1,680.15,418.36Z" transform="translate(-550.33 -200.67)" fill="#a39672"/><path d="M682.78,432s13.67,29.58,16.43,37.47A346,346,0,0,1,682.78,432Z" transform="translate(-550.33 -200.67)" fill="#a39672"/><path d="M705.39,469.77s-.4,7.23-4.2,12.36A88.15,88.15,0,0,1,705.39,469.77Z" transform="translate(-550.33 -200.67)" fill="#f9f2de"/><path d="M788.27,457.3c-9.73-1.3-21-4-29.81,7.54C769.37,454.33,788.27,457.3,788.27,457.3Z" transform="translate(-550.33 -200.67)" fill="#b2a47d"/><path d="M797.68,460.33s-14.45-3-28.33,3.75C781.2,460.3,797.68,460.33,797.68,460.33Z" transform="translate(-550.33 -200.67)" fill="#b2a47d"/><path d="M746.72,464.13c-4.23-1.71-12.13-4-27.13,5.48C738,461.54,746.72,464.13,746.72,464.13Z" transform="translate(-550.33 -200.67)" fill="#b2a47d"/><path d="M742.08,470s-12.87-1.69-29.49,6A172.48,172.48,0,0,1,742.08,470Z" transform="translate(-550.33 -200.67)" fill="#b2a47d"/><path d="M744.62,484.32a7,7,0,0,1-.23,1.26,75.19,75.19,0,0,0-5.51-6.67s-.8,5.27-1.63,8.69a3.91,3.91,0,0,1-.61,1.17c-1.54-7.06-4.33-14.5-5.35-15.85a4,4,0,0,0,.18-1.37C736.19,471.53,744.62,484.32,744.62,484.32Z" transform="translate(-550.33 -200.67)" fill="#3a7666"/><path d="M739.82,470.49a35.84,35.84,0,0,1,4.8,13.83,79.91,79.91,0,0,0-5.73-6.63s-.62,6.87-1.64,9.91c-1.44-7.33-4.75-14.7-5.78-16.05A16.6,16.6,0,0,1,739.82,470.49Z" transform="translate(-550.33 -200.67)" fill="#539886"/><path d="M735.13,479.87l7.08-4.61c.29.71.58,1.48.86,2.32L741,480c-.61-.68-1.3-1.43-2.12-2.31,0,0-.26,2.82-.7,5.64l-1.5,1.77C736.24,483.28,735.7,481.51,735.13,479.87Z" transform="translate(-550.33 -200.67)" fill="#76b5a5"/><path d="M741.39,473.41c.22.46.46,1,.69,1.53l-8.29,1.35c-.56-1.37-1.09-2.54-1.54-3.39Z" transform="translate(-550.33 -200.67)" fill="#76b5a5"/><path d="M742.42,481.6c.4-.33,1-.84,1.47-1.18.11.47.23,1,.33,1.47l-.91.79Z" transform="translate(-550.33 -200.67)" fill="#76b5a5"/><path d="M712.13,415.58c-.08,0-.22,0-.23.09l.09.21c.28.72.81,1.71,1.1,2.41l.09.22a.22.22,0,0,1-.2.11l-1.38.05c-.37,0-.44-.27-.53-.44-.39-.88-.85-2-1.13-2.68-.41-1-.8-1.85-1.08-2.55-.48-1.2-.65-2-.06-2.6a2.43,2.43,0,0,1,1.7-.47,3.52,3.52,0,0,1,3.25,2.38c2.35,5.12,2.62,5.8,2.62,5.8.09.21-.28.25-.67.26h-.31c-.27,0-.77-.08-.86-.22l-1.08-2.26a.56.56,0,0,0-.38-.35Zm-.86-1.25a.47.47,0,0,0,.25.1l1,0c.33,0,.15-.36.11-.5-.77-1.88-1.13-2.69-2-2.66-.38,0-.57.2-.45.5l.94,2.33Z" transform="translate(-550.33 -200.67)" fill="#d14f29"/><path d="M759,410.7l-2.66-5.78c-.06-.14.06-.28.2-.36.36-.06.7-.16,1.29-.26a4.6,4.6,0,0,1,3.14.31,3.1,3.1,0,0,1,1,1.24,2.39,2.39,0,0,1-.29,2.53c0,.07.14.09.38.17a3.43,3.43,0,0,1,.39.12,3.15,3.15,0,0,1,1.77,1.72,2.09,2.09,0,0,1-.33,2.61.78.78,0,0,1-.18.05c-.48.12-1,.21-1.83.36l-1.17.2a.71.71,0,0,1-.4-.09C759.92,412.57,759.45,411.65,759,410.7Zm.47-2.69.08,0c1.29-.21,1-1.33.61-2.17-.21-.47-.78-.56-1.36-.47a2.26,2.26,0,0,0-.43.11.28.28,0,0,0,0,.25l0,.06Zm2.22,4.24a.31.31,0,0,0,.34.14c.93-.16.8-1,.53-1.62l-.06-.12a.49.49,0,0,0-.06-.17,1.38,1.38,0,0,0-1.43-.84l-.12,0-.2,0-.09.13Z" transform="translate(-550.33 -200.67)" fill="#d14f29"/><path d="M744.54,473.12c-.4-2.95,1.91-7.43,8.28-8,5.62-.48,8.09,3.16,8.09,5.33a1.61,1.61,0,0,1-2.86,0c-.5-1.58-2.66-2.46-5.13-2.17-3.49.42-4.54,1.58-5.23,3.75C747.6,474.11,744.73,474.6,744.54,473.12Z" transform="translate(-550.33 -200.67)" fill="#539886"/><path d="M732.34,407.71c1,2.56,17.75,49.23,20.25,54.49A453.45,453.45,0,0,0,732.34,407.71Z" transform="translate(-550.33 -200.67)" fill="#bdaf84"/><path d="M783.69,332.91c1.64-1.32.88-4.32-2.16-3.21,3.43-3.7-1-3.41-2.06-2.36,1-2.08-2.7-3.71-2.66-1.47-1.75-3-4.72-.42-3.56,1.26-1.9.68-.85,2.52.54,2.84-2.78,3.32.12,4,1.2,3.2-.81,3,1.19,3.3,3,2,.11,1.7,2.92,1.4,2.92,1.4Z" transform="translate(-550.33 -200.67)" fill="#72301d"/><path d="M784.09,331.19c-1.58,1.54-5.18,3.88-5.74,1.79-1.52.59-1.57-.7-1-2-2.16.52-2.68-.28-1.53-1.77a2.78,2.78,0,0,1-.54-2.47s-2.54,1.68-.6,3.09c-1.61,1.42-.77,3.19,1.45,2.41-.33,2.45,1,2.84,2.2,2.15a3.49,3.49,0,0,0,2.6,1.6Z" transform="translate(-550.33 -200.67)" fill="#5e281a"/><path d="M778.26,335.73c1.67-.56,5.57-3.6,6.2-4.8,2.6.58,1.94,2.72,1.94,2.72a11.82,11.82,0,0,1-6.19,4.6C778.81,338,778.26,335.73,778.26,335.73Z" transform="translate(-550.33 -200.67)" fill="#e84930"/><path d="M794,404.07c-12.53,2.61-23.34-10.77-23.64-12,1-2.93-.51-5.48-1.17-5.71-.87-.31-.61,1.6-.61,1.6a16.07,16.07,0,0,0-1.57-1.71c-1.07-.95-1.73-1.14-2-.82-.61.6,2,2.89,2,2.89s-2.68-2.41-3.36-1.71,2.23,2.92,2.23,2.92-2.39-2.38-3.11-1.47c-.44.57,2,2.48,2,2.48s-1.84-1.62-2.35-1.1,1.06,1.68,2.15,2.5a8.47,8.47,0,0,0,3.89,1.85c2,3.42,15.94,17.88,26.74,12.94C796.36,406,795.15,403.67,794,404.07Z" transform="translate(-550.33 -200.67)" fill="#fbc6a4"/><path d="M788.34,407.12a9.87,9.87,0,0,1-3.13-.72c1.92-.29,2.65-.84,1.07-2.24a12.33,12.33,0,0,0,2.54.42Z" transform="translate(-550.33 -200.67)" fill="#eaad85"/><path d="M796.68,403.39c-3.27-1.71-8.21-.75-9.93-1.84a53.81,53.81,0,0,0-.91,9.58s9.13,2.26,11.69-.46C799.66,408.41,799.26,404.74,796.68,403.39Z" transform="translate(-550.33 -200.67)" fill="#007d9e"/><path d="M796.47,410.55c-2,.42-8.12-.71-9.27-8.43-.51,2.77-.8,7.19-.34,8.37C790.27,411.69,796.47,410.55,796.47,410.55Z" transform="translate(-550.33 -200.67)" fill="#004e64"/><path d="M796.62,455c-4.38,8.86-7.93,25.47-7.93,25.47l-3.09.71s4.25-22.12,7.33-25.89C793.5,454.77,796.19,454.34,796.62,455Z" transform="translate(-550.33 -200.67)" fill="#fbc6a4"/><path d="M790.7,461.51a9.87,9.87,0,0,0-1,3.14c1.27-1.54,2.05-1.33,2.45.81.62-1.93,1.06-3,1.06-3Z" transform="translate(-550.33 -200.67)" fill="#eaad85"/><path d="M808.19,455.47c-.37,9.88,15.52,19.6,15.52,19.6l-1.4,3.12s-18.83-11.73-18.73-22.07A19.41,19.41,0,0,1,808.19,455.47Z" transform="translate(-550.33 -200.67)" fill="#fbc6a4"/><path d="M807.7,465a12.2,12.2,0,0,0,2.6,3c-.78-2.26-.08-2.94,2.38-2-1.6-1.87-2.46-3-2.46-3Z" transform="translate(-550.33 -200.67)" fill="#eaad85"/><path d="M808.79,454s.5,7,3.08,9.84c-1.11,1-3.08,3-4.19,2.59-2.95-2.71-5.9-8.75-5.17-12.07A9,9,0,0,1,808.79,454Z" transform="translate(-550.33 -200.67)" fill="#4d4e4e"/><path d="M802.94,455a16.13,16.13,0,0,0,1,4.41c.88-2.71,2.77-3.18,4.8-1a31.91,31.91,0,0,1-.31-4.37Z" transform="translate(-550.33 -200.67)" fill="#3b3b3b"/><path d="M798.22,454.91s-3.08,5.82-4.24,8.48c-1,.2-4-.24-4.4-1.23a28.75,28.75,0,0,1,3.27-9.89C795.94,453.61,798.22,454.91,798.22,454.91Z" transform="translate(-550.33 -200.67)" fill="#4d4e4e"/><path d="M792.83,453a17,17,0,0,0-1.36,4.31c2-1.88,3.75-1.33,4.25,1.6a33.61,33.61,0,0,1,1.93-3.91Z" transform="translate(-550.33 -200.67)" fill="#3b3b3b"/><path d="M788.77,422.93c1.28-9,2.52-16.64,6.79-20.75,2.24-2.22,12.38-.54,16.47,2.69,3.26,2.59,4.59,11,5.5,19.35.77,7.26-.25,17.47,5.17,27.93-7.51,6.15-34.2,4.7-38.28.86C789,438.73,788.52,424.32,788.77,422.93Z" transform="translate(-550.33 -200.67)" fill="#5ac0e1"/><path d="M815.07,413c-1.73,5.78.74,29.54-6,35.81-7.17,6.65-18.79,5.13-22.16,4.44,4.06,1.94,25.28,2.58,34.1-2.22C813.84,434.79,816.67,416.08,815.07,413Z" transform="translate(-550.33 -200.67)" fill="#28a8c8"/><path d="M794.31,407.34c2.46-4.31,6.27-2.75,3.81,1.31s-5.67,7.22-7,13.07C791.52,415.26,793.13,409.41,794.31,407.34Z" transform="translate(-550.33 -200.67)" fill="#89d4ed"/><path d="M806.1,396.36a30.15,30.15,0,0,0-.54,6c-1.16,1.26-3.67.46-4.77-.26a46.56,46.56,0,0,0,.56-5.69Z" transform="translate(-550.33 -200.67)" fill="#fbc6a4"/><path d="M801.35,396.41l4.75-.05a43.93,43.93,0,0,0-.55,4.42c-1.13.72-3.26.35-4.53-.18C801.27,398.51,801.35,396.41,801.35,396.41Z" transform="translate(-550.33 -200.67)" fill="#eaad85"/><path d="M805.76,401.66c-.71,1-4.73,1.14-5-.37a1.48,1.48,0,0,0-1.56.3s-.54,2.06,2.37,2.65,5.42-.59,5.93-1.62A1.86,1.86,0,0,0,805.76,401.66Z" transform="translate(-550.33 -200.67)" fill="#fff"/><path d="M818.67,476.07A6.85,6.85,0,0,0,821,473c-.24-.21-.68-.53-.68-.53s1.25-1.34,1.69.3c.83.52,2.8,2.08,3.92,2.88-.5,1.65-2.84,4-2.84,4l-4.08-2.78c-1.06.71-1.87-.62-1.08-1.21A7.09,7.09,0,0,0,818.67,476.07Z" transform="translate(-550.33 -200.67)" fill="#dbedef"/><path d="M820.36,472.44s.44.32.68.53a3.09,3.09,0,0,1-.18.51c.77-.7,1.68-.35.58,1.43,3.08-1.56,1.27,3.76-.84,3l2.53,1.72s2.34-2.34,2.84-4c-1.12-.8-3.09-2.36-3.92-2.88C821.61,471.1,820.36,472.44,820.36,472.44Z" transform="translate(-550.33 -200.67)" fill="#c8dde0"/><path d="M824.23,474.22c.62-.88,1.42-.2,2.92,1.09s3.43,1.18,3.54,2.31c-.3,4.8-7.63,12.4-11.62,10.63-3.82-2.05-3.35-6.42.2-6.25a7.32,7.32,0,0,1,2.45-2.17c-.72-.35-1-.84-.64-1.54C821.69,478.54,824.38,476.22,824.23,474.22Z" transform="translate(-550.33 -200.67)" fill="#007d9e"/><path d="M816.91,485.58c-.44-1.15-.19-2.75.81-3s-.86,3.67,1.6,4.39A2.19,2.19,0,0,1,816.91,485.58Z" transform="translate(-550.33 -200.67)" fill="#0093bb"/><path d="M824.23,474.36a2.24,2.24,0,0,1-.19,1c1.36.95,3.11,1,3.22,2.07-.23,3.74-4.71,9.16-8.57,10.56.13.08.24.16.38.23,4,1.77,10.81-5.71,11.12-10.53-.12-1.12-1.82-.78-3.22-2S824.85,473.48,824.23,474.36Z" transform="translate(-550.33 -200.67)" fill="#00617d"/><path d="M818.39,487.85c1.81.41,11.12-5.15,10.75-11.53a2,2,0,0,1,2.45,1.1c-.35,2.78-1.43,5.42-4.8,8.55-3,2.77-6,3.7-7.1,3.38C818.08,489,818.39,487.85,818.39,487.85Z" transform="translate(-550.33 -200.67)" fill="#dbedef"/><path d="M829.16,476.67v.22c.36.24.6.22.63.51-.36,2.78-1.43,5.42-4.81,8.56a11.5,11.5,0,0,1-5.39,2.93c.1,0,.19.07.32.1,1.09.32,3.58-.39,6.58-3.11a13.64,13.64,0,0,0,4.72-8.2A1.49,1.49,0,0,0,829.16,476.67Z" transform="translate(-550.33 -200.67)" fill="#c8dde0"/><path d="M819.15,482a1.9,1.9,0,0,0,1.44,1.91c.93.15,2.3-1.65,2.56-2.57a3.35,3.35,0,0,0-1.43-1.5A3.21,3.21,0,0,0,819.15,482Z" transform="translate(-550.33 -200.67)" fill="#dbedef"/><path d="M821,480a3.18,3.18,0,0,1,1.2,1.38,4.73,4.73,0,0,1-2.09,2.12,1.43,1.43,0,0,0,.27.09c.94.14,2.21-1.26,2.46-2.18a3.39,3.39,0,0,0-1.24-1.5A.94.94,0,0,0,821,480Z" transform="translate(-550.33 -200.67)" fill="#c8dde0"/><path d="M786.69,474.65a6.87,6.87,0,0,0,3.84.68c.08-.31.16-.85.16-.85s1.76.49.52,1.64c-.09,1-.57,3.45-.75,4.8-1.7.33-4.85-.68-4.85-.68s.46-4,.58-4.9c-1.12-.62-.31-1.95.58-1.52A5.39,5.39,0,0,0,786.69,474.65Z" transform="translate(-550.33 -200.67)" fill="#dbedef"/><path d="M790.69,474.48s-.08.54-.16.85a3.19,3.19,0,0,1-.54.07c1,.37,1.09,1.34-1,1.17,2.81,2-2.75,2.87-3,.63-.17,1.42-.35,3-.35,3s3.15,1,4.85.68c.18-1.35.66-3.83.75-4.8C792.45,475,790.69,474.48,790.69,474.48Z" transform="translate(-550.33 -200.67)" fill="#c8dde0"/><path d="M790.89,478.74c1.07.14.83,1.16.38,3.09s.54,3.58-.41,4.2c-4.41,2-14.53-1-14.8-5.41.06-4.33,4.16-5.93,5.64-2.7a7.39,7.39,0,0,1,3.06,1.16c0-.79.27-1.29,1.07-1.26C785.89,478.48,789.18,479.79,790.89,478.74Z" transform="translate(-550.33 -200.67)" fill="#007d9e"/><path d="M777.44,477.48c.81-.93,2.36-1.44,3-.66s-3.65.93-3.17,3.45A2.18,2.18,0,0,1,777.44,477.48Z" transform="translate(-550.33 -200.67)" fill="#0093bb"/><path d="M790.76,478.8a2.13,2.13,0,0,1-1,.3c-.22,1.66.52,3.25-.36,3.82-3.42,1.51-10.29,0-13.32-2.74l0,.44c.27,4.36,10.06,7,14.47,5,.94-.63-.15-2,.26-3.77S791.83,478.94,790.76,478.8Z" transform="translate(-550.33 -200.67)" fill="#00617d"/><path d="M776.11,479.84c.46,1.8,9.69,7.49,15.19,4.22a2,2,0,0,1,.15,2.68c-2.63,1-5.47,1.23-9.81-.32-3.82-1.36-6.06-3.63-6.27-4.74C774.93,480.09,776.11,479.84,776.11,479.84Z" transform="translate(-550.33 -200.67)" fill="#dbedef"/><path d="M791,484.24l-.21.11c0,.42.09.62-.16.79-2.64,1-5.47,1.22-9.81-.33a11.43,11.43,0,0,1-5.08-3.44,2,2,0,0,0,0,.33c.22,1.12,2,3,5.8,4.42a13.63,13.63,0,0,0,9.44.4A1.49,1.49,0,0,0,791,484.24Z" transform="translate(-550.33 -200.67)" fill="#c8dde0"/><path d="M781.66,477.81a1.91,1.91,0,0,0-1,2.16c.3.89,2.52,1.28,3.46,1.08a3.26,3.26,0,0,0,.68-2A3.22,3.22,0,0,0,781.66,477.81Z" transform="translate(-550.33 -200.67)" fill="#dbedef"/><path d="M784.25,478.55a3.2,3.2,0,0,1-.67,1.7,4.72,4.72,0,0,1-2.84-.88,2.09,2.09,0,0,0,0,.28c.3.89,2.13,1.38,3.07,1.18a3.45,3.45,0,0,0,.76-1.79A1,1,0,0,0,784.25,478.55Z" transform="translate(-550.33 -200.67)" fill="#c8dde0"/><path d="M776.24,377.94c-2.32-.26-5-3-2.27-6.29-4.6,1.75-6.76-6.3-1.23-10-3.16-2.45-3.82-7.11-.44-10.88-4.12-5.3-1.16-8.05,4.15-8-3.09-5.68,4.78-9.26,8-7.29-.8-3.92,3.72-9.33,9.8-4a4.86,4.86,0,0,1,9.24-1.44c0-5.94,8.59-7.17,8,.88,1.85-5.36,6.36-1.89,6.43.88,3.51-5.07,13.24-1.15,11.11,4,3.18-1.41,6.31,2.82,4.53,3.89,3.51-.41,7,1.59,6.34,6.19,5.71-2.28,7.68,4.49,2.28,4.94,5.55,1.41,4.06,8.71.92,7.83-2.48,2.2,4.65,4.74-.3,10,5.06,5.34-.2,7.65-2.12,6.87,4.27,5.58-1,13.14-6.1,10,1.65,3.37-2.08,8.2-5.19,5.84-.09,3-2.1,3.34-4.94,2.43.27,3.66-8.13,5.7-10.14,2.37-9.82,2-20.93.84-27.24-3.67-5.28,1.68-7.05-2.33-6.41-4.76C776.4,389.06,773.63,381.12,776.24,377.94Z" transform="translate(-550.33 -200.67)" fill="#72301d"/><path d="M833.34,383c-.49,0-7.29,4.59-5.5,7.9-1.8.62-4.45,1.27-4.94,3.39-1.78,1.47-5.88,5.12-9.29,3.82s-.75-10.09-.75-10.09Z" transform="translate(-550.33 -200.67)" fill="#5e281a"/><path d="M776.27,364c-2.28,7.74-2.06,30.82,19.44,35.44S828.2,389,830.92,374.17c3.27-17.9-11-28.5-23.58-29.83C787.79,342.27,779.33,353.68,776.27,364Z" transform="translate(-550.33 -200.67)" fill="#fbc6a4"/><path d="M829.63,377.06l-9.25-3.62a9.83,9.83,0,0,0-19.16-3.16l-2.9-.62a11.19,11.19,0,1,0-.17,1.36c0-.12,0-.24.05-.36l2.76.6c0,.09,0,.19-.07.29a9.83,9.83,0,0,0,19.32,3.67c0-.3.09-.6.13-.9l8.93,3.5a.29.29,0,0,0,.1,0,.42.42,0,0,0,.26-.79Zm-32.47-6.22A10.21,10.21,0,1,1,789,358.9,10.23,10.23,0,0,1,797.16,370.84ZM819.22,375a8.83,8.83,0,1,1-7-10.32A8.84,8.84,0,0,1,819.22,375Z" transform="translate(-550.33 -200.67)" fill="#e2a57d"/><path d="M776.27,364c3.06-10.36,11.52-21.77,31.07-19.7a28.43,28.43,0,0,1,4.63.9,30.83,30.83,0,0,1,7.68,3.39l.1.07c.22.13.44.28.66.42l.45.31.38.27c6.93,5,11.72,13.32,9.68,24.47-.24,1.3-.54,2.59-.91,3.87-.06-.09-.12-.17-.18-.27-4.16,3.69-8.75,1.32-5.18-3.39-3.95,1.21-5.55-3.44-3.6-6.81-1.22.94-5.24-.31-5.67-4.92-3.57,2.81-5.36.48-4.56-2.78-3,2.6-6.91.61-6.88-2.2-1.36,1.34-5,1.27-4.82-1.61,0,2.49-3.93,2.84-6.18,0,.33,2.11-4.39,3.85-5.69.83-.08,2.21-1.06,5.5-4.45,2.71,1,2.05-1.45,3.67-3,3.22,0,1.45-3.18,4.11-4.27,4.79A22.59,22.59,0,0,1,776.27,364Z" transform="translate(-550.33 -200.67)" fill="#eaad85"/><path d="M788.58,381.49c0,1.92-2.75,3.45-5.66,2.81a5.19,5.19,0,0,1-4.37-5.22c.12-2.09,2.71-3.84,5.61-1.79C786.87,379.2,788.58,379.51,788.58,381.49Z" transform="translate(-550.33 -200.67)" fill="#f8af9a"/><path d="M780.42,376.59a10.06,10.06,0,0,0,4.81,2.37,11.07,11.07,0,0,0,1.8.17,4,4,0,0,1,1.09.95,11,11,0,0,1-8.6-2.94A3.15,3.15,0,0,1,780.42,376.59Z" transform="translate(-550.33 -200.67)" fill="#ed957e"/><path d="M780.21,379.09a.53.53,0,0,1-.6.44c-.33,0-.59-.22-.57-.47a.52.52,0,0,1,.59-.44C780,378.63,780.22,378.84,780.21,379.09Z" transform="translate(-550.33 -200.67)" fill="#fbd3c4"/><path d="M797.76,377.09c0,.25-.33.44-.71.43s-.69-.22-.68-.47.32-.44.71-.43S797.77,376.84,797.76,377.09Z" transform="translate(-550.33 -200.67)" fill="#fcd8c1"/><path d="M820.46,381.44c-.18,2.62-2.71,4.39-6.13,4.49s-6.59-2.44-6-4.86,2.38-1.47,6.22-2.78S820.63,378.82,820.46,381.44Z" transform="translate(-550.33 -200.67)" fill="#f8af9a"/><path d="M808.9,382.05a8.83,8.83,0,0,0,9.15-4,3.94,3.94,0,0,1,.94.38A9.84,9.84,0,0,1,808.72,383h-.05a3.12,3.12,0,0,1-.36-1.12Z" transform="translate(-550.33 -200.67)" fill="#ed957e"/><path d="M819.87,380.69a.49.49,0,0,1-.59.39.45.45,0,1,1,.06-.86C819.65,380.24,819.89,380.45,819.87,380.69Z" transform="translate(-550.33 -200.67)" fill="#fbd3c4"/><path d="M785.35,361.54c2.92-1.23,4,2,2,2.27s-3.86,1.28-4.16,1.11C782.5,364.53,783.71,362.22,785.35,361.54Z" transform="translate(-550.33 -200.67)" fill="#5e281a"/><path d="M814.18,364.13c-2.77-1.54-4.15,1.58-2.19,2.05s3.7,1.68,4,1.54C816.69,367.41,815.74,365,814.18,364.13Z" transform="translate(-550.33 -200.67)" fill="#5e281a"/><path d="M831.15,373.55a16,16,0,0,0-3.33-12.7A19.47,19.47,0,0,1,829.53,372c-2.28,14.63-14.55,30-34,25.27-13.4-3.28-18-15.16-19.36-24.51.72,9.61,3.78,21.13,19.54,25.6C814.24,403.64,828.88,388.19,831.15,373.55Z" transform="translate(-550.33 -200.67)" fill="#eaad85"/><path d="M791.67,382.69s-.4,11.41,7.68,11.93S805.64,384,805.64,384,799.88,385.86,791.67,382.69Z" transform="translate(-550.33 -200.67)" fill="#4d1f1c"/><path d="M799.3,384.46c.4,2.79,1.55,6.69,4.86,8.23,2.38-3.07,1.48-8.7,1.48-8.7A17.94,17.94,0,0,1,799.3,384.46Z" transform="translate(-550.33 -200.67)" fill="#321514"/><path d="M794.48,392.25a6.79,6.79,0,0,0,4.87,2.37c4,.25,5.58-2.35,6.16-5a2.36,2.36,0,0,0-2.87-.23C801.09,387.3,796.24,389.39,794.48,392.25Z" transform="translate(-550.33 -200.67)" fill="#ec756c"/><path d="M804.12,389.46a2.19,2.19,0,0,0-1.7.27,2,2,0,0,0-2-.83c-3,.17-6.28,3.6-2.37,4.69S806.44,390.18,804.12,389.46Z" transform="translate(-550.33 -200.67)" fill="#f48f87"/><path d="M798,390.29c.56-.69,2.08-1.25,2.56-.89s-.7,1.34-1.58,1.55S797.68,390.74,798,390.29Z" transform="translate(-550.33 -200.67)" fill="#f7b0ad"/><path d="M794.11,383.5c-.21,1.21.07,2.1,1.7,2.58a15.77,15.77,0,0,0,5.21.56c1.78-.16,2.6-1,2.4-2.23A24.78,24.78,0,0,1,794.11,383.5Z" transform="translate(-550.33 -200.67)" fill="#fff"/><path d="M826.38,378a5,5,0,0,1,5.47-2.44c4,.88,3.49,6.68.16,9.37s-7.74,1.72-8-1.45Z" transform="translate(-550.33 -200.67)" fill="#fbc6a4"/><path d="M831.34,375.77a4.69,4.69,0,0,0-2.44.08,3.28,3.28,0,0,1,1.76,0c3.67,1,2.76,5.33.73,7.48-2.74,2.91-6.28,2.23-7.43-.18.26,2.95,4.42,3.85,7.54,1.35S835.05,376.58,831.34,375.77Z" transform="translate(-550.33 -200.67)" fill="#eaad85"/><path d="M832,377.34c-2.27-1.39-6.12,2.94-3.76,6.75-.09-4.06,1.65-4.82,2.78-2.49.41-1.17.07-2.13-1.46-2.53A3.37,3.37,0,0,1,832,377.34Z" transform="translate(-550.33 -200.67)" fill="#d5956a"/><path d="M797.19,380.16h-.09a2.21,2.21,0,0,1-1.6-2.25,2.18,2.18,0,0,1,1.47-2c.48-.12,1.42-.07,2.32,1.51a.14.14,0,0,1-.06.2.14.14,0,0,1-.2-.05c-.59-1-1.3-1.54-2-1.38h0a1.84,1.84,0,0,0-1.2,1.7,1.87,1.87,0,0,0,1.4,2,.15.15,0,0,1,.09.19A.13.13,0,0,1,797.19,380.16Z" transform="translate(-550.33 -200.67)" fill="#ce7754"/><path d="M806.86,369.19a5,5,0,1,0,7.23-.32A5.11,5.11,0,0,0,806.86,369.19Z" transform="translate(-550.33 -200.67)" fill="#eaad85"/><path d="M812.9,375.78c1.61.35,1.9,1.14.65,1.76a9.34,9.34,0,0,1-5.19.47c-1.62-.35-1.91-1.14-.66-1.75A9.27,9.27,0,0,1,812.9,375.78Z" transform="translate(-550.33 -200.67)" fill="#eaad85"/><path d="M806.71,369a4.86,4.86,0,1,0,7-.31A5,5,0,0,0,806.71,369Z" transform="translate(-550.33 -200.67)" fill="#fff"/><path d="M814.33,371a4.64,4.64,0,0,1-1.3,3.81,4.43,4.43,0,0,1-6.24.28,4,4,0,0,1-1-1.62,4.07,4.07,0,0,0,1.21,2.44,4.42,4.42,0,0,0,6.25-.27A4.6,4.6,0,0,0,814.33,371Z" transform="translate(-550.33 -200.67)" fill="#d9dbdc"/><path d="M805.76,372.87a2.63,2.63,0,1,0,3-2.38A2.69,2.69,0,0,0,805.76,372.87Z" transform="translate(-550.33 -200.67)" fill="#9dc2e7"/><path d="M806,373.33a1.63,1.63,0,1,0,1.85-1.47A1.67,1.67,0,0,0,806,373.33Z" transform="translate(-550.33 -200.67)" fill="#231f20"/><path d="M805.6,372.33a.67.67,0,1,0,1.33.19.67.67,0,1,0-1.33-.19Z" transform="translate(-550.33 -200.67)" fill="#fff"/><path d="M808.41,374.26a.42.42,0,0,0,.34.48.42.42,0,0,0,.12-.84A.4.4,0,0,0,808.41,374.26Z" transform="translate(-550.33 -200.67)" fill="#fff"/><path d="M792.07,369a4.72,4.72,0,1,1-5.78-3.72A4.86,4.86,0,0,1,792.07,369Z" transform="translate(-550.33 -200.67)" fill="#eaad85"/><path d="M790,373.62c1.52.33,1.8,1.07.62,1.66a8.78,8.78,0,0,1-4.9.45c-1.52-.34-1.79-1.08-.61-1.66A8.74,8.74,0,0,1,790,373.62Z" transform="translate(-550.33 -200.67)" fill="#eaad85"/><path d="M791.56,369.08a4.67,4.67,0,1,1-5.71-3.68A4.81,4.81,0,0,1,791.56,369.08Z" transform="translate(-550.33 -200.67)" fill="#fff"/><path d="M791,369.51a4.48,4.48,0,0,0-.64-1.42,7.06,7.06,0,0,1,.29.81,4.25,4.25,0,0,1-2.94,5.2,4,4,0,0,1-3.61-.92,4,4,0,0,0,4,1.41A4.14,4.14,0,0,0,791,369.51Z" transform="translate(-550.33 -200.67)" fill="#d9dbdc"/><path d="M788,371.28a2.53,2.53,0,1,1-2.13-3A2.61,2.61,0,0,1,788,371.28Z" transform="translate(-550.33 -200.67)" fill="#9dc2e7"/><path d="M786.29,371.41a1.57,1.57,0,0,1-1.73,1.37,1.56,1.56,0,0,1-1.26-1.8,1.54,1.54,0,0,1,1.71-1.37A1.57,1.57,0,0,1,786.29,371.41Z" transform="translate(-550.33 -200.67)" fill="#231f20"/><path d="M784.23,370.28a.64.64,0,1,1-.54-.76A.66.66,0,0,1,784.23,370.28Z" transform="translate(-550.33 -200.67)" fill="#fff"/><path d="M786.49,371.64a.4.4,0,0,1-.45.35.41.41,0,0,1,.12-.81A.4.4,0,0,1,786.49,371.64Z" transform="translate(-550.33 -200.67)" fill="#fff"/><path d="M775.34,365.39c-.06,1.44,3.81-1,3.82-3.53,1.53.44,3.16-3.17,2.19-5.22,3.4,2.79,5.9.29,6.16-1.92,1.3,3,7,1.25,6.64-.86,2.26,2.79,6.17,2.45,6.18,0-.15,2.88,3.47,2.95,4.83,1.61,0,2.81,3.88,4.8,6.87,2.2-.8,3.25,1,5.59,4.56,2.78.43,4.61,4.45,5.86,5.68,4.92-2,3.36-.35,8,3.6,6.81-3.58,4.71,1,7.08,5.17,3.39,1.36,2.4,4-.1,4.63-2.65s-2.93-30.51-32.22-31.34C782.1,340.94,775.6,358.77,775.34,365.39Z" transform="translate(-550.33 -200.67)" fill="#72301d"/><path d="M780.82,353.61c-.34,2.11,3.5,3.67,5.68-.5,2.52,3,6,1.59,7.56-.78,1.57,3,5.24,2.46,7.05-.13.9,4.82,2,2.78,3.84,1.36,1.5,4.06,4.17,5.13,7.37,3.23.54,3.46,1.4,3.95,4.19,2.29.75,3.55,4.09,5.76,7,4.19-2.68-1-5.52-4.35-4.89-7.42-3.32,1.37-5.05-.05-5.23-2.25-2.68,1.66-7.69,0-7.78-2.81-2.57,2-3.35.75-4.15-1.23-3.27,3.06-6.15,2.1-7.58.46a5.22,5.22,0,0,1-7.56.56C783.42,355.63,780.82,353.61,780.82,353.61Z" transform="translate(-550.33 -200.67)" fill="#5e281a"/><path d="M785.45,336.27c-4.14-3.52,13.59-7.9,18.44-.63C798.55,333.4,789,339.25,785.45,336.27Z" transform="translate(-550.33 -200.67)" fill="#8a4a37"/><path d="M806.19,337c6.24-6.93,20.21-2.57,24.45,3.49s.26,5.27-3.6,2.1S813.47,331.74,806.19,337Z" transform="translate(-550.33 -200.67)" fill="#8a4a37"/><path d="M838.14,356.09c1.87,2.62,4.61,11.41-2.37,12.12,1.72,2.3-4.81,6.15-5.23-.56-1.78,2.29-4.85,1.38-4.58-3.2-2,2.95-2.92,7.06,2.25,6.63-1.44,2.55.26,4.68,3.06,2.17,1.89,1.6,3.1,2.47,3.73,1.15,2.53,2.79,3.44,6.27,1,9.68,2.37-1.76,3-8.5.7-10.76,4.16,2,4.5.35,1.85-2.68C845.76,363.08,838.14,356.09,838.14,356.09Z" transform="translate(-550.33 -200.67)" fill="#5e281a"/><path d="M776,348.36s-9.14,4.91-2.47,14.43c-3,1.85-3.11,6.24,1.14,7.74-1.93-4.52.63-5.48.63-5.48s3.66-2,2.89-3.83c1.53-.79,2.6-1.69,1.57-3.79-1.57,2.55-3.67,2-3.19-.6C773.08,361.72,771.6,352.78,776,348.36Z" transform="translate(-550.33 -200.67)" fill="#5e281a"/><path d="M799.05,370.11h0l-3.54-.56a.5.5,0,0,1-.41-.57.49.49,0,0,1,.57-.42l3.54.56a.5.5,0,0,1,.41.58A.49.49,0,0,1,799.05,370.11Z" transform="translate(-550.33 -200.67)" fill="#e84930"/><path d="M777.09,371.18l12-11.29,1.45.25-12.06,14A5.09,5.09,0,0,1,777.09,371.18Z" transform="translate(-550.33 -200.67)" fill="#fff" opacity="0.7"/><path d="M799.88,373.62l12-11.69,1,.23-12.45,13.5S800,375.5,799.88,373.62Z" transform="translate(-550.33 -200.67)" fill="#fff" opacity="0.7"/><path d="M801.54,377.85l12.88-15.3.27.13-12.8,15.65S802,378.75,801.54,377.85Z" transform="translate(-550.33 -200.67)" fill="#fff" opacity="0.7"/><path d="M807.87,382a10.65,10.65,0,0,1-9.1-12,10.67,10.67,0,0,1,9-9.08,10.62,10.62,0,0,1,12.05,11.93,10.66,10.66,0,0,1-9,9.09h0A10.41,10.41,0,0,1,807.87,382Zm-8-11.81a9.56,9.56,0,0,0,10.84,10.74h0a9.61,9.61,0,0,0,8.1-8.18A9.57,9.57,0,0,0,807.92,362,9.61,9.61,0,0,0,799.83,370.14Z" transform="translate(-550.33 -200.67)" fill="#e84930"/><path d="M784.88,378.35a9.73,9.73,0,0,1-.09-19.28,9.46,9.46,0,0,1,2.71,0A9.75,9.75,0,0,1,795.84,370a9.8,9.8,0,0,1-8.25,8.33h0A9.46,9.46,0,0,1,784.88,378.35Zm-7.28-10.81A8.69,8.69,0,0,0,785,377.3a9.26,9.26,0,0,0,2.41,0h0a8.72,8.72,0,0,0,7.34-7.42,8.68,8.68,0,0,0-7.43-9.76,8.66,8.66,0,0,0-9.75,7.43Z" transform="translate(-550.33 -200.67)" fill="#e84930"/><path d="M828.68,375.34a.19.19,0,0,1-.1,0l-9.49-3.13a.44.44,0,0,1-.23-.55.42.42,0,0,1,.55-.23l9.48,3.14a.42.42,0,0,1,.23.55A.4.4,0,0,1,828.68,375.34Z" transform="translate(-550.33 -200.67)" fill="#e84930"/><path d="M834.13,338.61c-1.58-1.62-.38-4.73,2.73-3.14-3.18-4.4,1.58-3.5,2.51-2.24-.76-2.35,3.38-3.6,3-1.22,2.27-3,5.09.18,3.63,1.82,1.94,1,.58,2.8-.95,3,2.53,3.91-.66,4.25-1.71,3.25.46,3.32-1.71,3.37-3.41,1.75-.34,1.8-3.3,1.11-3.3,1.11Z" transform="translate(-550.33 -200.67)" fill="#72301d"/><path d="M833.94,336.73c1.47,1.85,5,4.82,5.88,2.67,1.55.83,1.76-.55,1.36-2,2.24.84,2.91.06,1.87-1.69a3,3,0,0,0,.9-2.56s2.49,2.12.24,3.37c1.52,1.74.39,3.51-1.87,2.38,0,2.67-1.46,2.9-2.63,2a3.78,3.78,0,0,1-3,1.36Z" transform="translate(-550.33 -200.67)" fill="#5e281a"/><path d="M839.55,342.34c-1.7-.82-5.47-4.58-6-5.94-2.86.28-2.45,2.65-2.45,2.65a12.78,12.78,0,0,0,6,5.72C838.66,344.68,839.55,342.34,839.55,342.34Z" transform="translate(-550.33 -200.67)" fill="#e84930"/><path d="M804.39,338.5c-4.49,0-12.74,1.12-11.86,6.57S804.39,338.5,804.39,338.5Z" transform="translate(-550.33 -200.67)" fill="#8a4a37"/><path d="M804.47,409.41c-12.32,7.13-28.43-3.21-29.17-4.4,0-3.43-2.45-5.61-3.24-5.62-1,0-.08,1.91-.08,1.91a19.05,19.05,0,0,0-2.26-1.26c-1.47-.63-2.22-.6-2.44-.15-.44.84,3.08,2.36,3.08,2.36s-3.67-1.6-4.15-.63c-.39.79,3.38,2.31,3.38,2.31s-3.36-1.69-3.79-.47c-.27.75,3,1.92,3,1.92s-2.51-1.07-2.86-.35,1.71,1.42,3.15,1.9a9.53,9.53,0,0,0,4.75.59c3.34,2.91,23.09,13.3,32.78,4.3C807.64,410.57,805.55,408.57,804.47,409.41Z" transform="translate(-550.33 -200.67)" fill="#fbc6a4"/><path d="M799.57,414.61a10.85,10.85,0,0,1-3.55.33c1.91-1,2.5-1.82.33-2.74a13.74,13.74,0,0,0,2.84-.45Z" transform="translate(-550.33 -200.67)" fill="#eaad85"/><path d="M807.78,407.88c-3.61-.7-8.07,1.63-10,1.08a52.49,52.49,0,0,0,1.87,9.43s9.4-.43,11.07-3.78C812.08,411.84,810.65,408.44,807.78,407.88Z" transform="translate(-550.33 -200.67)" fill="#007d9e"/><path d="M809.63,414.81c-1.77,1-8,1.63-11.28-5.43.3,2.79,1.28,7.12,2.06,8.12C804,417.67,809.63,414.81,809.63,414.81Z" transform="translate(-550.33 -200.67)" fill="#004e64"/></svg>