<svg id="Layer_1" data-name="Layer 1" xmlns="http://www.w3.org/2000/svg" viewBox="0 0 303 252.8"><title>cooking</title><rect x="188.21" y="126.83" width="49.05" height="17.99" fill="#c77b39"/><polygon points="237.27 126.87 236.25 125.56 189.22 125.56 188.21 126.87 237.27 126.87" fill="#fab261"/><rect x="138.69" y="210.66" width="9" height="39.12" fill="#f6a753"/><rect x="138.69" y="216.54" width="9" height="2.75" fill="#b86e2c"/><polygon points="138.69 210.66 147.69 210.66 147.69 210.66 138.69 210.66 138.69 210.66" fill="#e69743"/><polygon points="147.69 249.78 149.31 245.44 149.31 210.66 147.69 210.66 147.69 249.78" fill="#c77b39"/><polygon points="147.69 219.3 149.31 218.51 149.31 211.35 147.69 216.7 147.69 219.3" fill="#a86528"/><polygon points="147.69 210.66 149.31 210.66 149.31 210.66 147.69 210.66 147.69 210.66" fill="#b06c2e"/><rect x="285.14" y="210.66" width="9" height="39.12" fill="#f6a753"/><rect x="285.14" y="216.54" width="9" height="2.75" fill="#b86e2c"/><polygon points="294.14 210.66 285.14 210.66 285.14 210.66 294.14 210.66 294.14 210.66" fill="#e69743"/><polygon points="285.14 249.78 283.52 245.44 283.52 210.66 285.14 210.66 285.14 249.78" fill="#c77b39"/><polygon points="285.14 219.3 283.52 218.51 283.52 211.35 285.14 216.7 285.14 219.3" fill="#a86528"/><polygon points="285.14 210.66 283.52 210.66 283.52 210.66 285.14 210.66 285.14 210.66" fill="#b06c2e"/><rect x="269.54" y="194.52" width="7.88" height="33.17" fill="#c77b39"/><rect x="269.54" y="217.78" width="7.88" height="1.34" fill="#a86528"/><polygon points="277.42 194.52 269.54 194.52 269.54 194.52 277.42 194.52 277.42 194.52" fill="#e69743"/><polygon points="269.54 227.69 268.12 224.01 268.12 194.52 269.54 194.52 269.54 227.69" fill="#a86528"/><polygon points="269.54 219.12 268.12 218 268.12 194.52 269.54 194.52 269.54 219.12" fill="#8c5523"/><polygon points="269.54 194.52 268.12 194.52 268.12 194.52 269.54 194.52 269.54 194.52" fill="#b06c2e"/><rect x="155.41" y="194.52" width="7.88" height="33.17" fill="#c77b39"/><rect x="155.41" y="217.78" width="7.88" height="1.34" fill="#a86528"/><polygon points="155.41 194.52 163.29 194.52 163.29 194.52 155.41 194.52 155.41 194.52" fill="#e69743"/><polygon points="163.29 227.69 164.71 224.01 164.71 194.52 163.29 194.52 163.29 227.69" fill="#a86528"/><polygon points="163.29 219.12 164.71 218 164.71 194.52 163.29 194.52 163.29 219.12" fill="#8c5523"/><polygon points="163.29 194.52 164.71 194.52 164.71 194.52 163.29 194.52 163.29 194.52" fill="#b06c2e"/><rect x="133.46" y="179.24" width="165.32" height="39.15" fill="#e69743"/><rect x="133.46" y="179.24" width="165.32" height="5.95" fill="#b86e2c"/><path d="M725.13,424.81s-4.75-24.17,61.62-28.52c62.17-4.07,100.53,12.47,100.53,12.47V388.85H725.13Z" transform="translate(-590 -209.62)" fill="#d88731"/><rect x="135.13" y="179.24" width="162.14" height="5.95" fill="#a86528"/><rect x="128.74" y="176.73" width="174.26" height="7.46" fill="#c77b39"/><polygon points="128.74 176.73 303 176.73 282.17 141.91 154.87 141.91 128.74 176.73" fill="#fab261"/><path d="M828.85,376.14c0,4.82,12.65,8.73,28.27,8.73s28.27-3.91,28.27-8.73-12.66-8.73-28.27-8.73S828.85,371.31,828.85,376.14Z" transform="translate(-590 -209.62)" fill="#eb9a44"/><path d="M835.83,375.33c.19,1.91,7.73,5.94,20.6,6.54,12.11.57,21.39-3.16,21-6.56-.36-3-9.81-5.34-21.11-5.41S835.54,372.42,835.83,375.33Z" transform="translate(-590 -209.62)" fill="#c77b39"/><path d="M721.27,385.09l169.31.38s-151.25-.74-148.08-18.93C745.1,351.64,862,351.87,862,351.87l-115.64.25Z" transform="translate(-590 -209.62)" fill="#eb9a44"/><path d="M772.84,374.76c.3,2.89,11.71,9,31.18,9.9,18.32.85,32.35-4.8,31.75-9.94-.54-4.6-14.85-8.08-31.94-8.17S772.41,370.36,772.84,374.76Z" transform="translate(-590 -209.62)" fill="#f6a44c"/><polygon points="151.35 172.42 280.38 172.42 264.71 146.22 171.02 146.22 151.35 172.42" fill="#349b4f"/><path d="M748.43,372.62c10.66,4.57,25.65,7.51,51.08,9.42H741.35Z" transform="translate(-590 -209.62)" fill="#33813d"/><path d="M776.52,363.53c0,4.83,12.66,8.73,28.27,8.73s28.28-3.9,28.28-8.73-12.66-8.73-28.28-8.73S776.52,358.71,776.52,363.53Z" transform="translate(-590 -209.62)" fill="#26803e"/><path d="M761,355.84h9.74c-7.71.83-6.18,1.83-12,3Z" transform="translate(-590 -209.62)" fill="#33813d"/><path d="M799.51,382H785a57.83,57.83,0,0,1-5.59-1.8C785.81,380.93,792.59,381.52,799.51,382Z" transform="translate(-590 -209.62)" fill="#2a7536"/><path d="M783.5,362.73c.2,1.91,7.74,5.94,20.61,6.54,12.11.57,21.39-3.17,21-6.56-.36-3-9.82-5.35-21.11-5.41S783.21,359.82,783.5,362.73Z" transform="translate(-590 -209.62)" fill="#236b30"/><path d="M828.85,376.14c0-4.83,12.65-8.73,28.27-8.73,1.56,0,3.09,0,4.58.11L870.38,382h-34.1C831.67,380.49,828.85,378.41,828.85,376.14Z" transform="translate(-590 -209.62)" fill="#26803e"/><path d="M856.31,369.9c2.45,0,4.81.14,7,.35l6.24,10.44a45.37,45.37,0,0,1-13.14,1.18c-12.87-.6-20.41-4.63-20.6-6.54C835.54,372.42,845,369.85,856.31,369.9Z" transform="translate(-590 -209.62)" fill="#236b30"/><path d="M893,386.35s-73.51-.57-174.26,0C778.59,387.78,893,386.35,893,386.35Z" transform="translate(-590 -209.62)" fill="#fcc587"/><path d="M752.62,333.52v19.27s1.2,1.64,7.57,1.64,7.58-1.64,7.58-1.64V333.56a3.81,3.81,0,0,0,.62-.24v20.92s-1.3,1.77-8.2,1.77-8.19-1.77-8.19-1.77V333.32S752.21,333.4,752.62,333.52Z" transform="translate(-590 -209.62)" fill="#fff"/><path d="M760.19,337.33c6.38,0,7.58-.34,7.58-.34v15.8s-1.2,1.64-7.58,1.64-7.57-1.64-7.57-1.64V337S753.82,337.33,760.19,337.33Z" transform="translate(-590 -209.62)" fill="#f3d613"/><path d="M760.19,354.43c-6.37,0-7.57-1.64-7.57-1.64v-5.73h15.15v5.73S766.57,354.43,760.19,354.43Z" transform="translate(-590 -209.62)" fill="#ffc906"/><path d="M760.19,352.45c5.39,0,7.14-.83,7.58-1.22l.3,1.56s-1.5,1.64-7.88,1.64-7.75-1.64-7.75-1.64l.18-1.56C753.06,351.62,754.81,352.45,760.19,352.45Z" transform="translate(-590 -209.62)" fill="#afd8f0"/><path d="M752.61,351.26c0,.62,3.4,1.19,7.59,1.19s7.58-.57,7.58-1.19-3.4-1.08-7.58-1.08S752.61,350.64,752.61,351.26Z" transform="translate(-590 -209.62)" fill="#edaf12"/><path d="M752.61,336.89c0,.62,3.4,1.18,7.59,1.18s7.58-.56,7.58-1.18-3.4-1.08-7.58-1.08S752.61,336.27,752.61,336.89Z" transform="translate(-590 -209.62)" fill="#fff281"/><path d="M765.23,337.23v15.6l-2,.24V337.3C764,337.28,764.67,337.26,765.23,337.23Z" transform="translate(-590 -209.62)" fill="#fff281"/><path d="M765.23,352.1v.73l-2,.24v-.73A20.37,20.37,0,0,0,765.23,352.1Z" transform="translate(-590 -209.62)" fill="#e1f3fc"/><path d="M765.23,337.76c-.6.08-1.28.16-2,.21v-2.08c.75.05,1.43.11,2,.18Z" transform="translate(-590 -209.62)" fill="#faf8d3"/><path d="M760.19,352.9c7.47,0,8.2-1.66,8.2-1.66v3c0,.78-2.7,2-8.2,2s-8.19-1.28-8.19-2v-3S752.7,352.9,760.19,352.9Z" transform="translate(-590 -209.62)" fill="#94c3df"/><path d="M765.23,355.8c-.6.12-1.28.21-2,.29v-3.3c.79-.06,1.45-.15,2-.24Z" transform="translate(-590 -209.62)" fill="#afd8f0"/><path d="M760.19,355.82c5.5,0,8.2-1.21,8.2-2v.41c0,.78-2.7,2-8.2,2s-8.19-1.28-8.19-2v-.41C752,354.55,754.73,355.82,760.19,355.82Z" transform="translate(-590 -209.62)" fill="#7ca7c0"/><path d="M765.23,355.8c-.6.12-1.28.21-2,.29v-.41a19.78,19.78,0,0,0,2-.29Z" transform="translate(-590 -209.62)" fill="#94c3df"/><path d="M765.23,352.13c-.6.09-1.28.16-2,.22v-2.08c.75,0,1.43.1,2,.18Z" transform="translate(-590 -209.62)" fill="#ffc906"/><path d="M752,333.3c0,.62,3.67,1.19,8.19,1.19s8.2-.57,8.2-1.19-3.67-1.08-8.2-1.08S752,332.68,752,333.3Zm.72-.09c0-.46,3.35-.79,7.47-.79s7.48.33,7.48.79-3.35.86-7.48.86S752.72,333.66,752.72,333.21Z" transform="translate(-590 -209.62)" fill="#fff"/><path d="M753.82,338.11c-.1-1.5-.67-1.34-.72-.05s-.3,11.47.21,11.88.51.21.51-.93Z" transform="translate(-590 -209.62)" fill="#fff281"/><path d="M782.77,359.31c-.08,4.41,9.34,8.14,21,8.34S825,364.44,825.1,360s-9.34-8.13-21-8.33S782.85,354.91,782.77,359.31Z" transform="translate(-590 -209.62)" fill="#cfd0d2"/><path d="M786.78,363.74c-2.22-1.29-3.52-2.82-3.5-4.44.08-4.3,9.38-7.63,20.79-7.42s20.59,3.83,20.51,8.12c0,1.64-1.39,3.14-3.7,4.35a88.72,88.72,0,0,1-34.1-.61Z" transform="translate(-590 -209.62)" fill="#aeb0b3"/><path d="M774,355.07c-.08,5,13.28,9.28,29.85,9.57s30.08-3.54,30.16-8.54-13.28-9.29-29.84-9.57S774.1,350.07,774,355.07Z" transform="translate(-590 -209.62)" fill="#dddfe0"/><path d="M774,354.36c-.08,5,13.28,9.27,29.85,9.56s30.08-3.54,30.16-8.53-13.28-9.29-29.84-9.57S774.1,349.35,774,354.36Z" transform="translate(-590 -209.62)" fill="#fff"/><path d="M784.8,359.91c.07-3.19,8.68-5.63,19.26-5.45s19.12,2.92,19.06,6.11a2.56,2.56,0,0,1-1,1.8,90,90,0,0,1-36.31-.6A2.61,2.61,0,0,1,784.8,359.91Z" transform="translate(-590 -209.62)" fill="#ededee"/><path d="M836.41,371.88c-.08,4.4,9.33,8.13,21,8.34s21.24-3.21,21.31-7.63-9.34-8.13-21-8.33S836.48,367.47,836.41,371.88Z" transform="translate(-590 -209.62)" fill="#cfd0d2"/><path d="M840.42,376.3c-2.23-1.29-3.52-2.82-3.49-4.44.07-4.29,9.37-7.63,20.78-7.43s20.58,3.84,20.51,8.13c0,1.64-1.39,3.13-3.7,4.35a88.72,88.72,0,0,1-34.1-.61Z" transform="translate(-590 -209.62)" fill="#aeb0b3"/><path d="M827.65,367.63c-.08,5,13.29,9.28,29.85,9.57s30.07-3.54,30.16-8.54-13.28-9.29-29.84-9.56S827.74,362.63,827.65,367.63Z" transform="translate(-590 -209.62)" fill="#dddfe0"/><path d="M827.65,366.92c-.08,5,13.29,9.27,29.85,9.56s30.07-3.54,30.16-8.53-13.28-9.29-29.84-9.57S827.74,361.92,827.65,366.92Z" transform="translate(-590 -209.62)" fill="#fff"/><path d="M838.44,372.47c.07-3.19,8.68-5.63,19.26-5.45s19.12,2.92,19.06,6.11a2.59,2.59,0,0,1-1,1.81,90.45,90.45,0,0,1-36.31-.6A2.59,2.59,0,0,1,838.44,372.47Z" transform="translate(-590 -209.62)" fill="#ededee"/><path d="M790.69,355.89s-2.08,1.19-1.8,1.66c.46.77,4.48,1.67,6.14,2.26s3.85,1.88,6,2.86,3.29,1.36,4.24,1.11a21.32,21.32,0,0,0,5.18-3.1,24.37,24.37,0,0,1,5.27-3.27c1-.31,2.18-.93,2.2-1.2,0-.6-1.91-1-1.91-1Z" transform="translate(-590 -209.62)" fill="#bdbfc1"/><path d="M790,354s-.68,2.52.13,3.41,3.29,1.07,5,1.66,3.84,1.87,6,2.86,3.29,1.36,4.24,1.11a21.65,21.65,0,0,0,5.18-3.1,25.28,25.28,0,0,1,5.27-3.28c1-.31,1.22-.53,1.37-.77a20.5,20.5,0,0,0,.24-2.84Z" transform="translate(-590 -209.62)" fill="#e38938"/><path d="M790.69,352.85s-1.19.38-1.07,1.32.85.9,1.62,1.09,2.9,1,3.4,1.77,1.33,1.29,2,.85,2.65.75,3.24,1.59a3,3,0,0,0,2.68,1.11c.69-.21.65.65,2,.36a7.71,7.71,0,0,0,3.8-2.92c1-1.29,2.52-2.51,3.75-2.35a2.12,2.12,0,0,0,2.21-1.33c.07-.48,1.77-.94,2.39-.39s1.23-.26,1.14-.84-.37-1.86-2.65-1.89S790.69,352.85,790.69,352.85Z" transform="translate(-590 -209.62)" fill="#fcedc4"/><path d="M790.9,352.82c-.9,1.05-.7,2.66,2.19,3.35s3.89-1.24,3.89-1.24Z" transform="translate(-590 -209.62)" fill="#cf4735"/><path d="M791,352.5c-.9,1.05-.7,2.66,2.18,3.35s3.89-1.24,3.89-1.24Z" transform="translate(-590 -209.62)" fill="#f05844"/><path d="M798.23,355.87c-.91,1.06-.69,2.66,2.18,3.36S804.3,358,804.3,358Z" transform="translate(-590 -209.62)" fill="#cf4735"/><path d="M798.31,355.55c-.9,1.06-.7,2.66,2.18,3.36s3.9-1.24,3.9-1.24Z" transform="translate(-590 -209.62)" fill="#f05844"/><path d="M811.69,354.27c1,1,.86,2.61-2,3.47s-4-1-4-1Z" transform="translate(-590 -209.62)" fill="#cf4735"/><path d="M811.59,354c1,1,.85,2.62-2,3.48s-4-1-4-1Z" transform="translate(-590 -209.62)" fill="#f05844"/><path d="M817.39,350.89c.84.88.75,2.31-1.75,3.07s-3.5-.9-3.5-.9Z" transform="translate(-590 -209.62)" fill="#cf4735"/><path d="M817.29,350.61c.86.88.75,2.32-1.75,3.07s-3.49-.89-3.49-.89Z" transform="translate(-590 -209.62)" fill="#f05844"/><path d="M790,349.3a2.85,2.85,0,0,0-.12,1.64c.18.63,0,1.78.29,2.18s3.54,1,6,2.1,7.57,3.82,8.54,3.6a9.23,9.23,0,0,0,3.43-2.09,30,30,0,0,1,5.36-3.54c1.66-.77,3.63-1.43,4-1.88s.12-3.14.12-3.14Z" transform="translate(-590 -209.62)" fill="#e38938"/><path d="M790,349.3c.36,0,.42-.49,1-.55s.5-.61,1.16-.6.72-.59,1.21-.59.5.25.69,0,.32-.51.72-.5.69,0,.82-.19.43-.08.7-.35a1.22,1.22,0,0,1,1-.47c.4,0,.38,0,.53-.33s.29-.36.6-.26.33-.1.45-.24a.63.63,0,0,1,.56-.18c.19,0,.18-.17.25-.41s.26-.21.61-.19a.49.49,0,0,0,.56-.37c0-.19.14-.23.49-.2s.37-.22.56-.42.8-.12,1.13,0,6.06,2.19,7.94,2.61,6.64,1.7,6.65,2.13-.41.58-1,.5a1.22,1.22,0,0,0-1.36.53,1.33,1.33,0,0,1-1.22.59c-.62-.15-.94.23-1.26.63s-.65.34-1,.36a.88.88,0,0,0-.83.62,1.63,1.63,0,0,1-1.21.62c-.38,0-.5-.08-.68.4s-.14.71-.57.75-.69-.4-.88.33a.68.68,0,0,1-.85.54c-.57-.05-.18.42-.58.67s-.69-.22-1.05.09-.65.59-.8.5-1.58-.69-2.53-1.2a49.29,49.29,0,0,0-5-2C795.82,351.79,789.29,349.79,790,349.3Z" transform="translate(-590 -209.62)" fill="#f5a542"/><path d="M791,349.22c.85-.05.67-.44,1.18-.51s.46-.55,1-.54.65-.53,1.1-.52.45.22.61,0,.29-.46.66-.45.61,0,.74-.17.38-.08.63-.32a1.06,1.06,0,0,1,.86-.42c.36,0,.34,0,.48-.3s.27-.32.55-.22.29-.1.4-.23a.6.6,0,0,1,.5-.16c.18,0,.17-.15.23-.37s.23-.18.55-.17a.45.45,0,0,0,.5-.33c0-.18.12-.2.44-.19s.33-.2.5-.37.73-.11,1,0,5.45,2,7.15,2.34,6.33,1.51,6.34,1.89-.37.43-.92.35a1,1,0,0,0-1.12.56,2.11,2.11,0,0,1-1.54.59c-.56-.14-.85.21-1.13.56a1,1,0,0,1-.91.32.8.8,0,0,0-.75.56,1.4,1.4,0,0,1-1.09.56c-.35,0-.46-.06-.61.36s-.14.64-.52.68-.62-.35-.8.3a.61.61,0,0,1-.75.49c-.51-.05-.17.37-.52.59s-.62-.19-1,.1-.59.52-.72.44-1.42-.62-2.29-1.08a43.62,43.62,0,0,0-4.47-1.79C796.6,351.45,790.42,349.67,791,349.22Z" transform="translate(-590 -209.62)" fill="#f7e097"/><path d="M802.35,344.09c-.27,0-.75.15,0,.41s12.3,4.39,12.72,4.1-.27-.45-.91-.67S803.69,344.3,802.35,344.09Z" transform="translate(-590 -209.62)" fill="#f8ca7c"/><path d="M801.32,345c-.26,0-.73.15,0,.41s11.94,4.25,12.35,4-.25-.44-.88-.64S802.62,345.22,801.32,345Z" transform="translate(-590 -209.62)" fill="#f8ca7c"/><path d="M799.77,345.65c-.26,0-.71.16,0,.4s11.67,4.16,12.08,3.89-.25-.43-.87-.63S801,345.86,799.77,345.65Z" transform="translate(-590 -209.62)" fill="#f8ca7c"/><path d="M798.48,346.41c-.25,0-.7.15,0,.38s11.41,4.07,11.8,3.8-.24-.41-.85-.61S799.73,346.61,798.48,346.41Z" transform="translate(-590 -209.62)" fill="#f8ca7c"/><path d="M797.12,347.07c-.25,0-.7.14,0,.38s11.4,4.07,11.8,3.8-.25-.41-.86-.61S798.36,347.26,797.12,347.07Z" transform="translate(-590 -209.62)" fill="#f8ca7c"/><path d="M795.63,347.66c-.25,0-.7.14,0,.39s11.75,4.19,12.15,3.92-.25-.44-.87-.64S796.91,347.86,795.63,347.66Z" transform="translate(-590 -209.62)" fill="#f8ca7c"/><path d="M794.29,348.35c-.26,0-.72.16,0,.41s11.94,4.35,12.36,4.07-.26-.44-.88-.64S795.58,348.56,794.29,348.35Z" transform="translate(-590 -209.62)" fill="#f8ca7c"/><path d="M792.56,349c-.27,0-.73.16,0,.4s12.13,4.37,12.56,4.1-.23-.5-.84-.71S793.85,349.25,792.56,349Z" transform="translate(-590 -209.62)" fill="#f8ca7c"/><path d="M793.36,351.31c-.6-.21-2.54-1-3-.43s.36,2.5,2.57,2.76,7.82,3.3,9.1,3.27S799.58,353.52,793.36,351.31Z" transform="translate(-590 -209.62)" fill="#ec9c46"/><path d="M809.26,353.15c1.5-1,6.54-4.18,7.42-3.75s.74,1.78-1.25,2.45-8.84,5.4-9.67,5.4S805.54,355.5,809.26,353.15Z" transform="translate(-590 -209.62)" fill="#ec9c46"/><path d="M790.94,355.86a.84.84,0,0,0-.17,1.55c.88.7,4.18,1.17,5.88,2s4,2,3.89,1.67-3.13-1.9-4.17-2.43S791.69,355.86,790.94,355.86Z" transform="translate(-590 -209.62)" fill="#ec9c46"/><path d="M791.16,353.91a2.41,2.41,0,0,0,2.4,1.72c1.18-.14.29-.69-.34-.86A4.81,4.81,0,0,1,791.16,353.91Z" transform="translate(-590 -209.62)" fill="#f38377"/><path d="M798.76,357a2.2,2.2,0,0,0,2.17,1.56c1.06-.13.26-.63-.31-.78A4.31,4.31,0,0,1,798.76,357Z" transform="translate(-590 -209.62)" fill="#f38377"/><path d="M811.31,355.35a2.19,2.19,0,0,1-2.07,1.69c-1.07-.08-.3-.61.26-.81A4.32,4.32,0,0,0,811.31,355.35Z" transform="translate(-590 -209.62)" fill="#f38377"/><path d="M817.22,351.67a2.21,2.21,0,0,1-2.08,1.69c-1.06-.08-.28-.61.26-.79S816.93,352.09,817.22,351.67Z" transform="translate(-590 -209.62)" fill="#f38377"/><path d="M848,369.28c2.54-.21,4.84,0,5.75.71s-.45,2.55-7.16,2.67c-6.13.12-6.53-1.31-6.42-1.78S841.8,368.92,848,369.28Z" transform="translate(-590 -209.62)" fill="#d7d8da"/><path d="M860.48,372.73c2.56,0,4.83.33,5.7,1.11s-.64,2.51-7.33,2.17c-6.13-.31-6.43-1.77-6.28-2.23S854.38,371.94,860.48,372.73Z" transform="translate(-590 -209.62)" fill="#d7d8da"/><path d="M870.88,370.39c2.55,0,4.82.33,5.68,1.11s-.62,2.51-7.33,2.17c-6.12-.31-6.41-1.76-6.26-2.23S864.77,369.6,870.88,370.39Z" transform="translate(-590 -209.62)" fill="#d7d8da"/><path d="M871.17,365.1a5.38,5.38,0,1,0,6.52-4.49A5.6,5.6,0,0,0,871.17,365.1Z" transform="translate(-590 -209.62)" fill="#93bf3e"/><path d="M874.38,369.36a5.1,5.1,0,0,0,5.92-4.07,5.93,5.93,0,0,0,.08-2.05,5.45,5.45,0,0,1,.65,4.09,5.08,5.08,0,0,1-5.91,4.07,4.89,4.89,0,0,1-3.67-4.18A4.71,4.71,0,0,0,874.38,369.36Z" transform="translate(-590 -209.62)" fill="#7da938"/><path d="M877.45,361.33a.17.17,0,0,0,.2-.12c.7-2.31-.46-2.72-.52-2.74a.16.16,0,0,0-.21.11.16.16,0,0,0,.1.22s.9.35.3,2.31a.16.16,0,0,0,.11.21Z" transform="translate(-590 -209.62)" fill="#835d50"/><path d="M874.32,361.57A4.37,4.37,0,0,0,872,365c-.07,1.44,1,1.22,1.5.21a8.78,8.78,0,0,1,2-2.39C876.25,362.17,875.64,361,874.32,361.57Z" transform="translate(-590 -209.62)" fill="#aed262"/><path d="M852,361.79a5.39,5.39,0,1,0,6.52-4.49A5.62,5.62,0,0,0,852,361.79Z" transform="translate(-590 -209.62)" fill="#93bf3e"/><path d="M855.21,366.06a5.08,5.08,0,0,0,5.91-4.07,5.7,5.7,0,0,0,.09-2.05,5.45,5.45,0,0,1,.65,4.09A5.08,5.08,0,0,1,856,368.1a4.87,4.87,0,0,1-3.66-4.18A4.63,4.63,0,0,0,855.21,366.06Z" transform="translate(-590 -209.62)" fill="#7da938"/><path d="M858.28,358a.17.17,0,0,0,.2-.11c.7-2.32-.47-2.72-.52-2.74a.16.16,0,0,0-.21.11.16.16,0,0,0,.1.21s.9.36.3,2.32a.17.17,0,0,0,.11.21Z" transform="translate(-590 -209.62)" fill="#835d50"/><path d="M855.15,358.27a4.39,4.39,0,0,0-2.32,3.39c-.07,1.44.95,1.22,1.5.21a8.49,8.49,0,0,1,2-2.39C857.08,358.87,856.48,357.7,855.15,358.27Z" transform="translate(-590 -209.62)" fill="#aed262"/><path d="M857.07,366.51c0,4.93,3.23,8.26,7.22,8.26s7.22-3.33,7.22-8.26-3.23-8.2-7.22-8.2S857.07,361.59,857.07,366.51Z" transform="translate(-590 -209.62)" fill="#97682e"/><path d="M862.89,358.76a1,1,0,0,1,.69-.65,2,2,0,0,1,1,0,1,1,0,0,1,.85.66c0,.41-.56.73-1.24.71C863.28,359.41,862.89,359.08,862.89,358.76Z" transform="translate(-590 -209.62)" fill="#784f21"/><path d="M863.94,359.42h-.18l-.3-.08h0l-.11,0h0a.56.56,0,0,1-.2-.12h0l-.07-.07a2.35,2.35,0,0,0,.86.16c.67,0,1.23-.3,1.23-.7a.42.42,0,0,0-.12-.31,1,1,0,0,1,.44.52c0,.41-.56.73-1.24.71l-.19,0Z" transform="translate(-590 -209.62)" fill="#64421b"/><path d="M864.3,358.39h0a.41.41,0,0,1,.23.11h0v0h0v0c0,.05-.08.24-.48.17h0a.49.49,0,0,1-.24-.12v0c0-.1.16-.19.39-.19h0l.12,0Z" transform="translate(-590 -209.62)" fill="#6b451b"/><path d="M864.53,358.54v0a0,0,0,0,1,0,0,.68.68,0,0,0-.19-.08h0l-.13,0h0a.43.43,0,0,0-.37.15l-.05,0v0c0-.1.16-.19.39-.19h0l.12,0h0a.41.41,0,0,1,.23.11h0v0Z" transform="translate(-590 -209.62)" fill="#5e3f1c"/><path d="M859.35,361.5a6,6,0,0,0-1,5.94c.9,1.88,2.23.88,2.32-.79a11.83,11.83,0,0,1,1.27-4.47C862.56,360.9,860.86,359.83,859.35,361.5Z" transform="translate(-590 -209.62)" fill="#a37742"/><path d="M867.64,363.81a.21.21,0,0,0-.18.23c0,.13.08.24.17.23a.21.21,0,0,0,.18-.23c0-.13-.08-.23-.17-.23Zm1.36,4a.27.27,0,0,0-.12-.3c-.1,0-.2,0-.23.16a.24.24,0,0,0,.11.3c.1,0,.2,0,.24-.16Zm1.85-1.61a.27.27,0,0,0-.12-.31c-.1,0-.2,0-.23.17a.25.25,0,0,0,.12.3c.09,0,.19,0,.23-.16Zm-2.61,4a.26.26,0,0,0-.11-.31c-.1,0-.2,0-.24.16a.27.27,0,0,0,.12.31c.09,0,.2,0,.23-.16Zm2-1.52a.25.25,0,0,0-.12-.3c-.1,0-.2,0-.23.16a.24.24,0,0,0,.12.3c.09.05.19,0,.23-.16Zm-3.41-1.43a.25.25,0,0,0-.12-.3c-.09-.05-.2,0-.23.15a.27.27,0,0,0,.12.31c.09,0,.19,0,.23-.16Zm2-5.17c-.09,0-.17.1-.17.23s.08.23.17.23.18-.11.18-.24-.08-.23-.18-.22Zm.28,3.15c-.1,0-.17.11-.17.24s.07.23.17.23a.21.21,0,0,0,.17-.24.19.19,0,0,0-.17-.23Zm-2.16.21c-.09,0-.17.11-.17.24s.07.23.17.23a.22.22,0,0,0,.18-.24.21.21,0,0,0-.18-.23Zm2.94-1.27c0,.12.09.23.18.22s.17-.1.17-.23-.07-.24-.17-.23h0A.22.22,0,0,0,869.91,364.2Z" transform="translate(-590 -209.62)" fill="#784f21" fill-rule="evenodd"/><path d="M843.64,354.87a2.6,2.6,0,0,0,.7-2.13,2.61,2.61,0,0,1,2.53-1.55,3.77,3.77,0,0,1,3,1.38,3.41,3.41,0,0,1-2.34,2.1,3.1,3.1,0,0,1-3.06-.57,1.69,1.69,0,0,0-.45.83.18.18,0,0,1-.12.13h-.09A.17.17,0,0,1,843.64,354.87Z" transform="translate(-590 -209.62)" fill="#7c9c3e"/><path d="M844,356.13a3.94,3.94,0,0,1,2.77,0c4.5,1.66,6,4.24,6.49,6.34a9.31,9.31,0,0,1-1,6.38c-.79,1.29-2.45,3.13-4.37,3.13-1.52,0-2.44-.57-3-.39a4.28,4.28,0,0,1-2.51.5c-2.05-.25-5.06-2.67-5.56-6a8.82,8.82,0,0,1,3.78-8.33A8.14,8.14,0,0,1,844,356.13Z" transform="translate(-590 -209.62)" fill="#f3d613"/><path d="M840.24,358.69A6.45,6.45,0,0,0,838,364.3c.37,2.09,1.76,1.44,2.22-.19a12.72,12.72,0,0,1,2.14-4.08C843.21,358.92,842,357.44,840.24,358.69Z" transform="translate(-590 -209.62)" fill="#fff281"/><path d="M847.52,356.41a3.19,3.19,0,0,1-1-.82,1.58,1.58,0,0,0-2-.61c.14.62-.39.87-.89.61-.17.29-.82,0-1.13.29a4.69,4.69,0,0,0-.69,1.08c-.07.58,1.33,1,2,.63s2.67.27,2.8-.4S847.91,356.67,847.52,356.41Z" transform="translate(-590 -209.62)" fill="#c3942d"/><path d="M844.63,355.14a5.87,5.87,0,0,0-1.62-1.58,1.71,1.71,0,0,0-.3.67,5,5,0,0,1,.94,1.36C844.38,356.05,845,355.67,844.63,355.14Z" transform="translate(-590 -209.62)" fill="#7b6d2c"/><path d="M843.07,353.62c.12.19.22.68-.21.67S842.89,353.33,843.07,353.62Z" transform="translate(-590 -209.62)" fill="#a99545"/><path d="M848.77,367.13c.16-.55.75-.28.51.52S848.63,367.6,848.77,367.13Z" transform="translate(-590 -209.62)" fill="#d6aa2b"/><path d="M851.25,362.91c.48.29.52,1.08.14,1S850.78,362.63,851.25,362.91Z" transform="translate(-590 -209.62)" fill="#d6aa2b"/><path d="M840.11,365.17c-.47.08-.33.87,0,.8S840.32,365.14,840.11,365.17Z" transform="translate(-590 -209.62)" fill="#d6aa2b"/><path d="M840.57,366.94c0,.25-.32-.11-.21-.22S840.54,366.69,840.57,366.94Z" transform="translate(-590 -209.62)" fill="#d6aa2b"/><path d="M850.22,368.77c-.32.06-.47.57-.23.66S850.5,368.72,850.22,368.77Z" transform="translate(-590 -209.62)" fill="#d6aa2b"/><path d="M849.1,368.87c.11.09.14,1-.1.79S848.72,368.54,849.1,368.87Z" transform="translate(-590 -209.62)" fill="#d6aa2b"/><path d="M691.46,453.11a3.63,3.63,0,0,1,.07,3c-1.84,2.49-6.18,6-11.42,6.32-3.83.21-7.66-1.21-8.44-3a2.77,2.77,0,0,1,.36-2.91C677.48,453.75,691.46,453.11,691.46,453.11Z" transform="translate(-590 -209.62)" fill="#f0f1f2"/><path d="M691.46,453.11s-.87,0-2.24.14c-1.18.94-2.17,2-.18,2.34,3.05.52-2.45,5.15-9.41,5.37-3.54.11-7.07-1-8.21-2.58a3.29,3.29,0,0,0,.25,1c.78,1.77,4.61,3.19,8.44,3,5.24-.29,9.58-3.83,11.42-6.32A3.63,3.63,0,0,0,691.46,453.11Z" transform="translate(-590 -209.62)" fill="#d0d1d3"/><path d="M691.73,407.59s-1.32,41.27-1.49,45.41c-2.23,2.48-5.34-.49-5.34-.49s.77-41.95,1.21-44.92A35.94,35.94,0,0,1,691.73,407.59Z" transform="translate(-590 -209.62)" fill="#fbc6a4"/><path d="M691,448.43s-2.05,3-3.26,2.41c.85-1.13.64-3.62-1.21-3.91s-1.84,2.56-1.84,2.56-2.41-1.77-7-.64-6.16,6.31-5.59,7.66c.92,1.28,5,2.91,10,2.27s8.3-4.26,8.94-4.76a2.39,2.39,0,0,0,.64-2.75C691.1,450.27,692.17,448.43,691,448.43Z" transform="translate(-590 -209.62)" fill="#5ac0e1"/><path d="M691.6,451.27c-.5-1,.57-2.84-.64-2.84a11.43,11.43,0,0,1-1.49,1.71.26.26,0,0,0,.16,0c1.22-.16,1.38,1.69.9,2.34-.85,1.18-4,3.68-9,4.31-4.15.53-7.94-.42-9.46-2a2.92,2.92,0,0,0,0,1.68c.92,1.28,5,2.91,10,2.27s8.3-4.26,8.94-4.76A2.39,2.39,0,0,0,691.6,451.27Z" transform="translate(-590 -209.62)" fill="#3da2c1"/><path d="M678.58,449.63c-1.77-.49-6,2.84-4.11,4.75s7.8.85,7.8.85-5-.34-4.4-2.62C678.08,451.76,680.09,450.06,678.58,449.63Z" transform="translate(-590 -209.62)" fill="#86d4f1"/><path d="M684.26,451a.38.38,0,0,1-.3-.15c-1.53-2-3.14-.91-3.2-.87a.38.38,0,0,1-.53-.08.37.37,0,0,1,.09-.53s2.27-1.57,4.24,1a.38.38,0,0,1-.07.53A.43.43,0,0,1,684.26,451Z" transform="translate(-590 -209.62)" fill="#fff"/><path d="M680.6,451.7a.42.42,0,0,1-.3-.15c-1.52-2-3.13-.91-3.2-.86a.37.37,0,0,1-.52-.1.37.37,0,0,1,.09-.52s2.28-1.57,4.24,1a.37.37,0,0,1-.08.53A.37.37,0,0,1,680.6,451.7Z" transform="translate(-590 -209.62)" fill="#fff"/><path d="M701.53,453.11a3.56,3.56,0,0,0-.07,3,16.37,16.37,0,0,0,11.42,6.32c3.83.21,7.66-1.21,8.44-3a2.79,2.79,0,0,0-.36-2.91C715.5,453.75,701.53,453.11,701.53,453.11Z" transform="translate(-590 -209.62)" fill="#f0f1f2"/><path d="M701.53,453.11s.86,0,2.24.14c1.18.94,2.17,2,.18,2.34-3.05.52,2.44,5.15,9.41,5.37,3.54.11,7.07-1,8.2-2.58a3.63,3.63,0,0,1-.24,1c-.78,1.77-4.61,3.19-8.44,3a16.37,16.37,0,0,1-11.42-6.32A3.56,3.56,0,0,1,701.53,453.11Z" transform="translate(-590 -209.62)" fill="#d0d1d3"/><path d="M701.26,407.59s1.31,41.27,1.48,45.41c2.23,2.48,5.35-.49,5.35-.49s-.77-41.95-1.21-44.92A35.94,35.94,0,0,0,701.26,407.59Z" transform="translate(-590 -209.62)" fill="#fbc6a4"/><path d="M702,448.43s2.05,3,3.26,2.41c-.86-1.13-.64-3.62,1.21-3.91s1.84,2.56,1.84,2.56,2.41-1.77,7-.64,6.17,6.31,5.6,7.66c-.92,1.28-5,2.91-10,2.27s-8.29-4.26-8.93-4.76a2.39,2.39,0,0,1-.64-2.75C701.88,450.27,700.82,448.43,702,448.43Z" transform="translate(-590 -209.62)" fill="#5ac0e1"/><path d="M701.39,451.27c.49-1-.57-2.84.64-2.84a11.73,11.73,0,0,0,1.48,1.71.22.22,0,0,1-.15,0c-1.22-.16-1.38,1.69-.9,2.34.85,1.18,4,3.68,9,4.31,4.14.53,7.94-.42,9.45-2a3,3,0,0,1,0,1.68c-.92,1.28-5,2.91-10,2.27s-8.29-4.26-8.93-4.76A2.39,2.39,0,0,1,701.39,451.27Z" transform="translate(-590 -209.62)" fill="#3da2c1"/><path d="M714.41,449.63c1.77-.49,6,2.84,4.11,4.75s-7.8.85-7.8.85,5-.34,4.39-2.62C714.9,451.76,712.89,450.06,714.41,449.63Z" transform="translate(-590 -209.62)" fill="#86d4f1"/><path d="M708.73,451a.38.38,0,0,0,.3-.15c1.53-2,3.14-.91,3.2-.87a.38.38,0,1,0,.44-.61s-2.28-1.57-4.24,1a.38.38,0,0,0,.07.53A.4.4,0,0,0,708.73,451Z" transform="translate(-590 -209.62)" fill="#fff"/><path d="M712.38,451.7a.38.38,0,0,0,.3-.15c1.53-2,3.13-.91,3.2-.86a.38.38,0,0,0,.53-.1.37.37,0,0,0-.09-.52s-2.28-1.57-4.24,1a.38.38,0,0,0,.07.53A.39.39,0,0,0,712.38,451.7Z" transform="translate(-590 -209.62)" fill="#fff"/><path d="M678.39,382.51s-.75,21.38,1.79,39.94C692.56,425.31,694,422,694,422l2.47-24s1.91,19.78,2.53,24.2c1.53.51,13,.16,14.29-2.39C713.48,406,711,381,711,381Z" transform="translate(-590 -209.62)" fill="#4d4e4e"/><path d="M679.33,380.6l1,11.25s17.72-11.07,30.82-1.54c-.95-8.34-1.28-13.11-1.28-13.11Z" transform="translate(-590 -209.62)" fill="#3a3a3a"/><path d="M699.84,332.19s24,8.82,36.28,7.34c.44-1,2-3.09,3.08-2.66s.06,2.77-.55,3.43c1.77.77,7.17-.12,7.17,1.44,0,1-4.74,1-4.74,1s5,.55,4.85,1.6c-.14,1.39-5.18.5-5.18.5s4.7.63,4.58,1.82-4.19.22-5.19-.22c-.12.2,4.19,1.21,3.42,2.14-1,1.21-7.28-1.15-8.93-3.52-5.13-.22-20.51-1.82-31.2-6.5C701.44,337,699.84,332.19,699.84,332.19Z" transform="translate(-590 -209.62)" fill="#fbc6a4"/><path d="M699.73,332.42a49.93,49.93,0,0,0,6.78,2.42c-2,0-2.53,2.92.72,4.52-3.48-1.1-5.29-1.49-5.29-1.49Z" transform="translate(-590 -209.62)" fill="#eaad85"/><path d="M687.65,323.51a55.46,55.46,0,0,1,1.65,6.69c-4.95,2.57-15.66,7-14.63,20s1.42,13.12,1.11,22c0,0,19.07,2.32,36-1.28-.42-6.17-3.4-21.51-3.4-21.51s-4.73-13.7-8.17-17.05a38,38,0,0,0-6.65-2.6,75.36,75.36,0,0,0-2.26-7.41Z" transform="translate(-590 -209.62)" fill="#fbc6a4"/><path d="M691.25,322.27l-3.6,1.24s1,3.3,1.49,5.72c.88.56,3,.21,4.1-.63C692.41,325.42,691.25,322.27,691.25,322.27Z" transform="translate(-590 -209.62)" fill="#eaad85"/><path d="M680.24,335.24S685.48,350,675,355.72c-.1,1.13.87,17-2.33,27.16,7.73,3.8,33.9,3.7,40.9-2.47-1.55-15-4.4-28.5-4.4-28.5s-1.49-6.13-5.64-18.13a22.83,22.83,0,0,0-6-2.76s4.11,8.75.36,10c-3.49,1.16-11.52.06-13.57-8.58C682.64,332.43,680.24,335.24,680.24,335.24Z" transform="translate(-590 -209.62)" fill="#f290bb"/><path d="M713.26,378.44c-7,6.08-23.6,3.14-31.28-.65-2.76-3.66-4.14-15.63-6.13-22.64-.11,1.13,1.86,16.2-1.33,26.38,7.72,3.81,31.87,4.26,38.86-1.91Z" transform="translate(-590 -209.62)" fill="#da6a9d"/><path d="M681.27,341c2.09,3.52-12.36,11.23,10,28.17,4.88.12,6.51.29,8.84,1.19,2,.79,4.34,2.66,3.16,3.58-.79.62-1.71-.48-2.44-.75.43.8-.24,3.06-2.47,1.9a1.85,1.85,0,0,1-2.75,1.76c.39,1.57-1.35,2.2-2.4,1.14a8,8,0,0,0-2.22-1.59s-2.81-1-2.52-3.68c-7-3.65-21.39-14.56-12.12-31.93C678.78,337.85,680.42,339.51,681.27,341Z" transform="translate(-590 -209.62)" fill="#fbc6a4"/><path d="M697.83,371.65a.16.16,0,0,1,0-.1.12.12,0,0,1,.14-.11,5.42,5.42,0,0,1,3.3,1.8.13.13,0,0,1,0,.18.12.12,0,0,1-.18,0,5.38,5.38,0,0,0-3.14-1.7Z" transform="translate(-590 -209.62)" fill="#de9173"/><path d="M695.87,373.21a.16.16,0,0,1,0-.12A.12.12,0,0,1,696,373a5.94,5.94,0,0,1,2.7,2.26.14.14,0,0,1,0,.17.13.13,0,0,1-.18,0,5.71,5.71,0,0,0-2.56-2.15S695.88,373.23,695.87,373.21Z" transform="translate(-590 -209.62)" fill="#de9173"/><path d="M693.65,375.2a.17.17,0,0,1,0-.1.13.13,0,0,1,.15-.1c1,.16,1.92,1.66,2,1.73a.15.15,0,0,1,0,.18.13.13,0,0,1-.18-.05s-.91-1.46-1.78-1.61C693.7,375.25,693.67,375.22,693.65,375.2Z" transform="translate(-590 -209.62)" fill="#de9173"/><path d="M636.29,246.68s-10.7-20-29.31-9.75c-17,9.4-2.86,43.31-17,40.32,0,0,15.06,13.78,26.85,1.41C626.89,268.15,636.29,246.68,636.29,246.68Z" transform="translate(-590 -209.62)" fill="#542c2c"/><path d="M606.68,275.21c-.08-11.24-.75-19.18,6.37-28.82,2.13-3.54-3.34-4.32-6.56-4.37a23.14,23.14,0,0,1,18.71-6.16c7.19,3.53,7,10.08,7,10.08s-6.24,19.43-16.27,29.95c-7.95,8.35-16,5.83-21.29,2.63a9.35,9.35,0,0,0,2.68.73C601.57,279.14,606.79,279.48,606.68,275.21Z" transform="translate(-590 -209.62)" fill="#482525"/><path d="M618.19,246.69l.06.52c-.27,0-6.69.85-8.49,8.61-.4,1.77-.73,3.72-1.08,5.8-1.18,7.2-2.53,15.35-8.08,16,0,0,5.73-.32,7.57-16.06a49.54,49.54,0,0,1,1.09-5.82C611.13,247.56,618.12,246.7,618.19,246.69Z" transform="translate(-590 -209.62)" fill="#311111"/><path d="M621.36,240l-.28.45c-2.2-1.38-7.63-2.05-13.34.76C615.65,236.48,621.3,239.94,621.36,240Z" transform="translate(-590 -209.62)" fill="#311111"/><path d="M630.58,234.91s-9.33-1.84-13.32,6.79S619,254.42,619,254.42Z" transform="translate(-590 -209.62)" fill="#f290bb"/><path d="M705.14,229.45s4-22.35,24.89-18.3c19.1,3.71,16,40.34,28.56,33.14,0,0-10.09,17.75-25.13,9.61C720.68,247,705.14,229.45,705.14,229.45Z" transform="translate(-590 -209.62)" fill="#542c2c"/><path d="M742.08,247.49C738.71,236.77,736.9,229,727.16,222c-3.11-2.7,1.84-5.13,4.89-6.17a23.11,23.11,0,0,0-19.69-.11c-5.76,5.57-2.64,11.23-2.64,11.23s11.65,17.55,24.44,24.48c10.13,5.49,16.56.63,20.61-4a9.48,9.48,0,0,1-2.33,1.52C748.35,250.14,743.29,251.58,742.08,247.49Z" transform="translate(-590 -209.62)" fill="#482525"/><path d="M722.36,223.89l.1.51c.28-.05,6.63-1.25,10.73,5.59.93,1.55,1.84,3.31,2.81,5.18,3.34,6.48,7.14,13.83,12.6,12.71,0,0-5.54,1.46-12.14-12.95a48.38,48.38,0,0,0-2.83-5.21C729.34,222.55,722.43,223.88,722.36,223.89Z" transform="translate(-590 -209.62)" fill="#311111"/><path d="M717.28,218.48l.4.34c1.67-2,6.64-4.29,12.94-3.38C721.63,213.4,717.33,218.42,717.28,218.48Z" transform="translate(-590 -209.62)" fill="#311111"/><path d="M707,216.49s8.31-4.62,14.76,2.36S724,231.5,724,231.5Z" transform="translate(-590 -209.62)" fill="#f290bb"/><path d="M730.27,260.48c5.53,12.82,9.94,52.5-26,64.92-35.77,12.35-58-11.22-65.73-36.15-9.35-30.08,13.05-51.26,34.28-56.14C706,225.49,722.85,243.32,730.27,260.48Z" transform="translate(-590 -209.62)" fill="#fbc6a4"/><path d="M715,292.8c.38,3.3,5.43,5.36,10.3,3.65s7.1-6,6.41-9.88c-.63-3.56-5.44-6-10-1.92C717.42,288.51,714.56,289.38,715,292.8Z" transform="translate(-590 -209.62)" fill="#f8af9a"/><path d="M727.5,286.2a.92.92,0,0,0,1.13.63c.55-.09,1-.5.88-.94a1.06,1.06,0,0,0-2,.31Z" transform="translate(-590 -209.62)" fill="#fbd3c4"/><path d="M699.25,286.84c.06.43.65.69,1.31.59s1.13-.52,1.06-.95-.65-.69-1.3-.59S699.18,286.41,699.25,286.84Z" transform="translate(-590 -209.62)" fill="#fcd8c1"/><path d="M661.16,301.45c.83,4.46,5.56,7,11.45,6.45,5.68-.52,10.82-5.56,9.22-9.6-1.52-3.84-4.41-2-11.27-3.48C663.92,293.4,660.32,297,661.16,301.45Z" transform="translate(-590 -209.62)" fill="#f8af9a"/><path d="M664.81,298.58a.9.9,0,0,0,1.1.55c.53-.1.89-.5.81-.91a.89.89,0,0,0-1.09-.56A.91.91,0,0,0,664.81,298.58Z" transform="translate(-590 -209.62)" fill="#fbd3c4"/><path d="M717,259.6c-5.27-1.5-6.38,4.3-2.88,4.32,3.75,0,6.89,1.39,7.36,1C722.53,264.15,720,260.44,717,259.6Z" transform="translate(-590 -209.62)" fill="#542c2c"/><path d="M667.28,270.3c4.44-3.22,7.47,1.85,4.19,3.07-3.52,1.3-6,3.66-6.57,3.48C663.66,276.46,664.78,272.1,667.28,270.3Z" transform="translate(-590 -209.62)" fill="#542c2c"/><path d="M710.87,295.19s3.06,19.51-10.72,22.08-13-16.94-13-16.94S697.72,302.35,710.87,295.19Z" transform="translate(-590 -209.62)" fill="#4d1f1c"/><path d="M698.38,300c-.11,4.87-1.53,11.68-6.89,15-4.73-4.78-4.35-14.64-4.35-14.64A30.3,30.3,0,0,0,698.38,300Z" transform="translate(-590 -209.62)" fill="#321514"/><path d="M708,312.17a11.69,11.69,0,0,1-7.87,5.1c-6.82,1.27-10.07-2.87-11.62-7.37.48-.9,2.66-2,4.89-1C695.65,305.05,704.41,307.64,708,312.17Z" transform="translate(-590 -209.62)" fill="#ec756c"/><path d="M690.9,309.41a3.69,3.69,0,0,1,3,.1,3.38,3.38,0,0,1,3.22-1.84c5.12-.32,11.52,4.89,5,7.57S687.05,311.12,690.9,309.41Z" transform="translate(-590 -209.62)" fill="#f48f87"/><path d="M701.5,309.57c-1.11-1.08-3.83-1.72-4.57-1s1.49,2.15,3,2.32S702.21,310.25,701.5,309.57Z" transform="translate(-590 -209.62)" fill="#f7b0ad"/><path d="M706.85,297.09c.6,2,.31,3.62-2.39,4.79a27.43,27.43,0,0,1-8.82,2c-3.11.1-4.68-1.19-4.59-3.33A42.85,42.85,0,0,0,706.85,297.09Z" transform="translate(-590 -209.62)" fill="#fff"/><path d="M700.82,292a.21.21,0,0,0,.19,0,3.84,3.84,0,0,0,2.28-4.21,3.71,3.71,0,0,0-2.92-3.09c-.86-.09-2.47.19-3.69,3.09a.26.26,0,0,0,.14.33.24.24,0,0,0,.34-.13c.8-1.93,1.92-2.91,3.15-2.78a3.17,3.17,0,0,1,2.48,2.67,3.28,3.28,0,0,1-2,3.66.25.25,0,0,0-.11.35A.2.2,0,0,0,700.82,292Z" transform="translate(-590 -209.62)" fill="#ce7754"/><path d="M681.33,277.57a8.38,8.38,0,1,1-12.17.75A8.63,8.63,0,0,1,681.33,277.57Z" transform="translate(-590 -209.62)" fill="#eaad85"/><path d="M672.41,289.67c-2.64.88-3,2.25-.78,3.06a15.74,15.74,0,0,0,8.78-.13c2.64-.89,3-2.25.77-3.06A15.53,15.53,0,0,0,672.41,289.67Z" transform="translate(-590 -209.62)" fill="#eaad85"/><path d="M681.55,277.24a8.17,8.17,0,1,1-11.86.74A8.42,8.42,0,0,1,681.55,277.24Z" transform="translate(-590 -209.62)" fill="#fff"/><path d="M669.16,282a7.76,7.76,0,0,0,2.85,6.13,7.43,7.43,0,0,0,10.5-.65,6.73,6.73,0,0,0,1.41-2.89,6.92,6.92,0,0,1-1.58,4.32,7.45,7.45,0,0,1-10.5.65A7.69,7.69,0,0,1,669.16,282Z" transform="translate(-590 -209.62)" fill="#d9dbdc"/><path d="M679,281.84a4.42,4.42,0,1,1-5.43-3.45A4.54,4.54,0,0,1,679,281.84Z" transform="translate(-590 -209.62)" fill="#7ca9c0"/><path d="M677,282.22a2.74,2.74,0,1,1-3.37-2.13A2.83,2.83,0,0,1,677,282.22Z" transform="translate(-590 -209.62)" fill="#231f20"/><path d="M676.66,280.59a1.12,1.12,0,1,1-2.17.54,1.12,1.12,0,1,1,2.17-.54Z" transform="translate(-590 -209.62)" fill="#fff"/><path d="M673.9,285.23a.69.69,0,0,1-.48.86.72.72,0,1,1,.48-.86Z" transform="translate(-590 -209.62)" fill="#fff"/><path d="M706,274.7a7.95,7.95,0,1,0,9-7.26A8.19,8.19,0,0,0,706,274.7Z" transform="translate(-590 -209.62)" fill="#eaad85"/><path d="M710.28,282c-2.48.83-2.81,2.12-.73,2.88a14.64,14.64,0,0,0,8.26-.13c2.49-.83,2.82-2.12.74-2.88A14.68,14.68,0,0,0,710.28,282Z" transform="translate(-590 -209.62)" fill="#eaad85"/><path d="M706.88,274.69a7.85,7.85,0,1,0,8.89-7.17A8.09,8.09,0,0,0,706.88,274.69Z" transform="translate(-590 -209.62)" fill="#fff"/><path d="M707.9,275.31a7.37,7.37,0,0,1,.81-2.49,8,8,0,0,0-.33,1.41,7.12,7.12,0,0,0,5.85,8.16,6.74,6.74,0,0,0,5.86-2.19,6.7,6.7,0,0,1-6.47,3.1A7,7,0,0,1,707.9,275.31Z" transform="translate(-590 -209.62)" fill="#d9dbdc"/><path d="M708.75,276.64a4.26,4.26,0,1,0,3-5.41A4.37,4.37,0,0,0,708.75,276.64Z" transform="translate(-590 -209.62)" fill="#7ca9c0"/><path d="M710.17,276.24A2.55,2.55,0,1,0,712,273,2.63,2.63,0,0,0,710.17,276.24Z" transform="translate(-590 -209.62)" fill="#231f20"/><path d="M712.58,274a1.07,1.07,0,1,0,2.08-.52,1.07,1.07,0,1,0-2.08.52Z" transform="translate(-590 -209.62)" fill="#fff"/><path d="M710.61,277.87a.66.66,0,0,0,.8.51.68.68,0,0,0,.46-.83.67.67,0,0,0-.8-.5A.65.65,0,0,0,710.61,277.87Z" transform="translate(-590 -209.62)" fill="#fff"/><path d="M688.6,232.66s5.14,12.36,5.73,24.3a33.09,33.09,0,0,1-7.72,2.08l-8-19.69s5.19,15.06,4.58,20.08c-6.43,2.86-25.93,5.12-33,6.17,1.37,8.33.75,20.17-2.48,33.5-2.67,1-9.79,2.54-9.79,2.54s-23.32-22.73-19.79-51.75c2.32-19,32-29.5,32-29.5s-11.47.62-10-3.79,13.36,2,13.36,2-3.92-6.38-.18-8.46c5.36-3,3.71,8.05,3.71,8.05s19.7-7.47,41.52-4.58c19.82,2.63,34.56,9.63,33,51-3.49-5-7.72-15.37-7.72-15.37s-12.93,4.36-22,5.89C697.47,240.58,688.6,232.66,688.6,232.66Z" transform="translate(-590 -209.62)" fill="#542c2c"/><path d="M620.85,254.64c.34,16.68,2.47,21.38,18.42,46.85,4.33.68,9.5-11.93,7.1-35C640.41,288.41,629.29,284.05,620.85,254.64Z" transform="translate(-590 -209.62)" fill="#482525"/><path d="M700.86,213.94c-15,10.76-48.65,13.9-62.82,12.22-8.49,4.94-18.56,13-19.87,23.73a50.75,50.75,0,0,0-.3,8.4c45.61-31.82,91.77-28.29,109.29-25C722.14,220.21,712.63,215.83,700.86,213.94Z" transform="translate(-590 -209.62)" fill="#643536"/><path d="M647.12,294.89a8.68,8.68,0,0,0-9.91-3.06c-6.61,2.33-4.6,12.18,1.66,16.11s13.67,1.36,13.5-4.15Z" transform="translate(-590 -209.62)" fill="#fbc6a4"/><path d="M638.13,292.08a8.1,8.1,0,0,1,4.21-.37,5.68,5.68,0,0,0-3,.34c-6.1,2.45-3.61,9.74.31,13,5.3,4.43,11.24,2.52,12.72-1.85.16,5.12-6.79,7.52-12.66,3.87S631.92,294.25,638.13,292.08Z" transform="translate(-590 -209.62)" fill="#eaad85"/><path d="M637.29,294.91c3.62-2.85,11.12,3.79,7.86,10.83-.69-7-3.83-8-5.3-3.72-1-1.92-.56-3.63,2-4.63A5.84,5.84,0,0,0,637.29,294.91Z" transform="translate(-590 -209.62)" fill="#eaad85"/><path d="M719.06,374.47c-.1,5.29,11.22,9.78,25.26,10s25.52-3.86,25.6-9.15-11.23-9.78-25.26-10S719.14,369.18,719.06,374.47Z" transform="translate(-590 -209.62)" fill="#cfd0d2"/><path d="M723.88,379.78c-2.68-1.54-4.23-3.37-4.2-5.32.09-5.17,11.26-9.17,25-8.93s24.74,4.61,24.65,9.77c0,2-1.67,3.76-4.45,5.22a106.51,106.51,0,0,1-41-.74Z" transform="translate(-590 -209.62)" fill="#aeb0b3"/><path d="M708.54,369.37c-.11,6,16,11.15,35.86,11.5s36.14-4.25,36.24-10.26-15.95-11.16-35.87-11.5S708.64,363.36,708.54,369.37Z" transform="translate(-590 -209.62)" fill="#dddfe0"/><path d="M708.54,368.51c-.11,6,16,11.15,35.86,11.5s36.14-4.25,36.24-10.26-15.95-11.16-35.87-11.5S708.64,362.5,708.54,368.51Z" transform="translate(-590 -209.62)" fill="#fff"/><path d="M779.75,370.31c.11-6-16-11.16-35.87-11.5-14.14-.25-26.42,2-32.39,5.48,5.57-3.79,18.39-6.29,33.28-6,19.92.34,36,5.49,35.87,11.5,0,1.74-1.41,3.35-3.84,4.77C778.67,373.24,779.72,371.82,779.75,370.31Z" transform="translate(-590 -209.62)" fill="#d7d8da"/><path d="M721.5,375.18c.08-3.83,10.43-6.76,23.14-6.54s23,3.5,22.9,7.34a3,3,0,0,1-1.22,2.17,108.25,108.25,0,0,1-43.63-.72A3.1,3.1,0,0,1,721.5,375.18Z" transform="translate(-590 -209.62)" fill="#ededee"/><path d="M766.92,375.36c0,1.41-3.84,2.49-8.53,2.42s-8.47-1.3-8.44-2.71a1.13,1.13,0,0,1,.45-.81,37.49,37.49,0,0,1,8.08-.68,36.73,36.73,0,0,1,8,.95A1.12,1.12,0,0,1,766.92,375.36Z" transform="translate(-590 -209.62)" fill="#d7d8da"/><path d="M751.62,369.13c0,1.41-15.81,4.82-20.5,4.74s-7.68.5-7.65-.92a15.7,15.7,0,0,1,2.3-2.2,36.82,36.82,0,0,1,8.08-.69c3,.05,6.83-2.25,9-1.7C743.18,368.62,751.62,368.84,751.62,369.13Z" transform="translate(-590 -209.62)" fill="#d7d8da"/><path d="M741.46,369.65H741a4.3,4.3,0,0,0-2.17.86,4.13,4.13,0,0,0-2.27-1.28,4,4,0,0,0-2.51-1.83l-.25,0-.16-.05c-2.44-.53-4.9,1.32-5.5,4.11s.9,5.47,3.34,6l.31.05h0a4.3,4.3,0,0,0,3.9,2,.7.7,0,0,1,.14,0h.27a3.84,3.84,0,0,0,2.07-.82,4.18,4.18,0,0,0,3.32,1.3l.09,0H742c2.42-.19,4.26-2.64,4.12-5.48S743.88,369.46,741.46,369.65Z" transform="translate(-590 -209.62)" fill="#bdbfc1"/><path d="M730.07,359.88c-4.27,1-9.81,4.36-8.59,9.17,1.08,4.3,8.54,4.53,13.4,2.48a49.06,49.06,0,0,1,12.2-3.4c4-.66,6.51-2.34,6.37-5.31s-3.78-4.17-9.8-4.15A72.28,72.28,0,0,0,730.07,359.88Z" transform="translate(-590 -209.62)" fill="#58813a"/><path d="M735.08,359.06c-2.59.5-6.85,2.2-6.23,5.13.56,2.62,5.66,2.15,8.73,1.39a61,61,0,0,1,8-1.66c2.42-.31,3.58-.72,3.57-2.51s-2.2-2.61-5.82-2.75A43.46,43.46,0,0,0,735.08,359.06Z" transform="translate(-590 -209.62)" fill="#669146"/><path d="M747.17,365.62c-3.71.62-6.85,1.87-11.34,3.18-4.69,1.37-10.43,1.35-11.43-2.65a5.32,5.32,0,0,1,.11-3.23c-1.69,1.46-2.74,3.4-2.17,5.67,1,4,7.94,4.21,12.47,2.31a45.39,45.39,0,0,1,11.34-3.17c3.37-.56,6.31-4.2,6.61-6.5C748.5,361.63,749.34,365.27,747.17,365.62Z" transform="translate(-590 -209.62)" fill="#486e34"/><path d="M720.93,367.74c.12-1.44,1.15-3.66,2-3.75.56-.06-1.21,3-.47,2.93s2.9-1.76,3-1.42c.16.66-2.06,2.07-1.81,3,.17.64,3.35,1,3.28,1.46-.12.8-3.34.43-3.38.68-.13.8,2.87,1.66,2.83,1.91s-2.58-.17-4.17-1.43A3.9,3.9,0,0,1,720.93,367.74Z" transform="translate(-590 -209.62)" fill="#7c993d"/><path d="M721.6,368.48c.19-.41,1.51.64,1,1.42S721.22,369.27,721.6,368.48Z" transform="translate(-590 -209.62)" fill="#40652a"/><path d="M731,361.28s.22-.07.63-.16c.19-.05.43-.12.71-.17l.94-.19,1.12-.19,1.25-.19.65-.08.69-.07,1.39-.14,1.38-.08c.46-.05.91-.07,1.35-.09s.85,0,1.26-.06l1.13,0,1.68,0h.63l-.63,0-1.69.09-1.12.07-1.25.08-1.35.08-1.38.11c-.48,0-.93.1-1.39.13l-.68.06c-.23,0-.45.06-.66.08-.43.06-.85.09-1.25.15l-1.12.18-.94.16-.73.14Z" transform="translate(-590 -209.62)" fill="#97b060"/><path d="M726.94,365.4l1.06-.28c.69-.17,1.66-.4,2.82-.66.58-.13,1.21-.27,1.89-.4l1-.22,1.08-.2c.73-.15,1.5-.28,2.27-.42l2.35-.4,2.34-.32c.77-.1,1.54-.21,2.29-.29l2.14-.22,1.91-.13,1.62-.07h2.34s-.39,0-1.09,0l-.57,0-.32,0-.36,0-1.61.1-1.93.16c-.67.06-1.39.16-2.13.23l-2.27.3c-.78.11-1.56.22-2.35.35s-1.57.24-2.34.38l-2.27.4-2.11.4-1.9.38-2.82.6Z" transform="translate(-590 -209.62)" fill="#97b060"/><path d="M742.35,365.93l4.77-.95.89-.18.87-.18,1.51-.33,1.08-.25.41-.09-.41.12-1.05.31c-.45.11-1,.25-1.51.37l-.87.2c-.29.05-.59.12-.89.19l-1.76.33-1.53.25-1.1.15Z" transform="translate(-590 -209.62)" fill="#97b060"/><path d="M730.56,371.27l.39,0,.43,0c.17,0,.36,0,.56-.06l.67-.13.73-.16.78-.2.79-.23c.54-.15,1.07-.32,1.57-.47s1-.26,1.39-.38l.54-.13.43-.1.38-.09-.37.12-.42.12-.54.16c-.41.12-.86.29-1.37.44l-1.57.48-.8.23-.79.19c-.25.06-.51.1-.74.14s-.46.07-.67.08-.4,0-.57,0h-.82Z" transform="translate(-590 -209.62)" fill="#97b060"/><path d="M727.39,368.58h.51c.16,0,.36-.05.59-.07l.76-.09c.28,0,.58-.08.9-.14l1-.17,1.06-.21,1.1-.23c.74-.14,1.47-.31,2.15-.46l1.88-.42c.55-.12,1-.21,1.34-.29l.5-.11-.5.14-1.31.35-1.87.46c-.7.17-1.43.34-2.17.5l-1.08.2-1.08.2-1,.15-.91.12-.75.06-.6,0Z" transform="translate(-590 -209.62)" fill="#97b060"/><path d="M721.94,368.82a5.49,5.49,0,0,0-2.58,1,.37.37,0,0,0,.37.47,6.08,6.08,0,0,1,2.53-.33C722.52,369.44,721.94,368.82,721.94,368.82Z" transform="translate(-590 -209.62)" fill="#40652a"/><path d="M737.75,373.05c-.61,2.78-3.07,4.62-5.51,4.11s-4-3.22-3.34-6,3.06-4.64,5.5-4.11S738.34,370.25,737.75,373.05Z" transform="translate(-590 -209.62)" fill="#40652a"/><path d="M738,373.1c-.59,2.79-3,4.64-5.35,4.14s-3.79-3.19-3.2-6,3-4.65,5.36-4.14S738.6,370.31,738,373.1Z" transform="translate(-590 -209.62)" fill="#5e913f"/><path d="M737.87,373.07c-.58,2.67-2.87,4.44-5.13,4s-3.63-3-3.06-5.71,2.87-4.45,5.13-4S738.44,370.4,737.87,373.07Z" transform="translate(-590 -209.62)" fill="#e1e1bf"/><path d="M737.87,373.07c-.58,2.67-2.87,4.44-5.13,4s-3.63-3-3.06-5.71a4,4,0,0,0,3.84,4.3A3.9,3.9,0,0,0,737.87,373.07Z" transform="translate(-590 -209.62)" fill="#d8d7aa"/><path d="M734,370.76c-.3-.14-.36-1.4.27-1.27C734.61,369.57,734.55,370.69,734,370.76Z" transform="translate(-590 -209.62)" fill="#cecd95"/><path d="M733.45,373.85c.23.25-.11,1.46-.66,1.11C732.48,374.77,732.91,373.73,733.45,373.85Z" transform="translate(-590 -209.62)" fill="#cecd95"/><path d="M734.69,373.65c.32-.11,1.18.76.6,1.11C735,375,734.31,374.1,734.69,373.65Z" transform="translate(-590 -209.62)" fill="#cecd95"/><path d="M732.6,373c-.09.33-1.27.63-1.23,0C731.39,372.53,732.46,372.38,732.6,373Z" transform="translate(-590 -209.62)" fill="#cecd95"/><path d="M732.81,371.66c-.32.14-1.23-.65-.69-1.05C732.42,370.39,733.15,371.2,732.81,371.66Z" transform="translate(-590 -209.62)" fill="#cecd95"/><path d="M734.63,371.43c0-.35.9-1.15,1.15-.53C735.92,371.25,735,371.86,734.63,371.43Z" transform="translate(-590 -209.62)" fill="#cecd95"/><path d="M735.24,372.58c.23-.25,1.39.06,1,.67C736.1,373.57,735.11,373.16,735.24,372.58Z" transform="translate(-590 -209.62)" fill="#cecd95"/><path d="M740.74,373.75c.15,2.83-1.77,5.29-4.26,5.49s-4.65-2-4.8-4.79,1.78-5.31,4.28-5.49S740.6,370.9,740.74,373.75Z" transform="translate(-590 -209.62)" fill="#40652a"/><path d="M741,373.72c.14,2.85-1.7,5.3-4.12,5.49s-4.5-2-4.64-4.8,1.7-5.3,4.13-5.5S740.86,370.89,741,373.72Z" transform="translate(-590 -209.62)" fill="#5e913f"/><path d="M740.86,373.74c.14,2.71-1.62,5.06-3.94,5.24s-4.29-1.87-4.43-4.6,1.64-5.06,3.94-5.23S740.73,371,740.86,373.74Z" transform="translate(-590 -209.62)" fill="#e1e1bf"/><path d="M740.86,373.74c.14,2.71-1.62,5.06-3.94,5.24s-4.29-1.87-4.43-4.6a3.94,3.94,0,0,0,4.82,3A4,4,0,0,0,740.86,373.74Z" transform="translate(-590 -209.62)" fill="#d8d7aa"/><path d="M736.52,372.63c-.33-.06-.72-1.24-.07-1.29C736.81,371.31,737,372.4,736.52,372.63Z" transform="translate(-590 -209.62)" fill="#cecd95"/><path d="M736.8,375.73c.28.18.26,1.44-.36,1.26C736.1,376.89,736.23,375.76,736.8,375.73Z" transform="translate(-590 -209.62)" fill="#cecd95"/><path d="M738,375.19c.27-.19,1.33.4.86.9C738.56,376.36,737.68,375.72,738,375.19Z" transform="translate(-590 -209.62)" fill="#cecd95"/><path d="M735.74,375.12c0,.35-1.06,1-1.2.31C734.46,375.05,735.45,374.62,735.74,375.12Z" transform="translate(-590 -209.62)" fill="#cecd95"/><path d="M735.61,373.84c-.28.21-1.37-.3-.94-.84C734.9,372.72,735.82,373.29,735.61,373.84Z" transform="translate(-590 -209.62)" fill="#cecd95"/><path d="M737.31,373.08c-.14-.32.58-1.35,1-.82C738.51,372.55,737.78,373.4,737.31,373.08Z" transform="translate(-590 -209.62)" fill="#cecd95"/><path d="M738.2,374c.16-.32,1.37-.34,1.19.32C739.29,374.7,738.22,374.6,738.2,374Z" transform="translate(-590 -209.62)" fill="#cecd95"/><path d="M746.55,374.19c.14,2.84-1.78,5.3-4.27,5.49s-4.66-1.95-4.8-4.8,1.78-5.28,4.28-5.49S746.41,371.34,746.55,374.19Z" transform="translate(-590 -209.62)" fill="#40652a"/><path d="M746.81,374.17c.14,2.84-1.71,5.29-4.13,5.48s-4.49-1.95-4.63-4.81,1.7-5.29,4.12-5.47S746.67,371.32,746.81,374.17Z" transform="translate(-590 -209.62)" fill="#5e913f"/><path d="M746.67,374.17c.14,2.73-1.63,5.07-3.94,5.25s-4.3-1.87-4.44-4.59,1.64-5.07,4-5.25S746.54,371.47,746.67,374.17Z" transform="translate(-590 -209.62)" fill="#e1e1bf"/><path d="M746.67,374.17c.14,2.73-1.63,5.07-3.94,5.25s-4.3-1.87-4.44-4.59a3.94,3.94,0,0,0,4.83,3A4,4,0,0,0,746.67,374.17Z" transform="translate(-590 -209.62)" fill="#d8d7aa"/><path d="M742.32,373.07c-.33-.05-.71-1.24-.06-1.28C742.62,371.76,742.84,372.85,742.32,373.07Z" transform="translate(-590 -209.62)" fill="#cecd95"/><path d="M742.59,376.19c.3.16.27,1.43-.35,1.23C741.9,377.32,742,376.21,742.59,376.19Z" transform="translate(-590 -209.62)" fill="#cecd95"/><path d="M743.74,375.63c.28-.2,1.35.4.87.89C744.36,376.8,743.49,376.16,743.74,375.63Z" transform="translate(-590 -209.62)" fill="#cecd95"/><path d="M741.54,375.56c0,.35-1.07,1-1.2.31C740.26,375.49,741.25,375.06,741.54,375.56Z" transform="translate(-590 -209.62)" fill="#cecd95"/><path d="M741.41,374.28c-.28.21-1.36-.3-.93-.83C740.71,373.16,741.62,373.73,741.41,374.28Z" transform="translate(-590 -209.62)" fill="#cecd95"/><path d="M743.12,373.53c-.15-.33.57-1.36,1-.83C744.31,373,743.58,373.83,743.12,373.53Z" transform="translate(-590 -209.62)" fill="#cecd95"/><path d="M744,374.46c.17-.31,1.38-.33,1.19.33C745.1,375.16,744,375,744,374.46Z" transform="translate(-590 -209.62)" fill="#cecd95"/><path d="M757.49,360.78c-3.41-.67-6.61.51-8.13,4-1.31,3.06-.31,12,8.83,11.84,8.34-.14,9.41-7,9.42-9.17S766,358.36,757.49,360.78Z" transform="translate(-590 -209.62)" fill="#ee4629"/><path d="M757.9,361c-3.2-.63-6.2.47-7.62,3.77-1.23,2.87-.29,11.26,8.28,11.11,7.83-.14,8.83-6.53,8.84-8.61S765.93,358.71,757.9,361Z" transform="translate(-590 -209.62)" fill="#ec1c24"/><path d="M760.7,360.27a13.72,13.72,0,0,0-1.71.17c-.77.36-1.42.79-1.5,1.22a2.49,2.49,0,0,0-.81-1,8,8,0,0,0-1.19-.06,2.93,2.93,0,0,1,1.16,1.07,3.8,3.8,0,0,0-2.93-.36,12,12,0,0,1-1.76.32c-.12.07-.22.15-.34.23a7.68,7.68,0,0,0,1.92-.15,3.64,3.64,0,0,1,2.64.44c-1.14.09-1.06.92-.89,1.44s.23,1.44,0,1.64a1,1,0,0,0,.45-1.06c-.13-.49.27-1.44,1.67-1.51a2.88,2.88,0,0,0,1.73,0c.53-.15,2.5-.05,2.88,1.53a1.55,1.55,0,0,0,0-1.21,2.61,2.61,0,0,0-2.25-.87c1.28-.26,3.83-1,5.19-.29-.28-.32-.71-.48-1.85-.55s-4.05.49-4.38.42A3.4,3.4,0,0,1,760.7,360.27Z" transform="translate(-590 -209.62)" fill="#c11b21"/><path d="M758.58,360.91a5.5,5.5,0,0,0-6.56,3.24c-1.06,2.46-.25,9.7,7.12,9.57,6.75-.12,7.61-5.63,7.61-7.42S765.49,358.94,758.58,360.91Z" transform="translate(-590 -209.62)" fill="#ee4629"/><path d="M763.73,362.38c-.63.2-.68,1-.65,2.31,0,.8.71,4.23,2.16,3.81s1.09-3.57,1-4.1S765.34,361.86,763.73,362.38Z" transform="translate(-590 -209.62)" fill="#f38171"/><path d="M750.75,366.67c.24,0,.36-.15.52-.57s.33-1.51-.22-1.59-.84,1-.86,1.22S750.15,366.6,750.75,366.67Z" transform="translate(-590 -209.62)" fill="#ee4629"/><path d="M765.17,363.66c-.15,0-.17.19-.17.48s.17,1,.51.9.25-.85.22-1S765.55,363.55,765.17,363.66Z" transform="translate(-590 -209.62)" fill="#facec9"/><path d="M759.75,362.12A2.61,2.61,0,0,1,762,363c.22.32-.31.95-.41,1.19.24-1.48-1.86-2.12-2.38-2a3,3,0,0,1-1.82,0,1.44,1.44,0,0,0-1.25,1.93,1,1,0,0,1-.45,1.06,2.56,2.56,0,0,0,0-1.64c-.17-.51-.61-1.29.53-1.38a4,4,0,0,0-2.13-.53,5.93,5.93,0,0,1,.86-.46,5.11,5.11,0,0,1,1.74.51,2.57,2.57,0,0,0-.74-.8,6.79,6.79,0,0,1,.89-.12,2.38,2.38,0,0,1,.69.9,1.61,1.61,0,0,1,.75-.82l.34.07a9.31,9.31,0,0,1,1.36-.3,2.63,2.63,0,0,0-1.23,1.09c.33.07,3.26-.5,4.38-.42a3.58,3.58,0,0,1,1.56.31l.23.21C763.51,361.16,761,361.87,759.75,362.12Z" transform="translate(-590 -209.62)" fill="#c72526"/><path d="M757.49,360.78a4.74,4.74,0,0,0-5.51-2.27c.77.2,3.74.43,4.67,2.3a3.4,3.4,0,0,0-2.94-.41,14.48,14.48,0,0,1-3.54.51,9.6,9.6,0,0,0,3.37-.05,3.21,3.21,0,0,1,2.64.5c-1.15.11-1.06,1.08-.89,1.64a3.45,3.45,0,0,1,0,1.89,1.23,1.23,0,0,0,.45-1.21,2.16,2.16,0,0,1,2-2.09,2.33,2.33,0,0,0,1.41.37c.71,0,2.5-.07,2.89,1.75a2.1,2.1,0,0,0-.07-1.39,2.45,2.45,0,0,0-2.24-1c1.28-.29,3.82-1.11,5.19-.32-.29-.36-.72-.56-1.84-.64s-4.07.56-4.4.48c.48-1.05,2-2,4.46-2.06a7.15,7.15,0,0,0-3.31.22C758.76,359.45,757.59,360.12,757.49,360.78Z" transform="translate(-590 -209.62)" fill="#7eb242"/><path d="M757.49,360.78a4.74,4.74,0,0,0-5.51-2.27c.77.2,3.74.43,4.67,2.3a3.4,3.4,0,0,0-2.94-.41,14.48,14.48,0,0,1-3.54.51,12.58,12.58,0,0,0,3.45-.26,2.51,2.51,0,0,1,2.8.7c-1.35,0-1.3,1.09-1.13,1.65a3.45,3.45,0,0,1,0,1.89,2.31,2.31,0,0,0,.29-1.71c-.25-.94.9-1.9,2.29-2a2.18,2.18,0,0,0,1.38.43c.72,0,2.83,0,2.78,2.09a2.1,2.1,0,0,0-.07-1.39,2.72,2.72,0,0,0-2.83-1c1.11-.69,4.69-1.31,5.78-.36-.29-.36-.72-.56-1.84-.64s-4.07.56-4.4.48c.48-1.05,2-2,4.46-2.06a7.15,7.15,0,0,0-3.31.22C758.76,359.45,757.59,360.12,757.49,360.78Z" transform="translate(-590 -209.62)" fill="#8bbf40"/><path d="M758.66,356a7.17,7.17,0,0,0-1.36,4.86c.08.44.79.35.83,0a8.76,8.76,0,0,1,1-4.69C759.15,355.89,758.85,355.79,758.66,356Z" transform="translate(-590 -209.62)" fill="#7eb242"/><path d="M758.48,356.21a7.3,7.3,0,0,0-1.18,4.62c.08.44.79.35.83,0a5.48,5.48,0,0,1,.43-4.32C758.84,356.16,758.68,355.91,758.48,356.21Z" transform="translate(-590 -209.62)" fill="#8bbf40"/><path d="M758.77,355.86c-.08,0-.36.16-.16.27s.48.07.54-.06S759.05,355.79,758.77,355.86Z" transform="translate(-590 -209.62)" fill="#8bbf40"/><path d="M749.76,369.42s1.71,6.16,9.9,6.24C754,377.59,749.81,372.5,749.76,369.42Z" transform="translate(-590 -209.62)" fill="#d32027"/></svg>