<svg id="Layer_1" data-name="Layer 1" xmlns="http://www.w3.org/2000/svg" viewBox="0 0 480.09 429.01"><title>corporate</title><ellipse cx="741" cy="392.12" rx="26.96" ry="46.72" transform="translate(-457.61 510.82) rotate(-45)" fill="#68b4aa"/><rect x="765.03" y="399.23" width="1.68" height="35.49" transform="translate(-467.91 535.68) rotate(-45)" fill="#68b4aa"/><rect x="740.45" y="350.31" width="0.84" height="83.34" transform="translate(-457.58 510.6) rotate(-44.99)" fill="#68b4aa"/><polygon points="329.37 249.86 313.56 249.56 313.57 248.72 328.52 249.01 328.24 234.06 329.07 234.04 329.37 249.86" fill="#68b4aa"/><polygon points="338.94 259.42 323.12 259.13 323.13 258.29 338.08 258.57 337.8 243.62 338.64 243.61 338.94 259.42" fill="#68b4aa"/><polygon points="348.5 268.99 332.68 268.69 332.69 267.85 347.64 268.13 347.36 253.18 348.2 253.17 348.5 268.99" fill="#68b4aa"/><ellipse cx="814.67" cy="392.12" rx="46.72" ry="26.96" transform="translate(-436.03 562.91) rotate(-45)" fill="#68b4aa"/><rect x="772.06" y="416.14" width="35.49" height="1.68" transform="translate(-460.9 552.61) rotate(-45)" fill="#68b4aa"/><rect x="773.13" y="391.57" width="83.34" height="0.84" transform="translate(-435.87 563.05) rotate(-45.01)" fill="#68b4aa"/><polygon points="431.55 249.86 447.37 249.56 447.36 248.72 432.41 249.01 432.69 234.06 431.85 234.04 431.55 249.86" fill="#68b4aa"/><polygon points="421.99 259.42 437.81 259.13 437.79 258.29 422.85 258.57 423.13 243.62 422.29 243.61 421.99 259.42" fill="#68b4aa"/><polygon points="412.43 268.99 428.25 268.69 428.23 267.85 413.29 268.13 413.57 253.18 412.73 253.17 412.43 268.99" fill="#68b4aa"/><ellipse cx="380.46" cy="226.47" rx="18.24" ry="31.61" fill="#68b4aa"/><rect x="379.9" y="238.25" width="1.14" height="62.36" fill="#68b4aa"/><rect x="380.18" y="198.15" width="0.57" height="56.38" fill="#68b4aa"/><polygon points="380.46 212.83 387.89 205.12 387.48 204.73 380.46 212.01 373.45 204.73 373.04 205.12 380.46 212.83" fill="#68b4aa"/><polygon points="380.46 221.98 387.89 214.27 387.48 213.87 380.46 221.16 373.45 213.87 373.04 214.27 380.46 221.98" fill="#68b4aa"/><polygon points="380.46 231.12 387.89 223.41 387.48 223.02 380.46 230.3 373.45 223.02 373.04 223.41 380.46 231.12" fill="#68b4aa"/><ellipse cx="460.12" cy="392.12" rx="26.96" ry="46.72" transform="translate(-539.88 312.2) rotate(-45)" fill="#026255"/><rect x="484.14" y="399.23" width="1.68" height="35.49" transform="translate(-550.18 337.06) rotate(-45)" fill="#026255"/><rect x="459.57" y="350.31" width="0.84" height="83.34" transform="translate(-539.83 312.07) rotate(-45)" fill="#026255"/><polygon points="48.48 249.86 32.67 249.56 32.68 248.72 47.63 249.01 47.35 234.06 48.19 234.04 48.48 249.86" fill="#026255"/><polygon points="58.05 259.42 42.23 259.13 42.25 258.29 57.19 258.57 56.91 243.62 57.75 243.61 58.05 259.42" fill="#026255"/><polygon points="67.61 268.99 51.79 268.69 51.81 267.85 66.75 268.13 66.47 253.18 67.31 253.17 67.61 268.99" fill="#026255"/><ellipse cx="533.79" cy="392.12" rx="46.72" ry="26.96" transform="translate(-518.3 364.3) rotate(-45)" fill="#026255"/><rect x="491.18" y="416.14" width="35.49" height="1.68" transform="translate(-543.17 353.99) rotate(-45)" fill="#026255"/><rect x="492.25" y="391.57" width="83.34" height="0.84" transform="translate(-518.16 364.41) rotate(-45.01)" fill="#026255"/><polygon points="150.67 249.86 166.48 249.56 166.47 248.72 151.52 249.01 151.8 234.06 150.96 234.04 150.67 249.86" fill="#026255"/><polygon points="141.1 259.42 156.92 259.13 156.91 258.29 141.96 258.57 142.24 243.62 141.4 243.61 141.1 259.42" fill="#026255"/><polygon points="131.54 268.99 147.36 268.69 147.34 267.85 132.4 268.13 132.68 253.18 131.84 253.17 131.54 268.99" fill="#026255"/><ellipse cx="99.58" cy="226.47" rx="18.24" ry="31.61" fill="#026255"/><rect x="99.01" y="238.25" width="1.14" height="62.36" fill="#026255"/><rect x="99.29" y="198.15" width="0.57" height="56.38" fill="#026255"/><polygon points="99.58 212.83 107 205.12 106.59 204.73 99.58 212.01 92.56 204.73 92.15 205.12 99.58 212.83" fill="#026255"/><polygon points="99.58 221.98 107 214.27 106.59 213.87 99.58 221.16 92.56 213.87 92.15 214.27 99.58 221.98" fill="#026255"/><polygon points="99.58 231.12 107 223.41 106.59 223.02 99.58 230.3 92.56 223.02 92.15 223.41 99.58 231.12" fill="#026255"/><ellipse cx="688.63" cy="145.2" rx="15.35" ry="8.86" transform="translate(-298.35 401.46) rotate(-45)" fill="#026255"/><rect x="674.64" y="153.09" width="11.66" height="0.55" transform="translate(-306.52 398.08) rotate(-45)" fill="#026255"/><rect x="674.99" y="145.02" width="27.38" height="0.28" transform="translate(-298.31 401.48) rotate(-45)" fill="#026255"/><polygon points="295.94 12.52 301.13 12.42 301.13 12.14 296.22 12.24 296.31 7.33 296.04 7.32 295.94 12.52" fill="#026255"/><polygon points="292.8 15.66 297.99 15.56 297.99 15.29 293.08 15.38 293.17 10.47 292.89 10.46 292.8 15.66" fill="#026255"/><polygon points="289.66 18.8 294.85 18.7 294.85 18.43 289.94 18.52 290.03 13.61 289.75 13.6 289.66 18.8" fill="#026255"/><ellipse cx="274.51" cy="15.35" rx="8.86" ry="15.35" fill="#026255"/><rect x="274.23" y="21.07" width="0.55" height="16.53" fill="#026255"/><rect x="274.37" y="1.6" width="0.28" height="27.38" fill="#026255"/><polygon points="274.51 8.72 278.11 4.98 277.91 4.79 274.51 8.33 271.1 4.79 270.9 4.98 274.51 8.72" fill="#026255"/><polygon points="274.51 13.17 278.11 9.42 277.91 9.23 274.51 12.77 271.1 9.23 270.9 9.42 274.51 13.17" fill="#026255"/><polygon points="274.51 17.61 278.11 13.87 277.91 13.68 274.51 17.21 271.1 13.68 270.9 13.87 274.51 17.61" fill="#026255"/><ellipse cx="586.16" cy="145.2" rx="8.86" ry="15.35" transform="translate(-328.37 329) rotate(-45)" fill="#8f3a20"/><rect x="594.05" y="147.54" width="0.55" height="11.66" transform="translate(-331.75 337.17) rotate(-45)" fill="#8f3a20"/><rect x="585.97" y="131.47" width="0.28" height="27.38" transform="translate(-328.45 328.79) rotate(-44.98)" fill="#8f3a20"/><polygon points="184.1 12.52 178.9 12.42 178.91 12.14 183.82 12.24 183.72 7.33 184 7.32 184.1 12.52" fill="#8f3a20"/><polygon points="187.24 15.66 182.04 15.56 182.05 15.29 186.96 15.38 186.86 10.47 187.14 10.46 187.24 15.66" fill="#8f3a20"/><polygon points="190.38 18.8 185.18 18.7 185.19 18.43 190.1 18.52 190 13.61 190.28 13.6 190.38 18.8" fill="#8f3a20"/><ellipse cx="205.53" cy="15.35" rx="8.86" ry="15.35" fill="#8f3a20"/><rect x="205.25" y="21.07" width="0.55" height="16.53" fill="#8f3a20"/><rect x="205.39" y="1.6" width="0.28" height="27.38" fill="#8f3a20"/><polygon points="205.53 8.72 201.92 4.98 202.12 4.79 205.53 8.33 208.93 4.79 209.13 4.98 205.53 8.72" fill="#8f3a20"/><polygon points="205.53 13.17 201.92 9.42 202.12 9.23 205.53 12.77 208.93 9.23 209.13 9.42 205.53 13.17" fill="#8f3a20"/><polygon points="205.53 17.61 201.92 13.87 202.12 13.68 205.53 17.21 208.93 13.68 209.13 13.87 205.53 17.61" fill="#8f3a20"/><rect x="723.52" y="410.43" width="5.48" height="8.71" transform="translate(-101.1 1004.16) rotate(-88.79)" fill="#fcbd8d"/><path d="M721.85,417.44s-6-1.19-10,.42a4.79,4.79,0,0,0-2.94,4.37v.36l13.51.28a3.13,3.13,0,0,0,1-.13l3.19-1h0A3,3,0,0,0,729,423l1.49,0,.11-5.42,0-1.31A41.4,41.4,0,0,1,721.85,417.44Z" transform="translate(-397.38 -128)" fill="#3c4454"/><path d="M742.07,323.38s2.37,9.28-2.26,20.69c-6.55,16.16-8.26,69.15-8.26,69.15l-9.61-.2s-1.7-59.52-1.39-65.57c.41-8.13.9-15.84.14-24.52Z" transform="translate(-397.38 -128)" fill="#3c4454"/><path d="M691.08,277.2s16.85,8.33,41.49-2.43l-3.15,12s-21.25,3.5-37.87-4.15Z" transform="translate(-397.38 -128)" fill="#fcbd8d"/><path d="M726.36,281.88l4-9.25a1.5,1.5,0,0,0-1.33-2.1l-3.6-1.32c-4.46-.82-.59-6.83-.59-6.83s-6.4-.58-4-3.15,5.46-12.68,5.46-12.68,17.56,2.31,15.32,19.91C739.55,283,740,283.53,740,283.53Z" transform="translate(-397.38 -128)" fill="#fcbd8d"/><path d="M726.33,246.55s6.48-5.68,15.37-.8c10.27,5.63,8,15.91,4.18,19.34a8.38,8.38,0,0,0-1.56,1.85,38.29,38.29,0,0,0-3.61,7.32l-1-.37s2.64-7.92-.21-11.84c0,0-2,.18-2.21,3l-1.62-.71s3.41-5.43,1.62-7.75S720.14,254.82,726.33,246.55Z" transform="translate(-397.38 -128)" fill="#3c4454"/><path d="M728.81,282.46s-29.26,21.71-64-7l-2.56,3.17s42.93,36.43,73.11,13Z" transform="translate(-397.38 -128)" fill="#fcbd8d"/><path d="M740,301a70.65,70.65,0,0,0,0-17.46l-.09-.14c0-.51.09-2,.56-6.36l-11.23-1.76-.45,1c-1,.36-1.9.68-2.8.95-2.06.67-4,1.2-6,1.62l-1.69,8.66h.18l-.6.22h0c-.47.16-1,.31-1.46.46l-.1,0c-.5.15-1,.3-1.54.44l-2.69,10.81a42.8,42.8,0,0,0,5.42-.38c.75-.15,1.51-.31,2.28-.5.51,14.74.72,21.34.06,25.35-.9,5.35,16.66,2.57,22,1.26C749.12,323.43,738,315.43,740,301Z" transform="translate(-397.38 -128)" fill="#6b2c18"/><path d="M715.39,288.53l0-1c9.74-.14,12.25-10.55,12.54-12l-.58-1.48,1-.38.69,1.76,0,.14C729,275.68,726.48,288.37,715.39,288.53Z" transform="translate(-397.38 -128)" fill="#fff"/><path d="M716.44,301.56l-.79-.69c.12-.15,1.36-1.47,6.09-3.11,4.57-1.58,8.93-6.13,9-6.18l.76.72c-.18.2-4.58,4.79-9.38,6.45C717.61,300.3,716.45,301.54,716.44,301.56Z" transform="translate(-397.38 -128)" fill="#fff"/><path d="M705,422V471.1a23.27,23.27,0,1,0,0,36.76V557h49.15a23.22,23.22,0,0,1-4.54-18.26,23,23,0,0,1,19.17-18.93A23.25,23.25,0,0,1,790.89,557H827a13,13,0,0,0,13-13V507.86a23.27,23.27,0,1,0,0-36.76V434.92a13,13,0,0,0-13-13Z" transform="translate(-397.38 -128)" fill="#359b8d"/><path d="M434.86,434.92V471.1a23.27,23.27,0,1,0,0,36.76V544a13,13,0,0,0,13,13H484a23.27,23.27,0,1,1,36.77,0h49.09V507.86a23.27,23.27,0,1,0,0-36.76V422h-122A13,13,0,0,0,434.86,434.92Z" transform="translate(-397.38 -128)" fill="#9acdc6"/><path d="M704.92,557V507.86a23.26,23.26,0,1,1,0-36.76V422H655.78A23.27,23.27,0,1,0,619,422H569.87v49.15a23.26,23.26,0,1,1,0,36.76V557Z" transform="translate(-397.38 -128)" fill="#6b2c18"/><rect x="541.32" y="412.05" width="8.71" height="5.48" transform="translate(-405.99 -116.42) rotate(-1.21)" fill="#fcbd8d"/><path d="M550.09,417.44s6-1.19,10,.42a4.79,4.79,0,0,1,2.94,4.37v.36l-13.51.28a3.2,3.2,0,0,1-1-.13l-3.18-1h0A3,3,0,0,1,543,423l-1.49,0-.11-5.42,0-1.31A41.4,41.4,0,0,0,550.09,417.44Z" transform="translate(-397.38 -128)" fill="#3c4454"/><path d="M535,323.27a30.38,30.38,0,0,0,.94,20.89c6.56,16.15,5.32,69,5.32,69L550,413s1.7-59.52,1.39-65.57c-.41-8.13-.91-15.84-.14-24.52Z" transform="translate(-397.38 -128)" fill="#fcbd8d"/><path d="M553.7,322.93l-21.38.45s-2.37,9.28,2.26,20.69v0a59.51,59.51,0,0,1,2.82,12.67,2.68,2.68,0,0,0,3.1,2.44l10.92-1.78C551.25,351.76,552.93,331.61,553.7,322.93Z" transform="translate(-397.38 -128)" fill="#3c4454"/><path d="M583.31,277.2s-16.86,8.33-41.49-2.43l3.15,12s21.24,3.5,37.86-4.15Z" transform="translate(-397.38 -128)" fill="#fcbd8d"/><path d="M545.58,282.46s29.25,21.71,64-7l2.56,3.17s-42.93,36.43-73.12,13Z" transform="translate(-397.38 -128)" fill="#fcbd8d"/><path d="M548,281.88l-4-9.25c-1.8-3.11,5-4.84,5-4.84,3.15-1.79.47-5.41.47-5.41s3.56-1.32,1.91-3.36c-2.22-2.74-3.38-12.47-3.38-12.47s-17.56,2.31-15.32,19.91c2.11,16.53,1.66,17.07,1.66,17.07Z" transform="translate(-397.38 -128)" fill="#fcbd8d"/><path d="M548.05,246.55s-6.48-5.68-15.37-.8c-10.26,5.63-8,15.91-4.18,19.34a8.16,8.16,0,0,1,1.57,1.85c1.1,1.84,2.89,4.44,3.45,6.51l1.17.44s-2.63-7.92.22-11.84c0,0,2,.18,2.21,3l1.62-.71s-3.42-5.43-1.62-7.75S554.25,254.82,548.05,246.55Z" transform="translate(-397.38 -128)" fill="#3c4454"/><path d="M534.39,301a70.09,70.09,0,0,1,0-17.46l.09-.14c0-.51-.09-2-.56-6.36l11.23-1.76.45,1c1,.36,1.9.68,2.8.95a61.39,61.39,0,0,0,6,1.62l1.69,8.66h-.19l.61.22h0c.47.16,1,.31,1.46.46l.1,0c.51.15,1,.3,1.55.44l2.69,10.81a42.8,42.8,0,0,1-5.42-.38c-.75-.15-3.44-1.16-4.21-1.35-4.61,8.35,1.2,22.19,1.87,26.2.89,5.35-16.67,2.57-22,1.26C525.26,323.43,536.44,315.43,534.39,301Z" transform="translate(-397.38 -128)" fill="#d8cb58"/><path d="M559,288.53v-1c-9.74-.14-12.24-10.55-12.54-12l.58-1.48-1-.38-.69,1.76,0,.14C545.44,275.68,547.91,288.37,559,288.53Z" transform="translate(-397.38 -128)" fill="#fff"/><path d="M558,301.56l.79-.69c-.13-.15-1.36-1.47-6.1-3.11-4.57-1.58-8.92-6.13-9-6.18l-.75.72c.18.2,4.57,4.79,9.38,6.45C556.77,300.3,557.94,301.54,558,301.56Z" transform="translate(-397.38 -128)" fill="#fff"/><path d="M532.81,248.63s4.6-12.18-4.1-9.13-11.74,15.54,2.07,11Z" transform="translate(-397.38 -128)" fill="#3c4454"/><path d="M525.86,260.67s3.11,13,8.83,13.22c0,0-3.55-5.35-1.75-11.13S525.86,260.67,525.86,260.67Z" transform="translate(-397.38 -128)" fill="#3c4454"/><path d="M742.09,217.25a23,23,0,0,0-18.93-19.17,23.21,23.21,0,0,0-18.26,4.54V166.44a13,13,0,0,0-13-13H582.86a13,13,0,0,0-13,13v36.18a23.27,23.27,0,1,0,0,36.76v36.18a13,13,0,0,0,13,13H619a23.22,23.22,0,0,1-4.54-18.26,23,23,0,0,1,19.17-18.93,23.25,23.25,0,0,1,22.13,37.19h36.14a13,13,0,0,0,13-13V239.38a23.25,23.25,0,0,0,37.19-22.13Z" transform="translate(-397.38 -128)" fill="#038271"/></svg>