<svg id="Layer_1" data-name="Layer 1" xmlns="http://www.w3.org/2000/svg" xmlns:xlink="http://www.w3.org/1999/xlink" viewBox="0 0 354.26 214.02"><defs><clipPath id="clip-path" transform="translate(-599.57 -382.11)"><path d="M867.05,510.85c5.09-3.88,9.73-7.8,9.73-7.8C953.83,494.78,930,398.89,930,398.89c-3.27,28.06-42.71,41.05-56.08,55.93s-1.25,42.68-1.25,42.68c29.47-20.54,45.55-57.32,45.55-57.32-14.58,48.24-62,72.74-62,72.74l-.16.18a213.4,213.4,0,0,1-28.57,3.34c2-1.55,3.42-2.8,3.42-2.8,44.32-4.75,30.62-59.9,30.62-59.9-1.88,16.14-24.56,23.61-32.25,32.17s-.72,24.54-.72,24.54c16.95-11.81,26.2-33,26.2-33-6.25,20.68-23,33.77-31.1,39.1-21,.51-42.16-2.7-60.77-12.53,43-6.13,66.44-50.36,66.44-50.36S804,501.08,716.7,476.39a79.24,79.24,0,0,0-21-3.11c-28.14-3.92-53.63,3.47-72.69,12.38-21.31,10-23.42,11.73-1.85,7,27.19-5.92,70.93-3.31,129.68,38.76,90.29,64.66,182.8-44,182.8-44a315.54,315.54,0,0,1-66.57,23.42" fill="none" clip-rule="evenodd"/></clipPath><linearGradient id="linear-gradient" x1="92.37" y1="-32.5" x2="239.42" y2="224.09" gradientUnits="userSpaceOnUse"><stop offset="0" stop-color="#76bb48"/><stop offset="1" stop-color="#298f4f"/></linearGradient></defs><title>divider</title><path d="M747.37,386.6l.08-.24c-.82.32-1.63.6-2.44.89.79-.22,1.56-.41,2.36-.65" transform="translate(-599.57 -382.11)" fill="#75bb49" fill-rule="evenodd"/><path d="M769.85,382.35c.79.23,1.57.43,2.36.65-.81-.29-1.62-.58-2.44-.89l.08.24" transform="translate(-599.57 -382.11)" fill="#75bb49" fill-rule="evenodd"/><g clip-path="url(#clip-path)"><rect y="16.78" width="354.26" height="197.24" fill="url(#linear-gradient)"/></g></svg>