<svg id="Layer_1" data-name="Layer 1" xmlns="http://www.w3.org/2000/svg" viewBox="0 0 370.64 372.4"><title>donate</title><path d="M846.63,301.75c3.18-1,6-5.44,8-7.89,3.55-4.39,6.3-9.25,9.73-13.71,3.64-4.73,7.23-9.12,12.46-12.22,3.06-1.8,6.34-2.72,9.51-4.09-1.85,1.81-3.72,6.32-4.18,8.76a26.89,26.89,0,0,1,9.79-2c-3.08,1.62-6.75,7.05-9.22,9.93A75.9,75.9,0,0,1,866.39,295a126,126,0,0,1-13.29,7.94c-1.35.67-8.18,4.26-7.49-.15Z" transform="translate(-572.42 -224.6)" fill="#71b48b"/><path d="M841,301.7c-3.24-.78-6.34-5-8.49-7.29-3.86-4.13-7-8.77-10.71-13-4-4.46-7.87-8.57-13.31-11.29-3.17-1.58-6.51-2.25-9.78-3.39,2,1.67,4.17,6,4.8,8.43a26.75,26.75,0,0,0-9.91-1.29c3.19,1.38,7.25,6.53,9.91,9.23a76.49,76.49,0,0,0,17.29,13.25,130.45,130.45,0,0,0,13.82,7c1.4.57,8.49,3.65,7.47-.7Z" transform="translate(-572.42 -224.6)" fill="#71b48b"/><path d="M757.54,236.4c-10.61,13.13-2.84,37,17.36,53.31s62.07,26.81,69.86,17.15c5.46-6.75-11.26-48.39-31.45-64.71S768.14,223.27,757.54,236.4Zm82.68,67.48c-5.56,6.89-37.64-2.37-53.52-15.19s-22.61-30.81-15-40.2,26.58-6.58,42.46,6.24S844.12,299.05,840.22,303.88Z" transform="translate(-572.42 -224.6)" fill="#71cb8b"/><path d="M754,235.26c-12.13,15-5,40.91,15.91,57.81s65.54,26.24,74.46,15.19c6.24-7.72-9.58-52.72-30.5-69.62S766.16,220.23,754,235.26Zm85.64,70c-6.37,7.88-40.5-.62-56.95-13.9S760,258.57,768.61,247.84s29-8.66,45.48,4.61S844.1,299.7,839.65,305.22Z" transform="translate(-572.42 -224.6)" fill="#71cb8b"/><path d="M878.16,240.88c-20.64,15.75-38.5,56.92-33.24,63.81,7.53,9.87,49.68.54,70.32-15.2s29.07-39.39,18.84-52.82S898.8,225.13,878.16,240.88ZM877,253.43c16.22-12.38,35.29-14.64,42.6-5.05s.08,27.38-16.13,39.75-48.56,20.75-53.94,13.71C845.79,296.91,860.79,265.8,877,253.43Z" transform="translate(-572.42 -224.6)" fill="#71cb8b"/><path d="M877.69,237.36c-21.38,16.31-38.45,60.85-32.42,68.74,8.62,11.29,53.48,3.19,74.85-13.12s29.23-42,17.5-57.35S899.08,221.05,877.69,237.36Zm-.59,13.8c16.8-12.82,37.21-14.33,45.58-3.36s1.52,30.25-15.28,43.07-51.16,20.38-57.31,12.32C845.79,297.55,860.29,264,877.1,251.16Z" transform="translate(-572.42 -224.6)" fill="#71cb8b"/><rect x="188.39" y="108.45" width="166.22" height="151.81" fill="#fcb900"/><rect x="179.82" y="100.3" width="182.8" height="8.15" fill="#e89700"/><rect x="179.82" y="85.79" width="182.64" height="14.51" fill="#fcb900"/><polygon points="354.61 260.26 259.21 260.26 329.96 108.45 354.61 108.45 354.61 260.26" fill="#e89700"/><rect x="179.82" y="105.59" width="182.8" height="2.85" fill="#cc7a00"/><path d="M906.37,376c0,40.55-59.18,79.81-59.18,79.81S788,416.51,788,376s59.17-11,59.17-11S906.37,335.4,906.37,376Z" transform="translate(-572.42 -224.6)" fill="#71cb8b" stroke="#2ccca7" stroke-miterlimit="10"/><path d="M899.46,358.62c-8.42,35.07-39.07,61.07-75.62,61.07a76.14,76.14,0,0,1-18.4-2.28c17.46,22.25,41.75,38.36,41.75,38.36s59.18-39.26,59.18-79.81C906.37,367.32,903.69,361.86,899.46,358.62Z" transform="translate(-572.42 -224.6)" fill="#71b48b" stroke="#2ccca7" stroke-miterlimit="10"/><rect x="265.39" y="85.79" width="14.26" height="22.66" fill="#71cb8b"/><path d="M859.51,307.05a3.34,3.34,0,0,1-3.34,3.34H835a3.32,3.32,0,0,1-3.33-3.34h0a3.33,3.33,0,0,1,3.33-3.34h21.21a3.35,3.35,0,0,1,3.34,3.34Z" transform="translate(-572.42 -224.6)" fill="#71cb8b"/><rect x="265.39" y="85.79" width="4.27" height="22.66" fill="#71b48b"/><rect x="275.38" y="85.79" width="4.27" height="22.66" fill="#71b48b"/><path d="M858.07,304.32c-2,2.72-7.88,4.69-14.78,4.69a27.24,27.24,0,0,1-11.64-2.31c0,.12,0,.23,0,.35a3.32,3.32,0,0,0,3.33,3.34h21.21a3.33,3.33,0,0,0,1.9-6.07Z" transform="translate(-572.42 -224.6)" fill="#71cb8b"/><rect x="188.39" y="256.47" width="166.22" height="3.79" fill="#cc7a00"/><path d="M742.75,500.91c.39.35.79.66,1.18,1l1,.73c.79.41,1.62.78,2.45,1.14,4.26,1.71,7.71,3.74,10.21,7.89a18.08,18.08,0,0,1-6.25,24.88c-3.78,2.28-9.68,3.65-14,2A95.4,95.4,0,0,1,726,533.64a2.48,2.48,0,0,1-.32-.17,27.52,27.52,0,0,1-8.32-6.62c-3.2-3.9-5.44-7.52-5.5-12.76A18.17,18.17,0,0,1,717,501.21,18.48,18.48,0,0,1,742.75,500.91Z" transform="translate(-572.42 -224.6)" fill="#ffd4a8"/><path d="M737.32,506.48a19.82,19.82,0,0,1,6.93,3.7,16.63,16.63,0,0,1,2.43,1.69c.7.38,1.39.75,2.09,1.1,7.25,3.58,10.59,12.85,8.62,20.38a18.33,18.33,0,0,1-8.25,10.93c-4.52,2.7-9,2.76-14,2-7.17-1.09-13.24-6.4-18.62-10.79-3.57-2.9-5.43-8.33-5.48-12.76a18.13,18.13,0,0,1,18-18.33A16.56,16.56,0,0,1,737.32,506.48Z" transform="translate(-572.42 -224.6)" fill="#ffd4a8"/><path d="M891.92,552.5c-3.55-8-11.22-10-19.79-10.41.58-9.7-24.81-10.45-31.44-10.45-4.92,0-9.52.05-14.2-1-2.87-.67-5.38-2-8.19-2.64,5.29,6.65-3.46,10.72-8.74,12.11-2.3.61-4.41.41-3.64,2.54s5,3.18,6.81,4.15c4.33,2.31,8.77,4.94,13,7.41,3,1.79,6,3.35,9.16,5,3.85,2,4.13,2.89,8.34,1.57,7.62-2.36,15.5-2.08,23.23-1.25,5.15.56,8.75,1.86,13.17-.83,3.92-2.39,8.61-6.36,13.21-6.43Z" transform="translate(-572.42 -224.6)" fill="#c98553"/><path d="M714.13,473.44c-25.6,4.78-48.51,10.83-74.38,12.63-3.07,7.74-2.89,49,4.33,55.12,3.81,3.22,16.31-.23,22.51-.28,9.37-.08,19.88-1.57,29.16-.36,15.12,2,26.93,14,40.76,20.7,18.63,9,40.06,21.44,57.88,31.67,17,9.79,40.57-.67,58.81-4,14.59-2.68,27-7.64,41.49-11,7.08-1.64,18.89-2.62,25.85-6.74,16-2.88,16.41-19.89-1.65-22.31a74.69,74.69,0,0,0-37.32,5c-3.56,1.54-3,3.22-6.48,3.9-2.42.47-6.84-1.07-9.82-1-7,.11-14.6,1.57-21.63,2.32-7.76.82-8.7-.1-15.94-4.32a63.33,63.33,0,0,0-17-6.59c-10.75-2.78-13.68-6.38-5-2.66,6.36,2.72,20.57,9.47,21.18-3.72.43-9.29-22.84-26.64-28.47-33.21-10.84-12.63-20.67-23.28-37-29.22C745.75,473.59,731.18,470.25,714.13,473.44Z" transform="translate(-572.42 -224.6)" fill="#ffd4a8"/><path d="M777.71,537.83l4.22-.12a16.18,16.18,0,0,0-1.87.83c-.78-.18-1.55-.32-2.35-.48Z" transform="translate(-572.42 -224.6)" fill="#ffd4a8"/><path d="M813.78,549.93c-7.41-3.65-13.46-5.91-19.69-11.57-4.55-4.13-7.86-5.77-13.31-8.09-10.38-4.44-21.41-8.09-30.26-13.62,7.81,2.51,15.49,5.3,23.36,7.55,3.71,1.06,7.93,2,11.41,3.75,2.75,1.36,4.59,3.52,7,5.9a52.28,52.28,0,0,0,17.76,11.26c7.42,2.83,13.77,5,16.88-3.4,6.38,8.17-12.65,11.58-18.19,6.47Z" transform="translate(-572.42 -224.6)" fill="#d3945a"/><path d="M697,540.76c-.42-.07-.84-.16-1.26-.21-9.28-1.21-19.79.27-29.16.35-6.2.06-18.7,3.5-22.51.29-7.22-6.11-7.4-47.38-4.33-55.12,25.87-1.82,48.78-7.85,74.38-12.63,15.57-2.91,29.08-.37,43.24,4.43C724.48,491.26,701.42,514.22,697,540.76Z" transform="translate(-572.42 -224.6)" fill="#eaaf7d"/><path d="M932.47,559.57c-3.34-7.26-19.15-6.51-26.73-6s-15.31,4.25-21.28,8.84c-4.84,3.7-4.13,3.2-9.56,1.39-4-1.33-8.1-1.16-12.32-1.12-8.4.11-16.91.75-23.94,5.67-.63-6.6-12.76-10.5-18-12.77-8.32-3.62-16.19-7.95-24.37-11.61-7.44-3.35-15-6.41-22.31-9.74-5.51-2.52-19.28-14-23.45-17.55,5.56-.86,15.67,6.42,20.61,8.64s10.77,3.77,15.67,6.4c7.6,4.09,13.53,10.7,21.8,14,7.62,3.08,15,3.92,22,8.7,1.4,1,5.15,4.14,6.77,4.73,2.55.92,9.52-2.28,13.73-2.73,7.46-.8,15.14.72,22.32.64,4.65,0,5.06-2.6,9.5-4.52a58.67,58.67,0,0,1,10.89-3.42c14-2.92,29.7-5.68,37.55,7a43.75,43.75,0,0,1,.92,5.61Z" transform="translate(-572.42 -224.6)" fill="#eaaf7d"/><path d="M824.76,537.62c.87,9.6-8,7-9.59,6.52-2.8-.82-6.55-2.23-8.5-4.36,4.22-1.88,9-8.63,8.2-11.79.74,0,3.13,2.1,4,2.84,1.26,1.08,5.67,5.14,5.91,6.79Z" transform="translate(-572.42 -224.6)" fill="#e29682"/><path d="M932,566.69c-4.43,4.88-11.62,4.23-17.17,6.55a45.3,45.3,0,0,0,11.43-6.65c2.52-2,5.13-4.12,4.92-7.59,1.66-.34,2.56,2.17,2.74,3.43.43,2.82-2.43,3.58-3,5.32Z" transform="translate(-572.42 -224.6)" fill="#e29682"/><path d="M783.79,517.48c-11.26.11-36.92-8.34-32.78-23.75,3.13-11.64,18.89-2.48,25.16.58,6.83,3.32,15.77,15.83,7.9,21.66Z" transform="translate(-572.42 -224.6)" fill="#ffdcc0"/><path d="M813.71,584.54c-6.11,4.23-17.65-1.76-23.6-4.36a136.9,136.9,0,0,1-26.72-16c-9.73-7.22-37-20.79-29.46-37.08,5.63-12.15,25.72,2.59,31.39,6.92,11.92,9,23,17.22,37.57,21.3,7.83,2.19,18,2.93,19.74,12.37,1.1,5.93-2.54,16.4-8.92,16.88Z" transform="translate(-572.42 -224.6)" fill="#ffdcc0"/><path d="M928.58,560.53c-2.42,4.76-9.88,7.44-14.34,9.78a79.5,79.5,0,0,1-19,6.93c-10.62,2.52-21.16,4.33-31.77,6.61-4.52,1-29.16,8.9-30.94,3.19-2.1-6.77,23.49-14.61,27.94-15.32,6.61-1.05,13,0,19.58.25,7.46.23,11.17-1.48,17.59-4.72,5.24-2.64,25.51-11.94,30.53-5.81Z" transform="translate(-572.42 -224.6)" fill="#ffdcc0"/><polygon points="0.24 332.14 0 250.05 80.96 249.95 81.19 332.04 0.24 332.14" fill="#0a0101"/><polygon points="67.38 337.08 67.19 244.95 94.05 244.9 94.23 337.02 67.38 337.08" fill="#bad6d5"/><polygon points="67.38 337.08 67.19 244.95 94.2 316.73 94.23 337.02 67.38 337.08" fill="#97bebf"/></svg>