<svg id="Layer_1" data-name="Layer 1" xmlns="http://www.w3.org/2000/svg" viewBox="0 0 473.35 371.69"><title>family2</title><path d="M848.16,526.86h92.45a6.41,6.41,0,0,0,6.39-6.39h0a6.4,6.4,0,0,0-6.39-6.39H912.7a3.58,3.58,0,0,1-3.57-3.57h0a3.59,3.59,0,0,1,3.57-3.57h11.77a12.64,12.64,0,0,0,12.6-12.6h0a12.63,12.63,0,0,0-12.6-12.59H815.89a12.63,12.63,0,0,0-12.6,12.59h0a12.64,12.64,0,0,0,12.6,12.6h29.46a3.58,3.58,0,0,0-3.57,3.57h0a3.57,3.57,0,0,0,3.57,3.57h2.81a6.4,6.4,0,0,0-6.38,6.39h0A6.41,6.41,0,0,0,848.16,526.86Z" transform="translate(-473.65 -177.13)" fill="#8ba64f" fill-rule="evenodd"/><path d="M572.49,526.86H480a6.41,6.41,0,0,1-6.39-6.39h0a6.41,6.41,0,0,1,6.39-6.39H508a3.57,3.57,0,0,0,3.57-3.57h0a3.58,3.58,0,0,0-3.57-3.57H496.18a12.63,12.63,0,0,1-12.59-12.6h0a12.63,12.63,0,0,1,12.59-12.59H604.77a12.63,12.63,0,0,1,12.6,12.59h0a12.64,12.64,0,0,1-12.6,12.6H575.31a3.59,3.59,0,0,1,3.57,3.57h0a3.58,3.58,0,0,1-3.57,3.57h-2.82a6.41,6.41,0,0,1,6.39,6.39h0A6.41,6.41,0,0,1,572.49,526.86Z" transform="translate(-473.65 -177.13)" fill="#8ba64f" fill-rule="evenodd"/><path d="M532,505.68h12.33A6.69,6.69,0,0,0,551,499h0a6.69,6.69,0,0,0-6.67-6.67h-2.21a5.32,5.32,0,0,1-5.3-5.3h0a5.31,5.31,0,0,1,5.3-5.29H880.21a5.31,5.31,0,0,1,5.3,5.29h0a5.32,5.32,0,0,1-5.3,5.3H852.45a6.69,6.69,0,0,0-6.67,6.67h0a6.69,6.69,0,0,0,6.67,6.67h6.66a10.62,10.62,0,0,1,10.59,10.59h0a10.63,10.63,0,0,1-10.59,10.59H532a10.62,10.62,0,0,1-10.58-10.59h0A10.61,10.61,0,0,1,532,505.68Zm363.12-10.12h3.71a5.3,5.3,0,0,1,5.29,5.29h0a5.31,5.31,0,0,1-5.29,5.3h-3.71a5.31,5.31,0,0,1-5.29-5.3h0A5.3,5.3,0,0,1,895.16,495.56Z" transform="translate(-473.65 -177.13)" fill="#f3b490" fill-rule="evenodd"/><path d="M583.42,535.4h7.81a4.23,4.23,0,0,0,4.22-4.22h0a4.24,4.24,0,0,0-4.22-4.23h-1.4a3.37,3.37,0,0,1-3.36-3.36h0a3.37,3.37,0,0,1,3.36-3.35H804.06a3.37,3.37,0,0,1,3.36,3.35h0a3.37,3.37,0,0,1-3.36,3.36H786.47a4.24,4.24,0,0,0-4.22,4.23h0a4.23,4.23,0,0,0,4.22,4.22h4.22a6.73,6.73,0,0,1,6.71,6.71h0a6.73,6.73,0,0,1-6.71,6.72H583.42a6.73,6.73,0,0,1-6.71-6.72h0a6.73,6.73,0,0,1,6.71-6.71ZM813.54,529h2.35a3.37,3.37,0,0,1,3.35,3.36h0a3.36,3.36,0,0,1-3.35,3.35h-2.35a3.37,3.37,0,0,1-3.36-3.35h0A3.37,3.37,0,0,1,813.54,529Z" transform="translate(-473.65 -177.13)" fill="#f3b490" fill-rule="evenodd"/><path d="M527.7,485c4.93-6.28,5.61-13.88-1.09-7.14,3.58-7.48-1.55-11.19-3.86-3.56,1.63-6.52-3.85-11.58-4.6-.47,1.28-16.89-7.29-14.5-4.5-1.39.47,1.24.07,2,0,1.57-.81-2.89-3-4.92-1.93,2.09-2-5.92-6.77-6.82-3.25,2.57-6.06-7.52-10.52-1.05-2.7,5.36a13.49,13.49,0,0,0,1.37,1Z" transform="translate(-473.65 -177.13)" fill="#8ba64f" fill-rule="evenodd"/><path d="M915.38,487.45c4.93-6.28,5.6-13.88-1.09-7.13,3.58-7.48-1.56-11.2-3.87-3.57,1.64-6.51-3.84-11.58-4.59-.47,1.28-16.89-7.29-14.49-4.51-1.39.48,1.25.08,2,0,1.58-.81-2.89-3-4.93-1.93,2.09-2-5.93-6.77-6.82-3.25,2.57-6.06-7.52-10.52-1.05-2.7,5.35a13.49,13.49,0,0,0,1.37,1Z" transform="translate(-473.65 -177.13)" fill="#8ba64f" fill-rule="evenodd"/><path d="M548.24,513.75c1.91,0,3.46-.73,3.46-1.62s-1.55-1.61-3.46-1.61-3.46.72-3.46,1.61S546.33,513.75,548.24,513.75Z" transform="translate(-473.65 -177.13)" fill="#b46f39" fill-rule="evenodd"/><path d="M570.51,511.9c1.91,0,3.47-.72,3.47-1.61s-1.56-1.62-3.47-1.62-3.46.73-3.46,1.62S568.61,511.9,570.51,511.9Z" transform="translate(-473.65 -177.13)" fill="#b46f39" fill-rule="evenodd"/><path d="M584,518c1.91,0,3.46-.73,3.46-1.62s-1.55-1.61-3.46-1.61-3.46.72-3.46,1.61S582.11,518,584,518Z" transform="translate(-473.65 -177.13)" fill="#b46f39" fill-rule="evenodd"/><path d="M559.43,518.37c1.91,0,3.47-.73,3.47-1.62s-1.56-1.62-3.47-1.62-3.46.73-3.46,1.62S557.53,518.37,559.43,518.37Z" transform="translate(-473.65 -177.13)" fill="#b46f39" fill-rule="evenodd"/><path d="M537.85,518.13c1.91,0,3.46-.72,3.46-1.61s-1.55-1.62-3.46-1.62-3.46.73-3.46,1.62S535.94,518.13,537.85,518.13Z" transform="translate(-473.65 -177.13)" fill="#b46f39" fill-rule="evenodd"/><path d="M558.92,512.53c3.08,0,5.59-1.18,5.59-2.61s-2.51-2.62-5.59-2.62-5.6,1.18-5.6,2.62S555.83,512.53,558.92,512.53Z" transform="translate(-473.65 -177.13)" fill="#b46f39" fill-rule="evenodd"/><path d="M572.77,518.41c3.08,0,5.59-1.17,5.59-2.61s-2.51-2.61-5.59-2.61-5.6,1.17-5.6,2.61S569.68,518.41,572.77,518.41Z" transform="translate(-473.65 -177.13)" fill="#b46f39" fill-rule="evenodd"/><path d="M823.56,515.92c1.9,0,3.46-.73,3.46-1.61s-1.56-1.62-3.46-1.62-3.47.73-3.47,1.62S821.65,515.92,823.56,515.92Z" transform="translate(-473.65 -177.13)" fill="#b46f39" fill-rule="evenodd"/><path d="M845.83,514.07c1.91,0,3.46-.72,3.46-1.61s-1.55-1.62-3.46-1.62-3.46.73-3.46,1.62S843.92,514.07,845.83,514.07Z" transform="translate(-473.65 -177.13)" fill="#b46f39" fill-rule="evenodd"/><path d="M859.33,520.19c1.91,0,3.47-.72,3.47-1.61s-1.56-1.62-3.47-1.62-3.46.73-3.46,1.62S857.43,520.19,859.33,520.19Z" transform="translate(-473.65 -177.13)" fill="#b46f39" fill-rule="evenodd"/><path d="M834.75,520.54c1.91,0,3.46-.73,3.46-1.62s-1.55-1.61-3.46-1.61-3.46.72-3.46,1.61S832.84,520.54,834.75,520.54Z" transform="translate(-473.65 -177.13)" fill="#b46f39" fill-rule="evenodd"/><path d="M813.17,520.31c1.91,0,3.46-.73,3.46-1.62s-1.55-1.62-3.46-1.62-3.46.73-3.46,1.62S811.26,520.31,813.17,520.31Z" transform="translate(-473.65 -177.13)" fill="#b46f39" fill-rule="evenodd"/><path d="M834.23,514.7c3.08,0,5.6-1.17,5.6-2.61s-2.52-2.61-5.6-2.61-5.6,1.17-5.6,2.61S831.15,514.7,834.23,514.7Z" transform="translate(-473.65 -177.13)" fill="#b46f39" fill-rule="evenodd"/><path d="M848.08,520.59c3.08,0,5.6-1.18,5.6-2.61s-2.52-2.62-5.6-2.62-5.6,1.18-5.6,2.62S845,520.59,848.08,520.59Z" transform="translate(-473.65 -177.13)" fill="#b46f39" fill-rule="evenodd"/><path d="M711.11,305c-14.42-5.29-29.83.57-34.43,13.1s3.35,27,17.76,32.27,29.83-.57,34.43-13.1S725.52,310.33,711.11,305Z" transform="translate(-473.65 -177.13)" fill="#fdd168" fill-rule="evenodd"/><path d="M706.51,315.1c-21.52-7.9-42-6-45.79,4.29s10.61,25,32.13,32.91,42,6,45.79-4.29S728,323,706.51,315.1Z" transform="translate(-473.65 -177.13)" fill="#e6b94d" fill-rule="evenodd"/><path d="M688.38,505.16c-.41,0-6.34,2.76-6.61,4.1s1.18,1.82,4,1.82,6.4-.11,7-.56-.26-5-1.77-5.53A3.51,3.51,0,0,0,688.38,505.16Z" transform="translate(-473.65 -177.13)" fill="#ec6957" fill-rule="evenodd"/><path d="M675.4,416.87l-2.79,5.68s.81,8.62,3.07,21.72,12.28,59.56,12.65,60.9a1.57,1.57,0,0,0,2.38.91c.51-.42-1.89-64.71-2.12-68.44s8.2-2.7,9.78,1.14,6,66.29,6.29,67.1,2.05.71,2.38.08,9.77-71.65,7.65-83.49S675.4,416.87,675.4,416.87Z" transform="translate(-473.65 -177.13)" fill="#3c5178" fill-rule="evenodd"/><path d="M688.44,505.45a1.57,1.57,0,0,0,2.27.63c.51-.42-1.89-64.71-2.12-68.44-.14-2.38,3.22-2.82,6.1-1.84h0s-5.64-2.17-8.69.31,2.59,58.25,2.94,64.19C689.09,502.92,689,504.5,688.44,505.45Z" transform="translate(-473.65 -177.13)" fill="#20345a" fill-rule="evenodd"/><path d="M674.12,419.46l-1.51,3.09s.18,1.95.62,5.42a18.28,18.28,0,0,1,6.89-3.84c10-3.29,24.41-1.13,28.25,5.09s-.39,62.43-1.47,69.83c-.46,3.15-1.36,4.9-2.35,5.89a9.34,9.34,0,0,0,.11.94c.26.8,2.05.71,2.38.08s9.77-71.65,7.65-83.49c-.82-4.52-6.74-6.4-13.76-7C693.27,417.09,681.89,418.56,674.12,419.46Z" transform="translate(-473.65 -177.13)" fill="#20345a" fill-rule="evenodd"/><path d="M725.76,336.34c2.23,29.65-29.81,22-29.83,14.74,0-7.54-4-3-4.53-4.59-5-14.17-8.17,7.19-10.38-9,0-.11-3.26-2.95-3.31-3.38-.21-1.64-.87-5-.73-5.34,2.8-6.06,7.17-4.42,7.17-4.42l33.73,6.7A45.36,45.36,0,0,1,725.76,336.34Z" transform="translate(-473.65 -177.13)" fill="#510f00" fill-rule="evenodd"/><path d="M668.78,349.08s-16.36-21.87-20.29-27.81-3.62-7.59-4.14-9.55-5.9-1.42-7,.58.65,5.53,2.86,6.9,3-2.71,9.18,10.63,15.18,28.29,15.18,28.29Z" transform="translate(-473.65 -177.13)" fill="#f5ac83" fill-rule="evenodd"/><path d="M668.78,349.08l-2-2.62c-1.32,2.52-4,3-4.88,1.43-1.24-2.07-13.45-22.56-14.76-25s-5.25-7-6.63-8.76c-.52-.68-.47-2.07-.2-3.53a4.4,4.4,0,0,0-3,1.68c-1.11,2,.65,5.53,2.86,6.9s3-2.71,9.18,10.63,15.18,28.29,15.18,28.29Z" transform="translate(-473.65 -177.13)" fill="#ee9073" fill-rule="evenodd"/><path d="M719.84,357.12s17.78-20.73,22.1-26.39,4.12-7.33,4.77-9.25,6-1,6.95,1-1,5.47-3.32,6.7-2.81-2.92-9.87,10-17,27.21-17,27.21Z" transform="translate(-473.65 -177.13)" fill="#f5ac83" fill-rule="evenodd"/><path d="M719.84,357.12l3.52-4.12c1.64,1.83,4.47,2.56,5.58.89,1.52-2.27,13.8-19.73,15.59-22.9s4.42-2.21,6.63-5.87a5,5,0,0,0,.6-4.13,3.59,3.59,0,0,1,1.9,1.54c1,2.07-1,5.47-3.32,6.7s-2.81-2.92-9.87,10-17,27.21-17,27.21Z" transform="translate(-473.65 -177.13)" fill="#ee9073" fill-rule="evenodd"/><path d="M687,368.45l-.63-1.59s-14-14.58-16.38-18.35-3.18-1.79-3.73-.28-9.31,17.12-10.07,20.43,7.35,4.21,12.59,14.83,3.73,21.25,3.59,24.29.83,3.45.83,3.45a22,22,0,0,0-.91,5.64h42.93a9.94,9.94,0,0,0-.7-3.43s1.8-3.86,1-7.17-3.24-15.87,6.7-23.19,11-9.24,9.94-11.31-8.35-14.56-9-19.11a1.09,1.09,0,0,0-1.45-.07c-.9.55-11.29,13.14-16.79,14.54S687,368.45,687,368.45Z" transform="translate(-473.65 -177.13)" fill="#ec6957" fill-rule="evenodd"/><path d="M671.07,350.05c-.48-.61-.87-1.14-1.12-1.54-2.37-3.77-3.18-1.79-3.73-.28s-9.31,17.12-10.07,20.43,7.35,4.21,12.59,14.83a40.62,40.62,0,0,1,3.89,18.66h0s1.52-19.87-4.83-27.6-6.14-15.32-2.55-20.63a8.34,8.34,0,0,1,5.82-3.87Zm44.11,66.82a9.94,9.94,0,0,0-.7-3.43s1.8-3.86,1-7.17-3.24-15.87,6.7-23.19,11-9.24,9.94-11.31-8.35-14.56-9-19.11a1.09,1.09,0,0,0-1.45-.07,29.82,29.82,0,0,0-2.34,2.43c1.08.64,2.23,2,3.19,4.84,2.69,7.86-1.24,14.29-7,19.46s-8.49,16.83-7.25,23.73-4.17,7.62-4.17,7.62a9.32,9.32,0,0,1,1.9,6.2Z" transform="translate(-473.65 -177.13)" fill="#d84743" fill-rule="evenodd"/><path d="M671.79,350.94a26.28,26.28,0,0,1-1.84-2.43c-2.37-3.77-3.18-1.79-3.73-.28s-9.31,17.12-10.07,20.43c-.41,1.78,1.76,2.87,4.67,5.16a163.09,163.09,0,0,1,11-22.88Zm56.13,27.69c4.57-3.81,5-5.3,4.17-6.86-1.11-2.07-8.35-14.56-9-19.11a1.09,1.09,0,0,0-1.45-.07,31.33,31.33,0,0,0-2.4,2.49C719.76,361.87,725.34,373.55,727.92,378.63Z" transform="translate(-473.65 -177.13)" fill="#face88" fill-rule="evenodd"/><path d="M671.07,350.05c-.48-.62-.87-1.14-1.12-1.54-2.37-3.77-3.18-1.79-3.73-.28s-9.31,17.12-10.07,20.43c-.41,1.78,1.76,2.87,4.67,5.16.91-2.35,1.84-4.59,2.76-6.69a14.84,14.84,0,0,1,1.67-13.21,8.34,8.34,0,0,1,5.82-3.87Zm52,18a14.61,14.61,0,0,0-.51-8.16c-1-2.8-2.11-4.2-3.19-4.85a30.73,30.73,0,0,1,2.34-2.42,1.09,1.09,0,0,1,1.45.07c.62,4.55,7.86,17,9,19.11.83,1.56.4,3.05-4.17,6.86C726.68,376.19,724.75,372.23,723,368Z" transform="translate(-473.65 -177.13)" fill="#cba66a" fill-rule="evenodd"/><path d="M690.2,366.31s-3.11.07-3.87.55c-1.33.85-.44,4.78.49,5.94,1.65,2.07,6.28,3.38,11.86,2.62s8.28-3.45,8.22-5.66S706.34,365.83,690.2,366.31Z" transform="translate(-473.65 -177.13)" fill="#face88" fill-rule="evenodd"/><path d="M703,363.06s.09,5.1-.82,7.59-11.64,2.13-12.37-.12.19-11.38.37-12.33S703,363.06,703,363.06Z" transform="translate(-473.65 -177.13)" fill="#ee9073" fill-rule="evenodd"/><path d="M718.73,340.75a5.49,5.49,0,1,1-6.07,4.85A5.48,5.48,0,0,1,718.73,340.75Z" transform="translate(-473.65 -177.13)" fill="#e27e67" fill-rule="evenodd"/><path d="M718.5,331.42l0,.27-1.89,17a18.89,18.89,0,0,1-20.79,16.64h0a18.9,18.9,0,0,1-16.64-20.8l1.89-17a18.78,18.78,0,0,1,2-6.49,80.5,80.5,0,0,1,17.12,2.85A79.49,79.49,0,0,1,718.5,331.42Z" transform="translate(-473.65 -177.13)" fill="#f5ac83" fill-rule="evenodd"/><path d="M718.5,331.42l0,.27-1.89,17a18.87,18.87,0,0,1-20.79,16.63h0a17.75,17.75,0,0,1-1.8-.28c20.34-1.12,23.89-24.52,15.44-26.46-10.43-2.41-19.09-11.83-19.09-11.83-1.94,2.78-6.61,4.41-9.79,5.23l.49-4.45a18.78,18.78,0,0,1,2-6.49,80.5,80.5,0,0,1,17.12,2.85A79.49,79.49,0,0,1,718.5,331.42Z" transform="translate(-473.65 -177.13)" fill="#ee9073" fill-rule="evenodd"/><path d="M683.57,333.7l5.18.57a1,1,0,0,1,.88,1.11h0a1,1,0,0,1-1.1.89l-5.18-.58a1,1,0,0,1-.89-1.1h0A1,1,0,0,1,683.57,333.7Z" transform="translate(-473.65 -177.13)" fill="#6a291f" fill-rule="evenodd"/><path d="M704.47,336l5.18.58a1,1,0,0,1,.89,1.1h0a1,1,0,0,1-1.11.89l-5.18-.58a1,1,0,0,1-.88-1.1h0A1,1,0,0,1,704.47,336Z" transform="translate(-473.65 -177.13)" fill="#6a291f" fill-rule="evenodd"/><path d="M700.9,350.8A6,6,0,0,1,689,349.48h0a1,1,0,0,1,1.15-.91l9.83,1.09a1,1,0,0,1,.91,1.14Z" transform="translate(-473.65 -177.13)" fill="#fff" fill-rule="evenodd"/><path d="M683.65,345.66a2.73,2.73,0,1,1-3,2.41A2.72,2.72,0,0,1,683.65,345.66Z" transform="translate(-473.65 -177.13)" fill="#e27e67" fill-rule="evenodd"/><path d="M707,348.25a2.72,2.72,0,1,1-3,2.4A2.71,2.71,0,0,1,707,348.25Z" transform="translate(-473.65 -177.13)" fill="#e27e67" fill-rule="evenodd"/><path d="M719.86,341,716,338.87s-2.7,4.63.88,6.74l.26-2.33A2.33,2.33,0,0,1,719.86,341Z" transform="translate(-473.65 -177.13)" fill="#510f00" fill-rule="evenodd"/><path d="M703.28,344.32a.69.69,0,1,1-1.38-.15,3.33,3.33,0,0,1,3.69-2.95,3.32,3.32,0,0,1,2.24,1.23,3.28,3.28,0,0,1,.71,2.46.69.69,0,1,1-1.37-.16,2,2,0,0,0-.42-1.43A2,2,0,0,0,704,343,2,2,0,0,0,703.28,344.32Z" transform="translate(-473.65 -177.13)" fill="#6a291f" fill-rule="evenodd"/><path d="M684.2,342.2a.69.69,0,0,1-.76.62.7.7,0,0,1-.61-.77,3.34,3.34,0,0,1,6.64.74.69.69,0,0,1-1.38-.15,2,2,0,0,0-.41-1.44,2,2,0,0,0-1.32-.72,1.94,1.94,0,0,0-1.43.41A2,2,0,0,0,684.2,342.2Z" transform="translate(-473.65 -177.13)" fill="#6a291f" fill-rule="evenodd"/><path d="M674.25,321.18c-3,5.67-2.15,11.71,5.61,15.95l.11,0,0-.18.11-.95c-2.63-1.85-2.35-3.29.12-4.26,5.66-2.23,7.24-4.94,9.23-9.22,0,0,2.82,5.95,10.59,9.89s14.67,4.36,16,9.4l2.19-1.14,4.42-6.7a75.27,75.27,0,0,0-22.51-10.11A74.41,74.41,0,0,0,674.25,321.18Z" transform="translate(-473.65 -177.13)" fill="#6a291f" fill-rule="evenodd"/><path d="M716.46,330.29c-14.76,2.83-27-7.73-27-7.73s2.82,5.95,10.59,9.89,14.67,4.36,16,9.4l2.19-1.14,4.42-6.7A63.17,63.17,0,0,0,716.46,330.29Z" transform="translate(-473.65 -177.13)" fill="#510f00" fill-rule="evenodd"/><ellipse cx="312.44" cy="25.45" rx="29.28" ry="25.45" fill="#fdd168"/><path d="M784.26,231.33c22.41,0,40.68-7.6,40.68-16.92s-18.27-16.91-40.68-16.91-40.68,7.6-40.68,16.91S761.86,231.33,784.26,231.33Z" transform="translate(-473.65 -177.13)" fill="#e6b94d" fill-rule="evenodd"/><path d="M774.71,287.58,761.51,263s-10.64,6.65-10.92,38c-.21,23.62-1.39,43.4-1.84,54.87,1.63,0,4.55,0,5.77.05,1.34-17.85,4.25-46.28,6.85-54.47C765,289.87,774.71,287.58,774.71,287.58Z" transform="translate(-473.65 -177.13)" fill="#ec6957" fill-rule="evenodd"/><path d="M754.52,355.93c1.34-17.85,4.25-46.28,6.85-54.47a21.29,21.29,0,0,1,7.64-11c-.71-5.62-1.77-9.08-2.78-9-2.55.28-5.8,6.64-7.35,12.72s-3.25,24-5,41.56c-.8,8.27-1.17,14.8-1.4,20.11Z" transform="translate(-473.65 -177.13)" fill="#d84743" fill-rule="evenodd"/><path d="M742.64,388.36a2.53,2.53,0,1,0,4.94,1.05l5.23-23.93a2.53,2.53,0,1,0-4.95-1.05Z" transform="translate(-473.65 -177.13)" fill="#9b9b9b" fill-rule="evenodd"/><path d="M751.35,360.21h0a2.14,2.14,0,0,0-2.54,1.65L747.29,369a2.15,2.15,0,0,0,1.65,2.54h0a2.14,2.14,0,0,0,2.54-1.65l1.52-7.09A2.16,2.16,0,0,0,751.35,360.21Z" transform="translate(-473.65 -177.13)" fill="#575656" fill-rule="evenodd"/><path d="M747,355.62c-2,2.73-4,5.66-3,7.35,1.4,2.42,4,6.61,4.49,4.53s.22-6.11,1.77-6.72c1.21-.47,2.12-.26,2.42,1.15.09.39-1.52,1.63-1.6,2.16a1.57,1.57,0,0,0,1.91,2C763,357.66,750.51,350.91,747,355.62Z" transform="translate(-473.65 -177.13)" fill="#f8c1a8" fill-rule="evenodd"/><path d="M753,366.1c6.88-5.82,3.1-10.83-1-11.84l0,.32a5.07,5.07,0,0,0-2.94,1.07S759.42,355.42,753,366.1Z" transform="translate(-473.65 -177.13)" fill="#f3ab8f" fill-rule="evenodd"/><path d="M793,239.43l-.18,4.37v10.31c0,1,3.85,2.39,4.94,3.22-4,25.18-24.63,11.06-22.15-.4,1.08-.82,4.85-1.81,4.85-2.82V243.8l-.19-4.37s3.14.56,6.37,1.35C789.84,240,793,239.43,793,239.43Z" transform="translate(-473.65 -177.13)" fill="#ee9073" fill-rule="evenodd"/><path d="M797.42,287.58l13.2-24.6s10.64,6.65,10.92,38c.22,23.62,1.39,43.4,1.84,54.87-1.63,0-4.55,0-5.77.05-1.34-17.85-4.25-46.28-6.85-54.47C807.09,289.87,797.42,287.58,797.42,287.58Z" transform="translate(-473.65 -177.13)" fill="#ec6957" fill-rule="evenodd"/><path d="M817.61,355.93c-1.34-17.85-4.25-46.28-6.85-54.47a21.29,21.29,0,0,0-7.64-11c.71-5.62,1.77-9.08,2.78-9,2.55.28,5.8,6.64,7.35,12.72s3.25,24,5,41.56c.8,8.27,1.18,14.8,1.4,20.11Z" transform="translate(-473.65 -177.13)" fill="#d84743" fill-rule="evenodd"/><path d="M826.6,375.34a2.53,2.53,0,0,1-4.94,1.06l-2.34-10.92a2.53,2.53,0,1,1,4.95-1.05Z" transform="translate(-473.65 -177.13)" fill="#9b9b9b" fill-rule="evenodd"/><path d="M820.78,360.21h0a2.14,2.14,0,0,1,2.54,1.65l1.52,7.09a2.15,2.15,0,0,1-1.65,2.54h0a2.14,2.14,0,0,1-2.54-1.65l-1.51-7.09A2.14,2.14,0,0,1,820.78,360.21Z" transform="translate(-473.65 -177.13)" fill="#575656" fill-rule="evenodd"/><path d="M825.09,355.62c2,2.73,4,5.66,3,7.35-1.4,2.42-3.95,6.61-4.49,4.53s-.22-6.11-1.76-6.72c-1.21-.47-2.13-.26-2.43,1.15-.09.39,1.52,1.63,1.6,2.16a1.57,1.57,0,0,1-1.91,2C809.17,357.66,821.62,350.91,825.09,355.62Z" transform="translate(-473.65 -177.13)" fill="#f8c1a8" fill-rule="evenodd"/><path d="M819.15,366.1c-6.88-5.82-3.1-10.83,1-11.84l0,.32a5.07,5.07,0,0,1,2.94,1.07S812.71,355.42,819.15,366.1Z" transform="translate(-473.65 -177.13)" fill="#f3ab8f" fill-rule="evenodd"/><path d="M791.52,389c3.58,12.1,3.49,39.07,4.6,53.62,1.7,22.34,4.82,56.48,4.6,58.28s7,3.62,8.41.73a3.65,3.65,0,0,0,.2-2c-.1-1.55,1.44-142-.4-145.79-.95-2-11.68-3.4-22.45-3-10.77-.36-21.5,1.08-22.45,3-1.84,3.81.81,144.37.71,145.92a3.52,3.52,0,0,0,.2,2c1.44,2.89,7.53.95,7.31-.86s2.89-35.94,4.6-58.28c1.11-14.55,2.61-41.44,5.37-53.75C784.69,377.9,789.57,382.45,791.52,389Z" transform="translate(-473.65 -177.13)" fill="#3c5178" fill-rule="evenodd"/><path d="M786.48,369.39c10.36,3.59,17.06,13.51,18.13,28,1.32,17.87,2.91,87.77,2.1,94.75s-5.11,6.4-6.5.51c.37,4.67.57,7.76.51,8.26-.23,1.81,7,3.62,8.41.73a3.65,3.65,0,0,0,.2-2c-.1-1.55,1.44-142-.4-145.79-.84-1.74-9.38-3.07-18.82-3.09h-3.63c-10.77-.36-21.5,1.08-22.45,3-.43.9-.68,9.3-.8,21.67,3.66-8.3,23.25-6.19,23.25-6.19ZM764.72,495.28c8.15-.95,4.38-5.74,5.89-21.8s6.36-86.73,9.22-90.37c2.19-2.79,5.78-1.46,7.34-.7-1.81-.68-3.69.89-4.95,6.5-2.76,12.31-4.26,39.2-5.37,53.75-1.71,22.34-4.83,56.48-4.6,58.28s-5.87,3.75-7.31.86a8.69,8.69,0,0,1-.2-2c0-.85,0-1.79,0-4.55Zm23.19-112.46h0Z" transform="translate(-473.65 -177.13)" fill="#20345a" fill-rule="evenodd"/><path d="M786.06,366.17c9.54-.12,18.81-.95,22.74-1.9,5.23-1.25,2.71-8.34.7-22.31-1.76-12.25-1.69-26.24-1.48-38.54.2-11.74,3.14-22.29,5.64-27.9,1.9-4.25.54,2.16.75,15.16,3.5-15.62,3.88-28.07-15.29-33.49-1.13,1.18-2.5,2.62-3.6,3.73-3.12,8.07-6.46,10.15-9.46,9.58-3,.57-6.32-1.51-9.46-9.58-1.09-1.11-2.46-2.55-3.59-3.73-19.17,5.42-18.79,17.87-15.29,33.49.21-13-1.16-19.41.75-15.16,2.5,5.61,5.43,16.16,5.64,27.9.21,12.3.28,26.29-1.48,38.54-2,14-4.53,21.06.7,22.31C767.26,365.22,776.52,366.05,786.06,366.17Z" transform="translate(-473.65 -177.13)" fill="#ec6957" fill-rule="evenodd"/><path d="M789.76,366.09c8.16-.26,15.62-1,19-1.82,5.23-1.25,2.71-8.34.7-22.31-1.76-12.25-1.69-26.24-1.48-38.54a82,82,0,0,1,2.19-17.25c-1.39-2.64-3-4.52-4.31-4.67-2.54-.28-5.37,21.91-2.26,44.24C806,342.81,804.44,358.88,789.76,366.09Z" transform="translate(-473.65 -177.13)" fill="#d84743" fill-rule="evenodd"/><path d="M777.29,260.24c-.56-2.23-.5-3.87-.83-4.28-1.09-1.11-2.77.31-3.41,1.23-1.42,23,28.51,22.49,27.12,0-.64-.92-2.33-2.34-3.42-1.23-.29.37-.07,1.75-.66,3.54C792.9,269.3,780.82,274.15,777.29,260.24Z" transform="translate(-473.65 -177.13)" fill="#d84743" fill-rule="evenodd"/><path d="M759.68,209.92c1.15,4.93,3,11.37,3,12.73,0,2,3.24,1.43,3.57-1.4.18-1.56,2.62-7.29,2.72-12.84C765.7,208.8,762.59,209.31,759.68,209.92Z" transform="translate(-473.65 -177.13)" fill="#510f00" fill-rule="evenodd"/><path d="M765,221.12a6.4,6.4,0,1,1-6.4,6.4A6.39,6.39,0,0,1,765,221.12Z" transform="translate(-473.65 -177.13)" fill="#e27e67" fill-rule="evenodd"/><path d="M808.77,221.12a6.4,6.4,0,1,1-6.4,6.4A6.39,6.39,0,0,1,808.77,221.12Z" transform="translate(-473.65 -177.13)" fill="#e27e67" fill-rule="evenodd"/><path d="M807.28,209.61c0,.35,0,.71,0,1.07v19.91a22,22,0,0,1-21.91,21.91h0a22,22,0,0,1-21.91-21.91V210.68c0-.5,0-1,0-1.49a125.65,125.65,0,0,1,20.73-1.66A122.88,122.88,0,0,1,807.28,209.61Z" transform="translate(-473.65 -177.13)" fill="#f5ac83" fill-rule="evenodd"/><path d="M807.28,209.61c0,.35,0,.71,0,1.07v19.91a22,22,0,0,1-21.91,21.91c23.42-4.61,15.89-34.28,8.69-36.86s-22.52-3.2-26.69-2.42a4.35,4.35,0,0,0-3.91,4.17v-6.71c0-.5,0-1,0-1.49a125.65,125.65,0,0,1,20.73-1.66,122.88,122.88,0,0,1,23,2.08ZM785.39,252.5" transform="translate(-473.65 -177.13)" fill="#ee9073" fill-rule="evenodd"/><path d="M770.23,221.68h0a2.15,2.15,0,0,1,2.14,2.15v2.79a2.15,2.15,0,0,1-2.14,2.15h0a2.16,2.16,0,0,1-2.15-2.15v-2.79A2.16,2.16,0,0,1,770.23,221.68Z" transform="translate(-473.65 -177.13)" fill="#510f00" fill-rule="evenodd"/><rect x="318.9" y="44.55" width="4.29" height="7.09" rx="2.14" fill="#510f00"/><path d="M767.2,216.32h6.06a1.17,1.17,0,0,1,1.16,1.17h0a1.16,1.16,0,0,1-1.16,1.16H767.2a1.17,1.17,0,0,1-1.17-1.16h0A1.18,1.18,0,0,1,767.2,216.32Z" transform="translate(-473.65 -177.13)" fill="#510f00" fill-rule="evenodd"/><path d="M791.67,216.32h6.06a1.18,1.18,0,0,1,1.17,1.17h0a1.17,1.17,0,0,1-1.17,1.16h-6.06a1.16,1.16,0,0,1-1.16-1.16h0A1.17,1.17,0,0,1,791.67,216.32Z" transform="translate(-473.65 -177.13)" fill="#510f00" fill-rule="evenodd"/><path d="M789.44,233.87a7,7,0,0,1-13.94,0h0a1.2,1.2,0,0,1,1.2-1.2h11.51a1.2,1.2,0,0,1,1.2,1.2Z" transform="translate(-473.65 -177.13)" fill="#fff" fill-rule="evenodd"/><path d="M768.83,230.14a3.17,3.17,0,1,1-3.17,3.17A3.17,3.17,0,0,1,768.83,230.14Z" transform="translate(-473.65 -177.13)" fill="#e27e67" fill-rule="evenodd"/><path d="M796.1,230.14a3.17,3.17,0,1,1-3.17,3.17A3.17,3.17,0,0,1,796.1,230.14Z" transform="translate(-473.65 -177.13)" fill="#e27e67" fill-rule="evenodd"/><path d="M807.3,227a12.52,12.52,0,0,1-4.12-11.6s-2.59-3.38-2.21-6.78A96.29,96.29,0,0,1,813.25,211,42.19,42.19,0,0,1,810,221.26S806.72,220.86,807.3,227Z" transform="translate(-473.65 -177.13)" fill="#510f00" fill-rule="evenodd"/><path d="M786.05,366.77c10-.14,19.57-1,23.68-1.9,5.57-1.26,2.89-8.41.75-22.5a192.76,192.76,0,0,1-1.69-28.67c-4.39-1.83-3.42-13.28-3.5-17s-3.86-6.3-7.63-6.3H774.44c-3.77,0-7.54,2.57-7.63,6.3s.89,15.18-3.5,17a194.11,194.11,0,0,1-1.69,28.67c-2.14,14.09-4.82,21.24.75,22.5C766.47,365.8,776.08,366.63,786.05,366.77Z" transform="translate(-473.65 -177.13)" fill="#3c5178" fill-rule="evenodd"/><path d="M791.56,366.62c7.86-.3,14.83-1,18.17-1.75,5.57-1.26,2.89-8.41.75-22.5a192.76,192.76,0,0,1-1.69-28.67c-4.39-1.83-3.42-13.28-3.5-17a5.94,5.94,0,0,0-2.37-4.5s.91,3.78-.58,17.65C801,321.83,812.07,355.52,791.56,366.62Z" transform="translate(-473.65 -177.13)" fill="#20345a" fill-rule="evenodd"/><path d="M794.34,293.51a34,34,0,0,1,2.14-11.35c2.22-5.76,7.51-16.17,6.92-23.51,0,0,.36-.85,1.72-.72s3.39,1.92,3.4,3.41a38,38,0,0,1-4.39,16.29c-3.86,6.92-4.44,13.17-4.28,15.47s-2.71,1.81-3.49,1.9A1.88,1.88,0,0,1,794.34,293.51Z" transform="translate(-473.65 -177.13)" fill="#5d7396" fill-rule="evenodd"/><path d="M777.94,293.51a34,34,0,0,0-2.14-11.35c-2.22-5.76-7.5-16.17-6.92-23.51,0,0-.36-.85-1.72-.72s-3.39,1.92-3.4,3.41a38,38,0,0,0,4.39,16.29c3.87,6.92,4.44,13.17,4.28,15.47s2.71,1.81,3.5,1.9A1.87,1.87,0,0,0,777.94,293.51Z" transform="translate(-473.65 -177.13)" fill="#5d7396" fill-rule="evenodd"/><path d="M786.06,419.12c27.7,0,50.28-9.44,50.28-21s-22.58-21-50.28-21-50.27,9.44-50.27,21S758.37,419.12,786.06,419.12Z" transform="translate(-473.65 -177.13)" fill="#865f3f" fill-rule="evenodd"/><path d="M766.77,387.07c2.37,0,4.3-.9,4.3-2s-1.93-2-4.3-2-4.31.9-4.31,2S764.4,387.07,766.77,387.07Z" transform="translate(-473.65 -177.13)" fill="#d7c8be" fill-rule="evenodd"/><path d="M794.45,384.78c2.37,0,4.31-.9,4.31-2s-1.94-2-4.31-2-4.3.9-4.3,2S792.08,384.78,794.45,384.78Z" transform="translate(-473.65 -177.13)" fill="#a98d77" fill-rule="evenodd"/><ellipse cx="337.58" cy="213.24" rx="4.3" ry="2.01" fill="#a98d77"/><path d="M780.68,392.81c2.37,0,4.31-.9,4.31-2s-1.94-2-4.31-2-4.3.9-4.3,2S778.31,392.81,780.68,392.81Z" transform="translate(-473.65 -177.13)" fill="#a98d77" fill-rule="evenodd"/><path d="M753.86,392.53c2.37,0,4.3-.91,4.3-2s-1.93-2-4.3-2-4.31.9-4.31,2S751.48,392.53,753.86,392.53Z" transform="translate(-473.65 -177.13)" fill="#a98d77" fill-rule="evenodd"/><path d="M780,385.56c3.83,0,7-1.46,7-3.25s-3.12-3.25-7-3.25-7,1.46-7,3.25S776.2,385.56,780,385.56Z" transform="translate(-473.65 -177.13)" fill="#a98d77" fill-rule="evenodd"/><path d="M797.25,392.87c3.83,0,7-1.45,7-3.24s-3.13-3.25-7-3.25-7,1.46-7,3.25S793.42,392.87,797.25,392.87Z" transform="translate(-473.65 -177.13)" fill="#d7c8be" fill-rule="evenodd"/><path d="M801.35,321.84c0,7.53-3.9,16-11.57,18.37a12.7,12.7,0,0,1-7.46,0c-7.67-2.36-11.58-10.84-11.58-18.37a1.82,1.82,0,0,1,1.81-1.81h27A1.81,1.81,0,0,1,801.35,321.84Z" transform="translate(-473.65 -177.13)" fill="#90b0ce" fill-rule="evenodd"/><path d="M675.75,412.67l-2.59-1.44s-1.87-.25-1.59-5.11,1.41-25,5.93-27.52,5.7.47,10.74,1.47a43.82,43.82,0,0,0,16.27-.11c4.86-1,7.85,3.79,7.29,9.83s3,6.44,3,6.44.88.06,1.11,2.89,1.24,12.55-1.39,14.32S675.75,412.67,675.75,412.67Z" transform="translate(-473.65 -177.13)" fill="#3c5178" fill-rule="evenodd"/><path d="M711.44,385a13.65,13.65,0,0,1,.36,4.81c-.57,6,3,6.44,3,6.44s.88.06,1.11,2.89,1.24,12.55-1.39,14.32c-.71.48-3.88.65-8.13.63a13.3,13.3,0,0,0,1.68-.67c6.89-3.48.79-13.9,2.09-19.27A44.57,44.57,0,0,0,711.44,385Z" transform="translate(-473.65 -177.13)" fill="#20345a" fill-rule="evenodd"/><path d="M673.1,411.23a26.57,26.57,0,0,0-.52,11.32s18.5-4.15,42.29.41c0,0,.91-6.48-.38-9.52,0,0-18.1-7.74-41.39-2.21ZM715,423l-.08,0Z" transform="translate(-473.65 -177.13)" fill="#face88" fill-rule="evenodd"/><path d="M685.85,370.39S681.74,373.8,682,379c0,0,.65,4.12-2,4.34s-3-3.72-1.81-8.92,7.71-6.88,7.71-6.88A4.49,4.49,0,0,0,685.85,370.39Z" transform="translate(-473.65 -177.13)" fill="#546a8f" fill-rule="evenodd"/><path d="M706.64,371a32.38,32.38,0,0,1-2,6.08c-1.53,3.62-2.38,4-1.87,5.94s3.28,2.09,4.46.17,3.45-9.5,3.17-11.87-2.73-5-3.78-5a3.89,3.89,0,0,0-1.95.67S707.69,367.52,706.64,371Z" transform="translate(-473.65 -177.13)" fill="#546a8f" fill-rule="evenodd"/><path d="M680.27,388.7c0,5.15,2.67,11.12,7.91,13.1a9,9,0,0,0,2.55.56,8.72,8.72,0,0,0,2.55-.22c5.24-1.25,7.91-6.87,7.91-12A1.35,1.35,0,0,0,700,388.8l-18.45-1.25A1.13,1.13,0,0,0,680.27,388.7Z" transform="translate(-473.65 -177.13)" fill="#90b0ce" fill-rule="evenodd"/><path d="M581.07,265.75l-7.92-.3s-22.31,29.58-1.7,51.41,60.71,13.43,68.86-.9S644,291,636,278.12s-20.05-5.76-20.05-5.76Z" transform="translate(-473.65 -177.13)" fill="#5d1d10" fill-rule="evenodd"/><path d="M605.35,245.42c16.13,0,29.28-11.43,29.28-25.45s-13.15-25.45-29.28-25.45S576.08,206,576.08,220,589.23,245.42,605.35,245.42Z" transform="translate(-473.65 -177.13)" fill="#fdd168" fill-rule="evenodd"/><path d="M606.79,249.76c22.41,0,40.68-8.72,40.68-19.42s-18.27-19.42-40.68-19.42-40.68,8.72-40.68,19.42S584.39,249.76,606.79,249.76Z" transform="translate(-473.65 -177.13)" fill="#e6b94d" fill-rule="evenodd"/><path d="M581.86,225.39c-3.84,5.11-6,11.1-3,18.45,6.74,16.75-17.92,25.71-10.71,43.39s36.07,7,38.4,5.59,24,4.3,24,4.3,15.6-.58,9.08-12.68-11.71-15.65-5.23-39.11c2.83-10.27,2.2-16.09,0-20a88.31,88.31,0,0,0-52.49.06Z" transform="translate(-473.65 -177.13)" fill="#6a291f" fill-rule="evenodd"/><path d="M578.46,226.73c-1.93,4.29-2.71,9.4.4,17.11,5.84,14.52-17.92,25.71-10.71,43.39,4.8,11.77,19.17,11,28.94,8.71C599.37,271.16,596,236,596,236l19.11-7.77.64-6.57q-3.7-.28-7.61-.29h-1.1c-10.18,7.19-15.91,5.51-19.06,2.22A55,55,0,0,0,578.46,226.73Z" transform="translate(-473.65 -177.13)" fill="#5d1d10" fill-rule="evenodd"/><path d="M606.57,292.81a5.11,5.11,0,0,1,2.32-.18h0l16.44-3.13s8.43-2.09,1.4-15-1.54-17.93-1.33-29.27S594.8,238,594.8,238L590,233.42s-9.88,1-8.15,14.17-12.17,25.53-.79,36.43C589.86,292.44,601.64,293,606.57,292.81Z" transform="translate(-473.65 -177.13)" fill="#510f00" fill-rule="evenodd"/><path d="M617.35,296.84,630,273.26s10.2,6.38,10.47,36.46c.2,22.64,1.33,41.59,1.76,52.59-1.56,0-4.36,0-5.53.05-1.28-17.11-4.08-44.36-6.57-52.22C626.61,299,617.35,296.84,617.35,296.84Z" transform="translate(-473.65 -177.13)" fill="#a0d8f7" fill-rule="evenodd"/><path d="M636.7,362.36c-1.28-17.11-4.08-44.36-6.57-52.22a20.5,20.5,0,0,0-7.32-10.53c.68-5.39,1.69-8.71,2.67-8.6,2.44.27,5.55,6.37,7,12.19s3.12,23,4.74,39.84c.77,7.94,1.13,14.19,1.35,19.28Z" transform="translate(-473.65 -177.13)" fill="#70a7c3" fill-rule="evenodd"/><path d="M642.35,362.2c1.47,2,2.94,4.13,2.22,5.36-1,1.77-2.87,4.82-3.27,3.31s-.16-4.46-1.29-4.91c-.88-.34-1.54-.18-1.76.84-.07.29,1.1,1.19,1.16,1.57a1.15,1.15,0,0,1-1.39,1.47C630.75,363.69,639.82,358.77,642.35,362.2Z" transform="translate(-473.65 -177.13)" fill="#f5ac83" fill-rule="evenodd"/><path d="M638,369.84c-5-4.24-2.26-7.89.76-8.63,0,.08,0,.15,0,.23a3.73,3.73,0,0,1,2.15.78S633.33,362.06,638,369.84Z" transform="translate(-473.65 -177.13)" fill="#ee9073" fill-rule="evenodd"/><path d="M599.84,250.68l.18,4.19v9.89c0,1-3.7,2.29-4.73,3.08,3.8,24.14,23.6,10.61,21.22-.37-1-.79-4.65-1.75-4.65-2.71v-9.89l.18-4.19s-3,.54-6.1,1.3C602.84,251.22,599.84,250.68,599.84,250.68Z" transform="translate(-473.65 -177.13)" fill="#ee9073" fill-rule="evenodd"/><path d="M601.24,394.1c-3.43,11.6-3.35,37.45-4.41,51.39-1.64,21.42-4.63,54.14-4.41,55.87s-6.68,3.47-8.07.7a3.42,3.42,0,0,1-.18-1.89c.09-1.48-5.14-128.58-3.38-132.24.91-1.88,15-10.77,25.27-10.42,10.33-.35,25.24,4.21,26.15,6.09,1.76,3.66-5.4,135.21-5.31,136.69a3.33,3.33,0,0,1-.19,1.89c-1.38,2.77-7.22.92-7-.82s-2.77-34.45-4.41-55.87c-1.06-13.94-2.51-39.71-5.15-51.52C607.78,383.42,603.1,387.78,601.24,394.1Z" transform="translate(-473.65 -177.13)" fill="#3c5178" fill-rule="evenodd"/><path d="M593.55,385.53a37,37,0,0,0-4.86,16.59c-1.26,17.14-2.79,84.14-2,90.83s4.9,6.14,6.23.49c-.35,4.48-.54,7.44-.48,7.92.21,1.74-6.68,3.47-8.07.7a3.42,3.42,0,0,1-.18-1.89c.09-1.48-5-134-3.29-137.68.81-1.67,12.66-5,21.7-5h3.48c.59,0,1.19,0,1.8,0l-17.18,1.38a49.54,49.54,0,0,0,2.87,8.44c2,4.4,4.27,10.92,0,18.21Zm33.37,110.41c-7.8-.92-4.2-5.51-5.64-20.9s-6.1-83.14-8.84-86.63c-2.1-2.67-5.54-1.4-7-.67,1.73-.65,3.53.86,4.74,6.23,2.64,11.81,4.09,37.58,5.15,51.52,1.64,21.42,4.63,54.14,4.41,55.87s5.62,3.59,7,.82a7.65,7.65,0,0,0,.19-1.89c0-.81,0-1.71,0-4.35Zm-22.23-107.8Z" transform="translate(-473.65 -177.13)" fill="#20345a" fill-rule="evenodd"/><path d="M583.1,502a4,4,0,0,0-.85,1.24c-.75,1.75-2.17,2.54-2.42,4.46s.33,3.43,3,3.43h4.26c1.88,0,4.68.29,5.64-2.05s0-4.47.33-5.68a1.12,1.12,0,0,0,0-.77,26.36,26.36,0,0,1-.1-5.79c.26-3.9,2.9-33.5,3.06-34.05a4.52,4.52,0,0,0,.51-2c-.08-.86-11.87-1.69-13-.59s0,1.38,0,6.39.39,33.35.37,33.78A6.8,6.8,0,0,1,583.1,502Z" transform="translate(-473.65 -177.13)" fill="#face88" fill-rule="evenodd"/><path d="M583.1,502a4,4,0,0,0-.85,1.24c-.75,1.75-2.17,2.54-2.42,4.46s.33,3.43,3,3.43h.6a1.74,1.74,0,0,0,.41-1.77c-1.16-3.89.57-5,1.92-6.1s4.89-.23,4.89-.23,1.25-.66-1-1.34-3.39-2.13-3.79-5.28.84-30,.89-33.32,3.81-3.3,3.93-3.29c-3.18-.2-6.59-.15-7.18.42-1.15,1.11,0,1.38,0,6.39s.39,33.35.37,33.78A6.8,6.8,0,0,1,583.1,502Z" transform="translate(-473.65 -177.13)" fill="#cba66a" fill-rule="evenodd"/><path d="M579.79,508c-.13,1.74.54,3.06,3,3.06h4.26c1.88,0,4.68.29,5.64-2.05a5.78,5.78,0,0,0,.39-1.55s-1.1,1.51-4.72,1.73S580.41,509.49,579.79,508Z" transform="translate(-473.65 -177.13)" fill="#2a0d09" fill-rule="evenodd"/><path d="M579.79,508c-.13,1.74.54,3.06,3,3.06h2.35a4.53,4.53,0,0,1-1.34-1.77C581.78,509.22,580.15,508.88,579.79,508Z" transform="translate(-473.65 -177.13)" fill="#1f0000" fill-rule="evenodd"/><path d="M606.46,372.17c-9.14-.11-18-.91-21.79-1.81-5-1.2-2.6-8-.67-21.39,1.69-11.75,1.62-25.15,1.42-37-.2-11.25-3-21.36-5.41-26.74-1.82-4.07-1.58-3.29-1.79,9.17-3.35-15-2.65-21.54,15.73-26.74,1.08,1.14,2.4,2.51,3.44,3.57,3,7.74,6.2,9.74,9.07,9.19,2.87.55,6.07-1.45,9.07-9.19,1.05-1.06,2.37-2.43,3.44-3.57,18.38,5.2,18,17.13,14.66,32.1-.2-12.45,1.11-18.6-.71-14.53-2.41,5.38-5.22,15.49-5.41,26.74-.21,11.8-.27,25.2,1.42,37,1.92,13.39,4.34,20.19-.68,21.39C624.49,371.26,615.61,372.06,606.46,372.17Z" transform="translate(-473.65 -177.13)" fill="#a0d8f7" fill-rule="evenodd"/><path d="M602.92,372.09c-7.82-.24-15-.95-18.25-1.73-5-1.2-2.6-8-.67-21.39,1.69-11.75,1.62-25.15,1.42-37a78.94,78.94,0,0,0-2.1-16.53c1.34-2.54,2.83-4.33,4.13-4.48,2.44-.27,5.15,21,2.17,42.41C587.34,349.78,588.85,365.19,602.92,372.09Z" transform="translate(-473.65 -177.13)" fill="#70a7c3" fill-rule="evenodd"/><path d="M614.87,270.64c.54-2.14.48-3.71.8-4.11,1-1.06,2.66.3,3.27,1.18,1.36,22-27.33,21.55-26,0,.62-.88,2.23-2.24,3.28-1.18.28.35.07,1.68.63,3.4C599.91,279.32,611.49,284,614.87,270.64Z" transform="translate(-473.65 -177.13)" fill="#70a7c3" fill-rule="evenodd"/><path d="M629.05,502a3.84,3.84,0,0,1,.85,1.24c.75,1.75,2.17,2.54,2.43,4.46s-.34,3.43-3,3.43H625.1c-1.88,0-4.68.29-5.64-2.05s0-4.47-.33-5.68a1.12,1.12,0,0,1,0-.77,26.36,26.36,0,0,0,.1-5.79c-.26-3.9-2.9-33.5-3.06-34.05a4.52,4.52,0,0,1-.51-2c.08-.86,11.87-1.69,13-.59s0,1.38,0,6.39-.39,33.35-.37,33.78A6.8,6.8,0,0,0,629.05,502Z" transform="translate(-473.65 -177.13)" fill="#face88" fill-rule="evenodd"/><path d="M629.05,502a3.84,3.84,0,0,1,.85,1.24c.75,1.75,2.17,2.54,2.43,4.46s-.34,3.43-3,3.43h-.6a1.74,1.74,0,0,1-.41-1.77c1.16-3.89-.57-5-1.92-6.1s-4.89-.23-4.89-.23-1.25-.66,1-1.34,3.39-2.13,3.79-5.28-.83-30-.89-33.32-3.81-3.3-3.92-3.29c3.18-.2,6.58-.15,7.17.42,1.15,1.11,0,1.38,0,6.39s-.39,33.35-.37,33.78A6.8,6.8,0,0,0,629.05,502Z" transform="translate(-473.65 -177.13)" fill="#cba66a" fill-rule="evenodd"/><path d="M632.36,508c.13,1.74-.54,3.06-3,3.06H625.1c-1.88,0-4.68.29-5.64-2.05a6.18,6.18,0,0,1-.39-1.55s1.1,1.51,4.72,1.73S631.74,509.49,632.36,508Z" transform="translate(-473.65 -177.13)" fill="#2a0d09" fill-rule="evenodd"/><path d="M632.36,508c.13,1.74-.54,3.06-3,3.06H627a4.53,4.53,0,0,0,1.34-1.77C630.37,509.22,632,508.88,632.36,508Z" transform="translate(-473.65 -177.13)" fill="#1f0000" fill-rule="evenodd"/><path d="M606.48,372.75c-9.56-.13-18.76-.93-22.7-1.82-5.34-1.21-2.77-8.06-.72-21.56a185.21,185.21,0,0,0,1.62-27.49c4.21-1.75,3.27-12.73,3.36-16.3s3.69-6.05,7.31-6.05h22.26c3.61,0,7.23,2.47,7.31,6.05s-.85,14.55,3.35,16.3a185.2,185.2,0,0,0,1.63,27.49c2.05,13.5,4.62,20.35-.72,21.56C625.24,371.82,616,372.62,606.48,372.75Z" transform="translate(-473.65 -177.13)" fill="#3c5178" fill-rule="evenodd"/><path d="M595.52,373c-5,.78-9.21,2.43-11.57,1.9-5.34-1.21-2.94-12-.89-25.51a185.21,185.21,0,0,0,1.62-27.49c4.21-1.75,3.27-12.73,3.36-16.3a5.67,5.67,0,0,1,2.27-4.32s-.88,3.62.56,16.92c.88,8.15-4.18,26.77-.19,40.7h0a49.54,49.54,0,0,0,2.87,8.44A29,29,0,0,1,595.52,373Z" transform="translate(-473.65 -177.13)" fill="#20345a" fill-rule="evenodd"/><path d="M598.53,302.53a32.49,32.49,0,0,0-2-10.88c-2.13-5.53-7.2-15.5-6.63-22.54,0,0-.35-.81-1.65-.69s-3.25,1.84-3.26,3.27a36.42,36.42,0,0,0,4.2,15.62c3.71,6.62,4.26,12.62,4.11,14.83s2.6,1.73,3.35,1.81A1.79,1.79,0,0,0,598.53,302.53Z" transform="translate(-473.65 -177.13)" fill="#5d7396" fill-rule="evenodd"/><path d="M614.25,302.53a32.49,32.49,0,0,1,2-10.88c2.13-5.53,7.19-15.5,6.63-22.54,0,0,.35-.81,1.65-.69s3.25,1.84,3.27,3.27a36.64,36.64,0,0,1-4.21,15.62c-3.71,6.62-4.26,12.62-4.11,14.83s-2.6,1.73-3.35,1.81A1.79,1.79,0,0,1,614.25,302.53Z" transform="translate(-473.65 -177.13)" fill="#5d7396" fill-rule="evenodd"/><path d="M591.81,329.68c0,7.22,3.74,15.35,11.09,17.61a12.1,12.1,0,0,0,7.15,0c7.35-2.26,11.1-10.39,11.1-17.61a1.73,1.73,0,0,0-1.74-1.73H593.54A1.73,1.73,0,0,0,591.81,329.68Z" transform="translate(-473.65 -177.13)" fill="#90b0ce" fill-rule="evenodd"/><path d="M586.88,245.22a5.48,5.48,0,1,0-5.47-5.48A5.48,5.48,0,0,0,586.88,245.22Z" transform="translate(-473.65 -177.13)" fill="#e27e67" fill-rule="evenodd"/><path d="M588.22,223.54a17.93,17.93,0,0,0-.09,1.8v17a18.81,18.81,0,0,0,18.75,18.74h0a18.8,18.8,0,0,0,18.74-18.74v-17a18.62,18.62,0,0,0-.15-2.37,90.53,90.53,0,0,0-17.29-1.6A88.64,88.64,0,0,0,588.22,223.54Z" transform="translate(-473.65 -177.13)" fill="#f5ac83" fill-rule="evenodd"/><path d="M588.22,223.54a17.78,17.78,0,0,0-.09,1.8v17a18.81,18.81,0,0,0,18.75,18.74h0c.61,0,1.21,0,1.81-.09-20-3.34-20.94-26.87-12.37-27.87,10.59-1.24,20.18-9.61,20.18-9.61,1.61,3,6.06,5.09,9.12,6.25v-4.46a18.62,18.62,0,0,0-.16-2.37,90.34,90.34,0,0,0-17.28-1.6A88.64,88.64,0,0,0,588.22,223.54Z" transform="translate(-473.65 -177.13)" fill="#ee9073" fill-rule="evenodd"/><path d="M622.44,231.16h-5.19a1,1,0,0,0-1,1h0a1,1,0,0,0,1,1h5.19a1,1,0,0,0,1-1h0A1,1,0,0,0,622.44,231.16Z" transform="translate(-473.65 -177.13)" fill="#6a291f" fill-rule="evenodd"/><path d="M601.5,231.16h-5.18a1,1,0,0,0-1,1h0a1,1,0,0,0,1,1h5.18a1,1,0,0,0,1-1h0A1,1,0,0,0,601.5,231.16Z" transform="translate(-473.65 -177.13)" fill="#6a291f" fill-rule="evenodd"/><path d="M603.42,246.18a6,6,0,0,0,11.92,0h0a1,1,0,0,0-1-1h-9.84a1,1,0,0,0-1,1Z" transform="translate(-473.65 -177.13)" fill="#fff" fill-rule="evenodd"/><path d="M621,248.41a2.71,2.71,0,1,0-2.71-2.71A2.71,2.71,0,0,0,621,248.41Z" transform="translate(-473.65 -177.13)" fill="#e27e67" fill-rule="evenodd"/><path d="M597.72,248.41A2.71,2.71,0,1,0,595,245.7,2.72,2.72,0,0,0,597.72,248.41Z" transform="translate(-473.65 -177.13)" fill="#e27e67" fill-rule="evenodd"/><path d="M585.73,234.39l4-1.68s2.16,4.88-1.62,6.57V237A2.31,2.31,0,0,0,585.73,234.39Z" transform="translate(-473.65 -177.13)" fill="#6a291f" fill-rule="evenodd"/><path d="M611.83,221.43c-4.05,4.32-11.45,9.41-25,12.84l.16-10.44a87.28,87.28,0,0,1,21.14-2.46c1.23,0,2.44,0,3.65.06Zm15.69,2c.51,1.53.85,2.58.85,2.58l-2.75,2.23s-2.84-1.28-5.59-6.11C622.65,222.43,625.15,222.87,627.52,223.4Z" transform="translate(-473.65 -177.13)" fill="#6a291f" fill-rule="evenodd"/><path d="M611.83,221.43c-4.05,4.32-11.45,9.41-25,12.84l.16-10.44.06,0c4.43,2.54,10.79,3.13,19.54-2.43h1.54C609.41,221.37,610.62,221.39,611.83,221.43Z" transform="translate(-473.65 -177.13)" fill="#5d1d10" fill-rule="evenodd"/><path d="M601.77,239.51a.69.69,0,0,0,1.38,0,3.33,3.33,0,0,0-6.65,0,.69.69,0,0,0,1.38,0,1.94,1.94,0,0,1,3.32-1.38A1.91,1.91,0,0,1,601.77,239.51Z" transform="translate(-473.65 -177.13)" fill="#6a291f" fill-rule="evenodd"/><path d="M620.88,239.51a.69.69,0,0,0,1.38,0,3.32,3.32,0,0,0-1-2.35,3.31,3.31,0,0,0-4.7,0,3.32,3.32,0,0,0-1,2.35.69.69,0,1,0,1.38,0,2,2,0,1,1,3.9,0Z" transform="translate(-473.65 -177.13)" fill="#6a291f" fill-rule="evenodd"/><path d="M578.76,346.78s1-.8-.37-1.81c-17.36-13.16-10.3-39.9-3.21-44.21,1.17-.71,3.07-4.44,4.13-3.77.27.16,4.81,4.48,5.08,3.83,1.76-4.3-.84-28.45-.84-28.45-18.84,9.71-31.91,42.86-20.77,62.51A59.22,59.22,0,0,0,575.5,350s.43.52.84,0S577,347.45,578.76,346.78Z" transform="translate(-473.65 -177.13)" fill="#a0d8f7" fill-rule="evenodd"/><path d="M567.61,323.52c-.46-8.64,4.79-30.17,16.78-22.66.7.44,3.06-4.76,3.82-9.26-.63-2-9.51-.36-13.3,3.85-10.47,11.62-7.3,28.07-7.3,28.07Z" transform="translate(-473.65 -177.13)" fill="#70a7c3" fill-rule="evenodd"/><path d="M601.25,344.31c8-6.61,10.55-19.44,2.15-11,3.79-7.93-1.66-11.87-4.1-3.77,1.73-6.92-4.08-12.29-4.88-.51,1.36-17.91-7.72-15.37-4.77-1.47.5,1.32.08,2.09,0,1.67-.86-3.06-3.17-5.22-2.05,2.22-2.15-6.28-7.17-7.24-3.44,2.72-6.43-8-11.16-1.11-2.86,5.68C587.91,345.32,601.25,344.31,601.25,344.31Z" transform="translate(-473.65 -177.13)" fill="#96b71d" fill-rule="evenodd"/><path d="M587.65,332.24a2,2,0,1,1,.25,2.88A2,2,0,0,1,587.65,332.24Z" transform="translate(-473.65 -177.13)" fill="#fdd168" fill-rule="evenodd"/><polygon points="110.49 185.92 127.54 185.92 132.22 163.29 105.81 163.29 110.49 185.92" fill="#d65037" fill-rule="evenodd"/><rect x="103.64" y="159.92" width="30.75" height="5.71" rx="1.57" fill="#ed735a"/><path d="M596.31,327.73a1.6,1.6,0,1,1,.2,2.26A1.6,1.6,0,0,1,596.31,327.73Z" transform="translate(-473.65 -177.13)" fill="#fdd168" fill-rule="evenodd"/><path d="M599.91,332.82a2,2,0,1,1,.25,2.87A2,2,0,0,1,599.91,332.82Z" transform="translate(-473.65 -177.13)" fill="#fdd168" fill-rule="evenodd"/><path d="M578.76,346.78a10.62,10.62,0,0,0,2,.79c.08,0,1.2-3.9,2-3.35s.51,2.14.51,2.14a4.17,4.17,0,0,0,3.27,3.41c2.82.45-.28,11-4.59,6.8-3.66-3.59-4-5.29-5.63-6.53C576.75,349.55,577,347.45,578.76,346.78Z" transform="translate(-473.65 -177.13)" fill="#f5ac83" fill-rule="evenodd"/><path d="M578.76,346.78l1,.47c-.12,2,.27,5.23,3.61,6.29s3.87-1.39,3.91-3.24c1.33,2.17-1.53,10-5.34,6.27-3.66-3.59-4-5.29-5.63-6.53C576.75,349.55,577,347.45,578.76,346.78Z" transform="translate(-473.65 -177.13)" fill="#ee9073" fill-rule="evenodd"/><path d="M836,396.53c9.72-3.65,16.28-15,5.59-9.68,6.16-6.27,2.29-11.76-2.65-4.9,3.89-6,.14-12.95-4.44-2.06,7.1-16.5-2.32-17.05-4-2.95.05,1.41-.6,2-.58,1.57.18-3.18-1.3-6-2.66,1.43,0-6.64-4.44-9.17-4.14,1.46-3.49-9.63-10.19-4.68-4.55,4.44C823,393.15,836,396.53,836,396.53Z" transform="translate(-473.65 -177.13)" fill="#96b71d" fill-rule="evenodd"/><path d="M827.26,380.19a2.39,2.39,0,1,1-.81,3.28A2.4,2.4,0,0,1,827.26,380.19Z" transform="translate(-473.65 -177.13)" fill="#fff" fill-rule="evenodd"/><polygon points="340.02 231.58 356.15 237.12 367.93 217.23 342.95 208.65 340.02 231.58" fill="#d65037" fill-rule="evenodd"/><path d="M817.13,382.4l26.11,9a1.58,1.58,0,0,1,1,2l-.84,2.42a1.57,1.57,0,0,1-2,1l-26.11-9a1.57,1.57,0,0,1-1-2l.84-2.43A1.57,1.57,0,0,1,817.13,382.4Z" transform="translate(-473.65 -177.13)" fill="#ed735a" fill-rule="evenodd"/><path d="M835.43,382.23a1.91,1.91,0,1,1-.66,2.62A1.9,1.9,0,0,1,835.43,382.23Z" transform="translate(-473.65 -177.13)" fill="#fff" fill-rule="evenodd"/><path d="M707.15,505.16c.41,0,6.33,2.76,6.61,4.1s-1.19,1.82-4,1.82-6.4-.11-7-.56.26-5,1.76-5.53A3.52,3.52,0,0,1,707.15,505.16Z" transform="translate(-473.65 -177.13)" fill="#ec6957" fill-rule="evenodd"/><path d="M810.44,501.55a4.17,4.17,0,0,1,.89,1.29c.78,1.83,2.26,2.66,2.52,4.67s-.35,3.57-3.09,3.57h-4.44c-2,0-4.88.3-5.88-2.14s0-4.66-.35-5.92a1.23,1.23,0,0,1,0-.81,26.92,26.92,0,0,0,.1-6c-.27-4.07-3-34.95-3.19-35.52a4.85,4.85,0,0,1-.53-2.06c.08-.9,12.38-1.77,13.58-.62s0,1.44,0,6.67-.41,34.78-.39,35.24A6.91,6.91,0,0,0,810.44,501.55Z" transform="translate(-473.65 -177.13)" fill="#face88" fill-rule="evenodd"/><path d="M810.44,501.55a4.17,4.17,0,0,1,.89,1.29c.78,1.83,2.26,2.66,2.52,4.67s-.35,3.57-3.09,3.57h-.63a1.84,1.84,0,0,1-.42-1.85c1.21-4.06-.6-5.24-2-6.36s-5.09-.24-5.09-.24-1.31-.69,1.07-1.4,3.54-2.22,4-5.51-.87-31.26-.93-34.76-4-3.43-4.09-3.43c3.32-.21,6.87-.15,7.49.44,1.19,1.16,0,1.44,0,6.67s-.41,34.78-.39,35.24A6.91,6.91,0,0,0,810.44,501.55Z" transform="translate(-473.65 -177.13)" fill="#cba66a" fill-rule="evenodd"/><path d="M813.89,507.88c.14,1.82-.56,3.2-3.13,3.2h-4.44c-2,0-4.88.3-5.88-2.14a5.88,5.88,0,0,1-.42-1.62s1.16,1.58,4.93,1.81S813.24,509.42,813.89,507.88Z" transform="translate(-473.65 -177.13)" fill="#2a0d09" fill-rule="evenodd"/><path d="M813.89,507.88c.14,1.82-.56,3.2-3.13,3.2h-2.45a4.77,4.77,0,0,0,1.4-1.85C811.81,509.14,813.51,508.78,813.89,507.88Z" transform="translate(-473.65 -177.13)" fill="#1f0000" fill-rule="evenodd"/><path d="M762.5,501.55a4.17,4.17,0,0,0-.89,1.29c-.78,1.83-2.26,2.66-2.53,4.67s.35,3.57,3.1,3.57h4.44c2,0,4.88.3,5.88-2.14s0-4.66.35-5.92a1.23,1.23,0,0,0-.05-.81,26.92,26.92,0,0,1-.1-6c.26-4.07,3-34.95,3.18-35.52a4.71,4.71,0,0,0,.54-2.06c-.08-.9-12.39-1.77-13.58-.62s0,1.44,0,6.67.41,34.78.39,35.24A6.91,6.91,0,0,1,762.5,501.55Z" transform="translate(-473.65 -177.13)" fill="#face88" fill-rule="evenodd"/><path d="M762.5,501.55a4.17,4.17,0,0,0-.89,1.29c-.78,1.83-2.26,2.66-2.53,4.67s.35,3.57,3.1,3.57h.62a1.82,1.82,0,0,0,.43-1.85c-1.21-4.06.6-5.24,2-6.36s5.1-.24,5.1-.24,1.31-.69-1.07-1.4-3.54-2.22-4-5.51.87-31.26.93-34.76,4-3.43,4.09-3.43c-3.32-.21-6.87-.15-7.49.44-1.19,1.16,0,1.44,0,6.67s.41,34.78.39,35.24A6.91,6.91,0,0,1,762.5,501.55Z" transform="translate(-473.65 -177.13)" fill="#cba66a" fill-rule="evenodd"/><path d="M759.05,507.88c-.14,1.82.56,3.2,3.13,3.2h4.44c2,0,4.88.3,5.88-2.14a5.85,5.85,0,0,0,.41-1.62s-1.15,1.58-4.92,1.81S759.7,509.42,759.05,507.88Z" transform="translate(-473.65 -177.13)" fill="#2a0d09" fill-rule="evenodd"/><path d="M759.05,507.88c-.14,1.82.56,3.2,3.13,3.2h2.45a4.77,4.77,0,0,1-1.4-1.85C761.13,509.14,759.43,508.78,759.05,507.88Z" transform="translate(-473.65 -177.13)" fill="#1f0000" fill-rule="evenodd"/><path d="M756.17,449.37c-.6-2.08.19-4.4,1.76-5.19s3.33.25,3.93,2.32l10.66,37h3.41c1.68,0,3,1.8,3,4s-1.36,4-3,4h-5.51a3.21,3.21,0,0,1-2.84-2.59Z" transform="translate(-473.65 -177.13)" fill="#4f3f3d" fill-rule="evenodd"/><path d="M810.28,446.5c.59-2.07,2.35-3.11,3.92-2.32s2.36,3.11,1.76,5.19l-11.41,39.56a3.21,3.21,0,0,1-2.84,2.59H796.2c-1.68,0-3-1.8-3-4s1.36-4,3-4h3.41Z" transform="translate(-473.65 -177.13)" fill="#4f3a38" fill-rule="evenodd"/><path d="M756.17,449.37a4.77,4.77,0,0,1,1.17-4.79,25.76,25.76,0,0,1,3.08-.21,3.87,3.87,0,0,1,1.44,2.13l10.66,37h3.41c1.68,0,3,1.8,3,4s-1.36,4-3,4h-5.51A2.87,2.87,0,0,1,768,490c4.79-7.76-1.78-22.05-4.73-29.68-1.3-3.37-3.41-4.87-5.55-5.45Z" transform="translate(-473.65 -177.13)" fill="#3f2b28" fill-rule="evenodd"/><rect x="309.46" y="274.91" width="5.9" height="23.17" fill="#4f3a38"/><rect x="302.86" y="293" width="19.1" height="40.82" rx="6.73" fill="#2a0d09"/><path d="M788.39,470.13h.49a6.75,6.75,0,0,1,6.73,6.73v27.35a6.75,6.75,0,0,1-6.73,6.74h-5.63a6.76,6.76,0,0,1-6.65-5.7c19.95-.94,16-26.76,14.93-30.95A7,7,0,0,0,788.39,470.13Z" transform="translate(-473.65 -177.13)" fill="#1f0000" fill-rule="evenodd"/><path d="M732.84,399.53H839.29c7.42,0,12.1,4.73,10.39,10.5-19.33,65.39-107.9,65.39-127.23,0C720.74,404.26,725.42,399.53,732.84,399.53Z" transform="translate(-473.65 -177.13)" fill="#ed735a" fill-rule="evenodd"/><path d="M732.84,399.53H839.29c7.42,0,12.1,4.73,10.39,10.5l-.38,1.29H722.83l-.38-1.29C720.74,404.26,725.42,399.53,732.84,399.53Z" transform="translate(-473.65 -177.13)" fill="#d65037" fill-rule="evenodd"/><path d="M720.93,395.65H851.2a6.59,6.59,0,0,1,6.57,6.57h0a6.59,6.59,0,0,1-6.57,6.56H720.93a6.59,6.59,0,0,1-6.57-6.56h0A6.59,6.59,0,0,1,720.93,395.65Z" transform="translate(-473.65 -177.13)" fill="#ed735a" fill-rule="evenodd"/><path d="M703.64,421.36c3.56.34,7.33.85,11.23,1.6,0,0,.91-6.48-.39-9.52a40.58,40.58,0,0,0-4.54-1.52s2.49,7.26-6.3,9.44ZM715,423l-.08,0Z" transform="translate(-473.65 -177.13)" fill="#cba66a" fill-rule="evenodd"/><path d="M809.79,424.58a68.9,68.9,0,0,1-3.8,6.1,64.35,64.35,0,0,1-30.06,23.46c-1.26.48-2.54.92-3.83,1.32s-2.71.79-4.08,1.12c1.29.37,2.6.69,3.91,1l.81.17c1,.19,1.9.36,2.86.52l.43.06a67.52,67.52,0,0,0,7.09.7c2,.08,3.93.08,5.89,0a66.48,66.48,0,0,0,17.6-3.19l1.08-.36c.65-.23,1.3-.46,1.95-.71q2.76-1,5.45-2.37c15.19-7.46,27.95-21.15,34.2-41.06H815.5c-.46,1.45-1,2.88-1.51,4.26A72.93,72.93,0,0,1,809.79,424.58Z" transform="translate(-473.65 -177.13)" fill="#d65037" fill-rule="evenodd"/></svg>