<svg xmlns="http://www.w3.org/2000/svg" viewBox="0 0 420.15 329.93"><title>Asset 1</title><g id="Layer_2" data-name="Layer 2"><g id="OBJECTS"><path d="M332.43,310.43h82.05a5.69,5.69,0,0,0,5.67-5.68h0a5.69,5.69,0,0,0-5.67-5.67H389.71a3.18,3.18,0,0,1-3.17-3.16h0a3.18,3.18,0,0,1,3.17-3.17h10.45a11.21,11.21,0,0,0,11.18-11.18h0a11.22,11.22,0,0,0-11.18-11.19H303.77a11.22,11.22,0,0,0-11.18,11.19h0a11.21,11.21,0,0,0,11.18,11.18h26.16a3.17,3.17,0,0,0-3.17,3.17h0a3.17,3.17,0,0,0,3.17,3.16h2.5a5.69,5.69,0,0,0-5.67,5.67h0A5.69,5.69,0,0,0,332.43,310.43Z" fill="#8ba64f" fill-rule="evenodd"/><path d="M87.73,310.43H5.67A5.69,5.69,0,0,1,0,304.75H0a5.69,5.69,0,0,1,5.67-5.67H30.44a3.17,3.17,0,0,0,3.17-3.16h0a3.17,3.17,0,0,0-3.17-3.17H20A11.21,11.21,0,0,1,8.82,281.57h0A11.22,11.22,0,0,1,20,270.38h96.38a11.22,11.22,0,0,1,11.18,11.19h0a11.21,11.21,0,0,1-11.18,11.18H90.23a3.18,3.18,0,0,1,3.17,3.17h0a3.18,3.18,0,0,1-3.17,3.16h-2.5a5.69,5.69,0,0,1,5.67,5.67h0A5.69,5.69,0,0,1,87.73,310.43Z" fill="#8ba64f" fill-rule="evenodd"/><path d="M51.83,291.63H62.77a6,6,0,0,0,5.92-5.92h0a6,6,0,0,0-5.92-5.93h-2a4.71,4.71,0,0,1-4.7-4.7h0a4.72,4.72,0,0,1,4.7-4.7H360.87a4.71,4.71,0,0,1,4.7,4.7h0a4.71,4.71,0,0,1-4.7,4.7H336.23a6,6,0,0,0-5.92,5.93h0a6,6,0,0,0,5.92,5.92h5.91a9.43,9.43,0,0,1,9.4,9.4h0a9.43,9.43,0,0,1-9.4,9.4H51.83a9.43,9.43,0,0,1-9.4-9.4h0a9.43,9.43,0,0,1,9.4-9.4Zm322.31-9h3.29a4.71,4.71,0,0,1,4.7,4.7h0a4.71,4.71,0,0,1-4.7,4.7h-3.29a4.71,4.71,0,0,1-4.7-4.7h0A4.72,4.72,0,0,1,374.14,282.64Z" fill="#f3b490" fill-rule="evenodd"/><path d="M97.43,318h6.93a3.76,3.76,0,0,0,3.75-3.75h0a3.76,3.76,0,0,0-3.75-3.75h-1.24a3,3,0,0,1-3-3h0a3,3,0,0,1,3-3H293.28a3,3,0,0,1,3,3h0a3,3,0,0,1-3,3H277.67a3.76,3.76,0,0,0-3.76,3.75h0a3.77,3.77,0,0,0,3.76,3.75h3.74a6,6,0,0,1,5.95,6h0a6,6,0,0,1-5.95,6h-184a6,6,0,0,1-6-6h0a6,6,0,0,1,6-6Zm204.26-5.69h2.08a3,3,0,0,1,3,3h0a3,3,0,0,1-3,3h-2.08a3,3,0,0,1-3-3h0A3,3,0,0,1,301.69,312.32Z" fill="#f3b490" fill-rule="evenodd"/><path d="M48,273.24c4.38-5.57,5-12.32-1-6.33,3.17-6.64-1.39-9.94-3.43-3.16,1.45-5.79-3.42-10.28-4.08-.42,1.14-15-6.47-12.87-4-1.24.42,1.11.07,1.75,0,1.4-.72-2.56-2.65-4.37-1.72,1.86-1.8-5.26-6-6.06-2.88,2.28-5.38-6.68-9.34-.93-2.4,4.75a10.67,10.67,0,0,0,1.22.86Z" fill="#8ba64f" fill-rule="evenodd"/><path d="M392.09,275.45c4.37-5.58,5-12.32-1-6.34,3.17-6.63-1.38-9.93-3.43-3.16,1.45-5.78-3.41-10.28-4.08-.42,1.14-15-6.47-12.86-4-1.23.43,1.1.07,1.75,0,1.4-.72-2.57-2.65-4.38-1.72,1.85-1.8-5.26-6-6.05-2.88,2.29-5.37-6.68-9.34-.94-2.39,4.75a13.18,13.18,0,0,0,1.21.86Z" fill="#8ba64f" fill-rule="evenodd"/><path d="M66.2,298.79c1.7,0,3.08-.65,3.08-1.43s-1.38-1.44-3.08-1.44-3.07.64-3.07,1.44S64.51,298.79,66.2,298.79Z" fill="#b46f39" fill-rule="evenodd"/><path d="M86,297.15c1.69,0,3.07-.64,3.07-1.43s-1.38-1.44-3.07-1.44-3.08.65-3.08,1.44S84.28,297.15,86,297.15Z" fill="#b46f39" fill-rule="evenodd"/><path d="M98,302.58c1.69,0,3.07-.64,3.07-1.44s-1.38-1.43-3.07-1.43-3.07.65-3.07,1.43S96.27,302.58,98,302.58Z" fill="#b46f39" fill-rule="evenodd"/><path d="M76.14,302.89c1.69,0,3.07-.65,3.07-1.44S77.83,300,76.14,300s-3.07.64-3.07,1.43S74.45,302.89,76.14,302.89Z" fill="#b46f39" fill-rule="evenodd"/><path d="M57,302.68c1.7,0,3.08-.64,3.08-1.43s-1.38-1.44-3.08-1.44-3.07.65-3.07,1.44S55.29,302.68,57,302.68Z" fill="#b46f39" fill-rule="evenodd"/><path d="M75.68,297.71c2.74,0,5-1,5-2.32s-2.23-2.32-5-2.32-5,1-5,2.32S72.94,297.71,75.68,297.71Z" fill="#b46f39" fill-rule="evenodd"/><path d="M88,302.93c2.74,0,5-1,5-2.32s-2.23-2.32-5-2.32-5,1-5,2.32S85.24,302.93,88,302.93Z" fill="#b46f39" fill-rule="evenodd"/><path d="M310.58,300.72c1.69,0,3.08-.65,3.08-1.44s-1.39-1.43-3.08-1.43-3.07.64-3.07,1.43S308.89,300.72,310.58,300.72Z" fill="#b46f39" fill-rule="evenodd"/><path d="M330.35,299.08c1.7,0,3.08-.65,3.08-1.44s-1.38-1.43-3.08-1.43-3.07.65-3.07,1.43S328.66,299.08,330.35,299.08Z" fill="#b46f39" fill-rule="evenodd"/><path d="M342.34,304.51c1.69,0,3.07-.65,3.07-1.44s-1.38-1.43-3.07-1.43-3.07.64-3.07,1.43S340.65,304.51,342.34,304.51Z" fill="#b46f39" fill-rule="evenodd"/><path d="M320.52,304.81c1.69,0,3.07-.64,3.07-1.43s-1.38-1.43-3.07-1.43-3.08.64-3.08,1.43S318.83,304.81,320.52,304.81Z" fill="#b46f39" fill-rule="evenodd"/><path d="M301.36,304.61c1.7,0,3.08-.64,3.08-1.43s-1.38-1.44-3.08-1.44-3.07.65-3.07,1.44S299.67,304.61,301.36,304.61Z" fill="#b46f39" fill-rule="evenodd"/><path d="M320.06,299.64c2.73,0,5-1.05,5-2.32s-2.24-2.32-5-2.32-5,1-5,2.32S317.32,299.64,320.06,299.64Z" fill="#b46f39" fill-rule="evenodd"/><path d="M332.35,304.86c2.74,0,5-1,5-2.32s-2.23-2.32-5-2.32-5,1-5,2.32S329.61,304.86,332.35,304.86Z" fill="#b46f39" fill-rule="evenodd"/><path d="M210.77,113.53c-12.79-4.7-26.48.51-30.56,11.63s3,23.94,15.77,28.64,26.47-.5,30.55-11.62S223.56,118.23,210.77,113.53Z" fill="#fdd168" fill-rule="evenodd"/><path d="M206.69,122.46c-19.1-7-37.3-5.31-40.65,3.81s9.42,22.2,28.52,29.21,37.3,5.32,40.65-3.8S225.79,129.48,206.69,122.46Z" fill="#e6b94d" fill-rule="evenodd"/><path d="M190.59,291.17c-.36,0-5.62,2.45-5.86,3.64s1.05,1.61,3.52,1.61,5.68-.1,6.26-.49-.23-4.49-1.57-4.92A3.13,3.13,0,0,0,190.59,291.17Z" fill="#ec6957" fill-rule="evenodd"/><path d="M179.07,212.8l-2.48,5s.73,7.65,2.73,19.28,10.9,52.86,11.23,54.05a1.41,1.41,0,0,0,2.11.82c.46-.38-1.68-57.45-1.88-60.76s7.28-2.39,8.68,1,5.35,58.84,5.58,59.55,1.83.64,2.12.07,8.67-63.59,6.79-74.1S179.07,212.8,179.07,212.8Z" fill="#3c5178" fill-rule="evenodd"/><path d="M190.65,291.42a1.4,1.4,0,0,0,2,.57c.46-.38-1.68-57.45-1.88-60.76-.12-2.11,2.86-2.5,5.41-1.63h0s-5-1.93-7.71.28,2.3,51.7,2.61,57C191.23,289.17,191.11,290.58,190.65,291.42Z" fill="#20345a" fill-rule="evenodd"/><path d="M177.94,215.1l-1.35,2.74s.17,1.73.56,4.81a16.34,16.34,0,0,1,6.11-3.41c8.93-2.92,21.67-1,25.08,4.52s-.34,55.41-1.3,62c-.41,2.79-1.22,4.36-2.09,5.23.05.49.08.78.09.83.24.71,1.83.64,2.12.07s8.67-63.59,6.79-74.1c-.72-4-6-5.68-12.21-6.22C194.94,213,184.84,214.3,177.94,215.1Z" fill="#20345a" fill-rule="evenodd"/><path d="M223.77,141.32c2,26.32-26.45,19.53-26.48,13.08,0-6.69-3.53-2.7-4-4.08-4.44-12.57-7.25,6.39-9.21-8,0-.09-2.89-2.61-2.94-3-.18-1.46-.77-4.47-.64-4.75,2.48-5.38,6.36-3.92,6.36-3.92l29.94,5.94A40.29,40.29,0,0,1,223.77,141.32Z" fill="#510f00" fill-rule="evenodd"/><path d="M173.19,152.63s-14.51-19.42-18-24.69-3.22-6.73-3.68-8.48-5.23-1.25-6.21.52.58,4.9,2.54,6.13,2.66-2.41,8.14,9.43,13.48,25.11,13.48,25.11Z" fill="#f5ac83" fill-rule="evenodd"/><path d="M173.19,152.63l-1.73-2.33c-1.18,2.24-3.51,2.64-4.33,1.27-1.1-1.84-11.94-20-13.11-22.17s-4.65-6.19-5.88-7.78c-.46-.61-.41-1.84-.17-3.13A3.88,3.88,0,0,0,145.3,120c-1,1.78.58,4.9,2.54,6.13s2.66-2.41,8.14,9.43,13.48,25.11,13.48,25.11Z" fill="#ee9073" fill-rule="evenodd"/><path d="M218.52,159.76s15.78-18.4,19.62-23.42,3.66-6.51,4.23-8.22,5.31-.9,6.17.94-.91,4.85-2.95,5.94-2.49-2.58-8.76,8.87S221.71,168,221.71,168Z" fill="#f5ac83" fill-rule="evenodd"/><path d="M218.52,159.76s1.25-1.45,3.12-3.65c1.46,1.62,4,2.26,5,.79,1.35-2,12.25-17.52,13.84-20.34s3.92-1.95,5.88-5.2a4.46,4.46,0,0,0,.53-3.67,3.18,3.18,0,0,1,1.69,1.37c.86,1.84-.91,4.85-2.95,5.94s-2.49-2.58-8.76,8.87S221.71,168,221.71,168Z" fill="#ee9073" fill-rule="evenodd"/><path d="M189.33,169.82l-.55-1.41s-12.44-12.95-14.54-16.29-2.82-1.59-3.31-.25S162.66,167.06,162,170s6.52,3.74,11.17,13.17,3.31,18.86,3.19,21.56.73,3.06.73,3.06a19.55,19.55,0,0,0-.8,5h38.11a9.11,9.11,0,0,0-.62-3.05s1.59-3.43.86-6.36-2.88-14.09,5.94-20.58,9.8-8.21,8.82-10.05-7.41-12.92-8-17a1,1,0,0,0-1.29-.06c-.79.49-10,11.66-14.89,12.9S189.33,169.82,189.33,169.82Z" fill="#ec6957" fill-rule="evenodd"/><path d="M175.23,153.49c-.43-.55-.77-1-1-1.37-2.11-3.35-2.82-1.59-3.31-.25S162.66,167.06,162,170s6.52,3.74,11.17,13.17a36.16,36.16,0,0,1,3.46,16.56h0s1.35-17.64-4.29-24.5-5.45-13.59-2.26-18.31a7.36,7.36,0,0,1,5.16-3.43Zm39.16,59.31a9.11,9.11,0,0,0-.62-3.05s1.59-3.43.86-6.36-2.88-14.09,5.94-20.58,9.8-8.21,8.82-10.05-7.41-12.92-8-17a1,1,0,0,0-1.29-.06,27.79,27.79,0,0,0-2.07,2.15c1,.57,2,1.82,2.83,4.3,2.39,7-1.1,12.69-6.19,17.27s-7.53,14.94-6.43,21.07-3.7,6.76-3.7,6.76a8.28,8.28,0,0,1,1.68,5.51Z" fill="#d84743" fill-rule="evenodd"/><path d="M175.87,154.27a21.34,21.34,0,0,1-1.63-2.15c-2.11-3.35-2.82-1.59-3.31-.25S162.66,167.06,162,170c-.37,1.59,1.56,2.55,4.14,4.58a146.7,146.7,0,0,1,9.74-20.31Zm49.82,24.58c4.06-3.37,4.44-4.7,3.7-6.09-1-1.83-7.41-12.92-8-17a1,1,0,0,0-1.29-.06c-.21.13-1,1-2.13,2.21C218.45,164,223.41,174.34,225.69,178.85Z" fill="#face88" fill-rule="evenodd"/><path d="M175.23,153.49a15.93,15.93,0,0,1-1-1.37c-2.11-3.35-2.82-1.59-3.31-.25S162.66,167.06,162,170c-.37,1.59,1.56,2.55,4.14,4.58.81-2.08,1.64-4.07,2.46-5.93a13.11,13.11,0,0,1,1.48-11.73,7.36,7.36,0,0,1,5.16-3.43Zm46.12,15.95a13,13,0,0,0-.45-7.25c-.85-2.48-1.87-3.73-2.83-4.3a27.79,27.79,0,0,1,2.07-2.15,1,1,0,0,1,1.29.06c.55,4,7,15.13,8,17,.74,1.39.36,2.72-3.7,6.09C224.6,176.69,222.88,173.17,221.35,169.44Z" fill="#cba66a" fill-rule="evenodd"/><path d="M192.21,167.92s-2.76.06-3.43.49c-1.18.75-.4,4.24.43,5.27,1.47,1.84,5.57,3,10.53,2.33s7.35-3.07,7.29-5S206.54,167.49,192.21,167.92Z" fill="#face88" fill-rule="evenodd"/><path d="M203.58,165s.09,4.53-.73,6.74-10.32,1.89-11-.11.16-10.1.32-10.94S203.58,165,203.58,165Z" fill="#ee9073" fill-rule="evenodd"/><path d="M217.54,145.23a4.88,4.88,0,1,1-5.39,4.31A4.88,4.88,0,0,1,217.54,145.23Z" fill="#e27e67" fill-rule="evenodd"/><path d="M217.33,137l0,.24-1.67,15.1a16.76,16.76,0,0,1-18.46,14.76h0a16.75,16.75,0,0,1-14.76-18.45l1.67-15.1a16.5,16.5,0,0,1,1.74-5.76A72.55,72.55,0,0,1,201,130.27,70.53,70.53,0,0,1,217.33,137Z" fill="#f5ac83" fill-rule="evenodd"/><path d="M217.33,137l0,.24-1.67,15.1a16.76,16.76,0,0,1-18.46,14.76h0c-.54-.06-1.07-.14-1.6-.25,18.06-1,21.21-21.76,13.71-23.49-9.26-2.14-16.94-10.5-16.94-10.5-1.72,2.47-5.87,3.91-8.7,4.64l.44-3.95a16.7,16.7,0,0,1,1.73-5.76A72.53,72.53,0,0,1,201,130.27,70.53,70.53,0,0,1,217.33,137Z" fill="#ee9073" fill-rule="evenodd"/><path d="M186.33,139l4.59.51a.9.9,0,0,1,.79,1h0a.9.9,0,0,1-1,.78l-4.6-.51a.88.88,0,0,1-.78-1h0A.89.89,0,0,1,186.33,139Z" fill="#6a291f" fill-rule="evenodd"/><path d="M204.88,141l4.6.51a.89.89,0,0,1,.78,1h0a.89.89,0,0,1-1,.79l-4.59-.51a.89.89,0,0,1-.79-1h0A.9.9,0,0,1,204.88,141Z" fill="#6a291f" fill-rule="evenodd"/><path d="M201.71,154.15A5.32,5.32,0,1,1,191.14,153h0a.92.92,0,0,1,1-.81l8.73,1a.91.91,0,0,1,.81,1Z" fill="#fff" fill-rule="evenodd"/><path d="M186.4,149.59a2.42,2.42,0,1,1-2.67,2.14A2.42,2.42,0,0,1,186.4,149.59Z" fill="#e27e67" fill-rule="evenodd"/><path d="M207.08,151.88a2.42,2.42,0,1,1-2.67,2.14A2.42,2.42,0,0,1,207.08,151.88Z" fill="#e27e67" fill-rule="evenodd"/><path d="M218.54,145.45l-3.4-1.89s-2.39,4.11.79,6l.23-2.07A2.06,2.06,0,0,1,218.54,145.45Z" fill="#510f00" fill-rule="evenodd"/><path d="M203.82,148.4a.61.61,0,1,1-1.22-.13,3,3,0,0,1,3.27-2.62,3,3,0,0,1,2.62,3.27.62.62,0,0,1-.67.55.63.63,0,0,1-.55-.69,1.77,1.77,0,0,0-.36-1.27,1.72,1.72,0,0,0-1.17-.64,1.7,1.7,0,0,0-1.28.37A1.76,1.76,0,0,0,203.82,148.4Z" fill="#6a291f" fill-rule="evenodd"/><path d="M186.89,146.52a.62.62,0,0,1-.68.55.62.62,0,0,1-.54-.68,3,3,0,1,1,5.89.65.6.6,0,0,1-.67.54.61.61,0,0,1-.55-.67,1.74,1.74,0,0,0-.37-1.28,1.72,1.72,0,0,0-1.16-.64,1.74,1.74,0,0,0-1.28.37A1.72,1.72,0,0,0,186.89,146.52Z" fill="#6a291f" fill-rule="evenodd"/><path d="M178.05,127.86c-2.69,5-1.9,10.4,5,14.16l.1,0,0-.15.09-.85c-2.33-1.64-2.08-2.92.11-3.78,5-2,6.43-4.38,8.19-8.19a21.45,21.45,0,0,0,9.41,8.79c6.9,3.49,13,3.86,14.17,8.33l1.94-1,3.93-5.95a67,67,0,0,0-20-9A65.86,65.86,0,0,0,178.05,127.86Z" fill="#6a291f" fill-rule="evenodd"/><path d="M215.52,136c-13.1,2.51-24-6.87-24-6.87a21.45,21.45,0,0,0,9.41,8.79c6.9,3.49,13,3.86,14.17,8.33l1.94-1,3.93-5.95A54.62,54.62,0,0,0,215.52,136Z" fill="#510f00" fill-rule="evenodd"/><ellipse cx="277.33" cy="22.59" rx="25.99" ry="22.59" fill="#fdd168"/><path d="M275.7,48.11c19.89,0,36.11-6.75,36.11-15s-16.22-15-36.11-15-36.11,6.74-36.11,15S255.81,48.11,275.7,48.11Z" fill="#e6b94d" fill-rule="evenodd"/><path d="M267.22,98,255.51,76.2s-9.45,5.9-9.7,33.76c-.18,21-1.23,38.52-1.62,48.7,1.44,0,4,0,5.11.05,1.19-15.85,3.78-41.09,6.09-48.36C258.65,100.07,267.22,98,267.22,98Z" fill="#ec6957" fill-rule="evenodd"/><path d="M249.3,158.71c1.19-15.85,3.78-41.09,6.09-48.36a18.89,18.89,0,0,1,6.78-9.75c-.63-5-1.57-8.06-2.47-8-2.26.25-5.15,5.89-6.53,11.29s-2.88,21.33-4.39,36.89c-.71,7.34-1,13.14-1.24,17.85Z" fill="#d84743" fill-rule="evenodd"/><path d="M238.76,187.49a2.24,2.24,0,0,0,4.38.94l4.64-21.25a2.24,2.24,0,1,0-4.39-.93Z" fill="#9b9b9b" fill-rule="evenodd"/><path d="M246.49,162.5h0a1.92,1.92,0,0,0-2.26,1.47l-1.34,6.29a1.91,1.91,0,0,0,1.46,2.26h0a1.9,1.9,0,0,0,2.25-1.46l1.35-6.3A1.91,1.91,0,0,0,246.49,162.5Z" fill="#575656" fill-rule="evenodd"/><path d="M242.67,158.43c-1.79,2.43-3.58,5-2.71,6.53,1.24,2.15,3.5,5.86,4,4s.2-5.43,1.57-6c1.07-.42,1.89-.23,2.16,1,.07.35-1.36,1.45-1.43,1.92a1.39,1.39,0,0,0,1.69,1.78C256.8,160.24,245.74,154.25,242.67,158.43Z" fill="#f8c1a8" fill-rule="evenodd"/><path d="M247.93,167.73c6.11-5.16,2.76-9.61-.92-10.51l0,.28a4.48,4.48,0,0,0-2.61,1S253.65,158.25,247.93,167.73Z" fill="#f3ab8f" fill-rule="evenodd"/><path d="M283.43,55.29l-.16,3.88v9.16c0,.89,3.42,2.12,4.38,2.85C284.13,93.53,265.8,81,268,70.83c1-.73,4.3-1.61,4.3-2.5V59.17l-.16-3.88s2.78.5,5.65,1.21C280.65,55.79,283.43,55.29,283.43,55.29Z" fill="#ee9073" fill-rule="evenodd"/><path d="M287.39,98,299.1,76.2s9.44,5.9,9.7,33.76c.18,21,1.23,38.52,1.62,48.7-1.44,0-4,0-5.11.05-1.19-15.85-3.78-41.09-6.09-48.36C296,100.07,287.39,98,287.39,98Z" fill="#ec6957" fill-rule="evenodd"/><path d="M305.31,158.71c-1.19-15.85-3.78-41.09-6.09-48.36a18.89,18.89,0,0,0-6.78-9.75c.63-5,1.57-8.06,2.47-8,2.26.25,5.15,5.89,6.52,11.29s2.89,21.33,4.4,36.89c.71,7.34,1,13.14,1.24,17.85Z" fill="#d84743" fill-rule="evenodd"/><path d="M313.28,175.94a2.24,2.24,0,1,1-4.39.93l-2.07-9.69a2.24,2.24,0,1,1,4.39-.93Z" fill="#9b9b9b" fill-rule="evenodd"/><path d="M308.12,162.5h0a1.92,1.92,0,0,1,2.26,1.47l1.34,6.29a1.91,1.91,0,0,1-1.46,2.26h0a1.91,1.91,0,0,1-2.26-1.46l-1.34-6.3A1.91,1.91,0,0,1,308.12,162.5Z" fill="#575656" fill-rule="evenodd"/><path d="M311.94,158.43c1.79,2.43,3.58,5,2.71,6.53-1.24,2.15-3.51,5.86-4,4s-.2-5.43-1.57-6c-1.07-.42-1.89-.23-2.16,1-.07.35,1.35,1.45,1.43,1.92a1.4,1.4,0,0,1-1.7,1.78C297.81,160.24,308.87,154.25,311.94,158.43Z" fill="#f8c1a8" fill-rule="evenodd"/><path d="M306.67,167.73c-6.1-5.16-2.75-9.61.93-10.51a2.64,2.64,0,0,0,0,.28,4.48,4.48,0,0,1,2.61,1S301,158.25,306.67,167.73Z" fill="#f3ab8f" fill-rule="evenodd"/><path d="M282.14,188.09c3.18,10.75,3.1,34.69,4.09,47.6,1.51,19.83,4.28,50.13,4.08,51.73s6.18,3.21,7.47.65a3.17,3.17,0,0,0,.17-1.75c-.09-1.38,1.28-126-.35-129.41-.84-1.74-10.37-3-19.93-2.69-9.56-.33-19.08.95-19.92,2.69-1.64,3.39.71,128.15.63,129.52a3.17,3.17,0,0,0,.17,1.75c1.28,2.57,6.69.85,6.49-.76s2.56-31.9,4.08-51.73c1-12.91,2.32-36.78,4.77-47.71C276.08,178.21,280.41,182.24,282.14,188.09Z" fill="#3c5178" fill-rule="evenodd"/><path d="M277.67,170.66c9.2,3.18,15.15,12,16.1,24.87,1.16,15.86,2.58,77.91,1.86,84.11s-4.53,5.67-5.77.45c.33,4.14.51,6.88.45,7.33-.2,1.61,6.18,3.21,7.47.65a3.17,3.17,0,0,0,.17-1.75c-.09-1.38,1.28-126-.35-129.41-.75-1.54-8.33-2.72-16.7-2.74h-3.23c-9.56-.33-19.08.95-19.92,2.69-.39.8-.61,8.26-.72,19.24,3.25-7.37,20.64-5.49,20.64-5.49ZM258.36,282.4c7.23-.85,3.89-5.1,5.22-19.35s5.65-77,8.19-80.22c1.94-2.47,5.13-1.3,6.51-.62-1.6-.6-3.27.79-4.39,5.77-2.45,10.93-3.78,34.8-4.77,47.71-1.52,19.83-4.28,50.13-4.08,51.73s-5.21,3.33-6.49.76a7.53,7.53,0,0,1-.17-1.75c0-.75,0-1.58,0-4Zm20.58-99.83h0Z" fill="#20345a" fill-rule="evenodd"/><path d="M277.3,167.79c8.47-.1,16.7-.84,20.18-1.68,4.64-1.11,2.41-7.4.63-19.81-1.57-10.87-1.51-23.28-1.32-34.21a68.22,68.22,0,0,1,5-24.76c1.69-3.77.47,1.92.66,13.46,3.11-13.87,3.45-24.91-13.57-29.73-1,1-2.22,2.33-3.19,3.31-2.78,7.16-5.74,9-8.4,8.5-2.65.51-5.61-1.34-8.39-8.5-1-1-2.19-2.26-3.19-3.31-17,4.82-16.69,15.86-13.58,29.73.19-11.54-1-17.23.67-13.46a68.26,68.26,0,0,1,5,24.76c.2,10.93.25,23.34-1.31,34.21-1.78,12.41-4,18.7.63,19.81C260.61,167,268.84,167.69,277.3,167.79Z" fill="#ec6957" fill-rule="evenodd"/><path d="M280.58,167.72c7.25-.23,13.87-.88,16.9-1.61,4.64-1.11,2.41-7.4.63-19.81-1.57-10.87-1.51-23.28-1.32-34.21a73.41,73.41,0,0,1,1.94-15.31c-1.23-2.34-2.61-4-3.82-4.14-2.26-.25-4.77,19.44-2,39.27C295,147.06,293.62,161.33,280.58,167.72Z" fill="#d84743" fill-rule="evenodd"/><path d="M269.52,73.77c-.5-2-.44-3.43-.74-3.8-1-1-2.46.27-3,1.09-1.26,20.38,25.31,20,24.07,0-.57-.82-2.06-2.07-3-1.09-.26.32-.06,1.55-.59,3.15C283.37,81.81,272.65,86.12,269.52,73.77Z" fill="#d84743" fill-rule="evenodd"/><path d="M253.89,29.1c1,4.38,2.65,10.1,2.65,11.3,0,1.77,2.89,1.27,3.18-1.24.16-1.39,2.32-6.47,2.41-11.39C259.23,28.11,256.47,28.56,253.89,29.1Z" fill="#510f00" fill-rule="evenodd"/><path d="M258.56,39a5.68,5.68,0,1,1-5.68,5.68A5.69,5.69,0,0,1,258.56,39Z" fill="#e27e67" fill-rule="evenodd"/><path d="M297.45,39a5.68,5.68,0,1,1-5.67,5.68A5.68,5.68,0,0,1,297.45,39Z" fill="#e27e67" fill-rule="evenodd"/><path d="M296.13,28.82q0,.48,0,1V47.45A19.51,19.51,0,0,1,276.71,66.9h0a19.5,19.5,0,0,1-19.45-19.45V29.78c0-.45,0-.89.05-1.32A110.28,110.28,0,0,1,275.7,27,109.09,109.09,0,0,1,296.13,28.82Z" fill="#f5ac83" fill-rule="evenodd"/><path d="M296.13,28.82q0,.48,0,1V47.45A19.51,19.51,0,0,1,276.71,66.9c20.78-4.1,14.1-30.43,7.7-32.72s-20-2.84-23.68-2.15a3.85,3.85,0,0,0-3.47,3.7V29.78c0-.45,0-.89,0-1.32A110.49,110.49,0,0,1,275.7,27a109.09,109.09,0,0,1,20.43,1.83Z" fill="#ee9073" fill-rule="evenodd"/><path d="M263.25,39.54h0a1.91,1.91,0,0,1,1.9,1.91v2.48a1.9,1.9,0,0,1-1.9,1.9h0a1.91,1.91,0,0,1-1.91-1.9V41.45A1.92,1.92,0,0,1,263.25,39.54Z" fill="#510f00" fill-rule="evenodd"/><rect x="283.07" y="39.54" width="3.81" height="6.29" rx="1.9" fill="#510f00"/><path d="M260.56,34.78h5.38a1,1,0,0,1,1,1h0a1,1,0,0,1-1,1h-5.38a1,1,0,0,1-1-1h0A1,1,0,0,1,260.56,34.78Z" fill="#510f00" fill-rule="evenodd"/><path d="M282.28,34.78h5.38a1,1,0,0,1,1,1h0a1,1,0,0,1-1,1h-5.38a1,1,0,0,1-1-1h0A1,1,0,0,1,282.28,34.78Z" fill="#510f00" fill-rule="evenodd"/><path d="M280.3,50.36a6.19,6.19,0,0,1-12.38,0h0A1.08,1.08,0,0,1,269,49.3h10.22a1.07,1.07,0,0,1,1.07,1.06Z" fill="#fff" fill-rule="evenodd"/><path d="M262,47.05a2.82,2.82,0,1,1-2.82,2.82A2.81,2.81,0,0,1,262,47.05Z" fill="#e27e67" fill-rule="evenodd"/><path d="M286.21,47.05a2.82,2.82,0,1,1-2.81,2.82A2.82,2.82,0,0,1,286.21,47.05Z" fill="#e27e67" fill-rule="evenodd"/><path d="M296.16,44.24a11.12,11.12,0,0,1-3.67-10.3s-2.29-3-2-6A86.21,86.21,0,0,1,301.44,30a37.3,37.3,0,0,1-2.87,9.13S295.64,38.81,296.16,44.24Z" fill="#510f00" fill-rule="evenodd"/><path d="M277.29,168.33c8.85-.13,17.37-.86,21-1.69,4.94-1.12,2.57-7.46.67-20a171.48,171.48,0,0,1-1.51-25.45c-3.89-1.62-3-11.78-3.1-15.1s-3.43-5.59-6.77-5.59H267c-3.34,0-6.69,2.28-6.77,5.59s.79,13.48-3.1,15.1a171.48,171.48,0,0,1-1.51,25.45c-1.9,12.51-4.27,18.85.67,20C259.91,167.47,268.44,168.2,277.29,168.33Z" fill="#3c5178" fill-rule="evenodd"/><path d="M282.18,168.2a108.2,108.2,0,0,0,16.13-1.56c4.94-1.12,2.57-7.46.67-20a171.48,171.48,0,0,1-1.51-25.45c-3.89-1.62-3-11.78-3.1-15.1a5.23,5.23,0,0,0-2.11-4s.82,3.35-.51,15.67C290.6,128.44,300.39,158.34,282.18,168.2Z" fill="#20345a" fill-rule="evenodd"/><path d="M284.65,103.3a30.24,30.24,0,0,1,1.9-10.08c2-5.11,6.66-14.35,6.14-20.87,0,0,.32-.75,1.53-.64s3,1.71,3,3a33.87,33.87,0,0,1-3.9,14.47,27.36,27.36,0,0,0-3.8,13.73c.15,2-2.41,1.6-3.1,1.68A1.66,1.66,0,0,1,284.65,103.3Z" fill="#5d7396" fill-rule="evenodd"/><path d="M270.1,103.3a30.24,30.24,0,0,0-1.9-10.08c-2-5.11-6.67-14.35-6.15-20.87,0,0-.32-.75-1.53-.64s-3,1.71-3,3a33.87,33.87,0,0,0,3.9,14.47,27.25,27.25,0,0,1,3.8,13.73c-.15,2,2.41,1.6,3.1,1.68A1.68,1.68,0,0,0,270.1,103.3Z" fill="#5d7396" fill-rule="evenodd"/><path d="M277.3,214.8c24.58,0,44.63-8.39,44.63-18.66s-20.05-18.66-44.63-18.66-44.62,8.38-44.62,18.66S252.72,214.8,277.3,214.8Z" fill="#865f3f" fill-rule="evenodd"/><path d="M260.17,186.35c2.11,0,3.82-.8,3.82-1.78s-1.71-1.79-3.82-1.79-3.82.81-3.82,1.79S258.07,186.35,260.17,186.35Z" fill="#d7c8be" fill-rule="evenodd"/><path d="M284.75,184.31c2.1,0,3.82-.8,3.82-1.78s-1.72-1.78-3.82-1.78-3.82.8-3.82,1.78S282.65,184.31,284.75,184.31Z" fill="#a98d77" fill-rule="evenodd"/><ellipse cx="299.65" cy="189.28" rx="3.82" ry="1.78" fill="#a98d77"/><path d="M272.53,191.44c2.1,0,3.82-.8,3.82-1.78s-1.72-1.78-3.82-1.78-3.82.8-3.82,1.78S270.42,191.44,272.53,191.44Z" fill="#a98d77" fill-rule="evenodd"/><path d="M248.71,191.19c2.11,0,3.82-.8,3.82-1.78s-1.71-1.79-3.82-1.79-3.82.8-3.82,1.79S246.61,191.19,248.71,191.19Z" fill="#a98d77" fill-rule="evenodd"/><path d="M272,185c3.4,0,6.18-1.29,6.18-2.88s-2.78-2.88-6.18-2.88-6.17,1.29-6.17,2.88S268.55,185,272,185Z" fill="#a98d77" fill-rule="evenodd"/><path d="M287.23,191.5c3.4,0,6.18-1.3,6.18-2.88s-2.78-2.89-6.18-2.89-6.17,1.3-6.17,2.89S283.83,191.5,287.23,191.5Z" fill="#d7c8be" fill-rule="evenodd"/><path d="M290.88,128.45c0,6.68-3.47,14.2-10.28,16.3a11.21,11.21,0,0,1-6.62,0c-6.81-2.1-10.28-9.62-10.28-16.3a1.62,1.62,0,0,1,1.61-1.61h24A1.62,1.62,0,0,1,290.88,128.45Z" fill="#90b0ce" fill-rule="evenodd"/><path d="M179.38,209.07l-2.3-1.28s-1.66-.22-1.41-4.53,1.26-22.22,5.27-24.43,5.06.41,9.53,1.31a38.93,38.93,0,0,0,14.44-.11c4.32-.9,7,3.37,6.47,8.73s2.63,5.72,2.63,5.72.78.05,1,2.56,1.11,11.14-1.22,12.71S179.38,209.07,179.38,209.07Z" fill="#3c5178" fill-rule="evenodd"/><path d="M211.06,184.49a11.84,11.84,0,0,1,.32,4.27c-.5,5.37,2.63,5.72,2.63,5.72s.78.05,1,2.56,1.11,11.14-1.22,12.71c-.63.43-3.45.58-7.22.56a12,12,0,0,0,1.49-.6c6.11-3.08.7-12.33,1.85-17.1A39.22,39.22,0,0,0,211.06,184.49Z" fill="#20345a" fill-rule="evenodd"/><path d="M177,207.79a23.68,23.68,0,0,0-.46,10.05s16.42-3.69,37.54.37c0,0,.81-5.76-.34-8.46a63.75,63.75,0,0,0-36.74-2Zm37.15,10.43h0Z" fill="#face88" fill-rule="evenodd"/><path d="M188.35,171.54s-3.65,3-3.45,7.59c0,0,.58,3.66-1.78,3.86s-2.65-3.3-1.6-7.92,6.84-6.11,6.84-6.11A4,4,0,0,0,188.35,171.54Z" fill="#546a8f" fill-rule="evenodd"/><path d="M206.8,172.12a28,28,0,0,1-1.75,5.4c-1.35,3.21-2.1,3.51-1.65,5.26s2.91,1.86,4,.15,3.06-8.42,2.81-10.53-2.42-4.41-3.36-4.4a3.34,3.34,0,0,0-1.72.59S207.73,169,206.8,172.12Z" fill="#546a8f" fill-rule="evenodd"/><path d="M183.39,187.79c0,4.57,2.38,9.88,7,11.63a8,8,0,0,0,2.26.49,7.41,7.41,0,0,0,2.26-.18c4.66-1.12,7-6.1,7-10.67a1.21,1.21,0,0,0-1.1-1.18l-16.38-1.11A1,1,0,0,0,183.39,187.79Z" fill="#90b0ce" fill-rule="evenodd"/><path d="M95.35,78.66l-7-.27s-19.8,26.26-1.5,45.64,53.88,11.92,61.12-.8,3.29-22.19-3.85-33.59-17.8-5.12-17.8-5.12Z" fill="#5d1d10" fill-rule="evenodd"/><path d="M116.9,60.61c14.31,0,26-10.14,26-22.59s-11.68-22.58-26-22.58-26,10.14-26,22.58S102.59,60.61,116.9,60.61Z" fill="#fdd168" fill-rule="evenodd"/><path d="M118.18,64.47c19.89,0,36.11-7.75,36.11-17.24S138.07,30,118.18,30,82.07,37.73,82.07,47.23,98.29,64.47,118.18,64.47Z" fill="#e6b94d" fill-rule="evenodd"/><path d="M96,42.83c-3.4,4.54-5.29,9.85-2.66,16.38,6,14.87-15.9,22.82-9.5,38.52s32,6.19,34.08,5,21.27,3.82,21.27,3.82,13.84-.52,8.06-11.26-10.4-13.89-4.65-34.72c2.52-9.11,2-14.28,0-17.75a72.32,72.32,0,0,0-23.23-3.52A72.09,72.09,0,0,0,96,42.83Z" fill="#6a291f" fill-rule="evenodd"/><path d="M93,44c-1.71,3.8-2.4,8.34.36,15.18C98.57,72.1,77.48,82,83.88,97.73c4.26,10.44,17,9.73,25.69,7.72,2-22-.94-53.2-.94-53.2l17-6.89.57-5.84q-3.28-.26-6.75-.26h-1c-9,6.38-14.12,4.89-16.92,2A48.57,48.57,0,0,0,93,44Z" fill="#5d1d10" fill-rule="evenodd"/><path d="M118,102.68a4.39,4.39,0,0,1,2.06-.16h0l14.6-2.78s7.48-1.86,1.24-13.35-1.37-15.92-1.18-26S107.53,54,107.53,54l-4.25-4s-8.77.87-7.24,12.58-10.8,22.66-.69,32.34C103.14,102.35,113.6,102.84,118,102.68Z" fill="#510f00" fill-rule="evenodd"/><path d="M127.55,106.26l11.23-20.93s9.05,5.65,9.29,32.35c.18,20.1,1.18,36.93,1.56,46.69-1.38,0-3.87,0-4.91,0-1.13-15.19-3.62-39.39-5.82-46.36C135.77,108.2,127.55,106.26,127.55,106.26Z" fill="#a0d8f7" fill-rule="evenodd"/><path d="M144.72,164.42c-1.13-15.19-3.62-39.39-5.82-46.36a18.21,18.21,0,0,0-6.51-9.35c.61-4.78,1.51-7.73,2.37-7.63,2.17.24,4.93,5.65,6.26,10.82s2.76,20.45,4.2,35.36c.69,7.05,1,12.6,1.2,17.12Z" fill="#70a7c3" fill-rule="evenodd"/><path d="M149.74,164.27c1.3,1.77,2.61,3.67,2,4.76-.9,1.57-2.55,4.28-2.9,2.93s-.14-4-1.14-4.35c-.79-.3-1.38-.16-1.57.75-.06.25,1,1,1,1.39a1,1,0,0,1-1.23,1.3C139.44,165.59,147.5,161.23,149.74,164.27Z" fill="#f5ac83" fill-rule="evenodd"/><path d="M145.9,171.05c-4.45-3.76-2-7,.67-7.66,0,.07,0,.14,0,.21a3.26,3.26,0,0,1,1.9.69S141.73,164.14,145.9,171.05Z" fill="#ee9073" fill-rule="evenodd"/><path d="M112,65.29l.15,3.71v8.78c0,.86-3.28,2-4.2,2.74,3.38,21.42,21,9.41,18.85-.34-.92-.7-4.13-1.54-4.13-2.4V69l.16-3.71s-2.67.47-5.42,1.15C114.67,65.76,112,65.29,112,65.29Z" fill="#ee9073" fill-rule="evenodd"/><path d="M113.24,192.58c-3,10.3-3,33.25-3.91,45.63-1.45,19-4.1,48-3.91,49.59s-5.93,3.07-7.16.61a3,3,0,0,1-.17-1.67c.09-1.32-4.56-114.14-3-117.38.81-1.67,13.27-9.56,22.43-9.25,9.16-.31,22.4,3.74,23.21,5.41,1.56,3.24-4.8,120-4.71,121.33a3,3,0,0,1-.17,1.67c-1.23,2.46-6.41.82-6.22-.72s-2.46-30.59-3.91-49.59c-1-12.38-2.23-35.26-4.58-45.74C119.05,183.11,114.9,187,113.24,192.58Z" fill="#3c5178" fill-rule="evenodd"/><path d="M106.42,185a32.85,32.85,0,0,0-4.32,14.73c-1.11,15.21-2.47,74.68-1.78,80.62s4.34,5.44,5.52.43c-.3,4-.48,6.6-.42,7,.19,1.54-5.93,3.07-7.16.61a3,3,0,0,1-.17-1.67c.09-1.32-4.48-119-2.91-122.21.71-1.49,11.23-4.45,19.26-4.47h3.09c.52,0,1,0,1.59,0l-15.25,1.22a44.42,44.42,0,0,0,2.56,7.49c1.75,3.91,3.79,9.7,0,16.17ZM136,283c-6.92-.81-3.73-4.89-5-18.55s-5.42-73.8-7.85-76.89c-1.86-2.38-4.92-1.25-6.24-.6,1.53-.57,3.13.76,4.2,5.53,2.35,10.48,3.63,33.36,4.58,45.74,1.45,19,4.1,48,3.91,49.59s5,3.18,6.22.72a6.91,6.91,0,0,0,.17-1.67c-.05-.73,0-1.52,0-3.87Zm-19.73-95.69h0Z" fill="#20345a" fill-rule="evenodd"/><path d="M97.15,288.31a3.65,3.65,0,0,0-.76,1.1c-.67,1.56-1.93,2.27-2.15,4s.3,3,2.63,3h3.78c1.67,0,4.15.26,5-1.82s0-4,.29-5a1,1,0,0,0,0-.68,22.71,22.71,0,0,1-.09-5.14c.23-3.47,2.58-29.74,2.72-30.23a4,4,0,0,0,.45-1.75c-.07-.77-10.54-1.5-11.55-.53s0,1.23,0,5.68.35,29.59.33,30A5.68,5.68,0,0,1,97.15,288.31Z" fill="#face88" fill-rule="evenodd"/><path d="M97.15,288.31a3.65,3.65,0,0,0-.76,1.1c-.67,1.56-1.93,2.27-2.15,4s.3,3,2.63,3h.54a1.58,1.58,0,0,0,.36-1.57c-1-3.46.51-4.46,1.7-5.42s4.34-.2,4.34-.2,1.11-.59-.91-1.19-3-1.89-3.36-4.69.74-26.6.79-29.57,3.37-2.93,3.48-2.92c-2.82-.18-5.85-.13-6.37.37-1,1,0,1.23,0,5.68s.35,29.59.33,30A5.68,5.68,0,0,1,97.15,288.31Z" fill="#cba66a" fill-rule="evenodd"/><path d="M94.21,293.7c-.12,1.55.48,2.72,2.66,2.72h3.78c1.67,0,4.15.26,5-1.82a5.19,5.19,0,0,0,.35-1.38s-1,1.34-4.19,1.54S94.76,295,94.21,293.7Z" fill="#2a0d09" fill-rule="evenodd"/><path d="M94.21,293.7c-.12,1.55.48,2.72,2.66,2.72H99a4,4,0,0,1-1.19-1.57C96,294.77,94.53,294.47,94.21,293.7Z" fill="#1f0000" fill-rule="evenodd"/><path d="M117.88,173.12c-8.11-.1-16-.81-19.34-1.61-4.45-1.07-2.31-7.1-.6-19,1.5-10.43,1.45-22.33,1.26-32.8A65.1,65.1,0,0,0,94.4,96c-1.62-3.62-1.4-2.92-1.58,8.13-3-13.29-2.35-19.11,14-23.73,1,1,2.13,2.23,3,3.17,2.67,6.87,5.51,8.64,8,8.15,2.55.49,5.39-1.28,8.05-8.15.93-.94,2.1-2.16,3.06-3.17,16.31,4.62,16,15.2,13,28.49-.18-11,1-16.51-.63-12.89a65.28,65.28,0,0,0-4.81,23.73c-.18,10.47-.23,22.37,1.27,32.8,1.7,11.88,3.84,17.91-.6,19C133.89,172.31,126,173,117.88,173.12Z" fill="#a0d8f7" fill-rule="evenodd"/><path d="M114.74,173.05a98.21,98.21,0,0,1-16.2-1.54c-4.45-1.07-2.31-7.1-.6-19,1.5-10.43,1.45-22.33,1.26-32.8a69.82,69.82,0,0,0-1.86-14.68c1.19-2.24,2.51-3.84,3.67-4,2.16-.24,4.57,18.64,1.92,37.65C100.91,153.24,102.25,166.92,114.74,173.05Z" fill="#70a7c3" fill-rule="evenodd"/><path d="M125.35,83c.48-1.9.42-3.29.7-3.64.93-1,2.36.26,2.91,1,1.21,19.53-24.26,19.13-23.08,0,.55-.78,2-2,2.91-1,.25.31.06,1.48.56,3C112.07,90.7,122.35,94.83,125.35,83Z" fill="#70a7c3" fill-rule="evenodd"/><path d="M137.93,288.31a3.65,3.65,0,0,1,.76,1.1c.67,1.56,1.93,2.27,2.15,4s-.3,3-2.63,3h-3.78c-1.67,0-4.15.26-5-1.82s0-4-.3-5a1,1,0,0,1,0-.68,22.71,22.71,0,0,0,.09-5.14c-.23-3.47-2.57-29.74-2.72-30.23a4.15,4.15,0,0,1-.45-1.75c.07-.77,10.54-1.5,11.55-.53s0,1.23,0,5.68-.35,29.59-.33,30A5.68,5.68,0,0,0,137.93,288.31Z" fill="#face88" fill-rule="evenodd"/><path d="M137.93,288.31a3.65,3.65,0,0,1,.76,1.1c.67,1.56,1.93,2.27,2.15,4s-.3,3-2.63,3h-.53a1.56,1.56,0,0,1-.37-1.57c1-3.46-.51-4.46-1.7-5.42s-4.34-.2-4.34-.2-1.11-.59.91-1.19,3-1.89,3.36-4.69-.74-26.6-.78-29.57-3.38-2.93-3.49-2.92c2.83-.18,5.85-.13,6.37.37,1,1,0,1.23,0,5.68s-.35,29.59-.33,30A5.68,5.68,0,0,0,137.93,288.31Z" fill="#cba66a" fill-rule="evenodd"/><path d="M140.87,293.7c.12,1.55-.48,2.72-2.66,2.72h-3.78c-1.67,0-4.15.26-5-1.82a5.22,5.22,0,0,1-.36-1.38s1,1.34,4.19,1.54S140.32,295,140.87,293.7Z" fill="#2a0d09" fill-rule="evenodd"/><path d="M140.87,293.7c.12,1.55-.48,2.72-2.66,2.72h-2.09a4,4,0,0,0,1.19-1.57C139.1,294.77,140.55,294.47,140.87,293.7Z" fill="#1f0000" fill-rule="evenodd"/><path d="M117.9,173.64c-8.49-.12-16.66-.83-20.15-1.62-4.74-1.08-2.46-7.15-.64-19.14a165.62,165.62,0,0,0,1.44-24.4c3.74-1.56,2.9-11.3,3-14.47s3.28-5.37,6.49-5.37h19.76c3.2,0,6.41,2.19,6.49,5.37s-.76,12.91,3,14.47a165.62,165.62,0,0,0,1.44,24.4c1.83,12,4.11,18.06-.64,19.14C134.55,172.81,126.38,173.52,117.9,173.64Z" fill="#3c5178" fill-rule="evenodd"/><path d="M108.17,173.84c-4.48.7-8.18,2.16-10.27,1.68-4.74-1.07-2.61-10.65-.79-22.64a165.62,165.62,0,0,0,1.44-24.4c3.74-1.56,2.9-11.3,3-14.47a5,5,0,0,1,2-3.83s-.78,3.21.5,15c.78,7.24-3.71,23.76-.16,36.12h0a44.42,44.42,0,0,0,2.56,7.49A26.6,26.6,0,0,1,108.17,173.84Z" fill="#20345a" fill-rule="evenodd"/><path d="M110.84,111.31a29,29,0,0,0-1.82-9.67c-1.89-4.9-6.38-13.75-5.89-20,0,0-.3-.72-1.46-.61s-2.88,1.64-2.89,2.9a32.34,32.34,0,0,0,3.73,13.86A26.17,26.17,0,0,1,106.15,111c-.14,2,2.31,1.54,3,1.61A1.59,1.59,0,0,0,110.84,111.31Z" fill="#5d7396" fill-rule="evenodd"/><path d="M124.8,111.31a29,29,0,0,1,1.82-9.67c1.89-4.9,6.38-13.75,5.88-20,0,0,.31-.72,1.47-.61s2.88,1.64,2.89,2.9a32.34,32.34,0,0,1-3.73,13.86A26.17,26.17,0,0,0,129.49,111c.14,2-2.31,1.54-3,1.61A1.59,1.59,0,0,1,124.8,111.31Z" fill="#5d7396" fill-rule="evenodd"/><path d="M104.88,135.41c0,6.41,3.32,13.62,9.84,15.63a10.74,10.74,0,0,0,6.35,0c6.53-2,9.85-9.22,9.85-15.63a1.54,1.54,0,0,0-1.54-1.54h-23A1.54,1.54,0,0,0,104.88,135.41Z" fill="#90b0ce" fill-rule="evenodd"/><path d="M100.5,60.43a4.86,4.86,0,1,0-4.85-4.85A4.86,4.86,0,0,0,100.5,60.43Z" fill="#e27e67" fill-rule="evenodd"/><path d="M101.69,41.19c0,.53-.07,1.06-.07,1.6V57.91a16.68,16.68,0,0,0,16.63,16.64h0a16.69,16.69,0,0,0,16.64-16.64V42.79a16.37,16.37,0,0,0-.14-2.11,80.67,80.67,0,0,0-15.34-1.42A78.39,78.39,0,0,0,101.69,41.19Z" fill="#f5ac83" fill-rule="evenodd"/><path d="M101.69,41.19c0,.53-.07,1.06-.07,1.6V57.91a16.68,16.68,0,0,0,16.63,16.64h0c.54,0,1.08,0,1.61-.08-17.75-3-18.59-23.85-11-24.74,9.4-1.1,17.91-8.53,17.91-8.53,1.44,2.64,5.38,4.52,8.1,5.55v-4a16.37,16.37,0,0,0-.14-2.11,80.67,80.67,0,0,0-15.34-1.42A78.39,78.39,0,0,0,101.69,41.19Z" fill="#ee9073" fill-rule="evenodd"/><path d="M132.06,48h-4.6a.89.89,0,0,0-.88.88h0a.89.89,0,0,0,.88.89h4.6a.89.89,0,0,0,.89-.89h0A.89.89,0,0,0,132.06,48Z" fill="#6a291f" fill-rule="evenodd"/><path d="M113.48,48h-4.6a.89.89,0,0,0-.89.88h0a.89.89,0,0,0,.89.89h4.6a.89.89,0,0,0,.89-.89h0A.89.89,0,0,0,113.48,48Z" fill="#6a291f" fill-rule="evenodd"/><path d="M115.18,61.29a5.29,5.29,0,0,0,10.58,0h0a.92.92,0,0,0-.91-.92H116.1a.92.92,0,0,0-.91.92Z" fill="#fff" fill-rule="evenodd"/><path d="M130.82,63.27a2.41,2.41,0,1,0-2.4-2.41A2.41,2.41,0,0,0,130.82,63.27Z" fill="#e27e67" fill-rule="evenodd"/><path d="M110.12,63.27a2.41,2.41,0,1,0-2.41-2.41A2.42,2.42,0,0,0,110.12,63.27Z" fill="#e27e67" fill-rule="evenodd"/><path d="M99.48,50.83l3.57-1.5s1.92,4.33-1.43,5.83V53.09A2,2,0,0,0,99.48,50.83Z" fill="#6a291f" fill-rule="evenodd"/><path d="M122.64,39.32c-3.59,3.83-10.16,8.35-22.14,11.4l.14-9.27a77.2,77.2,0,0,1,18.77-2.19c1.09,0,2.17,0,3.23.06Zm13.93,1.75c.46,1.36.76,2.29.76,2.29l-2.44,2s-2.52-1.14-5-5.43A67,67,0,0,1,136.57,41.07Z" fill="#6a291f" fill-rule="evenodd"/><path d="M122.64,39.32c-3.59,3.83-10.16,8.35-22.14,11.4l.14-9.27.06,0c3.93,2.25,9.58,2.78,17.34-2.16h1.37C120.5,39.26,121.58,39.28,122.64,39.32Z" fill="#5d1d10" fill-rule="evenodd"/><path d="M113.72,55.37a.62.62,0,0,0,1.23,0,3,3,0,0,0-5.91,0,.62.62,0,0,0,1.23,0,1.76,1.76,0,0,1,.5-1.23,1.73,1.73,0,0,1,1.22-.5,1.71,1.71,0,0,1,1.73,1.73Z" fill="#6a291f" fill-rule="evenodd"/><path d="M130.68,55.37a.61.61,0,1,0,1.22,0,3,3,0,1,0-5.9,0,.61.61,0,1,0,1.22,0,1.73,1.73,0,0,1,2.95-1.23A1.76,1.76,0,0,1,130.68,55.37Z" fill="#6a291f" fill-rule="evenodd"/><path d="M93.3,150.58s.85-.7-.34-1.6c-15.41-11.69-9.14-35.42-2.84-39.25,1-.63,2.72-3.93,3.67-3.34.23.14,4.26,4,4.5,3.4,1.56-3.82-.74-25.25-.74-25.25-16.73,8.61-28.32,38-18.44,55.48A52.62,52.62,0,0,0,90.4,153.44a.47.47,0,0,0,.75,0C91.51,153,91.75,151.18,93.3,150.58Z" fill="#a0d8f7" fill-rule="evenodd"/><path d="M83.4,129.94c-.41-7.67,4.25-26.78,14.89-20.12.63.39,2.71-4.22,3.39-8.21-.56-1.75-8.44-.32-11.8,3.41-9.3,10.32-6.48,24.92-6.48,24.92Z" fill="#70a7c3" fill-rule="evenodd"/><path d="M113.26,148.39c7.11-5.87,9.36-17.25,1.9-9.74,3.37-7-1.46-10.54-3.64-3.36,1.54-6.13-3.61-10.9-4.32-.44,1.21-15.9-6.86-13.64-4.24-1.31.45,1.17.07,1.85,0,1.48-.77-2.72-2.82-4.63-1.82,2-1.91-5.57-6.37-6.42-3.06,2.42-5.7-7.08-9.9-1-2.54,5C101.42,149.28,113.26,148.39,113.26,148.39Z" fill="#96b71d" fill-rule="evenodd"/><path d="M101.18,137.68a1.82,1.82,0,0,1,2.55-.22,1.81,1.81,0,1,1-2.55.22Z" fill="#fdd168" fill-rule="evenodd"/><polygon points="98.07 165.03 113.21 165.03 117.36 144.94 93.92 144.94 98.07 165.03" fill="#d65037" fill-rule="evenodd"/><rect x="92" y="141.95" width="27.29" height="5.07" rx="1.39" fill="#ed735a"/><path d="M108.87,133.67a1.43,1.43,0,1,1,.18,2A1.43,1.43,0,0,1,108.87,133.67Z" fill="#fdd168" fill-rule="evenodd"/><path d="M112.07,138.19a1.81,1.81,0,1,1,.22,2.55A1.81,1.81,0,0,1,112.07,138.19Z" fill="#fdd168" fill-rule="evenodd"/><path d="M93.3,150.58a9.13,9.13,0,0,0,1.75.7c.07,0,1.07-3.46,1.81-3s.46,1.9.46,1.9a3.71,3.71,0,0,0,2.9,3c2.5.4-.25,9.78-4.07,6-3.26-3.2-3.58-4.71-5-5.81C91.51,153,91.75,151.18,93.3,150.58Z" fill="#f5ac83" fill-rule="evenodd"/><path d="M93.3,150.58c.28.15.6.29.91.42-.11,1.81.24,4.64,3.2,5.58s3.44-1.23,3.47-2.87c1.18,1.93-1.36,8.88-4.73,5.57s-3.58-4.71-5-5.81C91.51,153,91.75,151.18,93.3,150.58Z" fill="#ee9073" fill-rule="evenodd"/><path d="M321.58,194.74c8.63-3.24,14.46-13.27,5-8.59,5.47-5.56,2-10.44-2.36-4.35,3.45-5.31.12-11.49-3.94-1.83,6.3-14.64-2.06-15.13-3.59-2.61,0,1.25-.53,1.77-.51,1.39.16-2.82-1.15-5.3-2.36,1.27,0-5.89-3.94-8.14-3.68,1.29-3.09-8.54-9-4.15-4,3.94C310.09,191.74,321.58,194.74,321.58,194.74Z" fill="#96b71d" fill-rule="evenodd"/><path d="M313.87,180.24a2.12,2.12,0,1,1-.72,2.91A2.12,2.12,0,0,1,313.87,180.24Z" fill="#fff" fill-rule="evenodd"/><polygon points="301.81 205.55 316.13 210.47 326.58 192.82 304.41 185.21 301.81 205.55" fill="#d65037" fill-rule="evenodd"/><path d="M304.88,182.2l23.18,8a1.4,1.4,0,0,1,.86,1.77l-.74,2.16a1.4,1.4,0,0,1-1.77.86L303.24,187a1.4,1.4,0,0,1-.87-1.78l.74-2.15A1.4,1.4,0,0,1,304.88,182.2Z" fill="#ed735a" fill-rule="evenodd"/><path d="M321.12,182.05a1.69,1.69,0,1,1-.58,2.33A1.69,1.69,0,0,1,321.12,182.05Z" fill="#fff" fill-rule="evenodd"/><path d="M207.26,291.17c.36,0,5.62,2.45,5.87,3.64s-1.06,1.61-3.53,1.61-5.68-.1-6.26-.49.23-4.49,1.57-4.92A3.13,3.13,0,0,1,207.26,291.17Z" fill="#ec6957" fill-rule="evenodd"/><path d="M298.94,288a4,4,0,0,1,.79,1.15c.69,1.62,2,2.36,2.24,4.14s-.31,3.17-2.75,3.17h-3.94c-1.74,0-4.33.27-5.22-1.9s0-4.13-.31-5.25a1.09,1.09,0,0,1,.05-.72,24.67,24.67,0,0,0,.09-5.36c-.24-3.62-2.69-31-2.83-31.53a4.23,4.23,0,0,1-.48-1.83c.08-.8,11-1.57,12.05-.55s0,1.28,0,5.92-.36,30.87-.35,31.28A6.14,6.14,0,0,0,298.94,288Z" fill="#face88" fill-rule="evenodd"/><path d="M298.94,288a4,4,0,0,1,.79,1.15c.69,1.62,2,2.36,2.24,4.14s-.31,3.17-2.75,3.17h-.55a1.62,1.62,0,0,1-.38-1.64c1.08-3.6-.53-4.65-1.78-5.65s-4.52-.21-4.52-.21-1.16-.61.95-1.24,3.14-2,3.5-4.89-.77-27.75-.82-30.86-3.52-3-3.63-3c2.94-.19,6.1-.13,6.64.39,1.06,1,0,1.28,0,5.92s-.36,30.87-.35,31.28A6.14,6.14,0,0,0,298.94,288Z" fill="#cba66a" fill-rule="evenodd"/><path d="M302,293.58c.12,1.62-.5,2.84-2.78,2.84h-3.94c-1.74,0-4.33.27-5.22-1.9a5.66,5.66,0,0,1-.37-1.44s1,1.4,4.37,1.61S301.43,295,302,293.58Z" fill="#2a0d09" fill-rule="evenodd"/><path d="M302,293.58c.12,1.62-.5,2.84-2.78,2.84h-2.17a4.16,4.16,0,0,0,1.24-1.64C300.16,294.7,301.67,294.38,302,293.58Z" fill="#1f0000" fill-rule="evenodd"/><path d="M256.39,288a3.79,3.79,0,0,0-.79,1.15c-.7,1.62-2,2.36-2.24,4.14s.3,3.17,2.74,3.17h3.95c1.73,0,4.33.27,5.21-1.9s0-4.13.31-5.25a1,1,0,0,0,0-.72,23.86,23.86,0,0,1-.09-5.36c.24-3.62,2.68-31,2.83-31.53a4.23,4.23,0,0,0,.47-1.83c-.07-.8-11-1.57-12.05-.55s0,1.28,0,5.92.37,30.87.35,31.28A6.2,6.2,0,0,1,256.39,288Z" fill="#face88" fill-rule="evenodd"/><path d="M256.39,288a3.79,3.79,0,0,0-.79,1.15c-.7,1.62-2,2.36-2.24,4.14s.3,3.17,2.74,3.17h.56a1.64,1.64,0,0,0,.38-1.64c-1.08-3.6.53-4.65,1.77-5.65s4.53-.21,4.53-.21,1.16-.61-.95-1.24-3.14-2-3.51-4.89.77-27.75.82-30.86,3.53-3,3.64-3c-2.95-.19-6.1-.13-6.65.39-1.06,1,0,1.28,0,5.92s.37,30.87.35,31.28A6.2,6.2,0,0,1,256.39,288Z" fill="#cba66a" fill-rule="evenodd"/><path d="M253.32,293.58c-.12,1.62.5,2.84,2.78,2.84h3.95c1.73,0,4.33.27,5.22-1.9a5.24,5.24,0,0,0,.36-1.44s-1,1.4-4.37,1.61S253.9,295,253.32,293.58Z" fill="#2a0d09" fill-rule="evenodd"/><path d="M253.32,293.58c-.12,1.62.5,2.84,2.78,2.84h2.18a4.07,4.07,0,0,1-1.24-1.64C255.17,294.7,253.66,294.38,253.32,293.58Z" fill="#1f0000" fill-rule="evenodd"/><path d="M250.77,241.64c-.53-1.84.17-3.9,1.56-4.6s2.95.22,3.48,2.06l9.47,32.82h3c1.49,0,2.7,1.59,2.7,3.57s-1.21,3.57-2.7,3.57h-4.89a2.85,2.85,0,0,1-2.52-2.3Z" fill="#4f3f3d" fill-rule="evenodd"/><path d="M298.79,239.1c.53-1.84,2.09-2.76,3.49-2.06s2.09,2.76,1.56,4.6l-10.13,35.12a2.86,2.86,0,0,1-2.52,2.3H286.3c-1.49,0-2.7-1.6-2.7-3.57s1.21-3.57,2.7-3.57h3Z" fill="#4f3a38" fill-rule="evenodd"/><path d="M250.77,241.64a4.23,4.23,0,0,1,1-4.24,20.15,20.15,0,0,1,2.74-.19,3.39,3.39,0,0,1,1.27,1.89l9.47,32.82h3c1.49,0,2.7,1.59,2.7,3.57s-1.21,3.57-2.7,3.57h-4.89a2.52,2.52,0,0,1-2.11-1.36c4.25-6.89-1.58-19.58-4.2-26.34-1.16-3-3-4.33-4.93-4.84Z" fill="#3f2b28" fill-rule="evenodd"/><rect x="274.69" y="244.02" width="5.23" height="20.56" fill="#4f3a38"/><rect x="268.83" y="260.07" width="16.95" height="36.23" rx="5.98" fill="#2a0d09"/><path d="M279.37,260.07h.43a6,6,0,0,1,6,6v24.28a6,6,0,0,1-6,6h-5a6,6,0,0,1-5.91-5.06c17.71-.83,14.19-23.75,13.26-27.47A6.23,6.23,0,0,0,279.37,260.07Z" fill="#1f0000" fill-rule="evenodd"/><path d="M230.06,197.41h94.49c6.58,0,10.73,4.19,9.22,9.32-17.15,58-95.78,58-112.93,0C219.32,201.6,223.47,197.41,230.06,197.41Z" fill="#ed735a" fill-rule="evenodd"/><path d="M230.06,197.41h94.49c6.58,0,10.73,4.19,9.22,9.32l-.34,1.14H221.18l-.34-1.14C219.32,201.6,223.47,197.41,230.06,197.41Z" fill="#d65037" fill-rule="evenodd"/><path d="M219.49,194H335.12a5.84,5.84,0,0,1,5.83,5.83h0a5.85,5.85,0,0,1-5.83,5.83H219.49a5.85,5.85,0,0,1-5.83-5.83h0A5.84,5.84,0,0,1,219.49,194Z" fill="#ed735a" fill-rule="evenodd"/><path d="M204.14,216.79c3.16.29,6.5.75,10,1.42,0,0,.81-5.76-.34-8.46a39.45,39.45,0,0,0-4-1.35s2.22,6.44-5.59,8.39Zm10,1.43h0Z" fill="#cba66a" fill-rule="evenodd"/><path d="M298.36,219.64a60.21,60.21,0,0,1-3.37,5.42,58,58,0,0,1-8.81,10,56.91,56.91,0,0,1-17.87,10.86c-1.12.43-2.26.82-3.41,1.17s-2.4.7-3.61,1c1.14.33,2.3.62,3.47.87.24.05.48.11.72.15.84.17,1.69.33,2.53.46l.39.06a57.48,57.48,0,0,0,6.29.62c1.74.08,3.49.08,5.23,0a59.22,59.22,0,0,0,15.62-2.83l1-.32c.58-.2,1.15-.41,1.73-.63,1.64-.62,3.25-1.33,4.84-2.1,13.49-6.62,24.81-18.77,30.35-36.45h-30q-.63,1.94-1.35,3.78A64.38,64.38,0,0,1,298.36,219.64Z" fill="#d65037" fill-rule="evenodd"/></g></g></svg>