<svg xmlns="http://www.w3.org/2000/svg" xmlns:xlink="http://www.w3.org/1999/xlink" viewBox="0 0 1275.59 425.2"><defs><linearGradient id="linear-gradient" x1="637.79" y1="191.01" x2="637.79" gradientUnits="userSpaceOnUse"><stop offset="0" stop-color="#fff"/><stop offset="0.07" stop-color="#f8fdfd"/><stop offset="0.18" stop-color="#e4f8f8"/><stop offset="0.31" stop-color="#c4f0f0"/><stop offset="0.45" stop-color="#97e4e5"/><stop offset="0.61" stop-color="#5ed5d7"/><stop offset="0.77" stop-color="#19c3c5"/><stop offset="0.83" stop-color="#00bcbf"/></linearGradient><linearGradient id="linear-gradient-2" x1="1287.63" y1="270.54" x2="1291.59" y2="270.54" gradientUnits="userSpaceOnUse"><stop offset="0" stop-color="#fff"/><stop offset="0.07" stop-color="#fffef8"/><stop offset="0.18" stop-color="#fffce4"/><stop offset="0.31" stop-color="#fff7c4"/><stop offset="0.45" stop-color="#fff297"/><stop offset="0.61" stop-color="#feea5e"/><stop offset="0.77" stop-color="#fee119"/><stop offset="0.83" stop-color="#fede00"/></linearGradient><linearGradient id="linear-gradient-3" x1="484.69" y1="266.21" x2="1321.59" y2="266.21" xlink:href="#linear-gradient-2"/></defs><title>background_2</title><g style="isolation:isolate"><g id="Layer_1" data-name="Layer 1"><rect width="1275.59" height="295.91" fill="#dbf0f2"/><rect width="1275.59" height="191.01" opacity="0.8" fill="url(#linear-gradient)" style="mix-blend-mode:multiply"/><path d="M1287.63,272.82a21.06,21.06,0,0,0,4-4.55A11,11,0,0,0,1287.63,272.82Z" transform="translate(-46 -169.39)" fill="#fff"/><path d="M1291.59,268.27a21.06,21.06,0,0,1-4,4.55,11,11,0,0,1,4-4.55c12-19.31-38-35.22-55.33-21,21-16-4.88-31.86-22.62-31.28-18.72.61-39.4,9.6-51.15,23.48.89-22.26-18.58-43.17-40.5-25.1-4-4-6.9-5.1-13-4.31,16.18-3.25,9.19-17.73.72-23.65-5.83-4.08-31-9-25.17-3.37l-4.5,1.5c2.38-6,2.74-11,1.64-15.1H941.82q-1.4,1.77-2.78,3.55c-3.56,4.6-6.15,6.23-10.77,10.32-12.41,11-13.87,15.81-20.79,29.64-4.39,8.77,3.1,6.31-7.26,10.6-8.87,3.67-26.86-.07-36.58,0-6.53,0-13.07.56-18.8-1.39-6.91-2.36-5-9.45-18.23-9.2-24.82.47-22.32,14.46-32.57,28.58-11.95,16.46-48,5.68-48.71,34-7.34-5-4.12-13.89-9-20.5-6.08-8.22-22.48-13.54-32.35-12-13.05,2-34.78,24.6-33.61,38.78-8.29-1.55-14.38,3.41-15,12-12,2.41-45-19.41-46.5,7.47-5.35,3-9,6.5-13.24,8.91-5,2.85-11.77-1.75-13.46,8.81-14.73-15.27-26,9.41-37.87,13.68-16.71,6-42,2.38-59.57,9,37.43,10.31,82.44,1.52,121.18,3.56-1.19,23.72,40.48,9.88,51.3,8.69,16.1-1.77,43.89,1.25,58-10.19,9.41,14.73,34.25,17.72,48.78,10.3,9.58-4.9,11.66-11,22.1-13.53,8.29-2,15.7-.27,23.77-4.34-2.14,31.51,92.18,18,105.55,7.53,16.58,12.38,34,3.66,52.2,4.24,19,.61,42.27,10.39,58.58-7,5,14.59,56.75,14.15,73.42,10.16,11.43-2.73,16.26-8.28,28.39-8,10.59.23,25.9,7.24,33.07-3.6,9.72,17.88,43.73,17.55,61.72,20.13,20.22,2.91,57.88,12.12,53.78-19.33,3.72,3.71,34.09,3.52,43.6,1.71.49-.1.95-.23,1.42-.35V266C1309.51,263.76,1297.93,264,1291.59,268.27Z" transform="translate(-46 -169.39)" fill="#fff"/><path d="M1287.63,272.82a21.06,21.06,0,0,0,4-4.55A11,11,0,0,0,1287.63,272.82Z" transform="translate(-46 -169.39)" opacity="0.4" fill="url(#linear-gradient-2)" style="mix-blend-mode:multiply"/><path d="M1291.59,268.27a21.06,21.06,0,0,1-4,4.55,11,11,0,0,1,4-4.55c12-19.31-38-35.22-55.33-21,21-16-4.88-31.86-22.62-31.28-18.72.61-39.4,9.6-51.15,23.48.89-22.26-18.58-43.17-40.5-25.1-4-4-6.9-5.1-13-4.31,16.18-3.25,9.19-17.73.72-23.65-5.83-4.08-31-9-25.17-3.37l-4.5,1.5c2.38-6,2.74-11,1.64-15.1H941.82q-1.4,1.77-2.78,3.55c-3.56,4.6-6.15,6.23-10.77,10.32-12.41,11-13.87,15.81-20.79,29.64-4.39,8.77,3.1,6.31-7.26,10.6-8.87,3.67-26.86-.07-36.58,0-6.53,0-13.07.56-18.8-1.39-6.91-2.36-5-9.45-18.23-9.2-24.82.47-22.32,14.46-32.57,28.58-11.95,16.46-48,5.68-48.71,34-7.34-5-4.12-13.89-9-20.5-6.08-8.22-22.48-13.54-32.35-12-13.05,2-34.78,24.6-33.61,38.78-8.29-1.55-14.38,3.41-15,12-12,2.41-45-19.41-46.5,7.47-5.35,3-9,6.5-13.24,8.91-5,2.85-11.77-1.75-13.46,8.81-14.73-15.27-26,9.41-37.87,13.68-16.71,6-42,2.38-59.57,9,37.43,10.31,82.44,1.52,121.18,3.56-1.19,23.72,40.48,9.88,51.3,8.69,16.1-1.77,43.89,1.25,58-10.19,9.41,14.73,34.25,17.72,48.78,10.3,9.58-4.9,11.66-11,22.1-13.53,8.29-2,15.7-.27,23.77-4.34-2.14,31.51,92.18,18,105.55,7.53,16.58,12.38,34,3.66,52.2,4.24,19,.61,42.27,10.39,58.58-7,5,14.59,56.75,14.15,73.42,10.16,11.43-2.73,16.26-8.28,28.39-8,10.59.23,25.9,7.24,33.07-3.6,9.72,17.88,43.73,17.55,61.72,20.13,20.22,2.91,57.88,12.12,53.78-19.33,3.72,3.71,34.09,3.52,43.6,1.71.49-.1.95-.23,1.42-.35V266C1309.51,263.76,1297.93,264,1291.59,268.27Z" transform="translate(-46 -169.39)" opacity="0.4" fill="url(#linear-gradient-3)" style="mix-blend-mode:multiply"/><path d="M1180,258.18a9.05,9.05,0,0,0-1.09,2.23A19.83,19.83,0,0,0,1180,258.18Z" transform="translate(-46 -169.39)" fill="#fff" opacity="0.3"/><path d="M1151.4,265.13l5.17,19.8C1161.4,277.61,1161.87,265.31,1151.4,265.13Z" transform="translate(-46 -169.39)" fill="#fff" opacity="0.3"/><path d="M1299.25,284.33c8.22-19.41-28.12-7.66-33-7.13,10.56-20.29-25.29-31.09-37.54-16.71,3.28-10-39.88-15.62-48.7-2.31a19.83,19.83,0,0,1-1.09,2.23,9.05,9.05,0,0,1,1.09-2.23c6.17-15.09-17.09-21.84-28.32-12.88,4.42,3.94,2.69,11.68-.82,17.8l.53,2c10.47.18,10,12.48,5.17,19.8l-5.17-19.8a14.94,14.94,0,0,0-1.85.08c.46-.67.9-1.38,1.32-2.11l-3.3-12.65a14.56,14.56,0,0,1,4.12-5.15c-1.76-1.57-4.47-2.54-8.43-2.57,5.44-10.08-7.67-43.62-22.51-31.79,18.61-18-35.51-39.88-34.57-4.53-7.73-1.86-8.32,7.12-7.84,13.94-5-1.59-6.51-1.53-11.55-1.94-1.55-16.26-24.45-10.23-30.4.1,12.88-23.73-51-8.35-34.88,6.41-8.13,3.72-8.32,17.38-14.4,19.64-9.61,3.55-7.19-8.63-15-12.18-22-9.94-22.13,24.92-37.27,23.83-.86-8.15,5.15-13.79-.2-20.42-7.64-9.48-21.8-3.91-28.59,2.7-13.35,13-6,25.91-27.26,30.28-7.29,1.49-15.3-.45-22.47,1.17-10.57,2.39-13.19,6.13-23.62,9.33-18.12,5.56-39.58,6.81-58.31,9.81-13.5,2.17-31.27-1.39-43.33,5.25,43.14,10.49,90.26-3,134.31-.15,3.5,5.71,11.27,4.68,18,4.46,2,18.07,31.42-5,40.43-6,4.09,14.71,19.39,2.67,28.79,2.7,5.41,0,27.78,4.5,32.57,7.61-12.27,4.72-46.56,8.58-20.37,19.9,32.83,14.18,67.5-11.61,100.1-7.68-4.86,21,48.46,15.59,61.5,11.5-.72-4,1.16-9.07.41-13,11.26-.62,22.94,3.1,32.79,2.76,12.15-.42,21.28-10,33-10.56,6.21-.3,9.4,4.3,15.31,4.64,10.77.62,17.9-6.61,27.89-8.76,14.67-3.15,31.68.38,46.61-.56-.74-1.14-1.55-3.89-2.68-5.44,13.78-2,28.08,4.76,41.9,7.62v-19A69.62,69.62,0,0,0,1299.25,284.33Z" transform="translate(-46 -169.39)" fill="#fff" opacity="0.3"/><path d="M1147.57,250.45l3.3,12.65c3.51-6.12,5.24-13.86.82-17.8A14.56,14.56,0,0,0,1147.57,250.45Z" transform="translate(-46 -169.39)" fill="#fff" opacity="0.3"/><path d="M1303.82,208c2.51-30.81-39.85-32.41-51.26-7.63-3.6,1.73-7,8.28-9,13.63-1.87-7.36-14-18.7-21.3-21.74-5.44-2.28-14.88-3.07-20.71-1.57-11.06,2.85-14.13,14.94-21.33,19-6.66,3.71-16.79-1.06-25.12.53-5.56,1.06-13.12,3.58-17.81,6.93-2.24,1.61-4.19,7.05-5,7.53-16.46,9.49-36.09,1-53.72,6.6-12.4,3.94-6.34,7.39-12,13.19-5.82,6-7.63,7.93-19.8,9-22.88,2.06-42.56-3.59-63.75,3.38-45.83,15.07-92.06,10.73-138.39,19.37,20.54,11.55,66.22,2.64,89.94,2.7,25.55.07,51.56-1.06,76.84-4.87,22.33-3.37,42.32-2.39,62.53-1.14,12,.75,59.06-19.45,54.36,4.28a234.08,234.08,0,0,0,28.16.3c13.75-.92,37.71-9.76,50.91-4.6,5.35,2.09,2.53,7,6.5,8.69,9.56,4.09,21.14,1.18,31.26,1.84,17.89,1.16,24.45,13.87,43.4,16.93,12,1.94,22.22.51,33.06-1.55V192.36C1314.64,193.9,1307.8,202.4,1303.82,208Z" transform="translate(-46 -169.39)" fill="#fff" opacity="0.7"/><path d="M317.29,382.35,321,388.7C321.83,384.81,320.23,382.69,317.29,382.35Z" transform="translate(-46 -169.39)" fill="#91ceaf"/><path d="M466.9,391.69c8-8.06-6.77-11.71-12.7-9.09.5-7.32-8.07-9.66-14.05-9.05,1.38-6.49-5.37-9.77-11.15-7.64-3.66,1.35-7.48,9.1-10.1,12.44,1.83-5.08-5.3-4.12-9.73-3.8-1.4-8.18-14.17-3.47-19-1.22-1.49-.11-4.5-.89-6.27-1,1.36-7-5.14-13.71-10.93-7-2.17-10-14.49-7.74-17.2,1-4.62-1.89-9.54-.77-11,4.22-3.64-1.77-8-1.54-9.8,2.81-2.74-3.35-6.2-3.48-9-.53-4.33-4.21-10-1.59-12,3.87l3.29,5.65c2.94.34,4.54,2.46,3.71,6.35l-3.71-6.35a9.62,9.62,0,0,0-3.14.2c1-5.45-2.37-9.48-8-9-.13-6.23,1.32-10.83-5.15-13.64-5.86-2.55-12.94,1.38-13.15,7.65-2.64,1.18-4.27,1.76-6.68,3.06,2-15.28-13.8-4.23-17.9-.84-2.57,2.13-18,18.23-17.42,6.07-2.83.71-4.83-.35-7.7,1.51,4.13-19.79-24.67-22.14-25.3-2.81-4.6-.91-8.41,1.1-9,6-5.35-1.6-14.39-4.42-16,4-5.44-.45-7.5,4.18-12.68,4,1.56-7.32-9.28-9.92-14.2-9.24-3-5.45-16.38-5.81-16.1,3.25-4.51,0-6,3.78-6,8-.61.51-1.93.1-2.69.31-.86.69.14,1.32-1.17,2-8.19-14.14-32.21,19.09-30.11,22.14,4.1,5.93,34.21-1.36,39.91-2.3,11.28-1.85,22.6-5.11,34.15-4s22.25,3.92,34,4c14.36.16,28.66-2.09,43-2.95,13.41-.8,28-1.85,41-5,13.44-3.21,26.63-10.87,40.87-9.09,8,1,14.51,3,23.1,3,13.15,0,26.18-3.84,39.12-3,13.55.88,28.35,1.06,41.65,4.22s24.43,5.36,38.15,4.63C480.11,397.88,471,396,466.9,391.69Z" transform="translate(-46 -169.39)" fill="#91ceaf"/><path d="M64.76,441.22q15.08-.93,30.17-1.75c27.5-1.54,54.64-2.66,82.2-3.2,120.68-2.36,243.12-2.31,363.09-17,52.69-6.45,105.92-10.83,159-12.82,40.31-1.5,81.21,2.5,121.43-.39-25.91-13.58-62.79-14.36-91.64-15.79-28.66-1.43-56.74-9.26-85.8-4-12,2.16-23,2.84-35.2-.23-15.13-3.81-20.46-1.73-34,2.25-28.24,8.33-61.66-21.19-86.87-2.38-4.09-11.81-30.19-1.41-39.4-.64-9.43.78-19.35-.07-28.62-.15.75-6.9-3.41-4.5-6.93-7.07-1.46-1.06-6.61-5.3-8.22-5.57-10.7-1.83-10.06,8.41-17.83,10-3.4,8.74-24.47,3.33-32.08,3.78-9.29.55-16.93,6.52-26.31,6.07-5.63-.28-11.93-3.1-17.55-4.25-9.21-1.87-19.52-.88-28.25-3.7-12.21-3.94-7.85-9.54-10.71-20.76-2.78,7.85-1.42,17-4.44,24.51-7.1-1.89-24.44,4.73-25-4.69-2.87.77-5.73,1.58-7.83,4-7.6-4.58.32-21.75-7-23.9-6.89-2-7.45,21.81-12,25.89-4.73-7.75-9.6-5.94-14.8-.24-4.56-4.72-13.29,2.4-18.18,3.1-5.22.75-16.75,2.76-21.24,2.05-8.54-1.36-7.43-10.84-14.78-10.1-6,.61-12,11.88-18,14.12-4.44,1.65-16.51,2.8-21,1.78-3.92-.9-4.78-3.56-9-4.07-3-.36-6.65,1.66-10,1.29-5.33-.57-10.1-7.61-13.9-8.09-5.59-.7-22.33,10.38-23,12l-1-5c-.72,2.34-2.34,6.61-4,11.65v34.37C50.05,444.5,60.51,441.49,64.76,441.22Z" transform="translate(-46 -169.39)" fill="#75c69f"/><path d="M46,422.19V589.37H1321.59v-122c-171.71-41.08-375.87-69-567.75-69C507.76,398.36,239.73,401.07,46,422.19Z" transform="translate(-46 -169.39)" fill="#c3d800"/><path d="M46,427.18V594.37H1321.59v-122c-171.71-41.08-375.87-69-567.75-69C507.76,403.36,239.73,406.06,46,427.18Z" transform="translate(-46 -169.39)" fill="#83b730"/><path d="M46,594.37H1321.59v-164c-325.45,0-949.2,15.54-1275.59,67.45Z" transform="translate(-46 -169.39)" fill="#c3d800"/><path d="M46,594.37H1321.59V437.84c-325.45,0-949.2,15.53-1275.59,67.44Z" transform="translate(-46 -169.39)" fill="#a2c900"/><path d="M721.7,529a146,146,0,0,0,.3-16.45C721.74,517.39,721.6,523,721.7,529Z" transform="translate(-46 -169.39)" fill="#d8cd00" style="mix-blend-mode:multiply"/><path d="M629,500.52c0,1.52,0,3,0,4.55C629,503.54,629,502,629,500.52Z" transform="translate(-46 -169.39)" fill="#d8cd00" style="mix-blend-mode:multiply"/><path d="M602.71,408.17l-2.71-.9C600.89,407.6,601.79,407.89,602.71,408.17Z" transform="translate(-46 -169.39)" fill="#83b730" opacity="0.4" style="mix-blend-mode:multiply"/><path d="M602.71,408.17l.29.1c-14.53,0-27.67-1.09-41,2.27-9.5,2.4-18.41,1.58-28.23.72-7.31-.64-16.75-2.67-24-1.77-4,.5-5.87,2.09-8.07,2.58-41.07,9.06-85.61,6.1-127.53,6.19-46.6.1-93.35,1.5-139.49,2-12.45.13-24.46,1.64-36.84,3-11.54,1.29-34.05-.3-43.08,6.94,5,6.77,21.43,5,29.14,5,17.75,0,35.11-.69,52.8-2,28.75-2.17,58.33-1.68,87.15-2,46.12-.46,92.51-1.74,138.32-6,34.73-3.23,68.78-6,104-6,18.69,0,37.13-1.24,55.75-1.95,15.1-.57,37.87,2.32,52-3.05a24.51,24.51,0,0,0,4.65-2C655.57,405.53,625.89,415.21,602.71,408.17Z" transform="translate(-46 -169.39)" fill="#83b730" opacity="0.4" style="mix-blend-mode:multiply"/><polygon points="232.44 153.91 228.75 250.76 241.37 250.76 234.6 153.91 232.44 153.91" fill="#fff"/><path d="M288.38,420.16H272.62a1.05,1.05,0,1,0,0,2.1h15.76a1,1,0,1,0,0-2.1Z" transform="translate(-46 -169.39)" fill="#fff"/><polygon points="234.5 153.91 234.5 250.76 241.37 250.76 234.6 153.91 234.5 153.91" fill="#c1d6d3"/><polygon points="232.1 107.47 230.63 107.65 230.31 157.3 187.39 177.84 187.88 179.24 233.65 161.04 278.29 180.44 278.79 179.04 235.16 156.39 232.1 107.47" fill="#fff"/><polygon points="153.8 183.05 150.75 254.19 161.17 254.19 155.58 183.05 153.8 183.05" fill="#fff"/><path d="M208,423.58H195a.78.78,0,1,0,0,1.54h13a.78.78,0,1,0,0-1.54Z" transform="translate(-46 -169.39)" fill="#fff"/><polygon points="155.5 183.05 155.5 254.19 161.17 254.19 155.58 183.05 155.5 183.05" fill="#c1d6d3"/><polygon points="153.52 148.94 152.31 149.08 152.04 185.55 116.64 200.63 117.04 201.65 154.8 188.29 191.62 202.54 192.04 201.51 156.04 184.88 153.52 148.94" fill="#fff"/><polygon points="322.16 191.01 319.48 253.49 328.63 253.49 323.72 191.01 322.16 191.01" fill="#fff"/><path d="M375.36,422.88H363.94a.68.68,0,1,0,0,1.35h11.42a.68.68,0,1,0,0-1.35Z" transform="translate(-46 -169.39)" fill="#fff"/><polygon points="323.65 191.01 323.65 253.49 328.63 253.49 323.72 191.01 323.65 191.01" fill="#c1d6d3"/><polygon points="321.91 161.05 320.84 161.17 320.61 193.2 289.51 206.45 289.87 207.35 323.03 195.61 355.37 208.12 355.74 207.22 324.13 192.61 321.91 161.05" fill="#fff"/><path d="M1268.85,450.52c-21.94,6.54-48.92-.51-70,4.47-17.84,4.22-36.93,4.13-55.53,4.27-34.16.27-68.24,1.25-102.36,2-34.29.72-68.76,2.22-102.92,3.22,11.08,4.33,29.39,2.19,41.77,1.8,19.37-.61,38.79-1.62,58.23-1.05,37.84,1.11,76.34,5.91,113.91,9.19-4.85,6.79-19.33,4.81-26.15,9.77,5.85,6.21,17.39,5.89,25.17,9.27-4.09,4.16-14.72,3.23-20.85,3.56-16.44.87-32.9.63-49.34,1.44-37.8,1.85-76.18-.79-113.82,4-29,3.69-56.5,11.3-85.91,12.54-21.74.92-43.22-1.13-64.91-1.82-7-.22-21.36-1.85-24.14,5.82,16.67,6.6,40.84,3.24,58.34,3.22,37.24,0,74.52-.59,111.73.76,43.38,1.56,85.86,1.76,127.11,15,15.73,5.06,32.75,4.37,49.08,5.22,23.38,1.23,46.7,1.61,70.06-.25,35.62-2.83,70.94-4.64,106.66-4.74,2.11,0,4.33.07,6.64.19V441.67c-6.07,1-12.22,2.39-16.57,2.63A143.54,143.54,0,0,0,1268.85,450.52Z" transform="translate(-46 -169.39)" fill="#83b730"/><path d="M1247,506.22c-24.83.24-49.56,4.38-74.25,6.74-10.82,1-51.19-1.85-56.71,8,5.39,2.67,11.82,4.46,16.6,7.48-33.53,7.9-72,7.19-106.64,10.92-26.18,2.82-51.88,7.06-77.72,12-12.24,2.35-52.21,5.18-59.22,18.49-6.31,12,23.77,19.72,56.38,24.47h374.69l1.46-.16V508.36C1296.78,507,1271.93,506,1247,506.22Z" transform="translate(-46 -169.39)" fill="#669b00"/><path d="M1126.27,544.47c-11.3,5.34-19.45-5.78-19.43-16.49-9.63,1.83-21.76,12.22-32.77,7-3.48-1.66-16-16.08-16.72-20.42-7.76-.39-15.83,0-23.58-.45-.35-1.39-.15-2.65-.42-4.05-5.89,1-12.77,2.08-19,1.05.5-3-1.14-7.2-.49-10.08-29,10-78.15,2.94-107.5-9.45-.25-10.6-39.85-23.05-48.3-15.26-7.63-32.55-24-1-37.17,1.77-5.63-9.28-38.73-3.83-49.52-4.46,0-1.74-.48-3.79-.43-5.55-6.5-.24-12.59,1.42-19.15,1.06-.33-1.41-.1-2.64-.37-4.06-13.88-.81-15.52,4.53-25.25-9.09-18.2,15.49-18.68-3.91-15.3-19.46-11.58,7.25-29.54,11.53-31.27,27.88a20.72,20.72,0,0,1-.15-3.86c-6.92,1.82-15.26,5.42-20.8-.37-1.63,2.33-5.94,4-7.5,6.36-1.4-2.06-4.65-3.43-6-6-6.77,6.68-22.1,12.86-21.29-3-4.54,3.41-9.69,8.35-14.44,10.14-.26-6.07,2-11.73,2.5-17.64-8.32,2-15.32,8.64-22,11.65.45-4.1-1.77-7.85-2.07-11.35-13,16.56-16.77-6.19-19.57-15.29-4.54,5.53-3.76,17.91-14.36,16.11a135.53,135.53,0,0,1-3.48-17.53,17.29,17.29,0,0,0-7,0,64.76,64.76,0,0,0-3.49,16A65.53,65.53,0,0,1,529.53,453c-3.41-3.41-6.07-8.75-7.8-13.48-4.93,5.85-10.66,15.13-17.64,17.83-3.95,1.52-7.28-2.31-10.49-1.6-4.24.93-7.68,4.8-12,5.79-3.84.89-5.86-2.15-10.81-1.3-4.12.71-10.26,3.49-14.7,4.58-7.17,1.75-14.81,6.41-18.29-2.89-10.77,13.24-22.53,6.74-24-10.42-6.22,2.06-10.79,10.08-15.91,14.72-8.41,7.62-11.65,5.48-20.17,7.88s-32,8-34.5-7.65c-6,5.95-14.77,6.29-17.58-3-3,1.46-10.2,9.24-13.62,8.94-4.52-.4-8-9.24-11.66-12-6.55,27.31-30.39,21.92-53.13,20.87-11-.51-21,2-31.2,1.53-5.88-.26-7.61-4.93-13.5-4.56-4.94.32-6.76,6.34-13.2,5.77-.52-3.32-4-6.51-4.69-8.95-14.44,7.92-13.64,18-31.57,17.91-11.88-.08-24.16.12-34.91.7-6,.32-7.38-2.72-14.63-.11C98,495.62,98.81,502,92,502c-12.65-.06-15-15.16-30.33-9.1-8.52,3.36-12.22,6.81-15.62,8.59v92.92H1137.43C1139.34,576.34,1131.35,561.08,1126.27,544.47Z" transform="translate(-46 -169.39)" fill="#f4e200"/><path d="M1124.77,578.72c-9.55-7.09-21.59-10.29-31.57-16.41-5.83-3.58-10.41-9.7-15.68-12.4-13.12-6.74-24-4.28-23.25-25-15,7.28-25.82,4.39-39.76,2.85-17.64-1.94-27.46,3.5-40.52-4.9C958,512.6,959.27,517,940.13,517c-13,0-21.49-7.94-35.32-7.42.45-12.12-17-7.08-25.5-7.5-2.32-13.64-16.56-30.79-27.56-20.75-10.47,9.54-3.82,29.86-22.17,21.39-6.05-2.8-7.23-11.63-11.59-14-6.33-3.46-13.94.95-21.18,1.19a151.94,151.94,0,0,0-28.5,3.18c0-1.79-.33-3.74-.38-5.54-8.66-1.09-16.6,3.09-25.18,2.54,3.63-16.79-16.46-8.79-24.27-4-6-9.5-16.67-16.75-22.8-27-7.54,6.48-1,17.75-6.68,25.32-4.89,6.51-14.48,9.19-12.64-2.76-9.89-1.11-18.74,3.57-28,1-.43-.13-2.59-5.87-6.92-7.22-8.45-2.64-14.62,4.28-22,4.63-15.47.75-6.28-5.38-17.78-10.71-8.18-3.79-15.63.3-18.49,9-9.36-10.51-19.62-24.51-32.4-31.23-2.21,6.5-1,13-3.52,19.21-16.16-10.42-26.73-8.89-39.11,7.5-4.22-.66-10.28-4.57-13-4.45-6.48.26-12.88,5-19.26,5.8-4.75.55-11.06-1.94-18.64.22-7.95,2.27-15.38,10.1-22.46,3.3-9,3.48-17.62,1.9-18-9.1-17.66,17.95-32.66,10.47-54.93,17.68.23-2.15-.69-5-.46-7.12a43.39,43.39,0,0,1-14.55,2.58c.15-2.13-.71-4.92-.45-7-5.27.46-10.05,3.95-14.47,7.15-4.45-10.06-10.86-3.49-14.92,3-3.15-6.33-8.1-11.61-15.23-11.61,8.43,25.83-36.89,18.48-54.59,17.42-10.15-.6-18.68-2.59-29.59.34-7.94,2.13-21.45,11.28-20.19-3.54-9.64.69-17.82,6.31-17,16.14-6.14,4.23-33.48-.31-42.56-.28-10.83,0-22.25-2.95-32.66-.33-7.5,1.89-11.27,8.88-19.49,9-5.1.06-11.67-4.23-16.51-6-7.55-2.74-16.53-5.7-23.12-2.65v90.22H1139.37C1136.27,589,1131.17,583.46,1124.77,578.72Z" transform="translate(-46 -169.39)" fill="#e8d100"/><path d="M1048.59,594.37c-8.63-10.63-53.63-16-58.58-20.25.9-.89,1.94-2.93,2.91-3.74a155.74,155.74,0,0,0-15.59-.13c3.41-4.33,8-7.3,11.37-11.68-10.77,3.2-22,5.14-29.37,14.55,8.13-9.08,13.45-24.85,20-35.82-4.57,1.72-13.74,5.14-18.89,9.12-5.88,4.54-9.2,13.66-15.45,17-5.32,2.87-22.91,8-23.15-.11-6.8-.22-9.15,6.88-14.7,7.68-.58-11.83.11-23.79-1.13-35.52-2.52,9.09,0,18.7-4.29,27.58-6.5,6.46-13.83,2.62-21.73,2.1-10-.66-23.69,5.45-23.9-9.19a11.66,11.66,0,0,0-8.9,8.91,213.77,213.77,0,0,1-.22-28.75c.56-8.7,6.67-18.6,5.81-26.69-9.54,11.54-14,26.72-17.79,41-2.13,8.08-7.29,20.8-17.85,19.55-.26-.95,0-1.79-.27-2.73-4.78.5-9.51,2.81-13.55,5.58,1.69-5.71,4.77-12.51,4.54-18.44-6.69,4.76-15.78,11.65-18.94,19.43,6.24-21.66,13.66-46.44,11.85-69.35-5.25,11.44-1.95,25.72-8.71,37.68-6.93,12.26-16.09,23.7-23.34,35.89-4.85-8.23-1.41-24.61.53-33.9,2.49-12,13.63-27.45,13.54-38.65-14.86,19.3-37.07,43.28-35.78,69.38-8.64-24.54-3.34-50.88-5.24-76.62-4.37,7-3.41,21.36-4.78,30.13-1.52,9.72-1.43,34.25-9,40.72-4.45-10.59-6-26.17-6.25-40.19a185,185,0,0,1-4.43,29.44c-5.45,22.48-6.52,4.5-19.12,10.65-.25-4.21-.06-8.6-.3-12.8a29,29,0,0,0-10.65,11.62c-2-23.16-1.54-46-1.15-69.4-10.26,18.23-3.32,41.8-10.27,60.54-2.85,7.67-6,10-13.56,11.19-2.93.45-5-1.69-8.42-1.32-2.79.32-6.38,3.23-8.63,4.16-1.7-5.12-1-10.44-1.34-15.72-5.84,3.24-11.77,10.76-14.88,17.55.37-23.25.09-46.54.06-69.8A137.23,137.23,0,0,1,624.78,537c-2.84,10.77-8,36-19,42-20.5,11.18,2-37.3,6.12-43.62-17.79,4.27-17.31,39.56-32.75,43.66-.69-12.68.28-25.51.9-38.06.43-8.57-.38-17.2,0-25.77.3-7.71,3-16.39,1.77-23.94-11.81,17.51-4.38,45.07-8,65.06-.85,4.76-5.37,33.44-15.1,25.91-5.42-4.2-2.43-24.9-2.9-31-5.58,7.78-13.6,31.14-25.65,27.8-2.08-36.45,14.26-71.07,13.9-107.51-5.71,14.09-6.56,30-10,44.72a98.91,98.91,0,0,1-11,27.18c-2.88,5-11.57,24.68-17.8,25.91-13.44,2.67-2.08-33.43-.93-41.37,2-13.82,4.66-34,0-46.64-.63,25.29-6.7,62.14-29,77.79-6.8-12.08-1.93-30.36,4-41.67,4-7.65,13.74-25.29,5.95-33.13-.77,12.28-3,14.33-10.19,23.91-7.59,10.08-10,25.08-12.76,37.21-1.75,7.74-4.17,33.7-15,24.31-6.86-6-9.08-30.61-8.17-39.23a165.62,165.62,0,0,0-9.69,41.24c-1.39.35-2.88.13-4.79-2.25-2.57-3.22-1.8-12.16-1.73-16.1-6.5,4.61-8.4,14.12-13.64,20.71-15.06-18.53-10-57.22-11.93-80.68-13.53,19.31,4.39,65.64-20.66,83.53-21.25,15.16-15.12-62.05-12-75.7-3.81,13.56-10.09,24-12.33,39.62-1.75,12.25-4.49,28.64-12.79,37.76-4.79-11.79-8.13-25.23-7.84-38.06-3.95,13.16-9,31.69-16.15,42.56-13.9-31-5.17-65-15.46-95.36-4.84,22.4,6.13,68.76-10,86.56-21.16,23.32-13.58-55.21-16.58-64.41-1.82,24.32-12.37,50.89-20.17,74.79-12.84-12.48-10.36-43.37-10.08-60.93-9.49,17.85-9.79,39.28-17.7,57.48-9.81-21.38,1.83-55.54-10.54-74.34-1.77,22.52,7.6,59.08-7.87,77.37-7.6-14.45-5-32.86-6.3-48.89-8.89,16.14-10.45,33.25-12,51.89-16.12-24.56-3.49-51.25-7.42-77.37-8.06,5.19-9.65,24.58-11.78,34.28-3.49,15.93-9,30.23-15.36,44.93-11.4-17.83,6.45-57.79-6.8-71.72-4.3,10.22-12.52,63.49-24.37,61-14.23-3-.28-51.86-10.5-61-3.74,9.56-7,59-17.89,61.44-13.47,3-13.43-48.76-16.57-56.65-6.17,16.5-6.7,31.51-7.76,48.82-15.17-7.89-7.49-37.21-20.78-48A34.33,34.33,0,0,0,46,528.91v61.35c.35,1.39.71,2.76,1.09,4.11Z" transform="translate(-46 -169.39)" fill="#edc10a" style="mix-blend-mode:multiply"/><path d="M1034,451.24c-10,0-26.54,2.62-35-1h6c-27,0-55.31-.66-80.91,3.05-21.65,3.13-44.38-3.09-66.14-3.05-17.34,0-34.69-1.9-52.17-1-16.3.82-32.43,3.62-48.52,5,23.31,6.23,50.53,3.05,74.69,3.05,27.89,0,55.34.17,83,3,33.4,3.41,65.92-.08,99.25,0,8.9,0,71.06,5.12,71.62-6.83C1069.47,449.19,1051,451.24,1034,451.24Z" transform="translate(-46 -169.39)" fill="#669b00" style="mix-blend-mode:multiply"/><path d="M1156.27,502.77c3.12,25.3,1.86,51.3,3.09,76.74q.36,7.49.38,14.86h4.8c-.15-4.61-.42-9.28-.89-14.11-1.36-14.3-3.18-28.72-3.07-42.72.08-10.14,1.88-30.67-4.79-39.74Z" transform="translate(-46 -169.39)" fill="#ceb500"/><path d="M1166.68,582c1.43-4.55,2.45-9.23,2.1-13.35Z" transform="translate(-46 -169.39)" fill="#e8d100"/><path d="M1230.75,580.4c3.77-10.91,7.89-21.74,12-32.58C1235.88,558.17,1229.65,569.13,1230.75,580.4Z" transform="translate(-46 -169.39)" fill="#e8d100"/><path d="M1167.11,594.37h26.82c-1-15.17-1.32-31.89,1-46.9s10.27-29.39,12.61-43.69c-16,20.21-27.87,45.29-35.83,70.12A149,149,0,0,0,1167.11,594.37Z" transform="translate(-46 -169.39)" fill="#e8d100"/><path d="M1159.8,555.46c-2.18-21.65-17.64-46.78-31-63.51-8.79-11-19.72-19.69-31-28-7.82-5.74-21.56-17.26-31-19.26-9.91-2.11-9.09,2.78-13.23,11-4.39,8.7-15.77,18.78-14.6,28.88,5.36-1.73,10-10.74,12.62-15.89,5.63-11.13,9-14.09,22.18-8.75,15.09,6.12,26.69,19.7,36,32.49,21.09,29,28.33,66.27,33.45,101.92h21.57l1.94-12.34c-1.21,3.84-2.72,7.57-4,10.78C1158.76,584.55,1160.91,566.55,1159.8,555.46Z" transform="translate(-46 -169.39)" fill="#e8d100"/><path d="M1255.53,527.68c-3.16,6.37-8.12,13.11-12.78,20.14-4.11,10.84-8.23,21.67-12,32.58-1.1-11.27,5.13-22.23,12-32.58,5.66-14.92,11.31-29.87,16-45.1,7.71-24.93,16.26-62.1,7.75-87.9-3.56,7.14-2.47,19.59-4.76,28.13-5,18.7-9.69,37.26-19,54.56-10.06,18.74-26.88,32.15-35.82,51.93-5.39,11.92-5.49,35.89-12.83,44.93h55.39c4.49-11.19,9.61-22.19,13.26-32.64,6-17.15,9.63-35.28,13-53.06,2.16-11.59,6.24-24,4.8-35.88C1271.08,489.08,1264.2,510.17,1255.53,527.68Z" transform="translate(-46 -169.39)" fill="#e8d100"/><path d="M1300.91,393.83c1.58-.73,4.1-.35,6-.47-2.31-7.31-13.5-8.26-18.79-10.15,2-1.69,6.23-1.7,3.78-4.41-3.88-4.29-13.54,1-18,.74,1.58-1.5,6.43-3.67,4-5.78-3.53-3-15.34,2.45-19.06,3.75,1.47-1.58,3.53-3.63,4-5.7-6.7.32-15.67,7.15-18.45,13.74.61-3.07,2.93-6,2.62-9.16-5.75,2.79-12.89,9-14.29,16a26.33,26.33,0,0,0,.34-7.1c-5.75,1.63-6.88,10.79-10.45,15,.36-2.55,1.89-6.37.61-8.83-3.88,3.76-9.43,10-9.32,16.18,0-2.52.07-5.09-.06-7.59-6.1.61-7.12,11.22-8.33,16.28-.46-2.27-.46-5.68-1-8.11-4.75.81-7.4,11.22-8,15.71-.51-2.43-.26-6.36-1.7-8.37-6.32,7.93-6.48,16.4-6.5,26.15l-1.13-2.05c-5.05,7.29.21,10.59,3,17.15-2.63-1.57-5.8-6.6-6.74-1.73s5.24,7.39,5.22,11.52c-2.82-.36-4.28-4.34-7-4,.13,5.36,4.59,16.38,10.81,15.83a6,6,0,0,1,.06-1.05c0,6.27.33,14.36,8.2,11.63,6.08-2.1,16.17-13.7,15.11-21.09-2.92-.29-6.54,1.87-8.88,3.67,4.42-3.25,15.29-14.59,14.92-20.86-3.69.45-7.25,3-10.86,3.57,1.69-2.77,9.19-7,8.59-10.51-2.32-.25-4.49.81-6.71,1.1,2.85-3.37,8.57-6.2,12.34-8.57,3-1.86,8.71-3,10.58-6-2.7-2.19-8-.7-11.23-1,6.46-3.63,15-5.22,21.48-9,6.19-3.63-3.15-6.08-6.72-7.28a216.68,216.68,0,0,1,25.87-2.91c.66-4.12-4.77-7.92-7.76-9.37,7.47-.44,15.11,3.4,22.45,2.42.52-3.14-1.22-6.3-3.08-8.47,1.9,1.73,5.53,3,8,4.53s5.45,6,8.62,5.57c.55-4.24-1.53-8.25-4.15-11.24,4,3.3,8.58,5.92,12.5,9.36,2.42,2.12,4.73,7.39,8.23,6.79C1310.92,403.24,1304.92,397.46,1300.91,393.83Z" transform="translate(-46 -169.39)" fill="#e8d100"/><path d="M1197.6,498.16c0-4.08.63-8.82,0-12.85-.42-2.77-4.11-11.1-7.35-6.74l2.83.61c0,29.1.47,57.33,3.83,86.15,1.14,9.73,2.36,19.49,3.59,29.26h2.06c-3.22-21.72-2.15-43.54-3.8-65.72C1198,518.73,1197.6,508.57,1197.6,498.16Z" transform="translate(-46 -169.39)" fill="#e8d100"/><path d="M1114.47,442.67c-.86-2.3,2.37-5.1.81-7.59s-2.46,1-3.74,2.47c.33-4.27,2.85-7.28-1.71-10.21l-.27,1.39c-2-5.42-3.84-10.11-9.3-13.11-.46,1.44.49,3.57.68,5-1.3-2.36-5-7.57-8.09-7,.16,1.48.86,3.38,1,4.74-1.77-2.54-4.56-8.22-8.39-7.2.44,1.42,1,2.83,1.53,4.24-1.22-3.49-5.85-5.71-9-6.94-.27,1.66,1.44,3.45,2.18,4.79-3-1.53-5.59-6.38-9.41-6a14.66,14.66,0,0,0,1.66,3.88c-2.29-3.61-7.89-5.46-12-5.73.46,1.82,2.47,2.94,3.47,4.51-3-3.05-9.88-4.85-14-3.53.69,1.05,2.36,1.73,3.58,2.29-2.52.1-10.81-.31-12.33,2.16-1.06,1.72,2.33,1.85,3.6,2.33-2.64,1.15-9.6.35-11.07,3.6-.94,2.06,1.62,1.12,3.19,1.61-2.82,2.24-9.42,5.26-9.32,9.85,1.21-.37,2.66-1.14,3.76-1.09-1.68,2.91-4.14,7.47-2.23,10.86,2.25-.44,2.57-3.89,3.6-5.61,1.68-2.79,3.91-5.27,5.67-8-1,2.25-1.41,4.94-.21,7.18,2-.49,2.87-3.56,4.08-5s3.16-2.93,4-4.32c-.69,1.63-1.09,3.78-.14,5.41,4.66-1.09,8.51-4.93,13.14-6.36-1.52,1.48-4,4.8-2.8,6.95a152.6,152.6,0,0,1,16.3-4.15c-1.92,1.47-7.08,4.91-2.58,5.56,4.67.66,10.21-.37,14.87.21-1.92.89-5.42,1.24-6.61,3.06,1.75,1.25,5.46.61,7.65,1,2.78.48,6.83.78,9.25,2-1.41.33-2.94.22-4.3.88.36,2.11,5.78,2.77,7.37,3.94-2.31.5-5-.14-7.33.43,1.07,3.58,10,7.47,13.34,8.29-1.79-.48-4.43-.88-6.15-.06.87,4.35,9.38,8.56,13.5,8.37,5.33-.23,3.87-4.81,2.59-8.3a3.27,3.27,0,0,1,.25.57c3.89-1.08,4.34-8.22,3.32-11.23C1116.18,439.29,1116.11,441.83,1114.47,442.67Z" transform="translate(-46 -169.39)" fill="#e8d100"/><path d="M1114.33,450.69l1.59-1c-2.86-1.7-3.39,3.76-3.08,5.4.45,2.38,1.79,4.88,2.63,7.16,2.13,5.79,4,11.54,5.59,17.35,3.77,13.55,9.34,26.18,11.61,40,1.16,7,2.13,14.17,4.18,20.95.92,3.05,2.12,6,2.59,9.13.35,2.29-1,7.81,3.1,5.4-4.91-18.23-8.64-37.08-12.89-55.53C1125.79,482.72,1120.29,466.89,1114.33,450.69Z" transform="translate(-46 -169.39)" fill="#e8d100"/><path d="M1160.12,326.12c0,.59-.09,1.18-.15,1.76A11.82,11.82,0,0,0,1160.12,326.12Z" transform="translate(-46 -169.39)" fill="#e8d100"/><path d="M1145.43,368.28a7.56,7.56,0,0,0-.77-1.94C1144.92,367,1145.18,367.64,1145.43,368.28Z" transform="translate(-46 -169.39)" fill="#e8d100"/><path d="M1166.52,466.52c2.85-6.48,6.23-13,6-20.2-3.1-.65-5.36-1.32-8.27.56,1.33-4.09,12.21-30.12-.24-20.11,2.16-4.89,8.59-30.93-4-18.74,1.82-5.58,7.23-13.21,6.56-19.17-.56-5-3.63-9.22-6.59-1.94,2.4-5.89,5-11.79,7.08-17.75-3.43-1.51-5.24-1.56-7.94,1.58a78.71,78.71,0,0,0,9.69-18.77c-3.49-.56-4-1.8-7.57.66,2.36-5.43,8.14-14.68,5.91-19.55-1,.28-2.3.57-3.23.81.21-6.71,9.72-21.35-.71-24.28-2.87,5-2.74,11-3.17,16.5a11.82,11.82,0,0,1-.15,1.76c.06-.58.11-1.17.15-1.76.05-2.78-1.17-3.86-3.43-5.5-3,4.94-4.17,10.77-1.86,16.1-2-5.1-6-7.31-9-2.82-2.65,3.94,1.18,12.82,2.64,16.56-1.35-2.26-2.75-1.95-4.62-3.44-4.18,5.91-1.59,13.16.86,19.32a7.56,7.56,0,0,1,.77,1.94c-.25-.64-.51-1.28-.77-1.94-1.06-1.88-2.82-3-5-4.11-5,7.79,1.29,16.59,2,24.78-1.37-3.61-3.88-7-7.7-8.14-4,6.11-.63,14.89,3.33,20.94a6.8,6.8,0,0,1,2.38,3.24,36.9,36.9,0,0,1-2.38-3.24,36.08,36.08,0,0,0-3.64-2.09c-3.85,6.36,5.91,15.61,8.8,21.21-1.42-.82-3.66-1-5.15-1.79-1.88,8.84,6.3,17.28,7.4,25.66-1.54-2.54-2.59-1.86-4.81-3.51-3.56,7.48,1.55,15.28,2.08,22.73-2.09-2-4.45-2.2-6.82-3.57.69,7.14,3.19,16.91,9.09,21.48l-3.45.7c2.67,8.44,6.09,20.53,15.82,23.35,11.94,3.46,23.07-17.57,12.82-23.48C1173.55,475.86,1177.78,459.16,1166.52,466.52Z" transform="translate(-46 -169.39)" fill="#e8d100"/><path d="M1137.29,399.81a36.9,36.9,0,0,0,2.38,3.24A6.8,6.8,0,0,0,1137.29,399.81Z" transform="translate(-46 -169.39)" fill="#e8d100"/><path d="M1166.46,466.52c2.84-6.48,6.23-13,6-20.2-3.1-.65-5.36-1.32-8.27.56,1.33-4.09,12.21-30.12-.24-20.11,2.16-4.89,8.6-30.93-4-18.74,1.83-5.58,7.23-13.21,6.56-19.17-.56-5-3.63-9.22-6.59-1.94,2.4-5.89,5-11.79,7.08-17.75-3.43-1.51-5.24-1.56-7.94,1.58a78.71,78.71,0,0,0,9.69-18.77c-3.49-.56-4-1.8-7.57.66,2.36-5.43,8.15-14.68,5.91-19.55-1,.28-2.29.57-3.23.81.21-6.71,9.72-21.35-.71-24.28-2.87,5-2.74,11-3.17,16.5a13.33,13.33,0,0,1-.15,1.76c.06-.58.11-1.17.15-1.76,0-1.37-3.91,42.2-5.06,86.38-1.18,45.25.46,91.16,1.54,91.48,12,3.46,23.08-17.57,12.84-23.48C1173.49,475.86,1177.72,459.16,1166.46,466.52Z" transform="translate(-46 -169.39)" fill="#ceb500"/><path d="M1292,378.8c-3.88-4.29-13.54,1-18,.74,1.58-1.5,6.43-3.67,4-5.78-3.53-3-15.34,2.45-19.06,3.75,1.47-1.58,3.53-3.63,4-5.7-6.7.32-15.67,7.15-18.45,13.74.61-3.07,2.93-6,2.62-9.16-5.75,2.79-12.89,9-14.29,16a26.33,26.33,0,0,0,.34-7.1c-5.75,1.63-6.88,10.79-10.45,15,.36-2.55,1.89-6.37.61-8.83-3.88,3.76-9.43,10-9.32,16.18,0-2.52.07-5.09-.06-7.59-6.1.61-7.12,11.22-8.33,16.28-.46-2.27-.46-5.68-1-8.11-4.75.81-7.4,11.22-8,15.71-.51-2.43-.26-6.36-1.7-8.37-6.32,7.93-6.48,16.4-6.5,26.15l-1.13-2.05c-5.05,7.29.21,10.59,3,17.15-2.63-1.57-5.8-6.6-6.74-1.73s5.24,7.39,5.22,11.52c-2.82-.36-4.28-4.34-7-4,.13,5.36,4.27,17.34,10.5,16.79,0-.29.39.84.5,2.27,1.19-.32,4.18-12,5.3-18.11,1.54-8.39,3.07-16.89,5.86-25,5.73-16.63,16.52-28.73,31.31-38.13,13.59-8.65,28.18-14.6,44.45-14.21,8.16.19,17.27,1,25.42,3.72-4.14-4.28-12.39-5.2-16.72-6.74C1290.2,381.52,1294.4,381.51,1292,378.8Z" transform="translate(-46 -169.39)" fill="#ceb500"/></g></g></svg>